<?xml version="1.0" encoding="UTF-8"?>
<svg id="Layer_2" data-name="Layer 2" xmlns="http://www.w3.org/2000/svg" viewBox="0 0 180.72 204.75">
  <defs>
    <style>
      .cls-1 {
        fill: #231f20;
      }

      .cls-2 {
        fill: none;
        stroke: #231f20;
        stroke-miterlimit: 10;
        stroke-width: 5px;
      }
    </style>
  </defs>
  <g id="Layer_1-2" data-name="Layer 1">
    <path class="cls-1" d="m102.81,142.09c-8.3-3.2-13.38-11.55-14.86-20.02-1.61-9.24,1.72-18.55,7.68-25.62,6.72-7.96,16.4-13.75,26.58-15.94,5.3-1.14,11.32-1.16,16.14,1.6,3.83,2.19,7.06,6.19,7.59,10.67.61,5.22-3.05,9.26-6.67,12.5-4.32,3.86-9.17,7.11-14.34,9.72-2.46,1.24-4.99,2.32-7.59,3.22-2.84.99-5.81,1.93-8.85,1.92-4.91-.01-8.36-3.38-9.27-8.09s1.65-9.19,5.11-12.18,8.02-4.49,12.55-4.53c9.08-.09,18.51,5.49,21.03,14.57,2.76,9.94-6.6,19.21-15.15,22.5-8.06,3.1-17.81,2.82-24.79-2.68s-10.07-14.36-8.92-22.68,7.59-14.99,15.87-17.32c8.99-2.54,18.63-.53,26.19,4.83,8.25,5.86,13.71,15.14,16.85,24.61,1.69,5.11,3.65,11.25,1.91,16.57-1.22,3.74-4.5,6.35-8.14,7.78-8.6,3.39-18.51,1.94-27.14-.57-18.91-5.48-35.28-19.13-44.02-36.77-4.56-9.21-8.41-21.43-2.41-30.84,4.62-7.25,13.68-10.38,21.88-11.68,8.92-1.42,18.34-.82,27.11,1.23s17.15,5.61,23.12,12.25c2.85,3.17,4.87,7.04,5.85,11.22,1.18,5.04.64,10.27-.93,15.16-3.36,10.52-11.05,19.15-19.49,25.98-8.96,7.25-19.38,12.79-30.38,16.22-5.22,1.63-11,3.01-16.46,1.83-4.95-1.07-8.56-4.3-10.87-8.72s-3.26-9.28-3.8-14.08c-.6-5.36-.64-10.78-.08-16.15,1.07-10.35,4.58-20.55,10.71-29,11.06-15.25,33.25-23.56,51-15.25,18.15,8.5,23.86,30.3,22.66,48.78-1.39,21.45-11.07,42.47-25.75,58.05-1.87,1.99-3.83,3.9-5.87,5.72s-4.03,3.6-6.51,4.5c-4.72,1.71-7.97-1.91-10.02-5.74-1.28-2.39-2.2-4.96-3.12-7.51-1.1-3.01-2.11-6.06-3.05-9.12-1.9-6.21-3.47-12.52-4.7-18.89-2.3-11.87-3.57-24.09-3.17-36.19.35-10.71,2.18-21.7,7.24-31.27,4.43-8.38,11.17-15.09,20.15-18.4,7.99-2.95,17.34-3.47,24.95.61,9.44,5.07,12.67,15.74,14.94,25.52,2.81,12.08,4.71,25.08.74,37.13-6.08,18.44-25.45,30.47-44.3,31.49-21.97,1.18-43.11-10.55-57.38-26.65-3.61-4.07-6.9-8.73-8.4-14.03-1.23-4.36-1.05-8.94.65-13.05,3.42-8.25,11.83-13.76,19.9-16.79,9.43-3.55,19.74-4.2,29.71-3.29s20.78,4.05,29.95,9.18,16.88,12.1,22.46,20.84,8.81,18.3,9.57,28.33c.74,9.85-.96,19.98-5.71,28.71-4.51,8.29-11.48,15.07-19.69,19.67s-17.47,6.87-26.78,6.1-17.64-4.75-24.46-10.59c-14.52-12.41-21.98-31.67-24.79-50.14-2.87-18.86-1.43-42.74,15.63-54.78,9.01-6.36,20.29-9.22,30.92-11.55,9.63-2.11,19.9-3.45,29.7-1.68,4.75.86,9.32,2.45,13.37,5.1,4.34,2.83,7.69,6.82,10.18,11.33,2.77,5.02,4.53,10.51,6.06,16.01,1.76,6.32,3.12,12.74,4.09,19.23s1.56,12.72,1.58,19.1c.01,5.38-.49,11.05-2.86,15.96-4.19,8.68-13.01,12.65-22.11,14.09-10.43,1.64-21.35.24-31.68-1.45-12.1-1.98-24.02-5.06-35.56-9.19s-22.71-9.14-33.09-15.45c-4.1-2.49-8.41-5.6-10.33-10.17-2.3-5.46-.31-11.73,1.5-17.03,6.13-17.91,18.41-33.53,33.65-44.63,15.36-11.19,33.86-18.27,52.91-19.19,9.65-.47,19.42.55,28.6,3.62,8.7,2.91,17.4,7.86,22.77,15.51,2.77,3.95,4.65,8.53,5.19,13.34.6,5.33-.25,10.64-1.99,15.69-3.6,10.41-10.78,19.26-18.82,26.61-16.28,14.9-37.45,24.68-59.38,27.3-24.84,2.97-49.99-3.76-74.66,1.62-3.14.68-1.81,5.51,1.33,4.82,13.58-2.96,27.58-2.04,41.35-1.27s26.68,1.13,39.89-1.37c23.25-4.4,45.78-16.46,61.6-34.17,7.99-8.95,14.44-19.94,15.7-32.05,1.16-11.14-3.28-21.91-11.48-29.43-7.76-7.12-17.92-11.44-28.15-13.55-10.29-2.13-20.89-2.21-31.27-.73-20.46,2.92-39.88,12.46-55.16,26.3-7.61,6.89-14.23,14.94-19.38,23.82-2.62,4.51-4.85,9.25-6.68,14.14-2.21,5.9-4.24,12.35-3.21,18.7s5.18,10.63,9.97,14.11,10.66,6.43,16.18,9.14c11.73,5.76,24.02,10.43,36.63,13.87s25.37,5.78,38.27,6.59c10.24.65,21.38-.1,30.5-5.26,4.56-2.58,8.45-6.4,10.89-11.06,2.82-5.4,3.77-11.52,3.9-17.55.14-6.74-.55-13.53-1.47-20.2-.96-6.97-2.37-13.88-4.24-20.67-3.22-11.72-7.87-23.57-18.37-30.59-8.94-5.98-20.19-7.27-30.69-6.57-11.31.75-22.74,3.41-33.44,7.11-5.78,1.99-11.45,4.54-16.35,8.25-4.53,3.43-8.3,7.72-11.08,12.68-5.43,9.68-7.14,21.09-6.98,32.07s1.91,21.18,5.11,31.23c6.18,19.39,18.57,38.32,38.48,45.49s42.52-.81,56.01-16.36c7.2-8.3,11.44-18.46,12.72-29.34,1.3-11.04-.67-22.34-5-32.52-4.33-10.19-11.2-19.15-19.92-25.97-9.11-7.13-19.85-12.01-31.14-14.48s-22.95-2.85-34.05-.44c-9.72,2.11-19.74,6.84-26.23,14.57-3.09,3.68-5.4,8.03-6.14,12.82-.92,5.96.43,11.81,3.22,17.11s7,10.13,11.35,14.38,9.01,7.98,14.03,11.26c9.99,6.52,21.37,10.92,33.26,12.18,10.94,1.16,21.94-.8,31.83-5.59s17.95-11.98,23.16-21.26c6.42-11.43,6.82-24.63,4.87-37.32-.98-6.37-2.34-12.8-4.34-18.93-1.84-5.66-4.49-11.21-8.75-15.47-7.09-7.08-17.36-9.19-27.02-7.78s-19.32,6.62-25.61,14.41c-7.52,9.31-11.2,20.77-12.7,32.51-1.58,12.41-.73,25.07.99,37.41,1.9,13.63,5.32,27.05,10.18,39.93,1.9,5.03,4.16,10.59,8.94,13.55,5.76,3.57,11.92.55,16.57-3.34,8.92-7.47,16.4-16.85,22.09-26.98,10.93-19.44,16.44-43.76,10.34-65.65-2.82-10.12-8.35-19.44-16.9-25.72s-19.67-8.33-30.16-6.88-20.74,6.42-28.24,14.03c-8.07,8.19-13.24,18.93-15.56,30.13s-2.39,23,.71,33.78c1.5,5.21,4.05,10.43,8.37,13.86,4.95,3.94,11.24,4.97,17.4,4.25s12.28-2.76,18.06-5.16,11.44-5.36,16.7-8.85c10.07-6.69,19.39-15.22,25.13-26,5.4-10.14,7.11-22.16,1.66-32.66-4.59-8.84-13.36-14.48-22.48-17.8s-19.77-4.73-29.72-4.2-20.01,2.83-27.55,9.3c-3.84,3.29-6.65,7.81-7.78,12.75-1.52,6.62-.33,13.56,1.83,19.89,3.5,10.29,9.43,19.67,17,27.45s16.64,13.82,26.64,17.89,20.48,6.22,30.77,4.6c4.8-.76,9.62-2.57,13.23-5.91,4.35-4.02,5.76-9.83,5.04-15.58-.75-5.96-2.68-11.81-5.11-17.28-2.3-5.17-5.33-10.02-9.09-14.26-7.14-8.03-17.01-13.15-27.85-13.26-10.11-.1-20.58,4.3-25.87,13.26s-4.38,19.51.24,28.04c4.86,8.98,14.11,14.31,24.27,14.46s20.63-4.75,26.81-13.07c3.9-5.24,5.85-11.76,3.91-18.17-1.65-5.47-5.38-10.08-10.1-13.22-8.61-5.72-20.78-6.37-29.43-.38-4.73,3.28-8.34,8.21-8.95,14.04-.57,5.41,1.86,11.04,6.31,14.19,5.52,3.91,12.78,2.19,18.63.11s11.59-4.98,16.75-8.57,10.36-7.55,13.24-12.93,2.38-11.06-.54-16.04-7.68-8.38-13.16-9.75c-6.33-1.58-13.06-.67-19.17,1.37-10.69,3.57-20.51,10.33-26.95,19.65-5.82,8.42-8.1,18.73-5.71,28.74s8.66,17.96,17.95,21.54c1.26.49,2.74-.54,3.08-1.75.39-1.41-.48-2.59-1.75-3.08h0Z"/>
    <line class="cls-2" x1="1.89" y1="203.12" x2="173.48" y2="5.39"/>
    <path class="cls-1" d="m166.82,14.46c.16-.97.35-1.93.6-2.89.12-.48.26-.96.41-1.43.08-.23.16-.47.24-.7.03-.09.06-.17.1-.26.16-.42.14-.08,0,0,.11-.07.24-.53.31-.66.11-.21.22-.42.34-.63s.24-.41.37-.6c.06-.1.13-.19.2-.29.19-.28.04.02-.07.08.16-.09.33-.39.46-.53.16-.17.33-.34.5-.49.09-.08.18-.15.27-.23.2-.17.06-.19-.09.07.1-.17.53-.35.69-.45.14-.08.72-.34.28-.17.27-.1.54-.19.82-.26.14-.03.28-.06.42-.09-.11.02-.49.02-.03.02.14,0,.29,0,.43,0,.47-.02-.2-.08.08,0,.01,0,.65.19.66.17-.05.06-.44-.23-.1-.04.1.06.21.12.32.18.39.2,0-.04-.06-.08.09.04.21.18.27.24.03.03.25.26.25.26-.04.02-.31-.46-.02,0,.06.1.11.21.17.31.14.24-.1-.17-.08-.19-.05.04.14.29.1.34.03-.03-.01-.5-.02-.09,0,.03.03.35,0,.4.14-.2.09-.35,0-.08-.04.12-.07.26-.11.38-.12.44.13-.18-.02.05s-.28.47-.42.69.06-.08.08-.11c-.1.1-.18.21-.28.3-.2.2-.41.39-.62.57-.35.31-.07.05,0,0-.14.1-.29.2-.43.3-2.39,1.61-4.97,2.97-7.45,4.43-1.13.66-1.63,2.28-.9,3.42s2.21,1.61,3.42.9c1.34-.79,2.68-1.57,4.01-2.36,1.24-.73,2.52-1.41,3.7-2.24,2.63-1.86,4.93-5.04,3.69-8.41s-4.79-4.85-8.18-4.15c-2.79.58-5.11,2.67-6.53,5.07s-2.11,5.17-2.57,7.9c-.22,1.28.34,2.75,1.75,3.08,1.21.28,2.84-.37,3.08-1.75h0Z"/>
    <path class="cls-1" d="m175.11,6.86c3.22,0,3.22-5,0-5s-3.22,5,0,5h0Z"/>
  </g>
</svg>