<?xml version="1.0" encoding="UTF-8"?>
<svg id="Layer_2" data-name="Layer 2" xmlns="http://www.w3.org/2000/svg" viewBox="0 0 685.79 956.07">
  <defs>
    <style>
      .cls-1 {
        fill: #231f20;
      }

      .cls-2 {
        fill: #662d91;
      }

      .cls-2, .cls-3, .cls-4, .cls-5 {
        stroke: #231f20;
        stroke-miterlimit: 10;
      }

      .cls-2, .cls-5 {
        stroke-width: 7px;
      }

      .cls-3 {
        fill: #fff;
      }

      .cls-3, .cls-4 {
        stroke-width: 6px;
      }

      .cls-4 {
        fill: #754c29;
      }

      .cls-5 {
        fill: none;
      }
    </style>
  </defs>
  <g id="tid">
    <path class="cls-2" d="m271.22,743.51h192.48v-346.75c0-25.36-10.43-49.89-29.56-66.55-15.19-13.22-31.2-36.89-34.48-78.7v-104.02h-58.98v104.02s4.84,70.24-35.84,91.55c-18.15,9.51-29.01,28.84-29.27,49.33l-4.35,351.12Z"/>
  </g>
  <g id="mand">
    <rect class="cls-3" x="275.24" y="418.63" width="188.46" height="197.18"/>
    <g>
      <path class="cls-1" d="m316.39,458.35c2.3-.43,4.43-.57,6.38-.44,1.95.13,3.63.61,5.04,1.43,1.42.82,2.52,2.04,3.31,3.64.79,1.6,1.19,3.67,1.19,6.19,0,2.52-.48,4.84-1.45,6.96-.97,2.12-2.27,3.98-3.92,5.59-1.65,1.61-3.54,2.96-5.68,4.05-2.14,1.09-4.4,1.86-6.79,2.32-4.96.96-7.43,1.5-12.36,2.68-1.37,6.9-2.06,10.35-3.42,17.27-3.95,1-5.92,1.53-9.84,2.67,3.09-16.12,6.2-32.24,9.34-48.36,7.24-1.84,10.89-2.65,18.2-4.01Zm-2.43,22.02c2.56-.5,4.57-1.51,6.05-3.07,1.47-1.56,2.21-3.7,2.21-6.44,0-1.15-.2-2.07-.61-2.75-.41-.68-.95-1.17-1.63-1.45-.68-.29-1.44-.44-2.27-.46s-1.7.06-2.59.23c-3.43.66-5.14,1.01-8.55,1.77-1.12,5.74-1.68,8.62-2.8,14.37,4.07-.95,6.11-1.39,10.2-2.19Z"/>
      <path class="cls-1" d="m347.09,466.94c-2.37,11.27-4.74,22.54-7.11,33.81-3.67.38-5.5.59-9.15,1.09,2.34-11.35,4.68-22.69,7.02-34.03,3.69-.41,5.54-.58,9.24-.87Zm-8.2-4.38c.67-3.07,1.01-4.61,1.68-7.68,3.69-.37,5.54-.53,9.24-.78-.67,3.05-1.01,4.57-1.68,7.63-3.7.27-5.55.44-9.24.83Z"/>
      <path class="cls-1" d="m363.28,466.14c-.41,1.86-.62,2.79-1.04,4.64.05,0,.08,0,.13,0,2.98-3.75,6.89-5.65,11.73-5.57,6.52.1,9.78,3.3,9.78,9.24,0,.34-.04.78-.13,1.31-.09.53-.18,1.07-.29,1.62-.11.55-.22,1.07-.32,1.56-.11.49-.18.88-.23,1.18-1.66,7.7-2.49,11.55-4.15,19.28-3.68-.12-5.52-.15-9.2-.15,1.63-7.78,2.45-11.66,4.08-19.41.09-.51.2-1.19.36-2.05.15-.85.23-1.51.23-1.99,0-.98-.46-1.8-1.39-2.46-.93-.65-1.93-.98-3.01-.98-1.38,0-2.61.27-3.66.82-1.06.55-1.97,1.26-2.72,2.13-.76.87-1.38,1.87-1.88,3-.5,1.13-.87,2.27-1.13,3.43-1.5,7.1-2.25,10.66-3.76,17.79-3.65.16-5.48.27-9.13.55,2.3-11.21,4.61-22.41,6.92-33.62,3.52-.18,5.28-.25,8.81-.32Z"/>
      <path class="cls-1" d="m389.8,478.56c.88-2.44,2.16-4.54,3.81-6.28,1.66-1.74,3.67-3.05,6.04-3.89,2.37-.84,5.03-1.08,7.99-.68,2.27.3,4.36.9,6.27,1.77,1.91.87,3.54,2.01,4.91,3.41,1.37,1.39,2.43,3.04,3.17,4.93.75,1.89,1.12,4.04,1.12,6.43,0,2.91-.44,5.55-1.31,7.94-.87,2.38-2.14,4.37-3.81,5.96-1.67,1.6-3.69,2.74-6.07,3.46-2.38.72-5.09.88-8.14.51-4.64-.56-8.36-2.08-11.14-4.67-2.78-2.6-4.17-6.24-4.17-10.99,0-2.82.44-5.46,1.33-7.9Zm8.27,11.51c.28.92.7,1.76,1.26,2.5.56.74,1.25,1.36,2.06,1.86.82.5,1.76.81,2.84.94,1.72.21,3.19-.06,4.41-.81,1.22-.75,2.23-1.76,3.02-3.03.79-1.27,1.38-2.69,1.77-4.26.39-1.57.58-3.05.58-4.46,0-2.22-.5-4.08-1.51-5.56-1.01-1.48-2.73-2.4-5.18-2.72-1.67-.22-3.13.06-4.35.84-1.22.78-2.23,1.81-3,3.1-.78,1.29-1.36,2.71-1.74,4.28-.39,1.57-.58,3.05-.58,4.47,0,.99.14,1.94.42,2.86Z"/>
      <path class="cls-1" d="m450.08,477.55c-.55,2.28-.83,3.42-1.38,5.7-2.54-.72-3.82-1.07-6.37-1.74-1.34,6.25-2.01,9.37-3.35,15.64-.08.32-.15.62-.19.88-.04.27-.06.47-.06.59,0,.6.1,1.08.29,1.45.19.37.43.67.73.92.29.24.62.42.98.54.36.11.71.21,1.04.3,1.1.28,2.17.5,3.22.66-.61,2.63-.91,3.95-1.52,6.59-.93-.16-1.85-.33-2.78-.5-.93-.17-1.88-.38-2.85-.61-1.06-.26-2.1-.6-3.14-1.04-1.04-.43-1.97-.98-2.8-1.66-.83-.67-1.49-1.49-1.97-2.45-.49-.96-.69-2.14-.67-3.48,0-.42.04-.9.13-1.42.08-.52.19-1.06.32-1.63,1.48-6.79,2.22-10.19,3.69-16.96-2.37-.54-3.55-.79-5.92-1.28.56-2.32.84-3.48,1.4-5.8,2.32.49,3.48.74,5.79,1.28.81-3.84,1.22-5.76,2.03-9.59,3.6.86,5.4,1.32,8.98,2.3-.81,3.81-1.21,5.71-2.02,9.53,2.58.68,3.86,1.04,6.43,1.79Z"/>
      <path class="cls-1" d="m326.39,533.66c4.18,10.32,8.34,20.65,12.49,30.99.05,0,.08,0,.13-.01,2.19-11.07,4.39-22.15,6.59-33.22,3.72-.31,5.59-.43,9.32-.62-3.27,15.49-6.53,30.98-9.77,46.47-4.06.34-6.09.55-10.13,1.04-4.19-10.12-8.39-20.24-12.6-30.35-.05,0-.08.01-.13.02-2.18,11.1-4.36,22.2-6.53,33.3-3.74.71-5.6,1.09-9.31,1.92,3.17-15.93,6.36-31.86,9.57-47.78,4.14-.78,6.22-1.13,10.39-1.76Z"/>
      <path class="cls-1" d="m356.25,555.14c.88-2.54,2.16-4.79,3.82-6.73,1.66-1.94,3.68-3.47,6.06-4.59,2.38-1.12,5.06-1.67,8.04-1.62,2.29.04,4.4.39,6.32,1.04,1.92.65,3.57,1.6,4.95,2.83,1.38,1.23,2.45,2.76,3.2,4.56.75,1.8,1.13,3.91,1.13,6.3,0,2.91-.44,5.6-1.33,8.09-.88,2.49-2.17,4.62-3.85,6.41-1.68,1.79-3.72,3.18-6.12,4.17-2.4.99-5.13,1.47-8.2,1.46-4.67-.01-8.39-1.1-11.18-3.38s-4.18-5.76-4.18-10.5c0-2.82.44-5.51,1.33-8.05Zm8.29,10.55c.28.89.7,1.68,1.26,2.36.56.68,1.25,1.22,2.07,1.62.82.4,1.77.6,2.85.61,1.73,0,3.21-.43,4.44-1.33,1.23-.89,2.25-2.02,3.05-3.39.8-1.37,1.39-2.85,1.78-4.46.39-1.61.58-3.12.58-4.53,0-2.22-.51-4.02-1.52-5.38-1.01-1.36-2.75-2.08-5.22-2.11-1.68-.03-3.14.43-4.37,1.35-1.23.92-2.24,2.07-3.01,3.45-.78,1.38-1.36,2.87-1.75,4.48-.39,1.61-.58,3.12-.58,4.53,0,.99.14,1.92.42,2.82Z"/>
      <path class="cls-1" d="m408.23,545.68c-2.37,10.77-4.73,21.53-7.09,32.3-3.67-.4-5.5-.58-9.17-.86,2.34-10.85,4.69-21.69,7.04-32.53,3.69.38,5.54.6,9.22,1.1Zm-8.19-6.12c.67-2.93,1.01-4.4,1.68-7.32,3.69.41,5.53.65,9.21,1.18-.67,2.91-1,4.36-1.67,7.27-3.68-.51-5.52-.74-9.22-1.13Z"/>
      <path class="cls-1" d="m424.21,548.3c-.54,2.28-.81,3.43-1.34,5.71.05.06.08.09.13.15,1.02-2.12,2.57-3.56,4.63-4.32,2.06-.75,4.3-.86,6.72-.3.93.21,1.86.5,2.79.85-.74,3.36-1.1,5.05-1.84,8.42-.64-.28-1.27-.55-1.91-.82-.64-.27-1.27-.48-1.91-.62-1.74-.38-3.22-.39-4.43-.04-1.21.35-2.24.96-3.07,1.83-.83.87-1.49,1.91-1.98,3.12-.49,1.21-.89,2.5-1.18,3.86-1.23,5.66-1.84,8.49-3.08,14.16-3.62-.61-5.43-.89-9.06-1.39,2.29-10.72,4.58-21.43,6.88-32.15,3.47.56,5.2.87,8.65,1.53Z"/>
    </g>
    <line class="cls-5" x1="61.46" y1="175.43" x2="195.23" y2="267.69"/>
    <line class="cls-5" x1="312.81" y1="799.03" x2="264.88" y2="954.29"/>
    <line class="cls-5" x1="29.6" y1="619.68" x2="189.04" y2="588.32"/>
    <line class="cls-5" x1="528.27" y1="535.98" x2="684.85" y2="579.42"/>
    <line class="cls-5" x1="82.94" y1="815.91" x2="218.83" y2="726.81"/>
    <line class="cls-5" x1="531.16" y1="771.36" x2="664.92" y2="863.62"/>
    <line class="cls-5" x1="520.47" y1="267.25" x2="656.36" y2="178.15"/>
    <line class="cls-5" x1="8.4" y1="447.5" x2="169.88" y2="465.7"/>
    <line class="cls-5" x1="160.65" y1="349.31" x2=".61" y2="321.21"/>
    <line class="cls-5" x1="429.15" y1="798.16" x2="471.02" y2="955.16"/>
    <line class="cls-5" x1="529.02" y1="403.62" x2="684.1" y2="355.08"/>
    <line class="cls-5" x1="528.27" y1="656.04" x2="684.85" y2="699.48"/>
    <rect class="cls-4" x="340.67" y="147.5" width="58.98" height="82.23"/>
    <line class="cls-4" x1="345.12" y1="149.72" x2="345.12" y2="229.73"/>
    <line class="cls-4" x1="394.12" y1="149.72" x2="394.12" y2="229.73"/>
    <g>
      <path class="cls-1" d="m131.76,33.54c6.83-1.98,10.25-2.94,17.11-4.78,6.34,8.69,12.6,17.41,18.79,26.21,5.2-11.73,10.66-23.34,16.39-34.83,7.94-1.77,11.92-2.6,19.9-4.17-9.45,16.76-18.4,33.69-26.91,50.95.31,10.93.51,16.39.97,27.3-6.18,1.56-9.27,2.37-15.43,4.06-.57-9.33-1.08-18.67-1.5-28-9.5-12.46-19.3-24.69-29.31-36.74Z"/>
      <path class="cls-1" d="m193.91,56.55c.57-4.08,1.88-7.83,3.95-11.24,2.07-3.41,4.86-6.33,8.39-8.75,3.52-2.42,7.73-4.09,12.59-4.98,3.73-.68,7.25-.85,10.53-.5,3.28.35,6.19,1.23,8.72,2.63,2.53,1.4,4.6,3.35,6.23,5.84,1.63,2.49,2.71,5.56,3.26,9.22.67,4.44.59,8.71-.2,12.8-.79,4.09-2.27,7.78-4.41,11.07-2.14,3.29-4.91,6.05-8.29,8.32s-7.4,3.83-12.07,4.72c-7.1,1.36-13.12.74-18.14-1.93-5.03-2.67-8.38-7.54-9.97-14.69-.95-4.25-1.15-8.42-.58-12.5Zm16.46,13.57c.71,1.27,1.61,2.34,2.68,3.2,1.08.86,2.31,1.47,3.7,1.84,1.39.37,2.91.39,4.58.07,2.67-.51,4.82-1.62,6.48-3.36,1.66-1.74,2.92-3.77,3.8-6.1.88-2.33,1.42-4.78,1.61-7.36.19-2.58.11-4.94-.25-7.09-.57-3.38-1.84-5.95-3.82-7.68-1.98-1.73-4.96-2.26-8.92-1.53-2.71.5-4.93,1.64-6.63,3.41-1.71,1.77-2.97,3.82-3.8,6.14-.83,2.32-1.3,4.75-1.42,7.3-.12,2.55.04,4.89.47,7.03.3,1.49.81,2.87,1.52,4.14Z"/>
      <path class="cls-1" d="m290.72,74.5c.36-2.9.54-4.35.91-7.25-.08,0-.12.01-.2.02-4.09,6.04-9.78,9.45-17.2,10.35-10.01,1.22-15.64-2.54-16.92-11.56-.07-.52-.12-1.2-.13-2.03-.01-.83,0-1.68.05-2.56.05-.87.11-1.7.17-2.47.06-.77.13-1.4.21-1.88.79-10.22,1.67-20.43,2.64-30.63,6.03-.79,9.04-1.16,15.08-1.83-1.12,10.18-2.16,20.37-3.1,30.56-.09.41-.15.9-.18,1.47-.04.57-.07,1.16-.1,1.76-.03.6-.03,1.19,0,1.74.03.56.07,1.01.11,1.33.18,1.51,1.06,2.66,2.63,3.47,1.56.81,3.18,1.12,4.87.93,2.15-.24,4.01-.86,5.57-1.85,1.57-.99,2.88-2.2,3.93-3.64,1.05-1.43,1.89-3.04,2.51-4.82.62-1.78,1.05-3.58,1.3-5.39,1.37-11.07,2.1-16.6,3.63-27.66,6.05-.52,9.07-.75,15.13-1.17-2.63,17.27-5.07,34.55-7.33,51.87-5.44.44-8.15.69-13.58,1.23Z"/>
      <path class="cls-1" d="m381.8,64.28c-1.67,2.74-3.89,4.7-6.67,5.9-2.79,1.19-5.77,1.79-8.97,1.79-6.27.01-11.13-1.71-14.66-5.23-3.53-3.52-5.42-8.37-5.58-14.57-.11-4.22.35-8.36,1.43-12.42,1.08-4.05,2.81-7.69,5.22-10.91,2.41-3.21,5.49-5.82,9.24-7.79,3.75-1.97,8.22-2.95,13.35-2.9,3.21.03,6.29.74,9.21,2.12,2.92,1.38,4.94,3.52,6.07,6.39.08,0,.13,0,.21,0,2.71-10.46,4.11-15.69,6.97-26.12,6.21.22,9.31.36,15.51.7-6.69,23.21-13,46.5-18.94,69.91-5.49-.19-8.23-.26-13.72-.35.6-2.52.91-3.79,1.52-6.31-.08-.08-.12-.12-.2-.2Zm-12.5-33.49c-2.07,1.38-3.77,3.13-5.09,5.25-1.32,2.12-2.27,4.43-2.88,6.95-.6,2.51-.89,4.89-.87,7.14.01,1.52.25,2.97.7,4.35.45,1.38,1.11,2.58,1.96,3.6.85,1.02,1.93,1.84,3.21,2.46,1.28.62,2.77.94,4.46.95,2.7.01,5.04-.67,7.02-2.07,1.98-1.39,3.66-3.16,5.03-5.31,1.37-2.15,2.42-4.49,3.13-7.01.71-2.52,1.1-4.88,1.15-7.05.08-3.36-.72-6.08-2.43-8.13-1.71-2.05-4.41-3.11-8.07-3.15-2.82-.03-5.27.65-7.34,2.03Z"/>
      <path class="cls-1" d="m434.89,22.26c-5.24,16.68-10.3,33.4-15.18,50.19-5.68-.38-8.52-.55-14.21-.83,4.53-16.88,9.25-33.69,14.14-50.47,6.1.39,9.15.61,15.24,1.11Zm-13.02-8.9c1.42-4.55,2.14-6.82,3.59-11.37,6.24.43,9.36.67,15.6,1.22-1.54,4.52-2.3,6.78-3.8,11.3-6.15-.52-9.23-.75-15.39-1.15Z"/>
      <path class="cls-1" d="m469.46,70.84c-1.97,2.54-4.4,4.23-7.31,5.11-2.91.87-5.94,1.13-9.13.77-6.24-.69-10.88-2.95-14-6.85-3.12-3.9-4.45-8.93-3.92-15.11.36-4.21,1.29-8.27,2.82-12.18,1.53-3.91,3.66-7.33,6.42-10.25,2.75-2.92,6.11-5.16,10.07-6.7,3.95-1.54,8.51-2.01,13.61-1.38,3.19.39,6.18,1.44,8.93,3.14,2.76,1.7,4.53,4.05,5.32,7.03.08.01.13.02.21.03,3.88-10.09,5.85-15.12,9.88-25.17,6.16.92,9.23,1.41,15.38,2.44-9.27,22.31-18.18,44.74-26.72,67.33-5.44-.81-8.17-1.19-13.62-1.9.88-2.44,1.33-3.66,2.22-6.1-.07-.09-.1-.13-.17-.22Zm-8.68-34.69c-2.22,1.14-4.11,2.69-5.65,4.65-1.55,1.96-2.76,4.15-3.64,6.58-.88,2.43-1.44,4.76-1.67,6.99-.16,1.51-.09,2.98.21,4.4.3,1.42.81,2.69,1.55,3.8.74,1.11,1.71,2.04,2.92,2.81,1.21.77,2.65,1.25,4.33,1.44,2.69.32,5.09-.1,7.22-1.26,2.13-1.16,4-2.73,5.61-4.71,1.61-1.98,2.91-4.19,3.91-6.62.99-2.43,1.64-4.72,1.94-6.88.46-3.33-.04-6.12-1.51-8.35-1.47-2.23-4.04-3.59-7.68-4.04-2.8-.35-5.32.05-7.54,1.19Z"/>
      <path class="cls-1" d="m556.27,41.39c-7.68,15.71-15.19,31.49-22.52,47.37-5.59-1.23-8.39-1.82-13.99-2.94,7-16.01,14.17-31.94,21.52-47.8,6,1.29,9,1.97,14.99,3.38Zm-11.63-10.75c2.09-4.29,3.14-6.43,5.26-10.71,6.14,1.36,9.21,2.07,15.33,3.54-2.2,4.24-3.29,6.36-5.46,10.61-6.04-1.43-9.07-2.12-15.13-3.44Z"/>
      <path class="cls-1" d="m597.71,52.27c-1.96,3.35-2.94,5.02-4.88,8.38-4.14-1.19-6.21-1.77-10.36-2.9-4.86,9.22-7.26,13.85-11.98,23.12-.27.48-.49.91-.67,1.31-.18.4-.29.69-.34.88-.24.89-.27,1.62-.1,2.18.17.56.45,1.03.85,1.4.39.38.87.66,1.42.84.55.18,1.09.35,1.62.49,1.71.47,3.42.83,5.11,1.1-2.11,3.89-3.16,5.84-5.24,9.75-1.46-.27-2.92-.54-4.38-.83-1.46-.29-2.93-.63-4.43-1.03-1.63-.43-3.2-.99-4.72-1.69-1.52-.7-2.83-1.57-3.92-2.63-1.09-1.05-1.86-2.32-2.3-3.78-.44-1.47-.34-3.24.19-5.25.16-.63.4-1.35.73-2.12.33-.77.7-1.58,1.12-2.43,4.1-8.41,8.28-16.79,12.52-25.14-3.84-.97-5.76-1.45-9.6-2.37,1.79-3.44,2.69-5.16,4.5-8.59,3.8.93,5.7,1.4,9.5,2.37,2.88-5.68,4.33-8.52,7.26-14.18,6.03,1.57,9.04,2.39,15.04,4.07-3.03,5.61-4.54,8.41-7.52,14.04,4.24,1.17,6.35,1.77,10.58,3Z"/>
    </g>
  </g>
</svg>