<?xml version="1.0" encoding="UTF-8"?>
<svg id="Layer_2" data-name="Layer 2" xmlns="http://www.w3.org/2000/svg" viewBox="0 0 161.6 148.56">
  <defs>
    <style>
      .cls-1 {
        fill: none;
      }

      .cls-2 {
        fill: #5e000b;
      }
    </style>
  </defs>
  <g id="Layer_1-2" data-name="Layer 1">
    <path class="cls-2" d="m36.98,79.29c10.88-19.03,24.12-36.59,37.86-53.63,3.76-4.66,7.58-9.27,11.48-13.8.88-1.02,1-2.53,0-3.54-.9-.9-2.65-1.03-3.54,0-7.09,8.22-13.89,16.68-20.53,25.26-6.74,8.73-13.39,17.55-19.48,26.75-3.55,5.36-6.92,10.84-10.11,16.43-1.6,2.8,2.72,5.32,4.32,2.52h0Z"/>
    <path class="cls-2" d="m82.78,11.86c7.89,7.18,13.94,16.11,19.72,25,6.07,9.35,11.81,18.96,18.6,27.81,3.6,4.7,7.47,9.21,11.95,13.1,1.02.89,2.53,1,3.54,0,.9-.9,1.02-2.65,0-3.54-8.03-6.99-14.19-15.84-19.99-24.69-6.12-9.34-11.82-18.96-18.52-27.9-3.56-4.75-7.36-9.32-11.76-13.32-2.38-2.16-5.92,1.36-3.54,3.54h0Z"/>
    <path class="cls-2" d="m132.66,74.75c-4.85,9.76-12.35,17.96-19.84,25.76-8.13,8.47-16.68,16.55-24.32,25.48-4.04,4.72-7.86,9.69-10.96,15.1-1.6,2.8,2.72,5.32,4.32,2.52,5.59-9.76,13.43-18.04,21.24-26.04s16.57-16.37,23.91-25.4c3.78-4.64,7.3-9.53,9.97-14.9,1.43-2.87-2.88-5.41-4.32-2.52h0Z"/>
    <path class="cls-2" d="m32.66,79.29c2.76,3.62,3.57,8.25,5.23,12.39,1.94,4.83,4.68,9.44,7.38,13.88,5.55,9.16,12.01,17.78,19.24,25.67,4.19,4.57,8.62,8.95,13.42,12.88,1.04.85,2.51,1.02,3.54,0,.88-.88,1.05-2.68,0-3.54-8.22-6.73-15.56-14.69-22.02-23.1-3.2-4.16-6.18-8.49-8.95-12.95-2.72-4.38-5.42-8.91-7.54-13.62s-2.82-10-5.98-14.15c-.82-1.07-2.15-1.64-3.42-.9-1.06.62-1.72,2.34-.9,3.42h0Z"/>
    <path class="cls-2" d="m49.41,83.33c3.54-6.93,7.51-13.63,11.91-20.05.53-.77,1.06-1.54,1.6-2.3.23-.32.44-.67.71-.96.06-.06.35-.27.36-.35.04-.17-.3-.19-.33-.08-.05.17.37.91.44,1.1.16.43.31.85.46,1.28.32.93.61,1.87.89,2.81,1.04,3.62,1.75,7.34,2.06,11.09.36,4.28.27,8.61-.32,12.86-.14,1.01.25,2,1.31,2.31.88.25,2.17-.31,2.31-1.31,1.24-8.9.66-17.98-1.93-26.6-.57-1.88-1.09-4.22-2.24-5.83-1.27-1.77-3.5-1.79-5.1-.46s-2.79,3.56-3.97,5.3c-1.27,1.87-2.5,3.76-3.69,5.67-2.76,4.42-5.32,8.96-7.69,13.61-1.1,2.14,2.14,4.04,3.24,1.89h0Z"/>
    <path class="cls-2" d="m53.6,75.45c2.1-.24,4.24-.14,6.33.1.13.02.26.03.39.05.33.04-.24-.03.09.01.29.04.58.09.88.14.54.09,1.07.19,1.6.31.98.22,1.96.5,2.9.86s2.06-.4,2.31-1.31c.29-1.06-.36-1.94-1.31-2.31-2.13-.83-4.4-1.21-6.66-1.48s-4.36-.37-6.53-.12c-1.01.11-1.88.78-1.88,1.88,0,.92.86,1.99,1.88,1.88h0Z"/>
    <path class="cls-2" d="m73.75,46.55c.4,10.1.79,20.19,1.19,30.29.19,4.9.46,9.81.54,14.72.04,2.45,0,4.92-.33,7.35s-1.24,4.69-1.05,7.08c.35,4.5,4.23,7.21,7.82,9.27,2.1,1.2,3.99-2.04,1.89-3.24-2.72-1.55-6.29-3.59-5.97-7.22.2-2.21.9-4.37,1.14-6.59s.28-4.6.24-6.9c-.18-9.46-.71-18.93-1.08-28.39-.21-5.46-.43-10.92-.64-16.39-.09-2.41-3.84-2.42-3.75,0h0Z"/>
    <path class="cls-2" d="m83.07,76.25c0,6.46,0,12.93,0,19.39,0,2.41,3.75,2.42,3.75,0,0-6.46,0-12.93,0-19.39,0-2.41-3.75-2.42-3.75,0h0Z"/>
    <path class="cls-2" d="m88.19,62.76c3.31,9.86,5.78,20.02,7.09,30.35.26,2.04,2.97,2.62,3.68.5,2.78-8.24,5.57-16.48,8.35-24.73.77-2.29-2.85-3.27-3.62-1-2.78,8.24-5.57,16.48-8.35,24.73l3.68.5c-1.35-10.68-3.8-21.15-7.22-31.35-.76-2.28-4.39-1.3-3.62,1h0Z"/>
    <path class="cls-2" d="m117.69,73.88c-1.9-.24-3.86-.4-5.73.11-1.99.54-3.65,1.91-4.51,3.79s-1.09,4.01-1.24,6.08c-.17,2.38-.15,4.76.04,7.14.12,1.48,1.48,2.25,2.82,1.62,1.21-.57,2.49-.97,3.79-1.25.99-.22,1.57-1.37,1.31-2.31-.28-1.02-1.31-1.53-2.31-1.31-1.63.36-3.18.92-4.69,1.63l2.82,1.62c-.17-2.03-.21-4.06-.11-6.1.09-1.75.17-3.39.73-5.03.41-1.2,1.23-1.99,2.44-2.3,1.39-.35,3.1-.14,4.62.06,1.01.13,1.88-.95,1.88-1.88,0-1.12-.87-1.75-1.88-1.88h0Z"/>
    <path class="cls-2" d="m109.98,85.74h3.39c.48,0,.99-.21,1.33-.55s.57-.86.55-1.33-.18-.99-.55-1.33-.82-.55-1.33-.55h-3.39c-.48,0-.99.21-1.33.55s-.57.86-.55,1.33.18.99.55,1.33.82.55,1.33.55h0Z"/>
    <path class="cls-2" d="m84.75,71.16c2.41,0,2.42-3.75,0-3.75s-2.42,3.75,0,3.75h0Z"/>
    <rect class="cls-1" width="161.6" height="148.56"/>
  </g>
</svg>