<?xml version="1.0" encoding="UTF-8"?>
<svg id="Layer_2" data-name="Layer 2" xmlns="http://www.w3.org/2000/svg" viewBox="0 0 157.41 44.28">
  <defs>
    <style>
      .cls-1 {
        fill: none;
      }

      .cls-2 {
        fill: #fff;
      }

      .cls-3 {
        fill: #be3428;
      }
    </style>
  </defs>
  <g id="Layer_1-2" data-name="Layer 1">
    <g>
      <path class="cls-3" d="m33.19,40.48c-5.71,1.67-12.88-4.95-15.63-1.11-1.4,1.96-7.37,4.58-10.4.92-1.32-1.58-1.93-2.12-2.65-4.17C2.78,31.15,1.11,22.14.09,17.02c-.15-.77-.14-10.59.33-11.26.39-.55,1.1-.84,1.79-1.08,7.93-2.77,16.78-2.07,25.31-1.87,11.81.27,23.61-.53,35.41-.9,19.82-.62,39.66-.03,59.48.56,5.68.17,11.54.38,16.66,2.55,1.38.58,2.76,1.32,4.28,1.32.93,0,1.83-.28,2.74-.5,4.09-.97,9.4-.01,10.86,3.49.47,1.12.46,2.34.46,3.54-.03,5.33-.05,10.65-.08,15.98-.01,2.04-.04,4.16-1.05,6-1.31,2.39-4.1,3.93-7.02,4.6s-5.97.59-8.98.5c-9.92-.29-19.85-.59-29.77-.88-3.12-.09-6.34-.2-9.17-1.37-1.25-.51-2.41-1.23-3.73-1.55-1.15-.28-2.37-.25-3.57-.19-11.59.62-22.76,4.44-34.36,4.83-8.84.3-17.74-1.41-26.49-.3"/>
      <path class="cls-2" d="m9.28,30.56c-.66-2.15,1.31-3.93,2.39-5.57,1.15-1.75,1.76-3.76,2.29-5.76s1.07-3.97,1.82-5.9c.45-1.16.97-2.3,1.54-3.4.21-.4.42-.8.64-1.19.15-.26.64-1.47.91-1.56,1.32-.42,2.65,3.62,2.93,4.35.77,1.98,1.39,4.01,1.87,6.07,1.03,4.48,1.31,9.08.91,13.65-.14,1.6,2.36,1.59,2.5,0,.36-4.19.15-8.41-.63-12.54-.72-3.82-1.84-7.93-3.79-11.32-.75-1.32-1.96-2.61-3.56-2.77-2.01-.19-2.84,1.96-3.63,3.44-1.97,3.68-3.08,7.53-4.2,11.52-.64,2.27-1.68,3.98-3.02,5.89-1.2,1.7-2.02,3.68-1.38,5.75.47,1.53,2.88.88,2.41-.66h0Z"/>
      <path class="cls-2" d="m13.01,20.55h11.01c1.61,0,1.61-2.5,0-2.5h-11.01c-1.61,0-1.61,2.5,0,2.5h0Z"/>
      <path class="cls-2" d="m33.17,19.62c-.07,3.34-.14,6.69.18,10.02.13,1.39,1.98,1.71,2.46.33,1.68-4.83,3.96-9.43,6.76-13.72h-2.16c2.93,4.3,1.45,9.67.15,14.27-.44,1.55,1.97,2.21,2.41.66,1.48-5.24,2.92-11.32-.41-16.2-.54-.79-1.63-.82-2.16,0-2.91,4.47-5.26,9.28-7.01,14.31l2.46.33c-.32-3.33-.26-6.68-.18-10.02.04-1.61-2.46-1.61-2.5,0h0Z"/>
      <path class="cls-2" d="m49.14,22.14c.27,2.51.12,4.87-.47,7.23-.16.63.2,1.39.87,1.54s1.37-.19,1.54-.87c.64-2.57.85-5.26.56-7.89-.07-.65-.52-1.28-1.25-1.25-.62.03-1.33.55-1.25,1.25h0Z"/>
      <path class="cls-2" d="m49.81,16.78c1.61,0,1.61-2.5,0-2.5s-1.61,2.5,0,2.5h0Z"/>
      <path class="cls-2" d="m56.73,18.99c0,4,.01,7.99.02,11.99,0,.99,1.05,1.5,1.88,1.08,1.15-.58,1.67-1.72,2.09-2.87s.92-2.38,1.5-3.52c1.23-2.41,2.79-4.63,4.64-6.61l-2.13-.88c.21,3.08.29,6.17.22,9.25-.03,1.45,2.03,1.64,2.46.33.54-1.68,1.29-3.27,2.23-4.76.49-.78,1.03-1.52,1.63-2.22.42-.49,1.06-1.45,1.76-1.55.62-.09.41.84.43,1.34.04,1,.04,2.01,0,3.01-.08,2.06-.35,4.09-.78,6.1-.33,1.57,2.08,2.24,2.41.66.55-2.59.87-5.23.9-7.87.03-2.14.3-5.59-2.66-5.74-2.3-.12-3.95,2.32-5.13,3.97-1.4,1.95-2.45,4.12-3.19,6.4l2.46.33c.07-3.09,0-6.17-.22-9.25-.07-1.02-1.35-1.73-2.13-.88-1.79,1.92-3.37,4.06-4.63,6.37-.64,1.16-1.19,2.37-1.68,3.6-.33.83-.53,2.19-1.41,2.64l1.88,1.08c0-4-.01-7.99-.02-11.99,0-1.61-2.5-1.61-2.5,0h0Z"/>
      <path class="cls-2" d="m86.25,17.67c-1.04-.48-2.16-.38-3.09.31s-1.4,1.79-1.78,2.88-.71,2.2-.97,3.32-.7,2.42-.13,3.5c.93,1.73,3.38,2.11,5.12,1.71s3.36-1.68,4.19-3.32c1.09-2.15,1.1-4.6.67-6.92-.1-.53-.69-.92-1.21-.92-.57,0-1.03.39-1.21.92-1.34,3.91-.24,8.44,2.66,11.36,1.14,1.14,2.9-.63,1.77-1.77-2.33-2.34-3.06-5.86-2.02-8.92h-2.41c.25,1.32.3,2.72-.06,4.03-.17.62-.47,1.28-.83,1.75-.33.43-.75.76-1.24,1.02-.38.21-1,.4-1.35.42-.55.04-1-.01-1.39-.21-.27-.14-.36-.23-.56-.41.17.16.01.21.07,0,.05-.18.07-.38.11-.57.17-.83.37-1.65.61-2.47s.49-1.75.86-2.56c.13-.29.32-.64.54-.8.13-.1.19-.11.33-.15-.07.02.19.04.05-.02.61.28,1.35.18,1.71-.45.31-.54.17-1.43-.45-1.71h0Z"/>
      <path class="cls-2" d="m100.46,7.98c.07,6.92-.16,13.85-.69,20.75-.12,1.6,2.38,1.6,2.5,0,.53-6.9.76-13.83.69-20.75-.02-1.61-2.52-1.61-2.5,0h0Z"/>
      <path class="cls-2" d="m97.29,16.15h7.23c.65,0,1.28-.57,1.25-1.25s-.55-1.25-1.25-1.25h-7.23c-.65,0-1.28.57-1.25,1.25s.55,1.25,1.25,1.25h0Z"/>
      <path class="cls-2" d="m104.84,16.15c1.61,0,1.61-2.5,0-2.5s-1.61,2.5,0,2.5h0Z"/>
      <path class="cls-2" d="m112.77,19.62c-.06,2.79-.63,5.5-1.69,8.12-.25.63.28,1.37.87,1.54.72.2,1.28-.25,1.54-.87,1.13-2.79,1.72-5.77,1.78-8.78.01-.68-.58-1.25-1.25-1.25s-1.24.57-1.25,1.25h0Z"/>
      <path class="cls-2" d="m113.02,13.95c1.61,0,1.61-2.5,0-2.5s-1.61,2.5,0,2.5h0Z"/>
      <path class="cls-2" d="m129.71,16.22c-2.91-.47-5.24,1.44-6.72,3.78-.79,1.26-1.38,2.68-1.84,4.09-.43,1.33-1.19,3.31-.07,4.49.85.89,2.34,1.21,3.52,1.34,1.11.12,2.26,0,3.33-.32,2.18-.64,4.2-2.13,5.23-4.19.75-1.5,1.09-3.31.45-4.91s-1.97-2.6-3.63-2.72c-.67-.05-1.25.61-1.25,1.25,0,.72.57,1.2,1.25,1.25.58.04,1.17.63,1.36,1.26.26.88.04,1.86-.37,2.67-.39.76-.8,1.25-1.47,1.81-.17.14-.52.38-.82.55-.39.22-.69.37-1.02.48-.39.14-.79.25-1.2.32-.3.06-.6.08-1.04.08-.21,0-.41-.01-.62-.03-.24-.02-.12,0-.41-.06-.18-.04-.36-.08-.53-.13-.11-.03-.22-.07-.33-.1-.07-.02-.13-.05-.19-.07.06.03.06.03-.02,0-.09-.04-.18-.08-.26-.13l-.07-.04c-.18-.12-.19-.11-.03.03,0,.34.05,0,.07-.13.09-.6.28-1.2.46-1.77.33-1.09.76-2.14,1.3-3.14.84-1.55,2.48-3.56,4.27-3.27.67.11,1.35-.17,1.54-.87.16-.6-.2-1.43-.87-1.54h0Z"/>
      <path class="cls-2" d="m138.45,17.11c.31,3.82.63,7.65.94,11.47.1,1.23,1.62,1.7,2.33.63.9-1.37,1.58-2.86,2.35-4.31.7-1.32,1.49-2.72,2.71-3.63.22-.16,1.12-.85,1.43-.71.22.11.33.73.38.93.14.53.26,1.07.37,1.61.41,2.17.43,4.39.16,6.58-.08.67.63,1.25,1.25,1.25.74,0,1.17-.58,1.25-1.25.25-2.07.21-4.13-.08-6.2-.23-1.65-.48-4.13-2.08-5.08s-3.57.29-4.77,1.37c-1.12,1.01-1.95,2.33-2.66,3.64-.82,1.52-1.53,3.1-2.47,4.54l2.33.63c-.31-3.82-.63-7.65-.94-11.47-.06-.67-.54-1.25-1.25-1.25-.63,0-1.31.57-1.25,1.25h0Z"/>
      <rect class="cls-1" width="157.41" height="44.28"/>
    </g>
  </g>
</svg>