<?xml version="1.0" encoding="UTF-8"?>
<svg id="Layer_2" data-name="Layer 2" xmlns="http://www.w3.org/2000/svg" viewBox="0 0 157.41 44.28">
  <defs>
    <style>
      .cls-1 {
        fill: none;
      }

      .cls-2 {
        fill: #f6f6f6;
      }

      .cls-3 {
        fill: #be3428;
      }
    </style>
  </defs>
  <g id="Layer_1-2" data-name="Layer 1">
    <g>
      <path class="cls-3" d="m33.19,40.48c-5.71,1.67-12.88-4.95-15.63-1.11-1.4,1.96-7.37,4.58-10.4.92-1.32-1.58-1.93-2.12-2.65-4.17C2.78,31.15,1.11,22.14.09,17.02c-.15-.77-.14-10.59.33-11.26.39-.55,1.1-.84,1.79-1.08,7.93-2.77,16.78-2.07,25.31-1.87,11.81.27,23.61-.53,35.41-.9,19.82-.62,39.66-.03,59.48.56,5.68.17,11.54.38,16.66,2.55,1.38.58,2.76,1.32,4.28,1.32.93,0,1.83-.28,2.74-.5,4.09-.97,9.4-.01,10.86,3.49.47,1.12.46,2.34.46,3.54-.03,5.33-.05,10.65-.08,15.98-.01,2.04-.04,4.16-1.05,6-1.31,2.39-4.1,3.93-7.02,4.6s-5.97.59-8.98.5c-9.92-.29-19.85-.59-29.77-.88-3.12-.09-6.34-.2-9.17-1.37-1.25-.51-2.41-1.23-3.73-1.55-1.15-.28-2.37-.25-3.57-.19-11.59.62-22.76,4.44-34.36,4.83-8.84.3-17.74-1.41-26.49-.3"/>
      <rect class="cls-1" width="157.41" height="44.28"/>
    </g>
    <g>
      <path class="cls-2" d="m105.38,22.93l-.73,5.87c-.11.86-.11,1.92.64,2.34.6.34,1.4.02,1.82-.53s.56-1.25.69-1.93c.33-1.78.67-3.57,1-5.35.02-.12.04-.26-.04-.35-.07-.08-.19-.08-.3-.08-.82,0-2.26.01-3.08.02"/>
      <path class="cls-2" d="m105.13,22.93c-.24,1.9-.48,3.81-.71,5.71-.13,1.05-.15,2.73,1.26,2.88,1.57.17,2.13-1.56,2.36-2.77.17-.92.34-1.84.51-2.75.08-.45.17-.89.25-1.34s.22-.92.25-1.38c.05-.77-.82-.62-1.34-.61-.78,0-1.56,0-2.34.02-.32,0-.32.5,0,.5.53,0,1.07,0,1.6-.01.28,0,.57,0,.85,0,.19,0,.63-.09.73.11.05.1-.08.43-.1.55-.03.18-.07.37-.1.55-.07.37-.14.73-.21,1.1-.14.73-.27,1.47-.41,2.2-.21,1.1-.32,3.22-1.8,3.36s-1.06-2.06-.95-2.88l.65-5.22c.04-.32-.46-.32-.5,0h0Z"/>
    </g>
    <g>
      <path class="cls-2" d="m105.27,18.53c.73.05,2.03,1.69,2.67,1.34s1.09-1.17.77-1.83c-.29-.61-1.11-.82-1.76-.63s-1.18.66-1.68,1.12"/>
      <path class="cls-2" d="m105.27,19.15c.1,0-.17-.05-.07,0,.02,0,.05.02.08.02.15.04-.13-.07.01,0,.12.07.24.14.36.21.25.17.49.36.74.55.49.36,1.13.79,1.75.53.78-.33,1.38-1.25,1.29-2.11-.11-.99-.96-1.58-1.91-1.63-1.07-.05-1.94.68-2.69,1.36-.24.22-.24.66,0,.88.26.24.63.24.88,0,.14-.13.28-.26.42-.38.03-.02.06-.05.09-.07,0,0,.14-.11.07-.06s.08-.06.07-.05c.05-.03.09-.07.14-.1.08-.05.16-.1.24-.14.03-.02.07-.04.1-.05.01,0,.18-.08.06-.03.08-.03.16-.06.23-.08.04,0,.07-.02.11-.03.13-.03-.13,0,.02,0,.08,0,.15,0,.23,0,.03,0,.06,0,.09,0,.15,0-.09-.03,0,0,.06.02.13.03.2.05.04.01.17.03.02,0,.04,0,.08.04.12.06.03.01.05.03.08.05.12.06-.05-.07,0,0,.03.04.13.09.14.14l-.04-.06s.03.05.05.07c.02.03.03.05.04.08-.06-.12-.02-.04,0,0,0,.02.01.04.02.07.01.07.01.06,0-.03.03.04,0,.15,0,.21.01.08.03-.14,0,0,0,.03-.01.06-.02.09-.01.04-.03.07-.04.11-.03.09.07-.13,0,0-.04.08-.09.15-.14.23-.05.08.1-.11,0,0-.02.02-.04.05-.07.07-.03.03-.21.18-.09.09-.06.05-.14.08-.2.13-.03.02-.14.04.08-.04-.11.04.04-.01.07,0-.01,0-.06,0-.07,0-.06,0-.03-.06.09.01-.03-.02-.1-.03-.14-.04-.15-.05.12.07-.02,0-.05-.03-.1-.05-.15-.08-.22-.13-.43-.29-.64-.44-.48-.36-.96-.77-1.59-.83-.33-.03-.64.31-.62.62.02.36.28.59.62.62h0Z"/>
    </g>
    <g>
      <path class="cls-2" d="m49.37,24.78l-.73,5.87c-.11.86-.11,1.92.64,2.34.6.34,1.4.02,1.82-.53s.56-1.25.69-1.93c.33-1.78.67-3.57,1-5.35.02-.12.04-.26-.04-.35-.07-.08-.19-.08-.3-.08-.82,0-2.26.01-3.08.02"/>
      <path class="cls-2" d="m49.12,24.78c-.24,1.9-.48,3.81-.71,5.71-.13,1.05-.15,2.73,1.26,2.88,1.57.17,2.13-1.56,2.36-2.77.17-.92.34-1.84.51-2.75.08-.45.17-.89.25-1.34s.22-.92.25-1.38c.05-.77-.82-.62-1.34-.61-.78,0-1.56,0-2.34.02-.32,0-.32.5,0,.5.53,0,1.07,0,1.6-.01.28,0,.57,0,.85,0,.19,0,.63-.09.73.11.05.1-.08.43-.1.55-.03.18-.07.37-.1.55-.07.37-.14.73-.21,1.1-.14.73-.27,1.47-.41,2.2-.21,1.1-.32,3.22-1.8,3.36s-1.06-2.06-.95-2.88l.65-5.22c.04-.32-.46-.32-.5,0h0Z"/>
    </g>
    <g>
      <path class="cls-2" d="m49.7,20.38c.73.05,2.03,1.69,2.67,1.34s1.09-1.17.77-1.83c-.29-.61-1.11-.82-1.76-.63s-1.18.66-1.68,1.12"/>
      <path class="cls-2" d="m49.7,21.01c.1,0-.17-.05-.07,0,.02,0,.05.02.08.02.15.04-.13-.07.01,0,.12.07.24.14.36.21.25.17.49.36.74.55.49.36,1.13.79,1.75.53.78-.33,1.38-1.25,1.29-2.11-.11-.99-.96-1.58-1.91-1.63-1.07-.05-1.94.68-2.69,1.36-.24.22-.24.66,0,.88.26.24.63.24.88,0,.14-.13.28-.26.42-.38.03-.02.06-.05.09-.07,0,0,.14-.11.07-.06s.08-.06.07-.05c.05-.03.09-.07.14-.1.08-.05.16-.1.24-.14.03-.02.07-.04.1-.05.01,0,.18-.08.06-.03.08-.03.16-.06.23-.08.04,0,.07-.02.11-.03.13-.03-.13,0,.02,0,.08,0,.15,0,.23,0,.03,0,.06,0,.09,0,.15,0-.09-.03,0,0,.06.02.13.03.2.05.04.01.17.03.02,0,.04,0,.08.04.12.06.03.01.05.03.08.05.12.06-.05-.07,0,0,.03.04.13.09.14.14l-.04-.06s.03.05.05.07c.02.03.03.05.04.08-.06-.12-.02-.04,0,0,0,.02.01.04.02.07.01.07.01.06,0-.03.03.04,0,.15,0,.21.01.08.03-.14,0,0,0,.03-.01.06-.02.09-.01.04-.03.07-.04.11-.03.09.07-.13,0,0-.04.08-.09.15-.14.23-.05.08.1-.11,0,0-.02.02-.04.05-.07.07-.03.03-.21.18-.09.09-.06.05-.14.08-.2.13-.03.02-.14.04.08-.04-.11.04.04-.01.07,0-.01,0-.06,0-.07,0-.06,0-.03-.06.09.01-.03-.02-.1-.03-.14-.04-.15-.05.12.07-.02,0-.05-.03-.1-.05-.15-.08-.22-.13-.43-.29-.64-.44-.48-.36-.96-.77-1.59-.83-.33-.03-.64.31-.62.62.02.36.28.59.62.62h0Z"/>
    </g>
    <g>
      <path class="cls-2" d="m94.92,29.96c.41-4.06.42-8.17.03-12.23l-2.09.29c-.2.03-.43.05-.59-.11-.09-.1-.14-.24-.18-.39-.21-.87.05-1.91.66-2.43s1.52-.45,2.04.2c.29-1.86.58-3.72.87-5.58.03-.22.07-.45.21-.6.15-.17.36-.18.56-.19.87-.03,1.73-.06,2.6-.09.47-.02,1.08.08,1.21.64.06.28-.03.57-.12.84-.44,1.32-.89,2.64-1.33,3.96,1.31-.08,2.61-.17,3.92-.25.11.77.21,1.56.07,2.32s-.58,1.49-1.2,1.65c-.46.11-.92-.09-1.38-.18s-1.01,0-1.25.5c-.12.25-.13.56-.13.85-.06,3.32-.17,6.64-.34,9.95-.02.38-.04.77-.18,1.12-.26.66-.89.99-1.49.99s-1.36-1.01-1.92-1.27"/>
      <path class="cls-2" d="m95.17,29.96c.39-4.07.41-8.16.03-12.23-.02-.18-.15-.26-.32-.24-.82.11-2.59.65-2.61-.57s1.15-2.68,2.35-1.45c.12.12.39.08.42-.11.18-1.14.36-2.29.53-3.43.09-.56.12-1.17.27-1.72.1-.37.19-.83.6-1.03.26-.13.8-.03,1.08-.04.46-.02,1.21-.19,1.64-.05.31.1.76.71.77,1.03,0,.22-.17.53-.24.73-.38,1.12-.75,2.24-1.13,3.37-.05.15.08.33.24.32,1.31-.08,2.61-.17,3.92-.25l-.25-.25c.15,1.09.53,3.63-1.22,3.75-.69.05-1.24-.45-1.94-.11-1.14.54-.74,2.48-.76,3.45-.05,2.09-.12,4.18-.22,6.28-.04,1,.23,3.14-1.05,3.51-.92.27-1.53-.76-2.24-1.16-.28-.16-.53.27-.25.43,1.11.65,2.12,2.09,3.4.72.6-.64.55-1.61.59-2.42.07-1.37.12-2.74.17-4.11.05-1.3.08-2.6.11-3.9,0-.36.01-.72.02-1.08.01-.49.32-1.18.85-1.34.39-.12,1.05.26,1.49.22,1.93-.19,1.72-2.93,1.55-4.24-.02-.13-.1-.26-.25-.25-1.31.08-2.61.17-3.92.25l.24.32c.31-.92.62-1.85.93-2.77.2-.6.66-1.44.53-2.1-.19-.91-1.15-.89-1.89-.87-.94.03-2.66-.36-3.11.72-.34.81-.33,2.03-.47,2.9-.16,1-.31,2-.47,3.01l.42-.11c-1.19-1.22-2.8-.39-3.13,1.14-.11.5-.17,1.43.25,1.83.61.57,2.25-.02,2.92-.11l-.32-.24c.37,4.07.36,8.16-.03,12.23-.03.32.47.32.5,0h0Z"/>
    </g>
    <g>
      <path class="cls-2" d="m127.7,21.98c-.32-.98-1.16-1.72-2.09-2.17s-3.84-.72-4.86-.9c-1.87-.3-3.83-.07-5.58.64-.33.13-.66.29-.9.56-.28.31-.39.74-.5,1.15-.32,1.27-.65,2.55-.64,3.86,0,1.31.37,2.66,1.26,3.62.61.65,1.42,1.07,2.24,1.41,1.52.61,3.24.96,4.78.42,1.42-.5,2.49-1.67,3.72-2.55.64-.46,1.35-.85,1.84-1.47.59-.74.78-1.72.86-2.67.05-.64.06-1.29-.14-1.9Zm-4.33,3.55c-.22.37-.59.64-.96.86-1.42.82-3.15,1.07-4.74.69-.22-.05-.45-.12-.6-.29-.13-.14-.19-.34-.23-.53-.12-.5-.19-1.02-.22-1.54-.01-.22-.01-.45.11-.63.14-.21.41-.29.66-.36.96-.25,1.93-.47,2.91-.65.63.7,2.6.44,3.12,1.22.24.36.18.86-.04,1.24Z"/>
      <g>
        <path class="cls-2" d="m127.94,21.91c-.95-2.56-3.69-2.77-6.02-3.09-1.43-.2-2.81-.39-4.26-.2-1.18.16-3.12.47-3.78,1.6-.35.6-.46,1.38-.61,2.04-.21.93-.39,1.88-.38,2.84,0,1.4.41,2.86,1.42,3.88,1.08,1.09,2.78,1.72,4.27,1.97s3.02-.01,4.34-.91c.76-.52,1.43-1.15,2.17-1.7.68-.5,1.45-.91,2.01-1.56,1.06-1.23,1.28-3.38.86-4.9-.09-.31-.57-.18-.48.13.38,1.38.19,3.4-.81,4.5-.44.48-1.01.81-1.54,1.18s-.98.75-1.47,1.15c-1.19.96-2.4,1.73-3.98,1.7-1.4-.02-2.9-.52-4.1-1.24-2.88-1.73-2.26-5.28-1.54-8.02.23-.87.62-1.31,1.46-1.63.64-.24,1.32-.42,1.99-.53,1.3-.21,2.55-.1,3.84.08,2.2.31,5.22.32,6.15,2.8.11.3.59.17.48-.13Z"/>
        <path class="cls-2" d="m123.15,25.39c-.52.81-1.67,1.22-2.56,1.43-.95.22-2.01.25-2.95-.02-.25-.07-.42-.18-.51-.43-.09-.24-.12-.51-.16-.76-.07-.42-.3-1.3.18-1.54.22-.11.51-.15.75-.21.27-.07.55-.13.82-.2.55-.13,1.1-.24,1.65-.34l-.24-.06c.47.49,1.24.55,1.87.67.33.07.7.12.99.31.42.26.4.78.18,1.18-.16.28.28.53.43.25.28-.5.35-1.18-.07-1.63-.3-.33-.78-.45-1.2-.54-.49-.11-1.01-.15-1.48-.34-.19-.08-.35-.29-.54-.31-.14-.02-.31.05-.45.08-.25.05-.51.1-.76.16-.38.08-.76.17-1.14.26s-.77.15-1.1.33c-.64.35-.49,1.16-.41,1.77.09.65.14,1.48.82,1.78.61.26,1.39.31,2.05.29.82-.02,1.64-.18,2.4-.49.72-.29,1.45-.68,1.88-1.34.18-.27-.26-.52-.43-.25Z"/>
      </g>
    </g>
    <g>
      <path class="cls-2" d="m132.76,27.33l-.44-6.21c-.11-1.52-.17-3.15.88-4.41,2.69,2.54,5.44,5.16,6.77,8.31.49-.68.39-1.53.38-2.32-.02-2.46,1.13-4.92,3.17-6.76.8.57,1.6,1.15,2.39,1.72.16.11.32.23.38.4.1.28-.15.55-.35.79-1.59,1.98-.18,4.73-1.35,6.89-.78,1.44-2.56,2.34-4.32,3.03-.33.13-.69.26-1.05.24-.37-.02-.71-.18-.98-.39-1.61-1.2-1.32-3.53-3.09-4.58,0,1.71-.01,3.43-.02,5.14,0,.19-.01.41-.17.55-.3.26-.85.11-1.18-.12-1-.68-1.51-1.3-1.02-2.28"/>
      <path class="cls-2" d="m133.01,27.33l-.39-5.54c-.12-1.67-.35-3.5.76-4.91h-.35c2.58,2.43,5.29,4.95,6.73,8.26.08.18.34.14.43,0,.4-.62.44-1.29.42-2.01-.01-.88.04-1.72.27-2.57.47-1.74,1.5-3.24,2.82-4.45l-.3.04c.51.36,1.02.73,1.52,1.09.23.17.72.39.87.62.23.35.16.55-.06.84-.53.71-.76,1.5-.84,2.38-.17,2,.31,4.02-1.34,5.55-.78.72-1.77,1.21-2.74,1.63-.48.21-1.05.51-1.59.48-.63-.04-1.16-.54-1.49-1.04-.9-1.32-1-2.97-2.44-3.89-.16-.1-.38.03-.38.22,0,1.4,0,2.8-.01,4.2,0,.25.09.73,0,.95-.31.71-.8.35-1.17.08-.63-.46-1.09-1-.74-1.8.13-.29-.3-.55-.43-.25-.31.69-.28,1.32.24,1.9.45.5,1.21,1.13,1.94.99.9-.16.66-1.35.67-2.01,0-1.35,0-2.71.01-4.06l-.38.22c1.4.89,1.46,2.67,2.4,3.9.42.56,1.06,1.07,1.79,1.1.82.03,1.71-.47,2.44-.81,1.46-.69,2.95-1.69,3.46-3.3.54-1.72-.11-3.61.55-5.3.24-.61,1.23-1.37.76-2.05-.24-.34-.7-.57-1.03-.8-.58-.42-1.16-.83-1.74-1.25-.09-.07-.23-.03-.3.04-1.22,1.13-2.19,2.49-2.75,4.06-.26.72-.42,1.48-.47,2.25-.07.95.18,1.97-.37,2.82h.43c-1.45-3.35-4.2-5.9-6.81-8.36-.09-.08-.27-.11-.35,0-1.03,1.31-1.07,2.88-.96,4.48.14,2.11.3,4.21.45,6.32.02.32.52.32.5,0h0Z"/>
    </g>
    <g>
      <path class="cls-2" d="m33.05,30.6l-.44-6.21c-.11-1.52-.17-3.15.88-4.41,2.69,2.54,5.44,5.16,6.77,8.31.49-.68.39-1.53.38-2.32-.02-2.46,1.13-4.92,3.17-6.76.8.57,1.6,1.15,2.39,1.72.16.11.32.23.38.4.1.28-.15.55-.35.79-1.59,1.98-.18,4.73-1.35,6.89-.78,1.44-2.56,2.34-4.32,3.03-.33.13-.69.26-1.05.24-.37-.02-.71-.18-.98-.39-1.61-1.2-1.32-3.53-3.09-4.58,0,1.71-.01,3.43-.02,5.14,0,.19-.01.41-.17.55-.3.26-.85.11-1.18-.12-1-.68-1.51-1.3-1.02-2.28"/>
      <path class="cls-2" d="m33.3,30.6l-.39-5.54c-.12-1.67-.35-3.5.76-4.91h-.35c2.58,2.43,5.29,4.95,6.73,8.26.08.18.34.14.43,0,.4-.62.44-1.29.42-2.01-.01-.88.04-1.72.27-2.57.47-1.74,1.5-3.24,2.82-4.45l-.3.04c.51.36,1.02.73,1.52,1.09.23.17.72.39.87.62.23.35.16.55-.06.84-.53.71-.76,1.5-.84,2.38-.17,2,.31,4.02-1.34,5.55-.78.72-1.77,1.21-2.74,1.63-.48.21-1.05.51-1.59.48-.63-.04-1.16-.54-1.49-1.04-.9-1.32-1-2.97-2.44-3.89-.16-.1-.38.03-.38.22,0,1.4,0,2.8-.01,4.2,0,.25.09.73,0,.95-.31.71-.8.35-1.17.08-.63-.46-1.09-1-.74-1.8.13-.29-.3-.55-.43-.25-.31.69-.28,1.32.24,1.9.45.5,1.21,1.13,1.94.99.9-.16.66-1.35.67-2.01,0-1.35,0-2.71.01-4.06l-.38.22c1.4.89,1.46,2.67,2.4,3.9.42.56,1.06,1.07,1.79,1.1.82.03,1.71-.47,2.44-.81,1.46-.69,2.95-1.69,3.46-3.3.54-1.72-.11-3.61.55-5.3.24-.61,1.23-1.37.76-2.05-.24-.34-.7-.57-1.03-.8-.58-.42-1.16-.83-1.74-1.25-.09-.07-.23-.03-.3.04-1.22,1.13-2.19,2.49-2.75,4.06-.26.72-.42,1.48-.47,2.25-.07.95.18,1.97-.37,2.82h.43c-1.45-3.35-4.2-5.9-6.81-8.36-.09-.08-.27-.11-.35,0-1.03,1.31-1.07,2.88-.96,4.48.14,2.11.3,4.21.45,6.32.02.32.52.32.5,0h0Z"/>
    </g>
    <g>
      <path class="cls-2" d="m29.84,17.43c-.49-5.91-4.84-10.76-9.45-10.55-1.09.05-2.2.36-3.13,1.12-2.05,1.68-2.77,5.05-3.18,8.12-.72,5.32-1.04,10.71-.98,16.08,1.43.52,5.27,1.02,6.02-.66.39-.87.28-1.95.14-2.93-.25-1.74-.39-3.96.8-4.89.42-.33.93-.4,1.42-.46.87-.11,1.87-.15,2.44.67.56.8.45,2.04.36,3.13-.15,1.85-.08,3.86.81,5.29.89,1.43,2.86,1.79,3.71.28.41-.73.48-1.67.53-2.56l.46-8.33c.08-1.44.16-2.88.04-4.31Zm-5.32,1.31c-.6.49-1.37.21-2.07.04-1.23-.31-2.51-.25-3.72.18.21-2.67,3.61-4.34,5.69-4.53.32.69.64,1.4.73,2.19.09.79-.1,1.69-.63,2.12Z"/>
      <g>
        <path class="cls-2" d="m30.09,17.43c-.33-3.37-1.78-6.71-4.45-8.89-2.24-1.82-5.63-2.73-8.2-.99-2.93,1.99-3.35,6.36-3.75,9.54-.63,5.01-.9,10.06-.85,15.11,0,.12.08.2.18.24,1.61.55,4.48,1.05,5.89-.23,2.33-2.11-1.78-7.7,2.26-8.66,1.38-.33,2.74.13,2.9,1.69.1.93-.07,1.88-.09,2.81-.04,1.47.08,3.14.9,4.41,1.35,2.11,4.01,1.59,4.54-.81.47-2.16.33-4.55.46-6.74.14-2.49.39-5,.22-7.49-.02-.32-.52-.32-.5,0,.24,3.53-.2,7.15-.39,10.68-.08,1.47.25,4.69-1.6,5.2-2.14.58-2.95-2.29-3.08-3.83-.15-1.8.99-5.45-1.26-6.35-1.66-.66-3.77.14-4.23,1.88-.28,1.06-.18,2.2-.05,3.28.18,1.52.56,3.5-1.32,4.01-1.08.29-2.35.17-3.43-.05-.11-.02-.36-.05-.47-.11-.44-.23-.25.08-.4-.42-.24-.79,0-2.1.02-2.93.07-3.58.31-7.16.72-10.72.35-3.01.61-6.74,2.64-9.17,2.24-2.68,6.14-1.95,8.57.01,2.57,2.08,3.98,5.3,4.3,8.53.03.32.53.32.5,0Z"/>
        <path class="cls-2" d="m24.4,18.52c-.4.29-.83.26-1.3.16s-.92-.24-1.4-.3c-1.02-.13-2.06,0-3.03.33l.32.24c.12-1.3,1.04-2.33,2.09-3.02.99-.66,2.16-1.14,3.35-1.26l-.22-.12c.33.71.67,1.46.71,2.26.03.62-.08,1.33-.57,1.75-.24.21.11.56.35.35.56-.49.74-1.29.72-2.01-.03-.93-.4-1.78-.78-2.61-.03-.07-.14-.13-.22-.12-2.52.25-5.69,2-5.94,4.78-.01.16.17.29.32.24,1.06-.36,2.19-.47,3.29-.24.84.17,1.77.58,2.55,0,.26-.19,0-.62-.25-.43Z"/>
      </g>
    </g>
    <g>
      <path class="cls-2" d="m56.99,31.94c-.3-3.44-.05-6.92.72-10.28.48-2.08,1.25-4.24,2.96-5.52.29-.22.65-.41,1-.32.24.06.43.24.6.42,1.82,1.92,2.99,4.43,3.31,7.05.8-1.21.9-2.73,1.34-4.11.44-1.38,1.49-2.8,2.94-2.78.99.02,1.86.74,2.33,1.61s.62,1.87.76,2.85c.41,2.86.83,5.73.79,8.62,0,.83-.14,1.81-.86,2.22-.9.51-2-.23-2.61-1.06-.97-1.31-1.47-2.97-1.39-4.6.01-.28.02-.62-.21-.79-.24-.18-.59-.04-.85.1-.74.39-1.48.78-2.22,1.17-.29.16-.61.31-.94.29-.72-.06-1.05-.93-1.15-1.65s-.19-1.58-.84-1.92c-.41,1.22-.81,2.43-1.22,3.65-.83,2.49-2.1,3.91-4.46,5.05"/>
      <path class="cls-2" d="m57.24,31.94c-.18-2.21-.16-4.42.09-6.62s.6-4.3,1.45-6.25c.36-.83.84-1.62,1.49-2.26.51-.5,1.19-1.02,1.82-.4.37.37.7.79,1,1.21,1.2,1.67,1.96,3.62,2.23,5.66.03.23.32.36.47.13,1.2-1.94.84-5.9,3.47-6.68,1.81-.54,2.89,1.43,3.21,2.88.34,1.55.51,3.18.69,4.76s.31,3.09.32,4.64c0,.63.05,1.39-.28,1.96-.61,1.09-1.77.58-2.46-.12-1.03-1.04-1.56-2.68-1.63-4.11-.03-.67.19-1.9-.88-1.79-1.14.12-3.4,2.56-4.24,1.08-.56-1-.13-2.27-1.21-2.99-.14-.09-.32,0-.37.15-.61,1.82-1.06,3.84-2.04,5.51-.83,1.4-2.09,2.33-3.52,3.04-.29.14-.04.57.25.43,1.44-.71,2.72-1.66,3.59-3.04,1.09-1.74,1.56-3.88,2.2-5.81l-.37.15c1.13.75.36,2.62,1.55,3.41s2.64-.93,3.71-1.22c.95-.26.8.37.82.94,0,.29.04.59.08.88.12.83.39,1.64.78,2.38.53,1.01,1.48,2.28,2.76,2.27,1.19,0,1.65-1.16,1.74-2.17.16-1.89-.09-3.87-.32-5.74-.21-1.75-.33-3.62-.84-5.3-.38-1.25-1.26-2.52-2.65-2.72-1.31-.19-2.38.74-3,1.8-.92,1.61-.82,3.59-1.81,5.18l.47.13c-.29-2.22-1.11-4.34-2.46-6.13-.45-.59-1.1-1.66-1.96-1.6s-1.64,1.01-2.1,1.62c-1.38,1.84-1.87,4.26-2.24,6.48-.45,2.74-.55,5.52-.33,8.29.03.32.53.32.5,0h0Z"/>
    </g>
    <g>
      <path class="cls-2" d="m88.68,28.91c-.13-.35-.42-.62-.61-.95-.23-.39-.3-.85-.34-1.3-.14-1.52.05-3.08.56-4.52.2-.58.46-1.16.45-1.78s-1.71-1.07-2.32-1.18c-1.58-.69-3.48-.43-4.95.47-1.47.9-2.52,2.39-3.11,4.01-.54,1.49-.72,3.11-.51,4.68.04.29.09.58.24.83.24.41.7.65,1.16.76,1.2.28,2.48-.21,3.44-.99.96-.78,1.65-1.83,2.32-2.87-.09.95-.19,1.93.1,2.84s1.04,1.75,1.99,1.81c.95.07,1.91-.92,1.58-1.82Zm-5.66-2.91c-.81.5-2.19.02-2.12-.93.02-.32.2-.6.38-.87.75-1.17,1.87-2.5,3.22-2.16-.27.92-.66,3.46-1.47,3.97Z"/>
      <g>
        <path class="cls-2" d="m88.9,28.78c-.15-.32-.38-.57-.56-.87-.24-.39-.31-.81-.36-1.25-.07-.76-.06-1.53.04-2.29s.27-1.46.51-2.17c.2-.57.56-1.29.45-1.92-.13-.75-1.26-1.03-1.87-1.2-1.07-.29-2.07-.63-3.2-.51-2.5.26-4.48,2.08-5.49,4.3-.57,1.26-.88,2.64-.9,4.02-.01,1.06-.03,2.42,1.01,3.02,1.14.65,2.62.31,3.68-.33,1.32-.8,2.19-2.13,3.02-3.39l-.47-.13c-.16,1.65-.21,3.82,1.54,4.68,1.27.63,3.06-.4,2.62-1.92-.09-.31-.57-.18-.48.13.19.66-.3,1.29-.93,1.46s-1.27-.21-1.67-.69c-.84-1.02-.69-2.44-.57-3.67.03-.26-.34-.32-.47-.13-1.18,1.81-3.14,4.57-5.71,3.68-1.28-.45-1.13-2.23-1.04-3.34.09-1.23.43-2.46,1-3.55,1.06-2.05,3.02-3.67,5.41-3.68.92,0,1.83.31,2.7.58.37.11.76.24,1.08.46.5.36.11,1.13-.06,1.6-.45,1.28-.74,2.57-.75,3.93,0,.59.02,1.2.16,1.78.15.64.61,1.06.87,1.64.13.29.56.04.43-.25Z"/>
        <path class="cls-2" d="m82.9,25.78c-.53.31-1.66.18-1.75-.58-.03-.27.12-.52.25-.74.14-.23.3-.46.46-.69.3-.41.65-.82,1.06-1.12.44-.32.96-.51,1.5-.39l-.17-.31c-.2.68-.32,1.38-.51,2.07-.1.37-.21.73-.37,1.08-.11.24-.26.53-.47.67-.27.17-.02.61.25.43.61-.39.84-1.26,1.03-1.9.21-.73.34-1.48.55-2.21.04-.13-.04-.28-.17-.31-1.31-.31-2.36.7-3.08,1.66-.37.49-.88,1.12-.83,1.76.04.5.39.88.84,1.07.53.23,1.16.22,1.66-.07.28-.16.03-.6-.25-.43Z"/>
      </g>
    </g>
  </g>
</svg>