<?xml version="1.0" encoding="UTF-8"?>
<svg id="Layer_2" data-name="Layer 2" xmlns="http://www.w3.org/2000/svg" viewBox="0 0 161.6 148.56">
  <defs>
    <style>
      .cls-1 {
        fill: none;
      }

      .cls-2 {
        fill: #5e000b;
      }
    </style>
  </defs>
  <g id="Layer_1-2" data-name="Layer 1">
    <path class="cls-2" d="m4.16,52.69c5.83,5.56,11.1,11.67,15.71,18.28.84,1.21,2.81,1.83,3.93.51,7.39-8.72,17.02-15.36,27.86-19l-3.08-3.08c-2.91,10.53-4.19,21.43-4.95,32.3-.38,5.36-.67,10.73-.91,16.1s-.22,10.72.95,15.95c.99,4.4,2.97,8.7,6.13,11.97,3.44,3.56,7.87,4.98,12.75,5.01s9.93.05,14.92.77,10.01,1.78,15,2.75c11.13,2.16,22.68,3.93,33.8.7.77-.22,1.61-.91,1.75-1.75.86-5.43,1.38-10.91,1.45-16.41s-.37-10.85-.92-16.27-1.12-10.63-1.08-15.97,1-10.13,2-15.19c1.15-5.84,2.03-11.73.75-17.63l-4.18,2.43c4.83,5.95,9.65,11.91,14.48,17.86.82,1.01,2.7.93,3.54,0,4.17-4.64,7.87-9.72,10.91-15.17.74-1.33,1.45-2.69,2.12-4.06.34-.69.79-1.43,1-2.17.29-1.06-.22-1.94-.82-2.76-1.49-2.05-3.43-3.65-5.63-4.89-4.23-2.39-9.07-3.47-13.27-5.94-2.45-1.44-4.44-3.47-6.46-5.44-2.16-2.1-4.43-4.06-7-5.64-5.75-3.54-12.61-5.29-19.36-4.96-.85.04-1.75.44-2.16,1.24-3.17,6.19-8.14,14.63-16.38,13.48-6.3-.88-7.53-8.93-11.86-12.71-1.24-1.08-2.66-1.94-4.27-2.33-2.44-.6-4.91-.12-7.31.4-4.8,1.03-9.59,2.06-14.39,3.1-9.11,1.98-18.41,4.06-26.88,8.08-7.96,3.77-13.64,10.28-18.51,17.43-1.82,2.67,2.52,5.17,4.32,2.52,4.13-6.08,8.88-11.6,15.5-15.04,8.07-4.19,17.39-6.11,26.21-8.03,4.71-1.03,9.42-2.03,14.13-3.04,2.02-.43,4.27-1.16,6.29-.4-.03,0,1.07.58,1.05.58.59.44,1.12,1.02,1.58,1.58,1.71,2.08,3.04,5.04,4.79,7.34,2.36,3.11,5.42,5.13,9.37,5.52,10.16,1,16.6-8,20.67-15.96l-2.16,1.24c7.75-.38,15.38,2.28,21.12,7.52,3.02,2.76,5.75,5.85,9.33,7.93,2.96,1.71,6.23,2.81,9.38,4.09s6.3,2.81,8.13,5.71v-2.52c-3.33,7.21-7.68,13.89-12.99,19.8h3.54c-4.83-5.95-9.65-11.91-14.48-17.86-1.69-2.09-4.66.22-4.18,2.43,1.03,4.74.3,9.59-.62,14.28-.98,5.07-2.07,10.1-2.27,15.27-.4,10.54,1.83,20.97,1.96,31.49.07,5.94-.34,11.89-1.27,17.76l1.75-1.75c-9.05,2.63-18.49,1.62-27.63-.04-9.65-1.75-19.28-4.17-29.13-4.4-4.39-.1-9.02.73-12.89-1.83-3.06-2.03-5.06-5.56-6.15-8.98-1.48-4.68-1.65-9.63-1.52-14.5.13-5.12.46-10.23.78-15.34.72-11.55,1.9-23.11,4.99-34.29.49-1.76-1.24-3.69-3.08-3.08-11.63,3.91-22.13,10.92-30.07,20.29l3.93.51c-4.85-6.96-10.35-13.43-16.49-19.29-2.33-2.22-5.87,1.31-3.54,3.54h0Z"/>
    <path class="cls-2" d="m68.71,59.34c-.25,6.25-.5,12.5-.76,18.75-.1,2.41,3.65,2.41,3.75,0,.25-6.25.5-12.5.76-18.75.1-2.41-3.65-2.41-3.75,0h0Z"/>
    <path class="cls-2" d="m73.36,69.62c.02.07.02.43.03.17,0,.14-.02.43-.14.54.03-.03.11-.16.12-.19-.17.21-.2.26-.11.15.03-.03.05-.06.08-.09.06-.06.12-.11.18-.17.16-.17-.29.2-.09.07.16-.11.31-.21.46-.32.72-.5,1.45-.99,2.17-1.49,1.43-.98,2.85-1.95,4.28-2.93.81-.55,1.25-1.67.67-2.57-.52-.8-1.7-1.27-2.57-.67-1.64,1.12-3.28,2.24-4.91,3.37-1.76,1.21-4.43,2.55-3.78,5.13.24.95,1.36,1.62,2.31,1.31s1.57-1.29,1.31-2.31h0Z"/>
    <path class="cls-2" d="m72.67,72.25c.6.3,1.19.62,1.76.98.25.16.5.32.74.49.09.06.17.14.27.19-.47-.26-.1-.08.03.03.33.28.64.57.93.9.05.06.11.13.16.19-.42-.46-.14-.19-.05-.05.1.15.2.3.29.46s.16.31.24.47c.18.37-.11-.29-.06-.14.03.08.06.16.09.24.12.33.21.67.29,1.01.18.77.3,1.56.44,2.35.17.97,1.4,1.6,2.31,1.31,1.04-.34,1.49-1.27,1.31-2.31-.3-1.68-.53-3.38-1.42-4.88-1.22-2.07-3.34-3.42-5.43-4.47-.87-.44-2.07-.26-2.57.67-.45.85-.26,2.09.67,2.57h0Z"/>
    <path class="cls-2" d="m83.95,70.63l-.04,6.34c0,.79.58,1.63,1.38,1.81s1.75-.1,2.12-.86c.62-1.28.86-2.61,1.16-3.98.06-.28.12-.55.2-.82.04-.14.08-.28.13-.42.02-.06.04-.12.06-.18.02-.05.13-.32.02-.07s.07-.15.11-.23c.06-.11.12-.22.18-.32.04-.06.31-.45.13-.21-.17.22.11-.12.17-.18s.39-.35.18-.17.06-.02.12-.06c.33-.21-.33.09-.04,0,.11-.03.23-.05.34-.09.22-.08-.43.02-.2.02.05,0,.1,0,.15-.01.1,0,.2,0,.3,0,.31,0-.44-.11-.06,0,.05.01.09.03.14.04.24.05-.13-.05-.18-.09.07.05.21.13.29.16.14.05-.18-.12-.19-.15,0,0,.1.1.1.1.01,0,.26.29,0,0-.19-.22-.08-.08-.04-.03.02.02.13.2,0,0s-.01.05.01.11c.09.24,0-.34,0-.08,0,.07.01.14.01.22,0,.14,0,.29,0,.43,0,.36-.01.73-.02,1.09-.03,1.63-.06,3.27-.09,4.9-.02.98.87,1.92,1.88,1.88s1.86-.82,1.88-1.88c.03-1.63.06-3.27.09-4.9.02-.89.07-1.78-.13-2.66-.21-.93-.8-1.71-1.58-2.23-1.31-.88-3.06-.8-4.44-.14-1.46.71-2.34,2.25-2.84,3.72-.24.72-.38,1.47-.53,2.22-.08.42-.17.83-.28,1.24-.05.18-.1.36-.17.54-.02.05-.06.21-.1.26l.08-.19c-.04.09-.08.17-.12.26l3.49.95.04-6.34c0-.98-.87-1.92-1.88-1.88s-1.87.82-1.88,1.88h0Z"/>
    <path class="cls-2" d="m97.75,71.78c0,2.3,0,4.59,0,6.89,0,.98.86,1.92,1.88,1.88s1.88-.82,1.88-1.88c0-2.3,0-4.59,0-6.89,0-.98-.86-1.92-1.88-1.88s-1.88.82-1.88,1.88h0Z"/>
    <path class="cls-2" d="m100,65.23c2.41,0,2.42-3.75,0-3.75s-2.42,3.75,0,3.75h0Z"/>
    <path class="cls-2" d="m105.9,62.98c-.16,5.36-.31,10.71-.47,16.07-.07,2.41,3.68,2.41,3.75,0,.16-5.36.31-10.71.47-16.07.07-2.41-3.68-2.41-3.75,0h0Z"/>
    <path class="cls-2" d="m104.33,70.97h6.51c.98,0,1.92-.86,1.88-1.88s-.82-1.88-1.88-1.88h-6.51c-.98,0-1.92.86-1.88,1.88s.82,1.88,1.88,1.88h0Z"/>
    <path class="cls-2" d="m76.02,90.45c.15,5.62.11,11.23-.12,16.85-.1,2.41,3.65,2.41,3.75,0,.23-5.61.26-11.23.12-16.85-.06-2.41-3.81-2.42-3.75,0h0Z"/>
    <path class="cls-2" d="m73.34,91.98c3.32-.2,6.65-.13,9.96.21.98.1,1.92-.93,1.88-1.88-.05-1.1-.83-1.77-1.88-1.88-3.31-.34-6.64-.41-9.96-.21-.98.06-1.92.82-1.88,1.88.04.97.83,1.94,1.88,1.88h0Z"/>
    <path class="cls-2" d="m88.89,100.17c1.08.1,2.28,0,3.23-.57,1.26-.75,1.9-2.24,1.51-3.66-.71-2.6-3.75-3.52-6.13-2.99-1.96.43-3.78,1.9-4.59,3.74-.94,2.14-.57,4.55.84,6.4s3.52,3.16,5.65,4.22c.88.44,2.07.26,2.57-.67.45-.85.27-2.1-.67-2.57-.67-.33-1.34-.68-1.98-1.07-.31-.19-.62-.39-.92-.6-.15-.1-.3-.21-.44-.32.3.23-.11-.1-.22-.19-.26-.23-.51-.47-.75-.74-.11-.12-.27-.34-.08-.07-.11-.16-.22-.31-.32-.48s-.17-.34-.27-.5c.16.27.04.1-.02-.08-.05-.16-.1-.32-.13-.49-.01-.06-.07-.37-.03-.11s0-.07,0-.12c0-.16,0-.32,0-.48,0-.3-.03.07-.01.09-.01-.02.04-.18.04-.2.05-.15.09-.3.14-.45-.12.39.01,0,.1-.17.08-.14.19-.26.26-.4.09-.17-.07.09-.08.11.06-.07.12-.14.18-.21.11-.12.23-.23.34-.34.05-.05.11-.09.16-.14-.29.28-.09.07,0,0,.14-.08.27-.18.41-.25.07-.04.52-.23.27-.14s.24-.07.29-.09c.12-.04.41-.15.53-.12.01,0-.39.01-.16.03.09,0,.18-.01.27-.01.11,0,.38-.03.47.02,0,0-.35-.11-.16-.01.05.03.14.03.2.05.09.02.18.05.26.08.2.06.07.06-.03-.01.07.05.19.12.27.16-.14-.08-.14-.13,0,0,.07.07.15.15.22.23-.22-.28.02.13-.07-.09s0,0,0,.05c-.02-.09.04-.54-.02-.35-.06.22.05-.13.06-.14l.15-.18c-.12.11-.11.12,0,.02,0-.1.16-.07-.01,0-.32.13.27-.03.03,0-.06,0-.13.04-.19.06s-.45.07-.16.04c.26-.02.01,0-.03,0-.12,0-.24,0-.36,0-.21,0-.42-.02-.63-.03-.98-.09-1.92.93-1.88,1.88.05,1.09.83,1.78,1.88,1.88h0Z"/>
    <path class="cls-2" d="m99.68,100.96c2.5.83,5.95.42,6.73-2.56.69-2.61-1.58-5.25-4.11-5.57-2.92-.38-5.34,1.71-6.96,3.9s-2.53,5.28-1.13,7.92c1.3,2.45,4.11,3.6,6.58,4.47.96.33,2.05-.38,2.31-1.31.28-1.03-.35-1.97-1.31-2.31-.36-.13-.72-.26-1.08-.4-.08-.03-.59-.25-.3-.12-.19-.09-.38-.17-.57-.27-.35-.17-.68-.35-1.01-.56-.1-.06-.19-.13-.29-.19-.01,0-.25-.18-.09-.06s-.07-.05-.08-.07c-.11-.09-.21-.19-.31-.28-.12-.12-.23-.24-.34-.36-.14-.16.02.03.04.05-.06-.09-.13-.18-.18-.28-.09-.14-.17-.29-.23-.44.14.31-.06-.27-.09-.39-.03-.12-.03-.66,0-.85-.03.17.04-.15.04-.15.03-.1.05-.2.08-.3.04-.13.08-.26.13-.39.11-.31-.09.18.05-.13.7-1.58,1.83-2.92,3.28-3.61-.23.11.18-.06.26-.08.09-.03.18-.05.27-.07.3-.08-.25,0,.06-.02.09,0,.6,0,.38-.02-.27-.03.49.18.27.08-.19-.09.2.13.26.17.23.14-.2-.2,0,0,.05.05.11.11.17.16.24.2-.06-.16.09.11.05.08.1.19.15.27-.09-.12-.07-.24-.02-.03.01.06.03.16.06.21.1.21-.04-.41-.01,0,0,.09.06.23,0,.03s-.06.1.01-.06c.12-.25-.04.04-.04.04.12-.14.14-.16.04-.06-.08.07-.08.08,0,.02.18-.11-.46.21-.06.06-.12.05-.68.12-.32.1-.23.01-.46,0-.7,0-.02,0-.31-.04-.1,0s-.16-.04-.19-.04c-.26-.06-.51-.13-.76-.21-.96-.32-2.05.37-2.31,1.31-.28,1.02.35,1.98,1.31,2.31h0Z"/>
    <rect class="cls-1" width="161.6" height="148.56"/>
  </g>
</svg>