<?xml version="1.0" encoding="UTF-8"?>
<svg id="Layer_2" data-name="Layer 2" xmlns="http://www.w3.org/2000/svg" viewBox="0 0 151.12 44.28">
  <defs>
    <style>
      .cls-1 {
        fill: none;
      }

      .cls-2 {
        fill: #fff;
      }

      .cls-3 {
        fill: #be3428;
      }
    </style>
  </defs>
  <g id="Layer_1-2" data-name="Layer 1">
    <g>
      <path class="cls-3" d="m31.86,42c-5.49,1.78-12.37-5.28-15-1.19-1.35,2.1-7.07,4.89-9.99.98-1.26-1.69-1.85-2.26-2.54-4.45C2.67,32.04,1.07,22.42.09,16.95c-.15-.83-.14-11.31.32-12.02.37-.59,1.06-.9,1.71-1.16C9.73.8,18.23,1.56,26.41,1.76c11.34.29,22.67-.57,34-.96,19.03-.66,38.08-.03,57.11.6,5.45.18,11.08.4,16,2.72,1.32.62,2.65,1.41,4.11,1.41.9,0,1.76-.3,2.63-.53,3.93-1.04,9.02-.01,10.42,3.73.45,1.2.45,2.5.44,3.78-.03,5.69-.05,11.38-.08,17.07-.01,2.18-.04,4.44-1,6.41-1.25,2.55-3.94,4.2-6.74,4.91s-5.73.63-8.62.53c-9.53-.31-19.06-.63-28.58-.94-3-.1-6.08-.22-8.8-1.46-1.2-.55-2.31-1.31-3.58-1.66-1.11-.3-2.28-.27-3.42-.2-11.13.66-21.85,4.74-32.99,5.15-8.48.32-17.03-1.5-25.43-.32"/>
      <path class="cls-2" d="m25.8,7.68c-3.25-.47-6.62-.9-9.7.54-2.87,1.34-4.26,3.92-4.41,7.01-.17,3.57.23,7.23.83,10.74.27,1.56.4,3.61,1.34,4.93s2.54,1.14,4,1c4.18-.42,8.34-.99,12.47-1.69,1.58-.27.91-2.68-.66-2.41-3.85.65-7.71,1.18-11.59,1.57-.49.05-1.7.42-2.15.12s-.59-2.06-.68-2.53c-.37-1.82-.65-3.66-.82-5.51s-.27-3.63-.25-5.45c.02-1.6.2-3.21,1.37-4.41,2.47-2.51,6.46-1.96,9.59-1.51,1.57.23,2.25-2.18.66-2.41h0Z"/>
      <path class="cls-2" d="m13.53,23.03c1.95,0,3.91,0,5.86,0,.65,0,1.28-.57,1.25-1.25s-.55-1.25-1.25-1.25c-1.95,0-3.91,0-5.86,0-.65,0-1.28.57-1.25,1.25s.55,1.25,1.25,1.25h0Z"/>
      <path class="cls-2" d="m35.45,18.71c-.01,3.17-.21,6.41.02,9.57.09,1.2.93,2.34,2.27,2.02s1.98-2.07,2.61-3.09c.82-1.31,1.61-2.64,2.46-3.93.61-.94,1.35-2.03,2.41-2.52.39-.18.92-.4,1.17-.03.3.46.11,1.61.06,2.11-.14,1.42-.64,2.75-1.37,3.97-.79,1.31.91,2.33,1.96,1.51,1.17-.91,1.81-2.22,2.39-3.55.5-1.14,1.05-2.68,2.23-3.3s2.44.41,2.88,1.53c.61,1.58-.09,3.45-.74,4.9s1.5,2.73,2.16,1.26c.92-2.06,1.74-4.43,1.03-6.69-.58-1.85-2.17-3.48-4.16-3.68s-3.57,1.11-4.56,2.69c-1.05,1.67-1.38,3.8-3,5.07l1.96,1.51c.79-1.31,1.34-2.74,1.59-4.25.22-1.34.4-3.05-.24-4.3-1.44-2.8-5.03-1.08-6.56.65-.92,1.04-1.63,2.25-2.36,3.43-.43.68-.85,1.36-1.28,2.05-.26.42-.52.84-.78,1.26-.15.23-.52.68-.59.94-.35.37-.03.51.95.44-.01-.19-.01-.39-.01-.58,0-.37,0-.75,0-1.12,0-.87,0-1.75,0-2.62,0-1.75,0-3.5,0-5.24,0-1.61-2.49-1.61-2.5,0h0Z"/>
      <path class="cls-2" d="m61.41,19.83c0,2.04-.01,4.08-.02,6.12,0,1.73.13,3.59,1.98,4.31.51.2,1.15-.13,1.41-.57.97-1.64,1.95-3.27,2.92-4.91.47-.8.93-1.62,1.43-2.4.2-.31.28-.4.57-.68.11-.1.13-.11.05-.04.07-.05.14-.09.21-.13-.11.05-.1.05.04,0-.11,0-.12,0-.03,0,.1,0,.08,0-.04-.02.07.01.13.03.2.05-.14-.07-.15-.07-.03,0,.12.08.11.07-.02-.02.05.04.09.09.14.14-.09-.12-.1-.12-.02,0,.02.05.19.44.1.18.1.29.18.59.22.89-.04-.27,0,.2.01.25,0,.13,0,.27,0,.4,0,1.88-.14,3.76-.27,5.64-.04.67.61,1.25,1.25,1.25.71,0,1.21-.57,1.25-1.25.11-1.7.2-3.4.25-5.11.04-1.22-.03-2.61-.75-3.64-.88-1.26-2.54-1.65-3.85-.75s-2.01,2.5-2.8,3.82c-1,1.69-2.01,3.38-3.01,5.07l1.41-.57c.13.05.13.05,0-.02.11.09.12.08.02-.02.09.11.09.11.01-.01l-.05-.1c.11.23-.05-.19-.06-.25s-.06-.36-.03-.15c-.08-.75-.03-1.52-.03-2.27l.02-5.21c0-1.61-2.49-1.61-2.5,0h0Z"/>
      <path class="cls-2" d="m80.48,22.63c3.19.62,6.52-.81,8.18-3.63.4-.68.04-1.64-.75-1.84-3.41-.84-7.67-1.25-9.91,2.07-2.01,2.98-.86,7.03,1.54,9.39,1.52,1.49,3.44,2.46,5.42,3.2.63.24,1.37-.26,1.54-.87.19-.7-.24-1.3-.87-1.54-3.03-1.13-6.5-3.44-6.11-7.12.15-1.46,1.08-2.64,2.53-3.05,1.69-.48,3.54-.07,5.21.34l-.75-1.84c-1.06,1.81-3.28,2.89-5.36,2.48-.66-.13-1.35.19-1.54.87-.17.61.21,1.41.87,1.54h0Z"/>
      <path class="cls-2" d="m100.65,16.69c-2.17-.52-4.06.57-5.7,1.9-.78.63-1.65,1.33-1.92,2.35-.29,1.09.2,2.14.89,2.96,1.37,1.61,3.25,2.74,4.67,4.3.15.16.6.61.52.84.03-.08-.1.04-.19.08-.84.38-1.87.35-2.74.13-1.56-.4-2.22,2.01-.66,2.41,1.77.45,4.72.42,5.78-1.4,1.16-1.99-.89-3.83-2.22-5.02-.83-.75-1.67-1.49-2.5-2.24-.34-.31-1.34-1-1.08-1.54.18-.37.75-.72,1.06-.97.36-.3.73-.57,1.13-.82.7-.43,1.47-.77,2.3-.57,1.56.38,2.23-2.03.66-2.41h0Z"/>
      <path class="cls-2" d="m108.57,21.22v7.82c0,.65.57,1.28,1.25,1.25s1.25-.55,1.25-1.25v-7.82c0-.65-.57-1.28-1.25-1.25s-1.25.55-1.25,1.25h0Z"/>
      <path class="cls-2" d="m110.1,16.05c1.61,0,1.61-2.5,0-2.5s-1.61,2.5,0,2.5h0Z"/>
      <path class="cls-2" d="m121.31,10.91c.7,6.22-.01,12.45-2.12,18.34-.54,1.52,1.87,2.17,2.41.66,2.17-6.07,2.94-12.6,2.21-19.01-.08-.68-.52-1.24-1.25-1.25-.62,0-1.33.58-1.25,1.25h0Z"/>
      <path class="cls-2" d="m117.64,21.91h9.49c1.61,0,1.61-2.5,0-2.5h-9.49c-1.61,0-1.61,2.5,0,2.5h0Z"/>
      <path class="cls-2" d="m136.11,23c1.28-.23,2.57.32,3.85-.06,1.11-.33,2.18-1.26,2.43-2.42.3-1.39-.62-2.58-1.94-2.94-1.18-.33-2.54-.21-3.71.07-2.35.56-4.42,2.14-5.56,4.27-1.07,2-1.87,5.48.09,7.2,2.22,1.95,5.65,1.82,8.4,1.69.67-.03,1.25-.55,1.25-1.25,0-.65-.57-1.28-1.25-1.25-1.88.09-3.82.19-5.63-.46-.56-.2-1.3-.5-1.4-1.16-.13-.81.02-1.7.26-2.48.49-1.59,1.6-2.88,3.07-3.65.71-.37,1.51-.61,2.31-.66.4-.03.83-.04,1.23.01.01,0,.32.07.42.11-.06-.02.02.03.04.03.21-.03-.01.08.01,0,0,.01-.04-.18-.03-.14-.02-.16,0,.05,0,.02,0,.02-.12.2-.16.24-.19.2-.38.33-.66.38-.58.1-1.22-.03-1.79-.07-.65-.05-1.27-.03-1.91.09s-1.04.93-.87,1.54c.19.7.87.99,1.54.87h0Z"/>
      <rect class="cls-1" width="151.12" height="44.28"/>
    </g>
  </g>
</svg>