<?xml version="1.0" encoding="UTF-8"?>
<svg id="Layer_2" data-name="Layer 2" xmlns="http://www.w3.org/2000/svg" viewBox="0 0 151.12 44.28">
  <defs>
    <style>
      .cls-1 {
        fill: none;
      }

      .cls-2 {
        fill: #f6f6f6;
      }

      .cls-3 {
        fill: #be3428;
      }
    </style>
  </defs>
  <g id="Layer_1-2" data-name="Layer 1">
    <g>
      <path class="cls-3" d="m31.86,42c-5.49,1.78-12.37-5.28-15-1.19-1.35,2.1-7.07,4.89-9.99.98-1.26-1.69-1.85-2.26-2.54-4.45C2.67,32.04,1.07,22.42.09,16.95c-.15-.83-.14-11.31.32-12.02.37-.59,1.06-.9,1.71-1.16C9.73.8,18.23,1.56,26.41,1.76c11.34.29,22.67-.57,34-.96,19.03-.66,38.08-.03,57.11.6,5.45.18,11.08.4,16,2.72,1.32.62,2.65,1.41,4.11,1.41.9,0,1.76-.3,2.63-.53,3.93-1.04,9.02-.01,10.42,3.73.45,1.2.45,2.5.44,3.78-.03,5.69-.05,11.38-.08,17.07-.01,2.18-.04,4.44-1,6.41-1.25,2.55-3.94,4.2-6.74,4.91s-5.73.63-8.62.53c-9.53-.31-19.06-.63-28.58-.94-3-.1-6.08-.22-8.8-1.46-1.2-.55-2.31-1.31-3.58-1.66-1.11-.3-2.28-.27-3.42-.2-11.13.66-21.85,4.74-32.99,5.15-8.48.32-17.03-1.5-25.43-.32"/>
      <rect class="cls-1" width="151.12" height="44.28"/>
    </g>
    <g>
      <path class="cls-2" d="m91.43,20.09c1.33.12,2.72.06,3.86-.64.18-.11.36-.25.45-.44.23-.47-.13-1.02-.53-1.35-1.2-1.01-2.97-1.29-4.43-.7s-2.52,2.03-2.67,3.6c-.03.33-.02.67.09.98.11.29.31.55.55.75,1.17,1.02,2.94.9,4.33,1.59.76.38,1.37.98,1.97,1.58.29.3.6.62.69,1.02.18.82-.62,1.58-1.45,1.72s-1.66-.13-2.48-.3c-1.01-.21-2.05-.27-3.08-.31-.45-.02-.92-.03-1.31.17s-.68.7-.49,1.11c.12.26.4.41.66.53,2.77,1.29,5.94,1.69,8.94,1.13.24-.04.49-.1.7-.23.24-.15.42-.39.55-.64.93-1.69.29-3.91-1.07-5.28s-3.27-2.02-5.17-2.39c-.45-.09-.91-.17-1.27-.45s-.56-.82-.3-1.2c.3-.43.94-.37,1.45-.27"/>
      <path class="cls-2" d="m91.43,20.34c1.11.09,5.41,0,4.52-2.12-.73-1.74-3.48-2.12-5.04-1.57-1.76.62-3.2,2.49-3.05,4.41.16,2.22,3.04,2.28,4.61,2.84.67.24,1.23.63,1.76,1.11.45.41,1.26,1.03,1.3,1.68.06.83-.91,1.28-1.6,1.32-.77.05-1.54-.24-2.3-.38-1.14-.21-2.48-.4-3.64-.26-.7.08-1.53.61-1.35,1.43s1.54,1.16,2.23,1.4c1.16.4,2.37.66,3.59.77s2.46.08,3.67-.11c1.03-.16,1.66-.46,2.07-1.47.84-2.1-.29-4.47-1.99-5.77-.95-.73-2.08-1.2-3.23-1.53-.61-.17-1.23-.27-1.84-.43-.33-.09-.98-.3-1-.73-.02-.37.23-.63.57-.66.22-.02.44.03.65.07.31.06.45-.42.13-.48-.58-.11-1.36-.2-1.74.38-.33.51-.07,1.17.37,1.52.66.54,1.72.55,2.51.76.98.26,1.94.63,2.79,1.17,1.71,1.09,3.03,3.22,2.38,5.29-.19.61-.52,1.12-1.16,1.29-.57.15-1.2.2-1.79.24-1.18.08-2.37.02-3.53-.18s-2.31-.54-3.39-1.02c-.15-.07-.41-.14-.53-.26-.44-.47-.2-.97.39-1.13s1.25-.04,1.84,0c1.23.08,2.39.4,3.6.56.81.11,1.67,0,2.27-.61,1.38-1.39-.5-2.96-1.61-3.76-.75-.55-1.6-.79-2.49-1-.97-.23-2.23-.44-2.81-1.34-.7-1.07.09-2.72.85-3.54s1.87-1.32,3.03-1.29c.96.02,4.01.97,2.68,2.33-.41.42-1.4.56-1.95.62-.59.06-1.19.04-1.78-.01-.32-.03-.32.47,0,.5h0Z"/>
    </g>
    <g>
      <path class="cls-2" d="m105.8,22.33l-.73,5.87c-.11.86-.11,1.92.64,2.34.6.34,1.4.02,1.82-.53s.56-1.25.69-1.93c.33-1.78.67-3.57,1-5.35.02-.12.04-.26-.04-.35-.07-.08-.19-.08-.3-.08-.82,0-2.26.01-3.08.02"/>
      <path class="cls-2" d="m105.55,22.33c-.24,1.9-.48,3.81-.71,5.71-.13,1.05-.15,2.73,1.26,2.88,1.57.17,2.13-1.56,2.36-2.77.17-.92.34-1.84.51-2.75.08-.45.17-.89.25-1.34s.22-.92.25-1.38c.05-.77-.82-.62-1.34-.61-.78,0-1.56,0-2.34.02-.32,0-.32.5,0,.5.53,0,1.07,0,1.6-.01.28,0,.57,0,.85,0,.19,0,.63-.09.73.11.05.1-.08.43-.1.55-.03.18-.07.37-.1.55-.07.37-.14.73-.21,1.1-.14.73-.27,1.47-.41,2.2-.21,1.1-.32,3.22-1.8,3.36s-1.06-2.06-.95-2.88l.65-5.22c.04-.32-.46-.32-.5,0h0Z"/>
    </g>
    <g>
      <path class="cls-2" d="m106.13,17.93c.73.05,2.03,1.69,2.67,1.34s1.09-1.17.77-1.83c-.29-.61-1.11-.82-1.76-.63s-1.18.66-1.68,1.12"/>
      <path class="cls-2" d="m106.13,18.56c.1,0-.17-.05-.07,0,.02,0,.05.02.08.02.15.04-.13-.07.01,0,.12.07.24.14.36.21.25.17.49.36.74.55.49.36,1.13.79,1.75.53.78-.33,1.38-1.25,1.29-2.11-.11-.99-.96-1.58-1.91-1.63-1.07-.05-1.94.68-2.69,1.36-.24.22-.24.66,0,.88.26.24.63.24.88,0,.14-.13.28-.26.42-.38.03-.02.06-.05.09-.07,0,0,.14-.11.07-.06s.08-.06.07-.05c.05-.03.09-.07.14-.1.08-.05.16-.1.24-.14.03-.02.07-.04.1-.05.01,0,.18-.08.06-.03.08-.03.16-.06.23-.08.04,0,.07-.02.11-.03.13-.03-.13,0,.02,0,.08,0,.15,0,.23,0,.03,0,.06,0,.09,0,.15,0-.09-.03,0,0,.06.02.13.03.2.05.04.01.17.03.02,0,.04,0,.08.04.12.06.03.01.05.03.08.05.12.06-.05-.07,0,0,.03.04.13.09.14.14l-.04-.06s.03.05.05.07c.02.03.03.05.04.08-.06-.12-.02-.04,0,0,0,.02.01.04.02.07.01.07.01.06,0-.03.03.04,0,.15,0,.21.01.08.03-.14,0,0,0,.03-.01.06-.02.09-.01.04-.03.07-.04.11-.03.09.07-.13,0,0-.04.08-.09.15-.14.23-.05.08.1-.11,0,0-.02.02-.04.05-.07.07-.03.03-.21.18-.09.09-.06.05-.14.08-.2.13-.03.02-.14.04.08-.04-.11.04.04-.01.07,0-.01,0-.06,0-.07,0-.06,0-.03-.06.09.01-.03-.02-.1-.03-.14-.04-.15-.05.12.07-.02,0-.05-.03-.1-.05-.15-.08-.22-.13-.43-.29-.64-.44-.48-.36-.96-.77-1.59-.83-.33-.03-.64.31-.62.62.02.36.28.59.62.62h0Z"/>
    </g>
    <g>
      <path class="cls-2" d="m116.6,32.24c.41-4.06.42-8.17.03-12.23l-2.09.29c-.2.03-.43.05-.59-.11-.09-.1-.14-.24-.18-.39-.21-.87.05-1.91.66-2.43s1.52-.45,2.04.2c.29-1.86.58-3.72.87-5.58.03-.22.07-.45.21-.6.15-.17.36-.18.56-.19.87-.03,1.73-.06,2.6-.09.47-.02,1.08.08,1.21.64.06.28-.03.57-.12.84-.44,1.32-.89,2.64-1.33,3.96,1.31-.08,2.61-.17,3.92-.25.11.77.21,1.56.07,2.32s-.58,1.49-1.2,1.65c-.46.11-.92-.09-1.38-.18s-1.01,0-1.25.5c-.12.25-.13.56-.13.85-.06,3.32-.17,6.64-.34,9.95-.02.38-.04.77-.18,1.12-.26.66-.89.99-1.49.99s-1.36-1.01-1.92-1.27"/>
      <path class="cls-2" d="m116.85,32.24c.39-4.07.41-8.16.03-12.23-.02-.18-.15-.26-.32-.24-.82.11-2.59.65-2.61-.57s1.15-2.68,2.35-1.45c.12.12.39.08.42-.11.18-1.14.36-2.29.53-3.43.09-.56.12-1.17.27-1.72.1-.37.19-.83.6-1.03.26-.13.8-.03,1.08-.04.46-.02,1.21-.19,1.64-.05.31.1.76.71.77,1.03,0,.22-.17.53-.24.73-.38,1.12-.75,2.24-1.13,3.37-.05.15.08.33.24.32,1.31-.08,2.61-.17,3.92-.25l-.25-.25c.15,1.09.53,3.63-1.22,3.75-.69.05-1.24-.45-1.94-.11-1.14.54-.74,2.48-.76,3.45-.05,2.09-.12,4.18-.22,6.28-.04,1,.23,3.14-1.05,3.51-.92.27-1.53-.76-2.24-1.16-.28-.16-.53.27-.25.43,1.11.65,2.12,2.09,3.4.72.6-.64.55-1.61.59-2.42.07-1.37.12-2.74.17-4.11.05-1.3.08-2.6.11-3.9,0-.36.01-.72.02-1.08.01-.49.32-1.18.85-1.34.39-.12,1.05.26,1.49.22,1.93-.19,1.72-2.93,1.55-4.24-.02-.13-.1-.26-.25-.25-1.31.08-2.61.17-3.92.25l.24.32c.31-.92.62-1.85.93-2.77.2-.6.66-1.44.53-2.1-.19-.91-1.15-.89-1.89-.87-.94.03-2.66-.36-3.11.72-.34.81-.33,2.03-.47,2.9-.16,1-.31,2-.47,3.01l.42-.11c-1.19-1.22-2.8-.39-3.13,1.14-.11.5-.17,1.43.25,1.83.61.57,2.25-.02,2.92-.11l-.32-.24c.37,4.07.36,8.16-.03,12.23-.03.32.47.32.5,0h0Z"/>
    </g>
    <g>
      <path class="cls-2" d="m135.61,23.17c0-.32.1-.99-.1-1.25-.31-.41-2.49-.09-3.02-.24-.73-.21-1.46-.42-2.18-.63-.56-.16-1.21-.32-1.71-.04-.39.21-.58.62-.74,1-.52,1.19-1.04,2.42-1.03,3.7.02,1.73,1.04,3.37,2.49,4.5,1.45,1.13,3.28,1.8,5.14,2.18.26.05.57.09.76-.08.15-.14.16-.35.15-.55-.05-1.07-.44-2.21-1.4-2.83-.6-.38-1.35-.53-1.98-.85-.64-.33-1.19-1-.94-1.62,1.01.4,3.41-.27,4.33-.82.92-.55.24-1.47.23-2.47Zm-3.16,2.21c-.35.13-.76.13-1.14.11-.69-.03-1.5-.18-1.8-.69-.11-.19-.13-.4-.13-.61.01-.37.12-.75.42-1.03.29-.28.8-.43,1.22-.29,2.03-.06,1.59,1.06,1.8,1.35.1.13.19.27.22.42.05.31-.24.61-.59.75Z"/>
      <g>
        <path class="cls-2" d="m135.86,23.17c.02-.75.15-1.53-.76-1.68-.82-.13-1.67.09-2.48-.05-.68-.12-1.36-.39-2.02-.58-.58-.17-1.22-.37-1.82-.2-.48.14-.78.5-1,.92-.3.6-.55,1.24-.77,1.87-.43,1.25-.58,2.56-.14,3.83.4,1.14,1.15,2.14,2.07,2.92.99.83,2.16,1.42,3.38,1.85.68.24,1.38.44,2.09.57.4.07.9.1,1.13-.31.24-.44.06-1.13-.06-1.59-.15-.57-.41-1.11-.81-1.54-.43-.47-1.01-.72-1.6-.94-.7-.26-2.07-.71-1.77-1.72l-.31.17c1.17.42,2.73-.07,3.83-.51.46-.19,1-.4,1.21-.89.28-.66-.13-1.45-.16-2.12-.01-.32-.51-.32-.5,0,.02.55.29,1.13.25,1.68-.05.61-.84.83-1.32,1-.94.33-2.19.71-3.17.37-.13-.05-.27.05-.31.17-.24.79.32,1.49.98,1.86.96.55,2.12.62,2.78,1.62.26.39.41.85.49,1.31.03.16.13.56.07.73-.17.47-.84.19-1.17.11-1.15-.27-2.28-.66-3.31-1.24-1.91-1.06-3.63-2.96-3.56-5.28.04-1.24.56-2.49,1.09-3.59.32-.67.81-.9,1.55-.76.62.12,1.23.33,1.83.51.42.12.84.28,1.28.3.37.02.75,0,1.12-.01.34,0,.88-.09,1.2.06.38.18.21.8.21,1.16,0,.32.49.32.5,0Z"/>
        <path class="cls-2" d="m132.38,25.13c-.41.14-.86.12-1.29.09-.33-.03-.69-.08-.99-.23-.36-.18-.5-.46-.47-.86.02-.38.19-.74.52-.93.36-.21.71-.09,1.1-.08.27,0,.57.03.82.15.17.08.24.16.32.3.03.06,0,0,.02.06.01.03.02.07.03.1.02.07.03.13.04.2.02.13.03.27.1.39.08.13.23.27.2.44-.03.19-.25.32-.41.38-.3.12-.17.6.13.48.4-.16.82-.5.77-.99-.02-.23-.15-.39-.27-.58-.02-.03.02.05,0,.01,0-.01,0-.03-.01-.04,0-.03-.01-.07-.02-.1-.07-.42-.17-.78-.54-1.03-.28-.19-.64-.25-.97-.27-.12,0-.24,0-.37-.01s-.24-.04-.36-.05c-.24-.02-.48.04-.69.13-.87.37-1.29,1.73-.59,2.45.33.34.84.47,1.29.54.57.08,1.2.13,1.75-.07.3-.1.17-.59-.13-.48Z"/>
      </g>
    </g>
    <g>
      <path class="cls-2" d="m56.78,29.43l-.44-6.21c-.11-1.52-.17-3.15.88-4.41,2.69,2.54,5.44,5.16,6.77,8.31.49-.68.39-1.53.38-2.32-.02-2.46,1.13-4.92,3.17-6.76.8.57,1.6,1.15,2.39,1.72.16.11.32.23.38.4.1.28-.15.55-.35.79-1.59,1.98-.18,4.73-1.35,6.89-.78,1.44-2.56,2.34-4.32,3.03-.33.13-.69.26-1.05.24-.37-.02-.71-.18-.98-.39-1.61-1.2-1.32-3.53-3.09-4.58,0,1.71-.01,3.43-.02,5.14,0,.19-.01.41-.17.55-.3.26-.85.11-1.18-.12-1-.68-1.51-1.3-1.02-2.28"/>
      <path class="cls-2" d="m57.03,29.43l-.39-5.54c-.12-1.67-.35-3.5.76-4.91h-.35c2.58,2.43,5.29,4.95,6.73,8.26.08.18.34.14.43,0,.4-.62.44-1.29.42-2.01-.01-.88.04-1.72.27-2.57.47-1.74,1.5-3.24,2.82-4.45l-.3.04c.51.36,1.02.73,1.52,1.09.23.17.72.39.87.62.23.35.16.55-.06.84-.53.71-.76,1.5-.84,2.38-.17,2,.31,4.02-1.34,5.55-.78.72-1.77,1.21-2.74,1.63-.48.21-1.05.51-1.59.48-.63-.04-1.16-.54-1.49-1.04-.9-1.32-1-2.97-2.44-3.89-.16-.1-.38.03-.38.22,0,1.4,0,2.8-.01,4.2,0,.25.09.73,0,.95-.31.71-.8.35-1.17.08-.63-.46-1.09-1-.74-1.8.13-.29-.3-.55-.43-.25-.31.69-.28,1.32.24,1.9.45.5,1.21,1.13,1.94.99.9-.16.66-1.35.67-2.01,0-1.35,0-2.71.01-4.06l-.38.22c1.4.89,1.46,2.67,2.4,3.9.42.56,1.06,1.07,1.79,1.1.82.03,1.71-.47,2.44-.81,1.46-.69,2.95-1.69,3.46-3.3.54-1.72-.11-3.61.55-5.3.24-.61,1.23-1.37.76-2.05-.24-.34-.7-.57-1.03-.8-.58-.42-1.16-.83-1.74-1.25-.09-.07-.23-.03-.3.04-1.22,1.13-2.19,2.49-2.75,4.06-.26.72-.42,1.48-.47,2.25-.07.95.18,1.97-.37,2.82h.43c-1.45-3.35-4.2-5.9-6.81-8.36-.09-.08-.27-.11-.35,0-1.03,1.31-1.07,2.88-.96,4.48.14,2.11.3,4.21.45,6.32.02.32.52.32.5,0h0Z"/>
    </g>
    <g>
      <path class="cls-2" d="m82.15,21.53c0-.32.1-.99-.1-1.25-.31-.41-2.49-.09-3.02-.24-.73-.21-1.46-.42-2.18-.63-.56-.16-1.21-.32-1.71-.04-.39.21-.58.62-.74,1-.52,1.19-1.04,2.42-1.03,3.7.02,1.73,1.04,3.37,2.49,4.5s3.28,1.8,5.14,2.18c.26.05.57.09.76-.08.15-.14.16-.35.15-.55-.05-1.07-.44-2.21-1.4-2.83-.6-.38-1.35-.53-1.98-.85-.64-.33-1.19-1-.94-1.62,1.01.4,3.41-.27,4.33-.82.92-.55.24-1.47.23-2.47Zm-3.16,2.21c-.35.13-.76.13-1.14.11-.69-.03-1.5-.18-1.8-.69-.11-.19-.13-.4-.13-.61.01-.37.12-.75.42-1.03.29-.28.8-.43,1.22-.29,2.03-.06,1.59,1.06,1.8,1.35.1.13.19.27.22.42.05.31-.24.61-.59.75Z"/>
      <g>
        <path class="cls-2" d="m82.4,21.53c.02-.75.15-1.53-.76-1.68-.82-.13-1.67.09-2.48-.05-.68-.12-1.36-.39-2.02-.58-.58-.17-1.22-.37-1.82-.2-.48.14-.78.5-1,.92-.3.6-.55,1.24-.77,1.87-.43,1.25-.58,2.56-.14,3.83.4,1.14,1.15,2.14,2.07,2.92.99.83,2.16,1.42,3.38,1.85.68.24,1.38.44,2.09.57.4.07.9.1,1.13-.31.24-.44.06-1.13-.06-1.59-.15-.57-.41-1.11-.81-1.54-.43-.47-1.01-.72-1.6-.94-.7-.26-2.07-.71-1.77-1.72l-.31.17c1.17.42,2.73-.07,3.83-.51.46-.19,1-.4,1.21-.89.28-.66-.13-1.45-.16-2.12-.01-.32-.51-.32-.5,0,.02.55.29,1.13.25,1.68-.05.61-.84.83-1.32,1-.94.33-2.19.71-3.17.37-.13-.05-.27.05-.31.17-.24.79.32,1.49.98,1.86.96.55,2.12.62,2.78,1.62.26.39.41.85.49,1.31.03.16.13.56.07.73-.17.47-.84.19-1.17.11-1.15-.27-2.28-.66-3.31-1.24-1.91-1.06-3.63-2.96-3.56-5.28.04-1.24.56-2.49,1.09-3.59.32-.67.81-.9,1.55-.76.62.12,1.23.33,1.83.51.42.12.84.28,1.28.3.37.02.75,0,1.12-.01.34,0,.88-.09,1.2.06.38.18.21.8.21,1.16,0,.32.49.32.5,0Z"/>
        <path class="cls-2" d="m78.92,23.49c-.41.14-.86.12-1.29.09-.33-.03-.69-.08-.99-.23-.36-.18-.5-.46-.47-.86.02-.38.19-.74.52-.93.36-.21.71-.09,1.1-.08.27,0,.57.03.82.15.17.08.24.16.32.3.03.06,0,0,.02.06.01.03.02.07.03.1.02.07.03.13.04.2.02.13.03.27.1.39.08.13.23.27.2.44-.03.19-.25.32-.41.38-.3.12-.17.6.13.48.4-.16.82-.5.77-.99-.02-.23-.15-.39-.27-.58-.02-.03.02.05,0,.01,0-.01,0-.03-.01-.04,0-.03-.01-.07-.02-.1-.07-.42-.17-.78-.54-1.03-.28-.19-.64-.25-.97-.27-.12,0-.24,0-.37-.01s-.24-.04-.36-.05c-.24-.02-.48.04-.69.13-.87.37-1.29,1.73-.59,2.45.33.34.84.47,1.29.54.57.08,1.2.13,1.75-.07.3-.1.17-.59-.13-.48Z"/>
      </g>
    </g>
    <g>
      <path class="cls-2" d="m30.08,7.69c-2.5-.27-5.05-.55-7.54-.2s-4.97,1.39-6.26,3.22c-1.02,1.44-1.21,3.19-1.37,4.86-.5,5.16-.94,10.61,1.71,15.28.39.69.87,1.37,1.6,1.82.71.43,1.59.61,2.45.71,2.05.24,4.16.13,6.15-.32,1.13-.26,2.26-.64,3.1-1.33s1.36-1.72,1.07-2.68c-.31-1.05-1.51-1.78-2.76-2.02s-2.56-.06-3.81.16c-.91.16-2.11.21-2.48-.5-.09-.17-.1-.37-.12-.55-.13-1.74-.26-3.49-.39-5.23-.02-.31-.03-.67.25-.88.53-.42,1.31.14,1.93.45.88.43,2.14.29,2.74-.4.67-.77.28-1.97-.65-2.52s-2.22-.52-3.25-.13c.22-1.53.44-3.06.66-4.58,1.74.02,3.48.02,5.22,0,.71-.01,1.46-.04,2.05-.38.86-.5,1.05-1.55.73-2.38s-.33-1.74-1.03-2.39"/>
      <path class="cls-2" d="m30.08,7.44c-5.05-.55-13.16-1.11-14.96,5.17-.79,2.77-.84,6.02-.85,8.89s.39,6.02,1.72,8.72c.48.97,1.04,1.96,1.95,2.57,1.18.8,2.76.91,4.15.96,2.63.1,6.68-.11,8.51-2.34,1.32-1.61.58-3.46-1.22-4.27-1.28-.57-2.73-.52-4.09-.33-1.07.15-2.61.74-3.22-.67-.32-.74-.15-2.05-.21-2.85-.06-.85-.75-3.16.97-2.94.6.08,1.08.59,1.75.62.83.04,1.79-.28,2.18-1.07.42-.84.03-1.82-.67-2.38-1.04-.83-2.52-.73-3.71-.34l.31.31c.14-.99.29-1.99.43-2.98.06-.4,0-1.01.32-1.28s.93-.13,1.34-.13c1.62,0,3.76.34,5.31-.24,2.24-.84,1.4-3.98.17-5.35-.22-.24-.57.11-.35.35.58.65.89,1.71,1.06,2.56.32,1.61-1.09,2.09-2.41,2.15-1.81.08-3.63.03-5.44.01-.1,0-.23.08-.24.18-.22,1.53-.44,3.06-.66,4.58-.03.17.11.37.31.31,1.25-.41,3.95-.47,3.87,1.48-.05,1.2-1.44,1.52-2.4,1.21-.56-.18-1.04-.64-1.64-.71-1.83-.22-1.06,2.67-.99,3.64.1,1.39-.35,3.86,1.46,4.21.99.19,2.05-.16,3.02-.26,1.48-.15,3.42-.1,4.47,1.14,1.42,1.67-.46,3.33-1.94,3.94s-3.22.86-4.85.93c-1.33.05-2.79.04-4.08-.34-1.54-.45-2.35-1.58-3.02-2.95-2.28-4.65-1.77-10.19-1.19-15.17.19-1.6.54-3.23,1.67-4.46,1-1.08,2.37-1.77,3.76-2.19,3.05-.92,6.31-.54,9.42-.21.32.03.32-.47,0-.5h0Z"/>
    </g>
    <g>
      <path class="cls-2" d="m34.39,31.79c-.3-3.44-.05-6.92.72-10.28.48-2.08,1.25-4.24,2.96-5.52.29-.22.65-.41,1-.32.24.06.43.24.6.42,1.82,1.92,2.99,4.43,3.31,7.05.8-1.21.9-2.73,1.34-4.11.44-1.38,1.49-2.8,2.94-2.78.99.02,1.86.74,2.33,1.61s.62,1.87.76,2.85c.41,2.86.83,5.73.79,8.62,0,.83-.14,1.81-.86,2.22-.9.51-2-.23-2.61-1.06-.97-1.31-1.47-2.97-1.39-4.6.01-.28.02-.62-.21-.79-.24-.18-.59-.04-.85.1-.74.39-1.48.78-2.22,1.17-.29.16-.61.31-.94.29-.72-.06-1.05-.93-1.15-1.65s-.19-1.58-.84-1.92c-.41,1.22-.81,2.43-1.22,3.65-.83,2.49-2.1,3.91-4.46,5.05"/>
      <path class="cls-2" d="m34.64,31.79c-.18-2.21-.16-4.42.09-6.62s.6-4.3,1.45-6.25c.36-.83.84-1.62,1.49-2.26.51-.5,1.19-1.02,1.82-.4.37.37.7.79,1,1.21,1.2,1.67,1.96,3.62,2.23,5.66.03.23.32.36.47.13,1.2-1.94.84-5.9,3.47-6.68,1.81-.54,2.89,1.43,3.21,2.88.34,1.55.51,3.18.69,4.76s.31,3.09.32,4.64c0,.63.05,1.39-.28,1.96-.61,1.09-1.77.58-2.46-.12-1.03-1.04-1.56-2.68-1.63-4.11-.03-.67.19-1.9-.88-1.79-1.14.12-3.4,2.56-4.24,1.08-.56-1-.13-2.27-1.21-2.99-.14-.09-.32,0-.37.15-.61,1.82-1.06,3.84-2.04,5.51-.83,1.4-2.09,2.33-3.52,3.04-.29.14-.04.57.25.43,1.44-.71,2.72-1.66,3.59-3.04,1.09-1.74,1.56-3.88,2.2-5.81l-.37.15c1.13.75.36,2.62,1.55,3.41s2.64-.93,3.71-1.22c.95-.26.8.37.82.94,0,.29.04.59.08.88.12.83.39,1.64.78,2.38.53,1.01,1.48,2.28,2.76,2.27,1.19,0,1.65-1.16,1.74-2.17.16-1.89-.09-3.87-.32-5.74-.21-1.75-.33-3.62-.84-5.3-.38-1.25-1.26-2.52-2.65-2.72-1.31-.19-2.38.74-3,1.8-.92,1.61-.82,3.59-1.81,5.18l.47.13c-.29-2.22-1.11-4.34-2.46-6.13-.45-.59-1.1-1.66-1.96-1.6s-1.64,1.01-2.1,1.62c-1.38,1.84-1.87,4.26-2.24,6.48-.45,2.74-.55,5.52-.33,8.29.03.32.53.32.5,0h0Z"/>
    </g>
  </g>
</svg>