<?xml version="1.0" encoding="UTF-8"?>
<svg id="Layer_2" data-name="Layer 2" xmlns="http://www.w3.org/2000/svg" viewBox="0 0 161.6 148.56">
  <defs>
    <style>
      .cls-1 {
        fill: none;
      }

      .cls-2 {
        fill: #f6f6f6;
      }

      .cls-3 {
        fill: #5e000b;
      }
    </style>
  </defs>
  <g id="Layer_1-2" data-name="Layer 1">
    <g>
      <path class="cls-3" d="m53.98,71.19c-.04-12.77-.87-25.52-1.17-38.28-.07-2.98-.37-6.13-.04-9.1.1-.9.29-1.79,1.08-2.29,1.14-.73,2.83-.83,4.13-1.07,6.44-1.21,12.92-2.18,19.43-2.89,13.3-1.46,26.72-1.91,40.09-1.36,6.6.27,13.2.79,19.77,1.56,2.14.25,5.47.18,6.94,2.06s1.09,4.73,1.02,6.86c-.48,15.49-.98,30.98-1.47,46.47-.1,3.22,4.9,3.21,5,0,.46-14.66.93-29.31,1.39-43.97.09-2.99.4-6.15-.4-9.08s-2.96-5.27-5.97-6.28-6.49-1.08-9.64-1.41c-3.45-.36-6.9-.65-10.36-.88-14.16-.92-28.39-.71-42.52.63-7.12.68-14.22,1.63-21.27,2.86-3.02.53-6.72.73-9.27,2.62s-3.01,5.24-3,8.31c.04,15.09,1.22,30.15,1.27,45.24.01,3.22,5.01,3.22,5,0h0Z"/>
      <path class="cls-3" d="m144.07,71.89c-7.36,15-12.97,30.83-17.73,46.83-1.31,4.41-2.55,8.84-3.73,13.29-.83,3.11,4,4.44,4.82,1.33,4.21-15.86,9.14-31.59,15.45-46.75,1.71-4.11,3.55-8.17,5.51-12.17.59-1.21.33-2.7-.9-3.42-1.1-.64-2.82-.32-3.42.9h0Z"/>
      <path class="cls-3" d="m13.85,128.8c29.05.29,57.93,3.79,86.9,5.49,8.08.47,16.18.81,24.27.89,3.22.03,3.22-4.97,0-5-29.05-.29-57.93-3.79-86.9-5.49-8.08-.47-16.18-.81-24.27-.89-3.22-.03-3.22,4.97,0,5h0Z"/>
      <path class="cls-3" d="m16.01,127.56c9.61-14.38,19.33-28.69,29.17-42.93,2.81-4.07,5.63-8.13,8.46-12.18.77-1.11.2-2.78-.9-3.42-1.25-.73-2.65-.21-3.42.9-9.9,14.19-19.69,28.45-29.36,42.8-2.76,4.1-5.52,8.2-8.27,12.31-1.79,2.68,2.54,5.19,4.32,2.52h0Z"/>
      <path class="cls-3" d="m51.48,73.69c13.68.35,27.35,1.08,41.03,1.75,6.86.34,13.73.67,20.59.94,5.7.22,11.41.56,17.11.25,5.34-.29,10.68-.96,16.03-.98,3.22-.01,3.22-5.01,0-5-4.65.02-9.3.55-13.94.85-5.47.36-10.89.19-16.36-.01-13.75-.5-27.49-1.28-41.24-1.92-7.74-.36-15.48-.68-23.22-.88-3.22-.08-3.22,4.92,0,5h0Z"/>
      <path class="cls-3" d="m64.96,122.8c.6-4.08,1.76-8.21,3.22-12.07l-3.08,1.75c8.26,2.52,16.87,3.84,25.51,3.92l-1.77-4.27c-1.86,1.72-2.18,4.21-2.38,6.61-.09,1.08-.03,1.63-.43,2.63.15-.38-.14.22-.19.29.17-.25-.24.03.01-.03-.54.14-.94.19-1.55.14-7.26-.5-14.51-1.43-21.76-2.14-1.35-.13-2.5,1.24-2.5,2.5,0,1.46,1.15,2.37,2.5,2.5,3.93.39,7.87.78,11.8,1.17,1.88.19,3.77.37,5.65.56s3.71.56,5.53.43c3.1-.22,5.14-2.39,5.63-5.38.21-1.27.23-2.56.41-3.83.11-.75.3-1.44.8-1.91,1.62-1.5.33-4.25-1.77-4.27-8.22-.08-16.32-1.34-24.18-3.74-1.38-.42-2.61.51-3.08,1.75-1.45,3.86-2.61,7.98-3.22,12.07-.2,1.33.33,2.69,1.75,3.08,1.18.32,2.88-.4,3.08-1.75h0Z"/>
      <g>
        <path class="cls-2" d="m59.71,23.87c-1.76,11.63-1.49,25.69.12,37.34.17,1.27.48,2.7,1.59,3.35.78.45,1.75.37,2.65.28,22.3-2.23,44.9-1.53,67.02,2.08,2.99-10.23,4.67-20.83,4.99-31.48.12-4.05-.5-9-4.21-10.63-1.33-.59-2.84-.6-4.29-.61-22.62-.11-45.25-.22-67.87-.34"/>
        <path class="cls-3" d="m57.3,23.21c-1.07,7.14-1.42,14.36-1.26,21.57.08,3.53.28,7.06.61,10.58.14,1.55.31,3.09.51,4.63.22,1.75.34,3.64,1.35,5.15,2.28,3.43,7,2.04,10.4,1.76,3.89-.31,7.78-.54,11.67-.68,7.79-.27,15.6-.19,23.38.24,8.86.49,17.69,1.45,26.45,2.87,1.35.22,2.67-.33,3.08-1.75,2.26-7.78,3.77-15.75,4.55-23.82.35-3.56.72-7.23.5-10.8-.19-2.99-.85-6.06-2.86-8.38-2.53-2.92-6.3-2.88-9.86-2.9-4.24-.02-8.48-.04-12.73-.06-8.32-.04-16.63-.08-24.95-.12-9.48-.05-18.96-.09-28.45-.14-3.22-.02-3.22,4.98,0,5,15.8.08,31.61.16,47.41.24,3.99.02,7.98.04,11.98.06,1.91,0,3.83.02,5.74.03,1.78,0,3.83-.25,5.55.25,2.06.6,2.77,2.81,3.06,4.86.43,3.06.07,6.29-.17,9.36-.65,8.51-2.22,16.91-4.6,25.1l3.08-1.75c-14.82-2.41-29.82-3.59-44.83-3.44-7.47.08-14.94.5-22.38,1.21-.41.04-1.5.33-1.88.11-.16-.09-.21-.64-.25-.8-.35-1.47-.44-3.04-.6-4.55-.35-3.34-.59-6.69-.71-10.05-.28-7.48-.09-15.06,1.01-22.48.2-1.33-.33-2.69-1.75-3.08-1.18-.32-2.87.4-3.08,1.75h0Z"/>
      </g>
      <path class="cls-3" d="m56.61,84.77c4.21-.98,8.48.58,12.6,1.31,4.69.83,9.4.23,14.09.97,2.48.39,4.75.35,7.23.01,2.35-.32,4.71-.49,7.08-.49,5.02,0,10.02.63,14.99,1.26,1.34.17,2.5-1.27,2.5-2.5,0-1.49-1.15-2.33-2.5-2.5-5.06-.64-10.13-1.28-15.24-1.26-2.51.01-4.99.24-7.47.57-2.28.31-4.33.23-6.59-.14-4.69-.76-9.41-.06-14.08-1s-9.22-2.15-13.94-1.05c-3.13.73-1.81,5.55,1.33,4.82h0Z"/>
      <path class="cls-3" d="m110.81,87.74c2.88.61,6.01,1.21,8.96.92l-2.41-3.16c-1.62,8.2-3.56,16.34-5.8,24.4l3.08-1.75c-4.26-.57-8.5-1.31-12.69-2.24s-8.28-1.92-12.51-2.52c-8.73-1.23-17.57-1.69-26.36-2.34-2.48-.19-4.95-.37-7.43-.56-1.24-.09-2.48-.19-3.71-.28-.66-.05-1.32-.1-1.98-.15l-.74-.06-.5-.04c-.35-.03-.33-.02.05.03l.9.9c.63.86-.24.95.16.5.24-.28.36-.76.53-1.1.35-.73.7-1.47,1.05-2.2.74-1.54,1.48-3.08,2.21-4.62,1.44-3.01,2.88-6.01,4.32-9.02.58-1.22.34-2.7-.9-3.42-1.09-.64-2.83-.33-3.42.9-2.63,5.5-5.27,11-7.9,16.5-.58,1.22-1.2,2.47-.88,3.86.42,1.79,1.96,2.5,3.63,2.66,3.05.3,6.11.46,9.16.69,6.18.46,12.35.91,18.53,1.39s11.87.98,17.71,2.17c6.49,1.32,12.86,2.89,19.44,3.78,1.34.18,2.67-.3,3.08-1.75,2.24-8.06,4.18-16.19,5.8-24.4.29-1.44-.68-3.33-2.41-3.16-2.54.25-5.16-.22-7.63-.75-3.14-.67-4.48,4.15-1.33,4.82h0Z"/>
      <path class="cls-3" d="m60.77,83.62c-1.74,5.68-3.48,11.36-5.23,17.04-.4,1.29.47,2.73,1.75,3.08,1.34.37,2.68-.45,3.08-1.75,1.74-5.68,3.48-11.36,5.23-17.04.4-1.29-.47-2.73-1.75-3.08-1.34-.37-2.68.45-3.08,1.75h0Z"/>
      <path class="cls-3" d="m72.2,83.75c-3.8,5.62-5.74,12.46-5.49,19.24.05,1.35,1.11,2.5,2.5,2.5s2.55-1.14,2.5-2.5c-.21-5.98,1.43-11.71,4.81-16.72.76-1.12.21-2.77-.9-3.42-1.23-.72-2.66-.23-3.42.9h0Z"/>
      <path class="cls-3" d="m84.35,85.74c.41,5.96-.46,11.83-2.56,17.43-.47,1.26.53,2.74,1.75,3.08,1.4.39,2.6-.48,3.08-1.75,2.24-5.96,3.17-12.41,2.74-18.75-.09-1.35-1.08-2.5-2.5-2.5-1.28,0-2.59,1.15-2.5,2.5h0Z"/>
      <path class="cls-3" d="m98.12,86.36c-.23,3.09.34,6.23-.08,9.31-.2,1.48-.81,2.85-1.31,4.24-.56,1.53-.87,3.12-1.17,4.71-.25,1.33.37,2.7,1.75,3.08,1.22.33,2.83-.41,3.08-1.75.3-1.6.61-3.18,1.17-4.71s1.13-2.97,1.37-4.59c.5-3.42-.05-6.85.21-10.29.1-1.35-1.22-2.5-2.5-2.5-1.44,0-2.4,1.15-2.5,2.5h0Z"/>
      <path class="cls-3" d="m108.97,87.4c-.15,1.95-.38,3.89-.74,5.81-.3,1.63-.57,3.29-1.41,4.74-.88,1.54-1.77,3-2.24,4.74-.5,1.85-.63,3.8-.77,5.7-.09,1.35,1.22,2.5,2.5,2.5,1.43,0,2.41-1.15,2.5-2.5.12-1.72.25-3.41.79-5.06.48-1.48,1.54-2.7,2.16-4.12.76-1.74,1.1-3.61,1.42-5.47.36-2.1.62-4.21.78-6.34.1-1.35-1.22-2.5-2.5-2.5-1.44,0-2.4,1.15-2.5,2.5h0Z"/>
      <path class="cls-3" d="m116.19,95.39c-4.16-.43-8.33-.67-12.51-.68s-8.49.57-12.69.31c-1.85-.11-3.64-.6-5.45-.97-2.01-.41-4.03-.75-6.06-1.05-4.05-.6-8.11-1.04-12.17-1.57-4.54-.59-9.06-1.34-13.48-2.55-3.11-.85-4.43,3.97-1.33,4.82,7.93,2.16,16.13,2.79,24.25,3.91,4.02.56,7.94,1.56,11.95,2.15,4.31.64,8.69,0,13.02-.05,4.84-.06,9.67.17,14.48.67,1.34.14,2.5-1.25,2.5-2.5,0-1.47-1.15-2.36-2.5-2.5h0Z"/>
    </g>
    <rect class="cls-1" width="161.6" height="148.56"/>
  </g>
</svg>