<?xml version="1.0" encoding="UTF-8"?>
<svg id="Layer_2" data-name="Layer 2" xmlns="http://www.w3.org/2000/svg" viewBox="0 0 137.33 44.28">
  <defs>
    <style>
      .cls-1 {
        fill: none;
      }

      .cls-2 {
        fill: #f6f6f6;
      }

      .cls-3 {
        fill: #be3428;
      }
    </style>
  </defs>
  <g id="Layer_1-2" data-name="Layer 1">
    <g>
      <path class="cls-3" d="m28.96,40.17c-4.99,1.62-11.24-4.8-13.63-1.08-1.22,1.9-6.43,4.44-9.08.89-1.15-1.54-1.68-2.05-2.31-4.04C2.42,31.12.97,22.39.08,17.43c-.13-.75-.12-10.27.29-10.91.34-.53.96-.82,1.56-1.05,6.92-2.69,14.64-2,22.08-1.82,10.3.26,20.6-.51,30.9-.87,17.29-.6,34.6-.03,51.9.54,4.95.16,10.07.37,14.54,2.47,1.2.57,2.4,1.28,3.74,1.28.82,0,1.6-.28,2.39-.48,3.57-.94,8.2-.01,9.47,3.39.41,1.09.41,2.27.4,3.43-.02,5.16-.05,10.33-.07,15.49,0,1.98-.04,4.03-.91,5.81-1.14,2.32-3.58,3.81-6.12,4.46-2.54.65-5.21.57-7.83.48-8.66-.28-17.32-.57-25.98-.85-2.72-.09-5.53-.2-8-1.32-1.09-.5-2.1-1.19-3.26-1.5-1.01-.27-2.07-.25-3.11-.18-10.11.6-19.86,4.3-29.98,4.68-7.71.29-15.47-1.36-23.11-.29"/>
      <rect class="cls-1" width="137.33" height="44.28"/>
    </g>
    <g>
      <path class="cls-2" d="m10.53,26.54l-.5-8.84c-.12-2.16-.2-4.49,1.01-6.28,3.06,3.61,6.2,7.33,7.71,11.82.56-.97.44-2.17.43-3.3-.03-3.5,1.29-7,3.61-9.62.91.81,1.82,1.63,2.73,2.44.18.16.36.33.43.56.11.4-.17.78-.4,1.12-1.81,2.81-.2,6.73-1.54,9.8-.89,2.04-2.92,3.33-4.92,4.31-.38.18-.78.37-1.2.34-.42-.03-.81-.26-1.12-.55-1.84-1.7-1.5-5.03-3.52-6.51,0,2.44-.01,4.88-.02,7.32,0,.28-.01.58-.2.79-.34.37-.97.15-1.35-.17-1.14-.97-1.72-1.86-1.16-3.24"/>
      <path class="cls-2" d="m10.78,26.54c-.15-2.69-.3-5.38-.46-8.07-.13-2.34-.38-4.85.93-6.92l-.39.05c3.03,3.57,6.09,7.23,7.65,11.71.07.19.35.26.46.06.45-.89.49-1.82.48-2.8-.02-1.2.04-2.37.28-3.55.51-2.42,1.63-4.64,3.24-6.51h-.35c.59.53,1.18,1.06,1.77,1.59.83.74,1.49,1,.95,2.24-.42.96-.79,1.78-.91,2.84-.28,2.61.44,5.5-1.11,7.83-.76,1.14-1.88,1.97-3.05,2.65-.56.32-1.19.75-1.82.91-1.08.28-1.8-.59-2.27-1.42-1-1.8-1.02-4.12-2.74-5.48-.16-.13-.43-.06-.43.18,0,1.93-.01,3.85-.02,5.78,0,.31.16,1.29,0,1.54l-.96.55c-.22-.16-.42-.33-.61-.52-.76-.76-1.01-1.55-.65-2.58.11-.3-.37-.43-.48-.13-.35.98-.25,1.84.4,2.66.46.58,1.41,1.58,2.26,1.19.95-.44.54-2.28.55-3.08,0-1.8.01-3.59.02-5.39l-.43.18c2.12,1.69,1.55,5.1,3.76,6.72,1.16.85,2.33.11,3.41-.5,1.2-.67,2.36-1.48,3.2-2.58,1.86-2.41,1.2-5.38,1.44-8.19.07-.81.22-1.64.58-2.38.26-.54.85-1.1.72-1.76-.11-.54-.67-.89-1.05-1.23-.73-.65-1.45-1.3-2.18-1.95-.1-.09-.26-.11-.35,0-1.46,1.68-2.55,3.65-3.15,5.8-.29,1.04-.47,2.12-.52,3.2-.07,1.33.21,2.73-.42,3.97l.46.06c-1.59-4.57-4.69-8.3-7.77-11.93-.11-.13-.31-.08-.39.05-1.21,1.93-1.16,4.21-1.04,6.4.16,2.95.33,5.89.5,8.84.02.32.52.32.5,0h0Z"/>
    </g>
    <g>
      <path class="cls-2" d="m47.32,18.23c1.33.12,2.72.06,3.86-.64.18-.11.36-.25.45-.44.23-.47-.13-1.02-.53-1.35-1.2-1.01-2.97-1.29-4.43-.7s-2.52,2.03-2.67,3.6c-.03.33-.02.67.09.98.11.29.31.55.55.75,1.17,1.02,2.94.9,4.33,1.59.76.38,1.37.98,1.97,1.58.29.3.6.62.69,1.02.18.82-.62,1.58-1.45,1.72s-1.66-.13-2.48-.3c-1.01-.21-2.05-.27-3.08-.31-.45-.02-.92-.03-1.31.17s-.68.7-.49,1.11c.12.26.4.41.66.53,2.77,1.29,5.94,1.69,8.94,1.13.24-.04.49-.1.7-.23.24-.15.42-.39.55-.64.93-1.69.29-3.91-1.07-5.28s-3.27-2.02-5.17-2.39c-.45-.09-.91-.17-1.27-.45s-.56-.82-.3-1.2c.3-.43.94-.37,1.45-.27"/>
      <path class="cls-2" d="m47.32,18.48c1.11.09,5.41,0,4.52-2.12-.73-1.74-3.48-2.12-5.04-1.57-1.76.62-3.2,2.49-3.05,4.41.16,2.22,3.04,2.28,4.61,2.84.67.24,1.23.63,1.76,1.11.45.41,1.26,1.03,1.3,1.68.06.83-.91,1.28-1.6,1.32-.77.05-1.54-.24-2.3-.38-1.14-.21-2.48-.4-3.64-.26-.7.08-1.53.61-1.35,1.43s1.54,1.16,2.23,1.4c1.16.4,2.37.66,3.59.77s2.46.08,3.67-.11c1.03-.16,1.66-.46,2.07-1.47.84-2.1-.29-4.47-1.99-5.77-.95-.73-2.08-1.2-3.23-1.53-.61-.17-1.23-.27-1.84-.43-.33-.09-.98-.3-1-.73-.02-.37.23-.63.57-.66.22-.02.44.03.65.07.31.06.45-.42.13-.48-.58-.11-1.36-.2-1.74.38-.33.51-.07,1.17.37,1.52.66.54,1.72.55,2.51.76.98.26,1.94.63,2.79,1.17,1.71,1.09,3.03,3.22,2.38,5.29-.19.61-.52,1.12-1.16,1.29-.57.15-1.2.2-1.79.24-1.18.08-2.37.02-3.53-.18s-2.31-.54-3.39-1.02c-.15-.07-.41-.14-.53-.26-.44-.47-.2-.97.39-1.13s1.25-.04,1.84,0c1.23.08,2.39.4,3.6.56.81.11,1.67,0,2.27-.61,1.38-1.39-.5-2.96-1.61-3.76-.75-.55-1.6-.79-2.49-1-.97-.23-2.23-.44-2.81-1.34-.7-1.07.09-2.72.85-3.54s1.87-1.32,3.03-1.29c.96.02,4.01.97,2.68,2.33-.41.42-1.4.56-1.95.62-.59.06-1.19.04-1.78-.01-.32-.03-.32.47,0,.5h0Z"/>
    </g>
    <g>
      <path class="cls-2" d="m56.99,28.98c.41-4.06.42-8.17.03-12.23l-2.09.29c-.2.03-.43.05-.59-.11-.09-.1-.14-.24-.18-.39-.21-.87.05-1.91.66-2.43s1.52-.45,2.04.2c.29-1.86.58-3.72.87-5.58.03-.22.07-.45.21-.6.15-.17.36-.18.56-.19.87-.03,1.73-.06,2.6-.09.47-.02,1.08.08,1.21.64.06.28-.03.57-.12.84-.44,1.32-.89,2.64-1.33,3.96,1.31-.08,2.61-.17,3.92-.25.11.77.21,1.56.07,2.32s-.58,1.49-1.2,1.65c-.46.11-.92-.09-1.38-.18s-1.01,0-1.25.5c-.12.25-.13.56-.13.85-.06,3.32-.17,6.64-.34,9.95-.02.38-.04.77-.18,1.12-.26.66-.89.99-1.49.99s-1.36-1.01-1.92-1.27"/>
      <path class="cls-2" d="m57.24,28.98c.39-4.07.41-8.16.03-12.23-.02-.18-.15-.26-.32-.24-.82.11-2.59.65-2.61-.57s1.15-2.68,2.35-1.45c.12.12.39.08.42-.11.18-1.14.36-2.29.53-3.43.09-.56.12-1.17.27-1.72.1-.37.19-.83.6-1.03.26-.13.8-.03,1.08-.04.46-.02,1.21-.19,1.64-.05.31.1.76.71.77,1.03,0,.22-.17.53-.24.73-.38,1.12-.75,2.24-1.13,3.37-.05.15.08.33.24.32,1.31-.08,2.61-.17,3.92-.25l-.25-.25c.15,1.09.53,3.63-1.22,3.75-.69.05-1.24-.45-1.94-.11-1.14.54-.74,2.48-.76,3.45-.05,2.09-.12,4.18-.22,6.28-.04,1,.23,3.14-1.05,3.51-.92.27-1.53-.76-2.24-1.16-.28-.16-.53.27-.25.43,1.11.65,2.12,2.09,3.4.72.6-.64.55-1.61.59-2.42.07-1.37.12-2.74.17-4.11.05-1.3.08-2.6.11-3.9,0-.36.01-.72.02-1.08.01-.49.32-1.18.85-1.34.39-.12,1.05.26,1.49.22,1.93-.19,1.72-2.93,1.55-4.24-.02-.13-.1-.26-.25-.25-1.31.08-2.61.17-3.92.25l.24.32c.31-.92.62-1.85.93-2.77.2-.6.66-1.44.53-2.1-.19-.91-1.15-.89-1.89-.87-.94.03-2.66-.36-3.11.72-.34.81-.33,2.03-.47,2.9-.16,1-.31,2-.47,3.01l.42-.11c-1.19-1.22-2.8-.39-3.13,1.14-.11.5-.17,1.43.25,1.83.61.57,2.25-.02,2.92-.11l-.32-.24c.37,4.07.36,8.16-.03,12.23-.03.32.47.32.5,0h0Z"/>
    </g>
    <g>
      <path class="cls-2" d="m72.96,21.8c0-.32.1-.99-.1-1.25-.31-.41-2.49-.09-3.02-.24-.73-.21-1.46-.42-2.18-.63-.56-.16-1.21-.32-1.71-.04-.39.21-.58.62-.74,1-.52,1.19-1.04,2.42-1.03,3.7.02,1.73,1.04,3.37,2.49,4.5,1.45,1.13,3.28,1.8,5.14,2.18.26.05.57.09.76-.08.15-.14.16-.35.15-.55-.05-1.07-.44-2.21-1.4-2.83-.6-.38-1.35-.53-1.98-.85-.64-.33-1.19-1-.94-1.62,1.01.4,3.41-.27,4.33-.82.92-.55.24-1.47.23-2.47Zm-3.16,2.21c-.35.13-.76.13-1.14.11-.69-.03-1.5-.18-1.8-.69-.11-.19-.13-.4-.13-.61.01-.37.12-.75.42-1.03.29-.28.8-.43,1.22-.29,2.03-.06,1.59,1.06,1.8,1.35.1.13.19.27.22.42.05.31-.24.61-.59.75Z"/>
      <g>
        <path class="cls-2" d="m73.21,21.8c.02-.75.15-1.53-.76-1.68-.82-.13-1.67.09-2.48-.05-.68-.12-1.36-.39-2.02-.58-.58-.17-1.22-.37-1.82-.2-.48.14-.78.5-1,.92-.3.6-.55,1.24-.77,1.87-.43,1.25-.58,2.56-.14,3.83.4,1.14,1.15,2.14,2.07,2.92.99.83,2.16,1.42,3.38,1.85.68.24,1.38.44,2.09.57.4.07.9.1,1.13-.31.24-.44.06-1.13-.06-1.59-.15-.57-.41-1.11-.81-1.54-.43-.47-1.01-.72-1.6-.94-.7-.26-2.07-.71-1.77-1.72l-.31.17c1.17.42,2.73-.07,3.83-.51.46-.19,1-.4,1.21-.89.28-.66-.13-1.45-.16-2.12-.01-.32-.51-.32-.5,0,.02.55.29,1.13.25,1.68-.05.61-.84.83-1.32,1-.94.33-2.19.71-3.17.37-.13-.05-.27.05-.31.17-.24.79.32,1.49.98,1.86.96.55,2.12.62,2.78,1.62.26.39.41.85.49,1.31.03.16.13.56.07.73-.17.47-.84.19-1.17.11-1.15-.27-2.28-.66-3.31-1.24-1.91-1.06-3.63-2.96-3.56-5.28.04-1.24.56-2.49,1.09-3.59.32-.67.81-.9,1.55-.76.62.12,1.23.33,1.83.51.42.12.84.28,1.28.3.37.02.75,0,1.12-.01.34,0,.88-.09,1.2.06.38.18.21.8.21,1.16,0,.32.49.32.5,0Z"/>
        <path class="cls-2" d="m69.73,23.77c-.41.14-.86.12-1.29.09-.33-.03-.69-.08-.99-.23-.36-.18-.5-.46-.47-.86.02-.38.19-.74.52-.93.36-.21.71-.09,1.1-.08.27,0,.57.03.82.15.17.08.24.16.32.3.03.06,0,0,.02.06.01.03.02.07.03.1.02.07.03.13.04.2.02.13.03.27.1.39.08.13.23.27.2.44-.03.19-.25.32-.41.38-.3.12-.17.6.13.48.4-.16.82-.5.77-.99-.02-.23-.15-.39-.27-.58-.02-.03.02.05,0,.01,0-.01,0-.03-.01-.04,0-.03-.01-.07-.02-.1-.07-.42-.17-.78-.54-1.03-.28-.19-.64-.25-.97-.27-.12,0-.24,0-.37-.01s-.24-.04-.36-.05c-.24-.02-.48.04-.69.13-.87.37-1.29,1.73-.59,2.45.33.34.84.47,1.29.54.57.08,1.2.13,1.75-.07.3-.1.17-.59-.13-.48Z"/>
      </g>
    </g>
    <g>
      <path class="cls-2" d="m39.05,22.75c-.22-.34-.51-.66-.56-1.06-.08-.58.35-1.1.41-1.68.05-.49-.18-.98-.5-1.35-.39-.45-.98-.78-1.57-.68-.56.09-1,.53-1.34.99-.34.45-.65.96-1.12,1.27-.47.31-1.12.39-1.48-.04-.78-.53-1.65-.91-2.57-1.11-.33-.07-.69-.12-1.01-.02-.55.17-.89.72-1.08,1.27-.41,1.18-.35,2.47-.2,3.71.03.26.07.53.18.78.14.32.4.58.68.79,1.65,1.28,4.23,1.16,5.74-.28.32-.3.59-.66.95-.92s.82-.42,1.24-.27c.67.24.84,1.12,1.38,1.58.46.4,1.12.45,1.73.48-.08-1.2-.18-2.45-.84-3.46Zm-4.69-.2c-.33.62-1.22.99-1.91,1.06l-.61-.79c-.04-.06-.09-.12-.1-.19-.02-.09.03-.18.08-.26.25-.37.72-.52,1.16-.5.44.02.86.19,1.27.35.06.03.13.06.16.12.03.07,0,.15-.04.21Zm2.83-.7c-.1.09-.23.14-.37.19-.58.19-1.21.23-1.82.13-.11-.02-.23-.05-.27-.15-.03-.06-.02-.13-.01-.2.1-.61.43-1.19.92-1.58.44.02,1.01.21,1.37.47s.51.84.18,1.14Z"/>
      <g>
        <path class="cls-2" d="m39.26,22.62c-.18-.26-.41-.52-.5-.83-.11-.37.06-.7.18-1.04.2-.54.29-1.04.06-1.59-.4-.96-1.52-1.75-2.57-1.33-1.15.45-1.48,2.24-2.73,2.4-.4.05-.64-.21-.96-.41-.28-.18-.58-.33-.89-.47-.6-.27-1.24-.49-1.89-.57-2.67-.3-2.59,4.31-2.09,5.92.29.95,1.32,1.55,2.22,1.83,1.03.32,2.18.29,3.19-.1.55-.21,1.06-.52,1.49-.93.56-.52,1.35-1.65,2.2-.95.45.37.6,1.01,1.06,1.39.52.43,1.21.48,1.85.52.13,0,.26-.12.25-.25-.09-1.24-.21-2.5-.88-3.58-.17-.27-.6-.02-.43.25.62,1.01.73,2.17.81,3.33l.25-.25c-.69-.04-1.37-.1-1.81-.7-.25-.35-.42-.76-.74-1.05-.67-.62-1.56-.33-2.18.21-.41.36-.74.8-1.19,1.11s-.92.5-1.44.62c-1.02.23-2.15.1-3.06-.42-.54-.31-1.01-.71-1.15-1.34s-.17-1.35-.16-2,.08-1.34.31-1.98c.31-.85.86-1.25,1.78-1.07.56.11,1.13.32,1.64.58.47.23.89.69,1.39.81.89.21,1.6-.51,2.08-1.16.41-.54.87-1.32,1.64-1.34.81-.03,1.63.83,1.65,1.61.02.57-.38,1.05-.42,1.61s.3.99.6,1.44c.18.26.61.01.43-.25Z"/>
        <path class="cls-2" d="m34.14,22.42c-.32.58-1.07.87-1.7.94l.18.07-.36-.46-.16-.21s-.13-.13-.13-.18c0-.08.14-.2.2-.24.1-.08.22-.13.34-.17.28-.08.57-.06.85,0,.17.04.33.1.49.16.08.03.15.06.23.09.01,0,.08.04.09.04l.03.02c-.02-.09-.04-.11-.06-.06-.14.29.29.54.43.25.07-.15.12-.31.04-.46-.07-.13-.2-.19-.33-.24-.27-.11-.55-.22-.84-.29-.51-.12-1.09-.1-1.53.22-.21.15-.44.4-.44.67,0,.16.08.29.18.41.1.13.2.26.31.4.09.12.18.24.27.36.12.14.26.11.43.09.23-.04.46-.1.67-.18.49-.19.97-.5,1.23-.97.16-.28-.28-.53-.43-.25Z"/>
        <path class="cls-2" d="m37,21.68c-.13.11-.32.15-.48.19-.17.04-.35.08-.52.09-.2.02-.4.02-.6,0-.08,0-.17-.01-.25-.02-.05,0-.18-.01-.22-.05,0,0,.02.04.02.01,0-.03,0-.07.02-.1.01-.08.03-.15.06-.23.04-.15.1-.29.17-.42.15-.29.36-.53.61-.74l-.18.07c.42.02.88.17,1.21.42.13.09.21.23.25.38s.02.28-.09.39c-.23.22.12.58.35.35.4-.38.28-1.01-.06-1.39-.18-.19-.44-.32-.68-.42-.26-.11-.53-.18-.81-.22-.06,0-.12-.02-.18-.01-.1,0-.17.06-.24.12-.11.09-.21.19-.3.3-.19.24-.35.49-.46.77-.05.12-.09.24-.12.37-.04.15-.08.33-.04.49.09.34.47.37.76.4.37.04.75.02,1.12-.04.35-.06.73-.15,1.01-.38.1-.09.09-.26,0-.35-.1-.1-.25-.09-.35,0Z"/>
      </g>
    </g>
    <g>
      <path class="cls-2" d="m90.24,19.98c1.33.12,2.72.06,3.86-.64.18-.11.36-.25.45-.44.23-.47-.13-1.02-.53-1.35-1.2-1.01-2.97-1.29-4.43-.7s-2.52,2.03-2.67,3.6c-.03.33-.02.67.09.98.11.29.31.55.55.75,1.17,1.02,2.94.9,4.33,1.59.76.38,1.37.98,1.97,1.58.29.3.6.62.69,1.02.18.82-.62,1.58-1.45,1.72s-1.66-.13-2.48-.3c-1.01-.21-2.05-.27-3.08-.31-.45-.02-.92-.03-1.31.17s-.68.7-.49,1.11c.12.26.4.41.66.53,2.77,1.29,5.94,1.69,8.94,1.13.24-.04.49-.1.7-.23.24-.15.42-.39.55-.64.93-1.69.29-3.91-1.07-5.28s-3.27-2.02-5.17-2.39c-.45-.09-.91-.17-1.27-.45s-.56-.82-.3-1.2c.3-.43.94-.37,1.45-.27"/>
      <path class="cls-2" d="m90.24,20.23c1.11.09,5.41,0,4.52-2.12-.73-1.74-3.48-2.12-5.04-1.57-1.76.62-3.2,2.49-3.05,4.41.16,2.22,3.04,2.28,4.61,2.84.67.24,1.23.63,1.76,1.11.45.41,1.26,1.03,1.3,1.68.06.83-.91,1.28-1.6,1.32-.77.05-1.54-.24-2.3-.38-1.14-.21-2.48-.4-3.64-.26-.7.08-1.53.61-1.35,1.43s1.54,1.16,2.23,1.4c1.16.4,2.37.66,3.59.77s2.46.08,3.67-.11c1.03-.16,1.66-.46,2.07-1.47.84-2.1-.29-4.47-1.99-5.77-.95-.73-2.08-1.2-3.23-1.53-.61-.17-1.23-.27-1.84-.43-.33-.09-.98-.3-1-.73-.02-.37.23-.63.57-.66.22-.02.44.03.65.07.31.06.45-.42.13-.48-.58-.11-1.36-.2-1.74.38-.33.51-.07,1.17.37,1.52.66.54,1.72.55,2.51.76.98.26,1.94.63,2.79,1.17,1.71,1.09,3.03,3.22,2.38,5.29-.19.61-.52,1.12-1.16,1.29-.57.15-1.2.2-1.79.24-1.18.08-2.37.02-3.53-.18s-2.31-.54-3.39-1.02c-.15-.07-.41-.14-.53-.26-.44-.47-.2-.97.39-1.13s1.25-.04,1.84,0c1.23.08,2.39.4,3.6.56.81.11,1.67,0,2.27-.61,1.38-1.39-.5-2.96-1.61-3.76-.75-.55-1.6-.79-2.49-1-.97-.23-2.23-.44-2.81-1.34-.7-1.07.09-2.72.85-3.54s1.87-1.32,3.03-1.29c.96.02,4.01.97,2.68,2.33-.41.42-1.4.56-1.95.62-.59.06-1.19.04-1.78-.01-.32-.03-.32.47,0,.5h0Z"/>
    </g>
    <g>
      <path class="cls-2" d="m101.06,22.22c-.24,1.96-.49,3.92-.73,5.87-.11.86-.11,1.92.64,2.34.6.34,1.4.02,1.82-.53s.56-1.25.69-1.93c.33-1.78.67-3.57,1-5.35.02-.12.04-.26-.04-.35-.07-.08-.19-.08-.3-.08-.82,0-2.26.01-3.08.02"/>
      <path class="cls-2" d="m100.81,22.22c-.24,1.9-.48,3.81-.71,5.71-.13,1.05-.15,2.73,1.26,2.88,1.57.17,2.13-1.56,2.36-2.77.17-.92.34-1.84.51-2.75.08-.45.17-.89.25-1.34s.22-.92.25-1.38c.05-.77-.82-.62-1.34-.61-.78,0-1.56,0-2.34.02-.32,0-.32.5,0,.5.53,0,1.07,0,1.6-.01.28,0,.57,0,.85,0,.19,0,.63-.09.73.11.05.1-.08.43-.1.55-.03.18-.07.37-.1.55-.07.37-.14.73-.21,1.1-.14.73-.27,1.47-.41,2.2-.21,1.1-.32,3.22-1.8,3.36s-1.06-2.06-.95-2.88c.22-1.74.43-3.48.65-5.22.04-.32-.46-.32-.5,0h0Z"/>
    </g>
    <g>
      <path class="cls-2" d="m101.39,17.82c.73.05,2.03,1.69,2.67,1.34s1.09-1.17.77-1.83c-.29-.61-1.11-.82-1.76-.63s-1.18.66-1.68,1.12"/>
      <path class="cls-2" d="m101.39,18.45c.1,0-.17-.05-.07,0,.02,0,.05.02.08.02.15.04-.13-.07.01,0,.12.07.24.14.36.21.25.17.49.36.74.55.49.36,1.13.79,1.75.53.78-.33,1.38-1.25,1.29-2.11-.11-.99-.96-1.58-1.91-1.63-1.07-.05-1.94.68-2.69,1.36-.24.22-.24.66,0,.88.26.24.63.24.88,0,.14-.13.28-.26.42-.38.03-.02.06-.05.09-.07,0,0,.14-.11.07-.06s.08-.06.07-.05c.05-.03.09-.07.14-.1.08-.05.16-.1.24-.14.03-.02.07-.04.1-.05.01,0,.18-.08.06-.03.08-.03.16-.06.23-.08.04,0,.07-.02.11-.03.13-.03-.13,0,.02,0,.08,0,.15,0,.23,0,.03,0,.06,0,.09,0,.15,0-.09-.03,0,0,.06.02.13.03.2.05.04.01.17.03.02,0,.04,0,.08.04.12.06.03.01.05.03.08.05.12.06-.05-.07,0,0,.03.04.13.09.14.14l-.04-.06s.03.05.05.07c.02.03.03.05.04.08-.06-.12-.02-.04,0,0,0,.02.01.04.02.07.01.07.01.06,0-.03.03.04,0,.15,0,.21.01.08.03-.14,0,0,0,.03-.01.06-.02.09-.01.04-.03.07-.04.11-.03.09.07-.13,0,0-.04.08-.09.15-.14.23-.05.08.1-.11,0,0-.02.02-.04.05-.07.07-.03.03-.21.18-.09.09-.06.05-.14.08-.2.13-.03.02-.14.04.08-.04-.11.04.04-.01.07,0-.01,0-.06,0-.07,0-.06,0-.03-.06.09.01-.03-.02-.1-.03-.14-.04-.15-.05.12.07-.02,0-.05-.03-.1-.05-.15-.08-.22-.13-.43-.29-.64-.44-.48-.36-.96-.77-1.59-.83-.33-.03-.64.31-.62.62.02.36.28.59.62.62h0Z"/>
    </g>
    <g>
      <path class="cls-2" d="m128.86,21.8c0-.32.1-.99-.1-1.25-.31-.41-2.49-.09-3.02-.24-.73-.21-1.46-.42-2.18-.63-.56-.16-1.21-.32-1.71-.04-.39.21-.58.62-.74,1-.52,1.19-1.04,2.42-1.03,3.7.02,1.73,1.04,3.37,2.49,4.5s3.28,1.8,5.14,2.18c.26.05.57.09.76-.08.15-.14.16-.35.15-.55-.05-1.07-.44-2.21-1.4-2.83-.6-.38-1.35-.53-1.98-.85-.64-.33-1.19-1-.94-1.62,1.01.4,3.41-.27,4.33-.82.92-.55.24-1.47.23-2.47Zm-3.16,2.21c-.35.13-.76.13-1.14.11-.69-.03-1.5-.18-1.8-.69-.11-.19-.13-.4-.13-.61.01-.37.12-.75.42-1.03.29-.28.8-.43,1.22-.29,2.03-.06,1.59,1.06,1.8,1.35.1.13.19.27.22.42.05.31-.24.61-.59.75Z"/>
      <g>
        <path class="cls-2" d="m129.11,21.8c.02-.75.15-1.53-.76-1.68-.82-.13-1.67.09-2.48-.05-.68-.12-1.36-.39-2.02-.58-.58-.17-1.22-.37-1.82-.2-.48.14-.78.5-1,.92-.3.6-.55,1.24-.77,1.87-.43,1.25-.58,2.56-.14,3.83.4,1.14,1.15,2.14,2.07,2.92.99.83,2.16,1.42,3.38,1.85.68.24,1.38.44,2.09.57.4.07.9.1,1.13-.31.24-.44.06-1.13-.06-1.59-.15-.57-.41-1.11-.81-1.54-.43-.47-1.01-.72-1.6-.94-.7-.26-2.07-.71-1.77-1.72l-.31.17c1.17.42,2.73-.07,3.83-.51.46-.19,1-.4,1.21-.89.28-.66-.13-1.45-.16-2.12-.01-.32-.51-.32-.5,0,.02.55.29,1.13.25,1.68-.05.61-.84.83-1.32,1-.94.33-2.19.71-3.17.37-.13-.05-.27.05-.31.17-.24.79.32,1.49.98,1.86.96.55,2.12.62,2.78,1.62.26.39.41.85.49,1.31.03.16.13.56.07.73-.17.47-.84.19-1.17.11-1.15-.27-2.28-.66-3.31-1.24-1.91-1.06-3.63-2.96-3.56-5.28.04-1.24.56-2.49,1.09-3.59.32-.67.81-.9,1.55-.76.62.12,1.23.33,1.83.51.42.12.84.28,1.28.3.37.02.75,0,1.12-.01.34,0,.88-.09,1.2.06.38.18.21.8.21,1.16,0,.32.49.32.5,0Z"/>
        <path class="cls-2" d="m125.63,23.77c-.41.14-.86.12-1.29.09-.33-.03-.69-.08-.99-.23-.36-.18-.5-.46-.47-.86.02-.38.19-.74.52-.93.36-.21.71-.09,1.1-.08.27,0,.57.03.82.15.17.08.24.16.32.3.03.06,0,0,.02.06.01.03.02.07.03.1.02.07.03.13.04.2.02.13.03.27.1.39.08.13.23.27.2.44-.03.19-.25.32-.41.38-.3.12-.17.6.13.48.4-.16.82-.5.77-.99-.02-.23-.15-.39-.27-.58-.02-.03.02.05,0,.01,0-.01,0-.03-.01-.04,0-.03-.01-.07-.02-.1-.07-.42-.17-.78-.54-1.03-.28-.19-.64-.25-.97-.27-.12,0-.24,0-.37-.01s-.24-.04-.36-.05c-.24-.02-.48.04-.69.13-.87.37-1.29,1.73-.59,2.45.33.34.84.47,1.29.54.57.08,1.2.13,1.75-.07.3-.1.17-.59-.13-.48Z"/>
      </g>
    </g>
    <g>
      <path class="cls-2" d="m115.8,9.82c.18,4.3-.76,9.18-2.18,13.25-1.12-.42-2.43-.26-3.42.41-.36.24-.67.54-.91.9-.83,1.27-1.71,3.54-.44,4.36,1.64,1.06,5.56,1.69,6.69.09s1.07-5.55,1.27-7.5c.41-3.86.82-7.73,1.23-11.59-.75-.06-1.51-.03-2.25.08Zm-1.42,16.5c-.09.26-.19.53-.39.72-.12.12-.27.2-.42.26-.83.34-1.89.15-2.45-.55-.13-.17-.24-.36-.27-.57-.03-.21.02-.44.17-.6.26-.27.69-.24,1.06-.19.43.17,1.96.3,2.25.66.03.04.07.09.07.14,0,.04-.01.09-.02.13Z"/>
      <g>
        <path class="cls-2" d="m115.55,9.82c.16,4.48-.72,8.96-2.17,13.18l.31-.17c-2.61-.85-4.7.81-5.48,3.23-.26.81-.43,1.87.17,2.58s1.73.98,2.55,1.17c1.63.38,4.09.56,5.02-1.17,1.06-1.96.9-4.57,1.07-6.73.31-4.06.85-8.12,1.28-12.17.01-.14-.13-.24-.25-.25-.78-.05-1.54-.02-2.32.09-.32.04-.18.53.13.48.73-.1,1.45-.12,2.19-.07l-.25-.25c-.38,3.61-.77,7.23-1.15,10.84-.25,2.39-.06,5.03-.91,7.31-.9,2.42-4.42,1.81-6.27.9-1.45-.71-1.01-2.28-.42-3.47.87-1.76,2.58-2.64,4.51-2.01.13.04.27-.05.31-.17,1.46-4.26,2.35-8.8,2.19-13.31-.01-.32-.51-.32-.5,0Z"/>
        <path class="cls-2" d="m114.14,26.26c-.1.29-.21.58-.49.74-.23.13-.51.21-.78.22-.54.03-1.1-.13-1.47-.53-.19-.2-.37-.5-.27-.79s.4-.3.65-.29c.2,0,.36.06.55.1.21.05.43.08.64.13.26.05.52.1.78.18.09.03.18.06.26.1.07.04.16.06.13.14-.09.31.39.44.48.13.21-.68-.77-.87-1.23-.97-.28-.06-.57-.11-.85-.17s-.52-.13-.8-.14c-.38-.01-.79.09-1,.43s-.17.8.03,1.15c.37.66,1.13,1.01,1.87,1.03.41.01.84-.08,1.21-.27.43-.22.62-.62.77-1.06.11-.3-.38-.44-.48-.13Z"/>
      </g>
    </g>
  </g>
</svg>