<?xml version="1.0" encoding="UTF-8"?>
<svg id="Layer_2" data-name="Layer 2" xmlns="http://www.w3.org/2000/svg" viewBox="0 0 137.33 44.28">
  <defs>
    <style>
      .cls-1 {
        fill: none;
      }

      .cls-2 {
        fill: #fff;
      }

      .cls-3 {
        fill: #be3428;
      }
    </style>
  </defs>
  <g id="Layer_1-2" data-name="Layer 1">
    <g>
      <path class="cls-3" d="m28.96,40.17c-4.99,1.62-11.24-4.8-13.63-1.08-1.22,1.9-6.43,4.44-9.08.89-1.15-1.54-1.68-2.05-2.31-4.04C2.42,31.12.97,22.39.08,17.43c-.13-.75-.12-10.27.29-10.91.34-.53.96-.82,1.56-1.05,6.92-2.69,14.64-2,22.08-1.82,10.3.26,20.6-.51,30.9-.87,17.29-.6,34.6-.03,51.9.54,4.95.16,10.07.37,14.54,2.47,1.2.57,2.4,1.28,3.74,1.28.82,0,1.6-.28,2.39-.48,3.57-.94,8.2-.01,9.47,3.39.41,1.09.41,2.27.4,3.43-.02,5.16-.05,10.33-.07,15.49,0,1.98-.04,4.03-.91,5.81-1.14,2.32-3.58,3.81-6.12,4.46-2.54.65-5.21.57-7.83.48-8.66-.28-17.32-.57-25.98-.85-2.72-.09-5.53-.2-8-1.32-1.09-.5-2.1-1.19-3.26-1.5-1.01-.27-2.07-.25-3.11-.18-10.11.6-19.86,4.3-29.98,4.68-7.71.29-15.47-1.36-23.11-.29"/>
      <path class="cls-2" d="m11.99,10.25v16.69c0,1.61,2.5,1.61,2.5,0V10.25c0-1.61-2.5-1.61-2.5,0h0Z"/>
      <path class="cls-2" d="m12.36,11.06c2.22,5.47,4.45,10.94,6.67,16.4.52,1.28,2.37,1.15,2.46-.33.17-2.84.54-5.66,1.13-8.44.49-2.29.91-5.07,2.59-6.84,1.11-1.17-.66-2.94-1.77-1.77-1.96,2.06-2.58,4.95-3.17,7.64-.68,3.1-1.1,6.25-1.29,9.41l2.46-.33c-2.22-5.47-4.45-10.94-6.67-16.4-.25-.62-.83-1.07-1.54-.87-.59.17-1.13.91-.87,1.54h0Z"/>
      <path class="cls-2" d="m35.14,17.39c-1.78-.47-3.72-1.13-5.36.09s-2.46,3.46-2.53,5.46.68,4.49,2.8,5.26c.92.34,2,.31,2.97.3,1.18,0,2.41-.1,3.53-.47,1.9-.63,3.65-2.07,4.14-4.08s-.55-4.01-2.22-5.2c-.81-.58-1.77-.95-2.72-1.21-1.02-.28-2.55-.81-3.56-.3-2.31,1.16-.09,3.92.92,5.15,2.76,3.35,7.07,5.83,11.53,5.25.67-.09,1.25-.51,1.25-1.25,0-.61-.58-1.34-1.25-1.25-2.32.3-4.51-.31-6.47-1.56-.98-.62-1.85-1.38-2.64-2.23-.37-.4-.73-.82-1.05-1.26-.19-.26-.38-.53-.55-.8-.08-.13-.16-.26-.23-.39-.04-.14-.04-.14.02-.01l-.32.55c-.34.08-.33.13.03.14.19.03.37.07.56.11.37.08.74.16,1.1.26.61.17,1.2.37,1.74.7.79.48,1.55,1.31,1.5,2.29-.12,2.53-3.36,3.05-5.31,3.06-1.06,0-2.36.17-2.9-.94-.49-1.02-.47-2.34-.17-3.4.23-.82.74-2.05,1.62-2.35s2.06.26,2.9.48c1.56.41,2.22-2,.66-2.41h0Z"/>
      <path class="cls-2" d="m55.22,13.91c-3.59-.01-6.29,3.64-4.98,7.04.3.78.75,1.51,1.37,2.07.31.28.66.5,1,.75.11.08.18.12.28.23.05.05.1.1.15.16-.03-.02-.05-.04-.06-.08-.01-.06,0-.12.03-.17l-.09.16c-.11.1-.22.21-.35.3-.3.22-.65.39-.99.51-.81.29-1.67.42-2.52.56-.67.1-1.04.94-.87,1.54.2.71.87.98,1.54.87,1.71-.27,3.48-.64,4.79-1.86.75-.69,1.18-1.71.84-2.71-.28-.82-.98-1.32-1.67-1.8-1-.69-1.51-1.92-1.21-3.07.33-1.21,1.54-2,2.73-2,1.61,0,1.61-2.49,0-2.5h0Z"/>
      <path class="cls-2" d="m60.26,12.53c.5,5.88,1.31,11.72,2.43,17.51.3,1.58,2.71.91,2.41-.66-1.07-5.57-1.85-11.19-2.34-16.85-.14-1.59-2.64-1.61-2.5,0h0Z"/>
      <path class="cls-2" d="m58.01,19.85h9.1c.68,0,1.25-.57,1.25-1.25s-.57-1.25-1.25-1.25h-9.1c-.68,0-1.25.57-1.25,1.25s.57,1.25,1.25,1.25h0Z"/>
      <path class="cls-2" d="m72.18,22.13c2.37.12,3.83-2.95,2.28-4.72-.75-.85-1.93-1.1-3.01-.91-1.17.2-2.11,1.03-2.71,2.02-1.15,1.91-1.41,4.45-1.07,6.61s1.53,4.08,3.45,5.03c2.08,1.04,4.65.99,6.4-.67,1.17-1.11-.6-2.87-1.77-1.77-.07.06-.13.13-.2.18.02-.02.1-.08-.01,0-.13.09-.26.16-.4.23-.18.09,0,.01-.19.07-.17.05-.34.1-.51.13-.26.05-.12.01-.06,0-.07,0-.13.01-.2.01-.16,0-.31,0-.47,0-.07,0-.13,0-.2-.02-.22-.03.15.03-.07-.01-.16-.03-.31-.07-.47-.11-.52-.15-1.06-.43-1.42-.76-.47-.42-.83-.95-1.08-1.53-.54-1.27-.56-2.76-.29-4.1.14-.72.34-1.44.72-2.07.14-.23.3-.44.51-.6.03-.02.33-.19.18-.13.07-.03.47-.13.33-.11.08-.01.49.02.34-.01.06.01.13.03.19.05.21.08-.23-.13.11.06-.02,0-.12-.1,0,0,.18.15-.17-.19.08.1,0,0-.08-.16-.02-.02.08.18-.05-.17,0,.02.05.17.03-.15,0,.02,0,.02-.07.24-.03.14.05-.13-.05.1-.07.13-.1.18.1-.12-.02.04-.02.02-.2.19-.1.11.08-.07-.1.06-.12.07-.13.06,0,0,.02-.01-.21.1.09.01-.15,0-.67-.03-1.25.6-1.25,1.25,0,.7.57,1.22,1.25,1.25h0Z"/>
      <path class="cls-2" d="m90.76,15.65c-1.44.97-2.37,2.46-2.6,4.18-.25,1.89.49,3.49,1.67,4.93.82,1,2.7,2.6,2.16,4.1-.27.76-1.56,1.2-2.19.69-.52-.43-1.26-.51-1.77,0-.44.44-.53,1.34,0,1.77,1.36,1.11,3.26,1.24,4.75.28,1.73-1.11,2.14-3.16,1.38-5.01-.4-.97-1.02-1.79-1.7-2.58-.61-.71-1.32-1.42-1.66-2.31-.53-1.36.01-3.08,1.22-3.9,1.33-.9.08-3.06-1.26-2.16h0Z"/>
      <path class="cls-2" d="m99.5,20.87v8.85c0,.68.57,1.25,1.25,1.25s1.25-.57,1.25-1.25v-8.85c0-.68-.57-1.25-1.25-1.25s-1.25.57-1.25,1.25h0Z"/>
      <path class="cls-2" d="m99.99,16.81h1.26c.17,0,.33-.03.48-.11.15-.05.29-.14.4-.26.12-.11.21-.25.26-.4.08-.15.11-.31.11-.48l-.04-.33c-.06-.21-.17-.4-.32-.55-.24-.22-.55-.37-.88-.37h-1.26c-.17,0-.33.03-.48.11-.15.05-.29.14-.4.26-.12.11-.21.25-.26.4-.08.15-.11.31-.11.48l.04.33c.06.21.17.4.32.55.24.22.55.37.88.37h0Z"/>
      <path class="cls-2" d="m111.88,19.13c-2.79-.34-4.37,2.36-5.39,4.5s-1.51,4.97.72,6.6c.94.69,2.14.81,3.2.31,1.14-.54,1.91-1.67,2.65-2.65,1.66-2.16,2.66-4.48,3.04-7.18.42-2.99.23-6.04.74-9.02l-2.46-.33c-.72,5.84-.95,11.73-.68,17.61.07,1.6,2.58,1.61,2.5,0-.27-5.88-.05-11.77.68-17.61.17-1.39-2.22-1.72-2.46-.33-.84,4.86.18,10.25-2.74,14.54-.38.55-.79,1.08-1.21,1.6-.3.36-.66.91-1.1,1.1-.84.37-1.32-.72-1.31-1.4,0-1.18.75-2.37,1.3-3.37s1.25-2.02,2.52-1.86c.68.08,1.24-.63,1.25-1.25,0-.74-.58-1.17-1.25-1.25h0Z"/>
      <path class="cls-2" d="m119.2,25.06c2.59,1.42,5.46-.24,6.71-2.64.57-1.1,1.13-2.43.95-3.69-.09-.62-.37-1.21-.91-1.56-.72-.47-1.53-.36-2.28-.02-1.29.58-2.42,1.46-3.52,2.34s-2.2,1.68-2.83,2.89-.8,2.82.04,4.03,2.16,1.82,3.4,2.37c2.93,1.3,6.12,1.91,9.33,1.68.67-.05,1.25-.54,1.25-1.25,0-.64-.57-1.3-1.25-1.25-2.04.14-4.06-.05-6.03-.62-.96-.28-1.89-.63-2.79-1.08-.62-.31-1.6-.7-1.93-1.38s.22-1.53.68-2.01c.66-.7,1.45-1.29,2.21-1.88.38-.29.77-.58,1.17-.84.23-.15.46-.3.7-.43.16-.09.65-.24.73-.38s.56.36-.24-.09c-.09-.05-.15-.19-.22-.25-.09-.07.03.15.02.05,0-.12,0,.11,0,.1,0,.34-.1.62-.25,1.04-.47,1.36-1.92,3.65-3.69,2.68-1.41-.77-2.68,1.39-1.26,2.16h0Z"/>
      <rect class="cls-1" width="137.33" height="44.28"/>
    </g>
  </g>
</svg>