<?xml version="1.0" encoding="UTF-8"?>
<svg id="Layer_2" data-name="Layer 2" xmlns="http://www.w3.org/2000/svg" viewBox="0 0 679.75 284.77">
  <defs>
    <style>
      .cls-1 {
        fill: #fff;
      }

      .cls-2 {
        fill: #5e000b;
      }
    </style>
  </defs>
  <g id="Layer_1-2" data-name="Layer 1">
    <path class="cls-2" d="m0,10.65c4.36,48.58,11.09,96.95,20.17,144.88.26,1.39.58,2.87,1.61,3.84,1.01.95,2.49,1.19,3.87,1.38,5.78.79,11.71,1.58,17.41.35s11.24-4.92,13.02-10.48c1.41-4.41.29-9.18-.83-13.67-4.27-17.08-8.55-34.17-12.82-51.25-.4-1.58-.78-3.34-.01-4.79.64-1.22,1.96-1.92,3.26-2.41,10.04-3.75,21.81,1.57,31.8-2.32,4.88-1.9,8.74-5.82,11.61-10.21,12.56-19.23,5.02-48.25-14.87-59.72C52.54-6.24,23.63,2.51,0,10.65"/>
    <path class="cls-1" d="m24.38,25.98c1.22,8.35,4.1,18.54,12.38,20.14,5.94,1.15,11.48-2.97,16.13-6.83,3.32-2.76,6.97-7.12,4.76-10.83-.79-1.32-2.18-2.16-3.56-2.85-8.5-4.24-20.78-2.85-29.72.36"/>
    <path class="cls-2" d="m116.08,94.87c-10.78,3.75-22.06,7.82-29.62,16.37-7.56,8.56-9.65,23.09-1.34,30.92,4.74,4.47,11.56,5.76,18.01,6.72,9.21,1.36,19.31,2.23,27.19-2.73,6.25-3.93,10.02-11.07,11.16-18.36s-.07-14.78-2.04-21.9c-1.39-5.06-3.4-10.34-7.7-13.36s-10.47,1.12-15.66,2.34"/>
    <path class="cls-1" d="m113.4,114.22c-3.97,3.81-8.69,8.99-7.46,14.35s7.99,9.29,12.6,6.28c2.81-1.84,3.9-5.37,4.79-8.61.58-2.1,1.16-4.21,1.73-6.31.33-1.19.65-2.48.22-3.64-.77-2.06-3.47-2.6-5.66-2.35s-4.01-1.17-6.23.29"/>
    <path class="cls-2" d="m158.01,84.96c-.43,22.9,0,45.82,1.32,68.68.04.72.12,1.52.63,2.02.51.49,1.28.56,1.98.59,7.96.4,15.91.8,23.87,1.21.67.03,1.4.05,1.95-.32,1.26-.85.7-2.79,0-4.13-4.03-7.75-8.44-15.53-9.87-24.15s.77-18.46,7.81-23.63c4.49-3.29,10.22-4.25,15.34-6.44,5.12-2.19,10.15-6.62,9.85-12.18-.24-4.4-3.9-8.01-8.02-9.57s-8.66-1.47-13.06-1.37c-2.2.05-4.52.14-6.36,1.35-2.59,1.71-3.42,5.08-5.25,7.59s-6.35,3.74-7.64.91c-.91-2,.69-4.37.14-6.5-.76-2.93-5.21-3.3-7.45-1.27s-4.8,4.19-5.25,7.18"/>
    <path class="cls-2" d="m225.55,53.63c7,37.83,23.86,72.63,23.25,110.61,5.21-1.4,10.64-1.97,16.03-1.67-4.17-31.83-8.56-63.64-13.16-95.41,12.41,1.81,25.26.51,37.06-3.76,1.3-.47,2.69-1.06,3.38-2.26.63-1.09.54-2.44.38-3.69-.98-7.62-3.88-14.99-8.37-21.22-.87-1.21-1.85-2.42-3.18-3.11-1.63-.84-3.57-.79-5.4-.71-24.71,1.02-49.42,2.04-74.13,3.05-2,.08-4.29.32-5.42,1.96-.78,1.12-.76,2.59-.71,3.96.24,5.98.76,11.96,1.56,17.89.2,1.46.49,3.06,1.67,3.95,1.01.76,2.38.76,3.64.72,8.52-.23,17.05-.46,25.57-.68"/>
    <path class="cls-2" d="m363.12,41.6c-13.64-1.96-25.49,7.3-38.22,12.62-5.05,2.11-10.15,4.43-14.1,8.22-11.5,11.02-9.38,30.03-3.46,44.81,5.92,14.78,14.92,29.15,14.58,45.08-.08,3.8-.11,8.65,3.4,10.1,1.28.53,2.72.41,4.1.27,7.85-.76,15.7-1.52,23.55-2.28,1.3-.13,2.91-.52,3.16-1.8.14-.7-.22-1.39-.56-2.01-5.74-10.58-9.73-22.1-11.76-33.96-1.15-6.75-.71-15.4,5.54-18.21,1.56-.7,3.33-.92,4.8-1.8,5.16-3.09,2.45-11.98-3.16-14.17s-11.87.02-17.47,2.21c-1.91-2.94-.66-7.11,1.94-9.46s6.18-3.25,9.64-3.8c4.85-.77,9.77-.99,14.67-1.3,5.06-.32,10.23-.76,14.88-2.78s8.78-5.93,9.74-10.91c1.05-5.42-1.87-11.02-6.16-14.49s-9.74-5.14-15.13-6.32"/>
    <path class="cls-2" d="m424.88,84.78c-2.98,3.43-10.53.75-13.86,3.64-3.33,2.89-5.33,6.99-6.95,11.09-4.24,10.73-6.5,22.51-4.48,33.87s8.72,22.2,18.98,27.47c11.42,5.87,26.54,3.68,35.6-5.41,6.93-6.95,10.02-17.03,10.27-26.84.25-9.81-2.09-19.49-4.72-28.94-2.07-7.44-4.75-15.42-11.17-19.72-7.44-4.99-18.79-2.67-23.67,4.84"/>
    <path class="cls-1" d="m434.77,91.43c-2.4,5.1-5.64,9.81-10.82,11.72-1.72.64-3.65,1.06-4.9,2.41-1.49,1.61-1.58,4.02-1.58,6.22,0,8.33,1.1,18.48,8.71,21.86,3.36,1.49,7.2,1.18,10.86.85.97-.09,2.03-.22,2.71-.92.59-.6.76-1.49.82-2.33.55-7.02-4.03-13.25-6.68-19.77s-2.26-13.95.86-20.03"/>
    <path class="cls-2" d="m494.78,40.05c-3.29,35.33-6.19,72.88-9.48,108.22-.3,3.2-.55,6.62.97,9.45,2.77,5.13,10.15,5.81,15.53,3.55s9.57-6.59,14.52-9.67c4.95-3.08,11.62-4.8,16.44-1.51,1.1-7.75.9-15.69-.59-23.38-.38-1.99-.97-4.14-2.64-5.3-2.59-1.79-6.16-.17-8.6,1.82s-4.91,4.51-8.06,4.54c-3.78.03-6.67-3.79-7.05-7.56s1.07-7.44,2.37-10.99c7.66-20.82,11.46-43.06,11.15-65.25-.02-1.24-.1-2.61-.98-3.48-.82-.81-2.09-.93-3.24-.98-6.79-.32-13.59-.14-20.35.54"/>
    <path class="cls-2" d="m554.95,82.93c3.52,1.36,6.29,8.08,7.43,11.68s1.17,7.44,1.2,11.22c.11,15.38.22,30.76.33,46.14,0,1.09.04,2.26.65,3.16.81,1.19,2.38,1.56,3.8,1.83,5.68,1.09,11.35,2.18,17.03,3.27.96.18,1.97.37,2.91.08,1.54-.48,2.42-2.07,2.97-3.59,4.34-11.97-2.72-24.69-5.38-37.14-2.65-12.38-.86-25.23-1.44-37.88-.03-.66-.09-1.37-.52-1.86-.49-.56-1.3-.67-2.04-.75-9.24-.96-19.45-1.67-26.94,3.83"/>
    <path class="cls-2" d="m560.3,56.46c-.46,7.39,11.86-.49,17.55,1.1,1.27.35,2.67.76,3.85.18,1.69-.82,1.94-3.08,1.96-4.96.03-4.05-.02-8.11-.14-12.16-.03-1.13-.1-2.34-.79-3.23-1.29-1.67-3.87-1.31-5.92-.78-5.92,1.53-11.85,3.05-17.77,4.58-.55.14-1.12.3-1.54.67-.75.67-.79,1.81-.78,2.82.04,2.99,3.55,8.79,3.58,11.78"/>
    <path class="cls-2" d="m631,91.1c-7.7,4.93-10.51,14.95-10.47,24.1.09,19.62,11.15,38.83,28.08,48.75,2.64,1.55,5.47,2.9,8.51,3.28,7.42.93,14.53-4.32,18.04-10.92,3.51-6.6,4.14-14.31,4.48-21.78.2-4.35.3-8.82-1.13-12.93-1.43-4.11-4.71-7.86-9-8.61-1.72-.3-3.55-.12-5.15-.82-3.31-1.44-4.07-6.06-2.66-9.38,1.4-3.32,4.28-5.74,6.79-8.34,1.39-1.44,2.78-3.27,2.41-5.23-.25-1.3-1.23-2.33-2.27-3.14-4.97-3.89-11.94-4.41-18.07-2.88s-14.16,4.62-19.56,7.91"/>
    <path class="cls-1" d="m650.06,100.93c-7.45,5.3-14.04,12.86-15.03,21.94-.99,9.09,5.72,19.22,14.85,19.24,1.45,0,2.98-.28,4.04-1.26,1.26-1.16,1.57-3.03,1.52-4.74-.17-5.72-3.48-10.8-5.53-16.14s-4.22-15.35.15-19.05"/>
    <path class="cls-2" d="m131.62,237.24c-.7,12.98-.11,26.02,1.76,38.89,3.49.22,6.97.45,10.46.67.22.01.47.02.64-.12.17-.13.22-.35.26-.56.79-3.74,1.58-7.48,2.37-11.22,1.62,3.78,3.24,7.57,4.85,11.35.21.49.44,1.01.86,1.33.58.45,1.38.43,2.12.4,2.77-.13,5.54-.26,8.32-.4.25-.01.51-.03.7-.18.22-.17.29-.48.34-.76.77-4.82-1.49-9.58-4.04-13.75-2.59-4.25-5.55-8.27-8.82-12.02,4.98-.83,9.18-5.1,9.93-10.09.15-1.03.15-2.16-.45-3.01-.86-1.21-2.55-1.39-4.03-1.46-8.65-.41-16.62,1.34-25.27.93"/>
    <path class="cls-1" d="m137.4,243.91c.31.87.59,1.55.51,2.47s.22,2.04,1.11,2.28c.41.12.85,0,1.27-.11,1.92-.51,3.84-1.03,5.76-1.54.24-.06.49-.13.66-.31.23-.24.24-.61.24-.94,0-.57,0-1.15,0-1.72,0-.35-.02-.74-.27-.99-.18-.18-.45-.23-.71-.27-2.37-.36-6.32.27-8.56,1.13"/>
    <path class="cls-2" d="m173.11,278.02c1.87-9.44,5.42-18.55,10.42-26.77.35-.58.78-1.21,1.44-1.37.38-.09.78-.01,1.17.07,3.72.79,7.43,1.57,11.15,2.36.29.06.59.14.77.37.13.16.16.38.2.59.84,5.3,1.59,10.61,2.23,15.93.28,2.31.45,4.94-1.12,6.66-.84.92-2.05,1.41-3.23,1.8-7.23,2.44-15.18,2.69-22.55.7"/>
    <g>
      <path class="cls-2" d="m188.06,279.47c-.24-1.45.09-3.35,1.2-5.38"/>
      <path class="cls-1" d="m190.47,278.81s-.01-.09-.02-.14l.09.66c-.07-.57-.06-1.15,0-1.72l-.09.66c.11-.83.35-1.64.68-2.41l-.25.6c.16-.38.34-.75.54-1.11.32-.58.43-1.28.25-1.93-.16-.58-.61-1.21-1.15-1.49-.58-.31-1.28-.46-1.93-.25-.61.2-1.18.57-1.49,1.15-.6,1.1-1.11,2.31-1.37,3.54-.13.63-.22,1.27-.24,1.91s.06,1.24.16,1.85c.09.58.67,1.21,1.15,1.49.54.31,1.33.45,1.93.25s1.19-.57,1.49-1.15l.25-.6c.12-.44.12-.89,0-1.33h0Z"/>
    </g>
    <path class="cls-2" d="m219.92,257.3c2.94.41,6.16-2.64,6.96-5.5.23-.84.28-1.76-.05-2.57-.84-2.01-3.47-2.4-5.65-2.48-3.17-.13-6.73-.11-9.01,2.11-1.56,1.53-2.15,3.79-2.41,5.95-.26,2.14-.23,4.44.84,6.31,1.15,2,3.35,3.22,5.62,3.66,1.85.36,3.92.31,5.35,1.53,1.31,1.1,1.7,2.97,1.58,4.67-.05.67-.19,1.39-.7,1.82-.42.36-1.07.81-1.54.53-4.44-2.61-4.99-3.07-8.71-2.07-.72.19-3.25,1.91-3.91,2.24-.67.34-1.08,1.08-1.14,1.83-.12,1.52,1.09,2.9,2.5,3.48s2.99.55,4.52.51c3.21-.08,6.42-.17,9.63-.25,1.16-.03,2.42-.09,3.33-.81.96-.76,1.29-2.04,1.52-3.24.51-2.65.78-5.42.14-8.04s-2.31-5.11-4.8-6.16c-.91-.39-1.91-.57-2.76-1.08s-1.54-1.49-1.29-2.45"/>
    <path class="cls-2" d="m237.28,281.53c2.17-6.42,4.21-15.51,6.38-21.93,1.23-3.62,2.51-7.34,4.98-10.26.88-1.04,2.2-2.03,3.48-1.58.65.22,1.13.78,1.57,1.3,1.92,2.29,3.85,4.59,5.77,6.88.33.4.7.81,1.19.97,1.32.4,2.29-1.17,2.95-2.38,1.94-3.56,5.71-6.06,9.74-6.47.76-.08,1.57-.07,2.2.35.68.46.99,1.3,1.25,2.08,2.63,8.07,4.3,16.46,4.95,24.93.14,1.86.16,3.94-1.13,5.29-1.14,1.2-3.07,1.42-4.61.82s-2.74-1.88-3.59-3.3c-2.02-3.35-2.35-7.42-3.68-11.1-.23-.64-.59-1.35-1.25-1.5-.91-.2-1.59.75-2.21,1.44-1.45,1.63-3.88,2.3-5.97,1.69s-3.76-2.47-4.2-4.61c-1.24,4.51-2.55,9.15-5.48,12.8s-7.91,6.06-12.34,4.57"/>
    <path class="cls-2" d="m288.68,249.82c-.32,8.07.73,17.71,3.98,25.11.64,1.45,1.44,2.88,2.73,3.8,1.11.79,2.49,1.12,3.84,1.32,1.7.25,3.58.29,4.97-.72,1.35-.98,1.91-2.69,2.34-4.3,2.37-8.75,3.5-17.83,3.33-26.9,0-.38-.03-.79-.26-1.09-.3-.38-.83-.46-1.32-.5-1.5-.13-3-.16-4.5-.12-.45.01-.92.05-1.28.32-.4.31-.54.83-.63,1.33-.85,4.59.52,9.8-2.09,13.66-.45-2.41-1.91-4.48-2.98-6.68s-1.74-4.89-.59-7.05c-2.5-.17-5.02-.06-7.49.34l-.03,1.48"/>
    <path class="cls-2" d="m331.6,259.09c2.94.41,6.16-2.64,6.96-5.5.23-.84.28-1.76-.05-2.57-.84-2.01-3.47-2.4-5.65-2.48-3.17-.13-6.73-.11-9.01,2.11-1.56,1.53-2.15,3.79-2.41,5.95-.26,2.14-.23,4.44.84,6.31,1.15,2,3.35,3.22,5.62,3.66,1.85.36,3.92.31,5.35,1.53,1.31,1.1,1.7,2.97,1.58,4.67-.05.67-.19,1.39-.7,1.82-.42.36-1.07.81-1.54.53-4.44-2.61-4.99-3.07-8.71-2.07-.72.19-3.25,1.91-3.91,2.24-.67.34-1.08,1.08-1.14,1.83-.12,1.52,1.09,2.9,2.5,3.48s2.99.55,4.52.51c3.21-.08,6.42-.17,9.63-.25,1.16-.03,2.42-.09,3.33-.81.96-.76,1.29-2.04,1.52-3.24.51-2.65.78-5.42.14-8.04s-2.31-5.11-4.8-6.16c-.91-.39-1.91-.57-2.76-1.08s-1.54-1.49-1.29-2.45"/>
    <path class="cls-2" d="m399.03,241.23c-.7,12.98-.11,26.02,1.76,38.89,3.49.22,6.97.45,10.46.67.22.01.47.02.64-.12.17-.13.22-.35.26-.56.79-3.74,1.58-7.48,2.37-11.22,1.62,3.78,3.24,7.57,4.85,11.35.21.49.44,1.01.86,1.33.58.45,1.38.43,2.12.4,2.77-.13,5.54-.26,8.32-.4.25-.01.51-.03.7-.18.22-.17.29-.48.34-.76.77-4.82-1.49-9.58-4.04-13.75-2.59-4.25-5.55-8.27-8.82-12.02,4.98-.83,9.18-5.1,9.93-10.09.15-1.03.15-2.16-.45-3.01-.86-1.21-2.55-1.39-4.03-1.46-8.65-.41-16.62,1.34-25.27.93"/>
    <path class="cls-1" d="m404.81,247.9c.31.87.59,1.55.51,2.47s.22,2.04,1.11,2.28c.41.12.85,0,1.27-.11,1.92-.51,3.84-1.03,5.76-1.54.24-.06.49-.13.66-.31.23-.24.24-.61.24-.94,0-.57,0-1.15,0-1.72,0-.35-.02-.74-.27-.99-.18-.18-.45-.23-.71-.27-2.37-.36-6.32.27-8.56,1.13"/>
    <path class="cls-2" d="m546.59,262.71c2.94.41,6.16-2.64,6.96-5.5.23-.84.28-1.76-.05-2.57-.84-2.01-3.47-2.4-5.65-2.48-3.17-.13-6.73-.11-9.01,2.11-1.56,1.53-2.15,3.79-2.41,5.95-.26,2.14-.23,4.44.84,6.31,1.15,2,3.35,3.22,5.62,3.66,1.85.36,3.92.31,5.35,1.53,1.31,1.1,1.7,2.97,1.58,4.67-.05.67-.19,1.39-.7,1.82-.42.36-1.07.81-1.54.53-4.44-2.61-4.99-3.07-8.71-2.07-.72.19-3.25,1.91-3.91,2.24-.67.34-1.08,1.08-1.14,1.83-.12,1.52,1.09,2.9,2.5,3.48s2.99.55,4.52.51c3.21-.08,6.42-.17,9.63-.25,1.16-.03,2.42-.09,3.33-.81.96-.76,1.29-2.04,1.52-3.24.51-2.65.78-5.42.14-8.04-.64-2.63-2.31-5.11-4.8-6.16-.91-.39-1.91-.57-2.76-1.08s-1.54-1.49-1.29-2.45"/>
    <path class="cls-2" d="m447.21,261.63c-.36,5.08-.71,10.16-1.07,15.23-.11,1.54-.21,3.12.26,4.59s1.64,2.82,3.17,3.02c2.19.29,3.96-1.75,4.93-3.74,2.06-4.22,2.56-9.11,1.91-13.76-.25-1.77-.67-3.57-1.65-5.07s-2.58-2.68-4.37-2.76c-1.24-.05-2.67,1.35-3.18,2.48"/>
    <path class="cls-2" d="m447.77,252.34h7.75c.3.01.62,0,.88-.15.35-.22.48-.65.58-1.05.37-1.41.7-3.03-.15-4.21-.36-.49-.88-.84-1.42-1.11-2.3-1.17-5.15-1.19-7.48-.07-.39.19-.77.42-1.01.77-.24.36-.3.82-.35,1.25-.11.9-.22,1.82-.05,2.71s.44,1.46,1.25,1.86"/>
    <path class="cls-2" d="m478.91,259.7c-2.87-.74-6.03.24-8.25,2.21s-3.52,4.83-3.97,7.76c-.18,1.21-.23,2.47.09,3.65.29,1.1.88,2.1,1.56,3.01,2.83,3.86,7.3,6.47,12.05,7.05,2.81.34,5.93-.11,7.93-2.12.22-.22.43-.48.48-.78.04-.3-.08-.6-.22-.87-1.48-2.98-4.75-4.98-8.07-4.95-.35,0-.77-.01-.94-.32-.18-.33.09-.72.35-1,2.58-2.74,5.81-5.05,7.37-8.48.39-.85.65-1.87.22-2.7-.41-.78-1.3-1.15-2.14-1.41-1.76-.55-4.61-.94-6.45-1.06"/>
    <path class="cls-2" d="m499.1,246.35c.41,11.87.1,23.77-.93,35.6-.04.45-.04,1,.34,1.25.18.12.41.14.62.15,3.03.2,6.07.4,9.1.6-.22-2.25.04-4.55.77-6.7.12-.37.3-.78.67-.91.33-.12.69.04,1,.2,3.01,1.63,4.92,4.7,6.63,7.67.14.25.33.52.61.54.24.02.45-.17.63-.34,1.26-1.24,2.51-2.47,3.77-3.71.36-.36.74-.73.92-1.21.22-.57.15-1.21.02-1.8-.58-2.8-2.24-5.36-4.56-7.03-1.32-.96-3.01-1.88-3.18-3.51-.06-.58.1-1.15.28-1.7,2.16-6.63,7.55-11.78,9.95-18.32.1-.28.2-.58.09-.86-.21-.51-.93-.5-1.46-.38-4.76,1.05-9.05,4.06-11.67,8.18-1.37-2.72-1.6-6.12-3.86-8.16-2.54-2.3-6.37-.16-9.74.44"/>
    <g>
      <path class="cls-2" d="m189.31,262.87c-.27-2.23-.37,1.56-.13-.68"/>
      <path class="cls-1" d="m191.81,262.87c-.04-.32-.08-.64-.13-.96-.01-.07-.02-.14-.04-.21,0-.05-.02-.09-.03-.14-.07-.23-.16-.46-.28-.67-.11-.19-.25-.37-.41-.52-.47-.47-1.11-.74-1.78-.74-.88,0-1.74.48-2.18,1.26-.12.2-.21.42-.27.65,0,.03-.01.05-.02.08,0,.02,0,.03,0,.05-.04.24-.07.48-.1.72,0,.04,0,.08-.01.12,0,.07-.01.15-.01.22,0,.05,0,.11,0,.16,0,.08.08.59.09.67,0,0,0,0,0,0,0,0,0,0,0,.01,0,0,0,0,0,0,0,.03.24.57.25.6.19.35.56.7.9.9.58.34,1.28.43,1.93.25s1.17-.59,1.5-1.15c.13-.22.25-.49.29-.75.06-.36.1-.72.15-1.08,0-.05.01-.1.02-.16.01-.34-.06-.67-.22-.96-.1-.31-.27-.58-.52-.8-.23-.24-.49-.42-.8-.52-.3-.16-.62-.23-.96-.22l-.66.09c-.42.12-.79.33-1.1.64l-.39.51c-.23.39-.34.81-.34,1.26-.01.13-.03.26-.05.39l.09-.66c-.01.08-.02.15-.04.23,0,.04-.01.07-.03.11l.25-.6s0,0,0,.01l.39-.51s0,0,0,0l.51-.39s0,0,0,0l.6-.25s0,0,0,0l.66-.09s0,0,0,0l.66.09s0,0,0,0l.6.25s0,0,0,0l.51.39s0,0,0,0l.39.51s0,0,0,0l.25.6s0-.02,0-.03l.09.66c-.02-.13,0-.27,0-.4,0-.04,0-.09.01-.13l-.09.66c0-.06.02-.13.04-.19l-.25.6s0-.02.01-.03l-.39.51s0,0,0,0l-.51.39s0,0,0,0l-.6.25s0,0,0,0l-.66.09s0,0,0,0l-.66-.09s0,0,0,0l-.6-.25s0,0,0,0l-.51-.39s0,0,0,0l-.39-.51s.01.02.02.04l-.25-.6c.05.12.06.25.08.37,0,.06.02.12.03.19l-.09-.66s.01.09.02.13c-.01.34.06.67.22.96.1.31.27.58.52.8.23.24.49.42.8.52.3.16.62.23.96.22l.66-.09c.42-.12.79-.33,1.1-.64l.39-.51c.23-.39.34-.81.34-1.26h0Z"/>
    </g>
    <path class="cls-2" d="m476.96,268.41c3.22,0,3.22-5,0-5s-3.22,5,0,5h0Z"/>
    <path class="cls-2" d="m475.02,264.13l-.11.26c-.18.29-.28.6-.3.93-.07.33-.06.66.04,1,.08.33.23.61.45.85.18.27.41.49.7.64l.6.25c.44.12.89.12,1.33,0l.6-.25c.38-.22.67-.52.9-.9l.11-.26c.18-.29.28-.6.3-.93.07-.33.06-.66-.04-1-.08-.33-.23-.61-.45-.85-.18-.27-.41-.49-.7-.64l-.6-.25c-.44-.12-.89-.12-1.33,0l-.6.25c-.38.22-.67.52-.9.9h0Z"/>
    <path class="cls-2" d="m478.09,268.21l.74-.8c.24-.23.42-.49.52-.8.16-.3.23-.62.22-.96.01-.34-.06-.67-.22-.96-.1-.31-.27-.58-.52-.8l-.51-.39c-.39-.23-.81-.34-1.26-.34l-.66.09c-.42.12-.79.33-1.1.64l-.74.8c-.24.23-.42.49-.52.8-.16.3-.23.62-.22.96-.01.34.06.67.22.96.1.31.27.58.52.8l.51.39c.39.23.81.34,1.26.34l.66-.09c.42-.12.79-.33,1.1-.64h0Z"/>
    <path class="cls-2" d="m474.86,264.24l-.48.42,3.54,3.54c.45-.52.93-1.01,1.45-1.46.24-.23.42-.49.52-.8.16-.3.23-.62.22-.96.01-.34-.06-.67-.22-.96-.1-.31-.27-.58-.52-.8l-.51-.39c-.39-.23-.81-.34-1.26-.34l-.66.09c-.42.12-.79.33-1.1.64-.52.45-1,.94-1.45,1.46-.24.23-.42.49-.52.8-.16.3-.23.62-.22.96-.01.34.06.67.22.96.1.31.27.58.52.8l.51.39c.39.23.81.34,1.26.34l.66-.09c.42-.12.79-.33,1.1-.64l.48-.42c.24-.23.42-.49.52-.8.16-.3.23-.62.22-.96.01-.34-.06-.67-.22-.96-.1-.31-.27-.58-.52-.8l-.51-.39c-.39-.23-.81-.34-1.26-.34l-.66.09c-.42.12-.79.33-1.1.64h0Z"/>
    <path class="cls-1" d="m475.19,264.15c-.2.23-.39.47-.56.72-.49.73-.43,1.79,0,2.52v.02c.7,1.19,2.25,1.55,3.43.9.56-.31.94-.76,1.31-1.26.59-.79.41-2.41-.39-3.03h-.01c-.95-.74-1.93-.95-3.03-.4-.08.04-.16.09-.24.14-2.69,1.74-.19,6.07,2.52,4.32.07-.06.15-.1.24-.14l-3.03-.39h.01c-.13-1-.26-2.01-.39-3.02.28-.38.23-.39.48-.53l3.42.9v-.02c0,.84,0,1.68,0,2.52l-.22.29c.88-1.03,1.01-2.53,0-3.54-.9-.9-2.65-1.03-3.54,0h0Z"/>
  </g>
</svg>