<?xml version="1.0" encoding="UTF-8"?>
<svg id="Layer_2" data-name="Layer 2" xmlns="http://www.w3.org/2000/svg" viewBox="0 0 94.35 44.28">
  <defs>
    <style>
      .cls-1 {
        fill: none;
      }

      .cls-2 {
        fill: #fff;
      }

      .cls-3 {
        fill: #be3428;
      }
    </style>
  </defs>
  <g id="Layer_1-2" data-name="Layer 1">
    <g>
      <path class="cls-3" d="m19.9,39.93c-3.43,1.62-7.72-4.8-9.37-1.08-.84,1.9-4.42,4.44-6.24.89-.79-1.54-1.16-2.05-1.59-4.04C1.67,30.89.67,22.16.05,17.19c-.09-.75-.09-10.27.2-10.91.23-.53.66-.82,1.07-1.05,4.75-2.69,10.06-2,15.17-1.82,7.08.26,14.15-.51,21.23-.87,11.88-.6,23.77-.03,35.65.54,3.4.16,6.92.37,9.99,2.47.82.57,1.65,1.28,2.57,1.28.56,0,1.1-.28,1.64-.48,2.45-.94,5.63-.01,6.51,3.39.28,1.09.28,2.27.27,3.43-.02,5.16-.03,10.33-.05,15.49,0,1.98-.02,4.03-.63,5.81-.78,2.32-2.46,3.81-4.21,4.46s-3.58.57-5.38.48c-5.95-.28-11.9-.57-17.85-.85-1.87-.09-3.8-.2-5.5-1.32-.75-.5-1.44-1.19-2.24-1.5-.69-.27-1.42-.25-2.14-.18-6.95.6-13.64,4.3-20.6,4.68-5.3.29-10.63-1.36-15.88-.29"/>
      <path class="cls-2" d="m21.75,10.3c-1.63,0-3.27-.08-4.9,0-1.47.07-2.43.82-3.17,2.05-.84,1.39-1.52,2.88-2.11,4.38-.55,1.41-1.32,3.06.14,4.16,2.17,1.64,5.03,2.25,7.55,3.13,1.21.43,2.39.93,3.46,1.65.17.11.49.48.67.51s.25-.17.07-.18c-.12,0-.33.2-.45.26-.6.33-1.23.6-1.89.8-3.18,1-6.6.74-9.87.5-1.61-.12-1.6,2.38,0,2.5,2.97.22,5.96.38,8.9-.18,1.97-.38,7.32-1.89,5.51-4.85-.67-1.1-2.14-1.87-3.27-2.41-1.24-.6-2.55-1.04-3.86-1.47s-2.57-.81-3.79-1.39c-.14-.07-1.63-.8-1.6-.9l.19.32.1-.3c.09-.12.16-.48.2-.6.14-.4.29-.79.45-1.18.34-.83.73-1.63,1.14-2.42.27-.51.62-1.46,1.15-1.77.6-.35,1.8-.11,2.47-.11h2.9c1.61,0,1.61-2.49,0-2.5h0Z"/>
      <path class="cls-2" d="m31.49,20.21c0,2.51,0,5.02,0,7.54,0,.65.57,1.28,1.25,1.25s1.25-.55,1.25-1.25c0-2.51,0-5.02,0-7.54,0-.65-.57-1.28-1.25-1.25s-1.25.55-1.25,1.25h0Z"/>
      <path class="cls-2" d="m32.74,16.23c1.61,0,1.61-2.5,0-2.5s-1.61,2.5,0,2.5h0Z"/>
      <path class="cls-2" d="m44.64,8.91c0,3.25-.01,6.5-.02,9.76,0,1.6,0,3.19,0,4.79,0,1.44.02,2.91.58,4.27.26.63.83,1.06,1.54.87.59-.16,1.13-.91.87-1.54-.56-1.34-.49-2.73-.49-4.15v-4.6c.01-3.13.02-6.26.02-9.39,0-1.61-2.5-1.61-2.5,0h0Z"/>
      <path class="cls-2" d="m42.69,16.11c3.43-.11,6.86-.07,10.28.12.67.04,1.25-.6,1.25-1.25,0-.71-.57-1.21-1.25-1.25-3.42-.19-6.85-.23-10.28-.12-1.6.05-1.61,2.55,0,2.5h0Z"/>
      <path class="cls-2" d="m63.18,21.68c1.34.19,2.76.4,4.07-.06s2.36-1.54,2.08-3.01c-.5-2.6-4.18-3.22-6.35-3.41-1.34-.11-2.7.15-3.75,1.02-.87.71-1.39,1.8-1.58,2.89-.25,1.4-.1,2.81.3,4.17.33,1.11.77,2.26,1.47,3.19,1.59,2.12,4.77,2.96,6.97,1.26.53-.41.43-1.33,0-1.77-.53-.53-1.23-.41-1.77,0,.19-.15-.31.12-.1.04-.14.06-.3.09-.45.12-.22.04.15,0-.08,0-.07,0-.14,0-.21,0-.16,0-.48-.02-.54-.03-.03,0-.28-.06-.39-.09-.05-.01-.47-.17-.34-.11-.33-.15-.59-.35-.84-.61-.42-.44-.78-1.18-.97-1.68-.33-.86-.62-1.77-.68-2.69-.02-.41-.02-.83.05-1.23.04-.2.08-.39.14-.58.08-.27.04-.16.15-.36.18-.33.23-.43.52-.66.17-.14.53-.29.85-.36.79-.16,1.65,0,2.43.17s1.66.33,2.34.78c.13.09.21.17.33.3,0,.01.06.15.06.13,0-.07-.04-.17,0-.06.03.09-.06.03.02-.05-.1.1-.15.13-.33.21-.78.34-1.86.18-2.73.05-.67-.1-1.34.16-1.54.87-.16.59.2,1.44.87,1.54h0Z"/>
      <path class="cls-2" d="m78.02,12.1c-.26,5.86.27,11.74,1.53,17.47.35,1.57,2.76.91,2.41-.66-1.22-5.52-1.69-11.16-1.44-16.81.07-1.61-2.43-1.61-2.5,0h0Z"/>
      <path class="cls-2" d="m74.66,19.77c3.74-.16,7.48-.03,11.2.37.67.07,1.25-.63,1.25-1.25,0-.74-.58-1.18-1.25-1.25-3.72-.4-7.46-.52-11.2-.37-1.6.07-1.61,2.57,0,2.5h0Z"/>
      <rect class="cls-1" width="94.32" height="44.28"/>
    </g>
  </g>
</svg>