<?xml version="1.0" encoding="UTF-8"?>
<svg id="Layer_2" data-name="Layer 2" xmlns="http://www.w3.org/2000/svg" viewBox="0 0 94.35 44.28">
  <defs>
    <style>
      .cls-1 {
        fill: none;
      }

      .cls-2 {
        fill: #f6f6f6;
      }

      .cls-3 {
        fill: #be3428;
      }
    </style>
  </defs>
  <g id="Layer_1-2" data-name="Layer 1">
    <g>
      <path class="cls-3" d="m19.9,39.93c-3.43,1.62-7.72-4.8-9.37-1.08-.84,1.9-4.42,4.44-6.24.89-.79-1.54-1.16-2.05-1.59-4.04C1.67,30.89.67,22.16.05,17.19c-.09-.75-.09-10.27.2-10.91.23-.53.66-.82,1.07-1.05,4.75-2.69,10.06-2,15.17-1.82,7.08.26,14.15-.51,21.23-.87,11.88-.6,23.77-.03,35.65.54,3.4.16,6.92.37,9.99,2.47.82.57,1.65,1.28,2.57,1.28.56,0,1.1-.28,1.64-.48,2.45-.94,5.63-.01,6.51,3.39.28,1.09.28,2.27.27,3.43-.02,5.16-.03,10.33-.05,15.49,0,1.98-.02,4.03-.63,5.81-.78,2.32-2.46,3.81-4.21,4.46s-3.58.57-5.38.48c-5.95-.28-11.9-.57-17.85-.85-1.87-.09-3.8-.2-5.5-1.32-.75-.5-1.44-1.19-2.24-1.5-.69-.27-1.42-.25-2.14-.18-6.95.6-13.64,4.3-20.6,4.68-5.3.29-10.63-1.36-15.88-.29"/>
      <rect class="cls-1" width="94.32" height="44.28"/>
    </g>
    <g>
      <path class="cls-2" d="m21.89,14.94c1.7.17,3.48.08,4.93-.92.23-.16.46-.36.58-.63.29-.68-.17-1.46-.68-1.94-1.54-1.45-3.8-1.85-5.66-1s-3.23,2.92-3.42,5.17c-.04.47-.03.96.12,1.4.14.42.4.79.71,1.08,1.49,1.47,3.77,1.3,5.54,2.29.97.54,1.76,1.41,2.52,2.28.37.43.76.89.88,1.47.23,1.18-.8,2.27-1.85,2.47s-2.12-.19-3.17-.43c-1.3-.3-2.62-.38-3.94-.45-.57-.03-1.17-.04-1.68.25s-.87,1.01-.62,1.59c.16.38.51.59.85.76,3.54,1.85,7.59,2.42,11.43,1.62.31-.06.62-.14.89-.32.31-.21.53-.56.71-.92,1.19-2.43.37-5.62-1.36-7.59-1.74-1.96-4.19-2.9-6.61-3.44-.57-.13-1.17-.25-1.63-.64s-.71-1.18-.38-1.72c.38-.62,1.2-.54,1.86-.38"/>
      <path class="cls-2" d="m21.89,15.19c1.57.14,6.81-.08,5.71-2.91-.89-2.3-4.27-2.98-6.34-2.19-2.31.89-3.87,3.44-3.89,5.88-.03,3.09,3.27,3.42,5.51,4.2,1.54.53,3.13,1.88,3.97,3.3.58.98.27,2.08-.71,2.65-1.03.6-2.28.17-3.34-.1-1.55-.38-3.2-.56-4.79-.55-.99,0-2.08.43-2.19,1.55-.12,1.25,1.39,1.74,2.3,2.12,1.47.63,3.02,1.05,4.6,1.26s3.08.2,4.6-.01c1.44-.2,2.43-.44,3.03-1.85,1.16-2.72.08-6.06-1.96-8.05-1.12-1.1-2.51-1.86-3.98-2.39-.75-.27-1.53-.48-2.31-.66-.53-.12-1.24-.21-1.57-.7l-.24-.25.38-1.37c.26-.16.86,0,1.14.05.31.07.45-.42.13-.48-.73-.15-1.66-.25-2.12.47-.43.66-.12,1.58.43,2.07.82.72,2.16.76,3.16,1.06,1.33.4,2.62.96,3.73,1.79,2.28,1.7,3.74,4.77,2.96,7.61-.25.93-.65,1.67-1.62,1.97-.76.24-1.62.29-2.41.34-1.54.1-3.09,0-4.59-.33s-2.9-.81-4.24-1.5c-.58-.3-1.02-1.24-.6-1.76.33-.41.84-.46,1.34-.47.74-.02,1.5.06,2.23.13,1.54.15,3.07.8,4.61.82.94.01,1.83-.35,2.39-1.13,1.36-1.89-.91-3.97-2.3-5.06-.91-.72-1.94-1.06-3.04-1.36-1.28-.34-2.76-.66-3.57-1.81-1.02-1.45-.23-3.71.69-5.04s2.36-2.22,3.99-2.26c.82-.02,1.65.18,2.38.55.38.19.73.44,1.04.72.1.09.21.19.3.3.44.51.51.78.22,1.42-.31.68-.65.88-1.34,1.13-.39.14-.79.24-1.2.3-.84.13-1.68.1-2.52.02-.32-.03-.32.47,0,.5h0Z"/>
    </g>
    <g>
      <path class="cls-2" d="m48.54,28.6c.41-4.06.42-8.17.03-12.23l-2.09.29c-.2.03-.43.05-.59-.11-.09-.1-.14-.24-.18-.39-.21-.87.05-1.91.66-2.43s1.52-.45,2.04.2c.29-1.86.58-3.72.87-5.58.03-.22.07-.45.21-.6.15-.17.36-.18.56-.19.87-.03,1.73-.06,2.6-.09.47-.02,1.08.08,1.21.64.06.28-.03.57-.12.84-.44,1.32-.89,2.64-1.33,3.96,1.31-.08,2.61-.17,3.92-.25.11.77.21,1.56.07,2.32s-.58,1.49-1.2,1.65c-.46.11-.92-.09-1.38-.18s-1.01,0-1.25.5c-.12.25-.13.56-.13.85-.06,3.32-.17,6.64-.34,9.95-.02.38-.04.77-.18,1.12-.26.66-.89.99-1.49.99s-1.36-1.01-1.92-1.27"/>
      <path class="cls-2" d="m48.79,28.6c.39-4.07.41-8.16.03-12.23-.02-.18-.15-.26-.32-.24-.82.11-2.59.65-2.61-.57s1.15-2.68,2.35-1.45c.12.12.39.08.42-.11.18-1.14.36-2.29.53-3.43.09-.56.12-1.17.27-1.72.1-.37.19-.83.6-1.03.26-.13.8-.03,1.08-.04.46-.02,1.21-.19,1.64-.05.31.1.76.71.77,1.03,0,.22-.17.53-.24.73-.38,1.12-.75,2.24-1.13,3.37-.05.15.08.33.24.32,1.31-.08,2.61-.17,3.92-.25l-.25-.25c.15,1.09.53,3.63-1.22,3.75-.69.05-1.24-.45-1.94-.11-1.14.54-.74,2.48-.76,3.45-.05,2.09-.12,4.18-.22,6.28-.04,1,.23,3.14-1.05,3.51-.92.27-1.53-.76-2.24-1.16-.28-.16-.53.27-.25.43,1.11.65,2.12,2.09,3.4.72.6-.64.55-1.61.59-2.42.07-1.37.12-2.74.17-4.11.05-1.3.08-2.6.11-3.9,0-.36.01-.72.02-1.08.01-.49.32-1.18.85-1.34.39-.12,1.05.26,1.49.22,1.93-.19,1.72-2.93,1.55-4.24-.02-.13-.1-.26-.25-.25-1.31.08-2.61.17-3.92.25l.24.32c.31-.92.62-1.85.93-2.77.2-.6.66-1.44.53-2.1-.19-.91-1.15-.89-1.89-.87-.94.03-2.66-.36-3.11.72-.34.81-.33,2.03-.47,2.9-.16,1-.31,2-.47,3.01l.42-.11c-1.19-1.22-2.8-.39-3.13,1.14-.11.5-.17,1.43.25,1.83.61.57,2.25-.02,2.92-.11l-.32-.24c.37,4.07.36,8.16-.03,12.23-.03.32.47.32.5,0h0Z"/>
    </g>
    <g>
      <path class="cls-2" d="m72.87,30.72c.4-4.32.42-8.69.03-13.01l-2.08.31c-.2.03-.43.05-.58-.12-.09-.1-.14-.26-.18-.41-.21-.93.05-2.03.66-2.58s1.51-.48,2.03.21c.29-1.98.57-3.96.86-5.94.03-.23.07-.48.21-.64.15-.18.36-.19.56-.2.86-.03,1.72-.06,2.58-.1.47-.02,1.07.08,1.2.68.06.3-.03.61-.12.9-.44,1.4-.88,2.81-1.32,4.21,1.3-.09,2.6-.18,3.9-.27.1.82.21,1.66.07,2.47s-.57,1.59-1.19,1.75c-.45.12-.91-.1-1.37-.19s-1.01,0-1.24.53c-.12.27-.13.59-.13.9-.06,3.53-.17,7.06-.34,10.59-.02.41-.04.82-.18,1.19-.26.7-.89,1.05-1.48,1.06s-1.35-1.08-1.91-1.36"/>
      <path class="cls-2" d="m73.12,30.72c.39-4.33.4-8.68.03-13.01-.01-.18-.15-.27-.32-.24-.78.12-2.31.62-2.56-.37-.32-1.27,1.06-3.16,2.3-1.8.12.13.39.08.42-.11.18-1.22.35-2.44.53-3.65.09-.6.12-1.24.26-1.83.1-.38.18-.9.59-1.11.25-.13.8-.03,1.08-.04.45-.02,1.2-.2,1.63-.06.32.11.76.78.76,1.11,0,.23-.17.56-.24.78-.37,1.19-.75,2.39-1.12,3.58-.05.15.08.33.24.32,1.3-.09,2.6-.18,3.9-.27l-.25-.25c.07.55.15,1.1.14,1.65-.02.97-.11,1.54-.99,1.99-.8.41-.64.22-1.38.14-.31-.03-.61-.04-.9.1-1.1.54-.73,2.48-.76,3.43-.05,2.15-.11,4.3-.2,6.45-.05,1.13.18,2.95-.57,3.89-.93,1.17-2.02-.48-2.71-.92-.27-.17-.52.26-.25.43,1.12.7,2.16,2.25,3.42.71.61-.74.51-1.84.55-2.74.06-1.46.12-2.91.17-4.37.04-1.38.08-2.76.11-4.14,0-.35-.07-.81.02-1.15.1-.37.41-1.08.84-1.22.46-.14,1.12.34,1.65.22,1.82-.41,1.53-3.18,1.37-4.47-.02-.13-.1-.26-.25-.25-1.3.09-2.6.18-3.9.27l.24.32c.31-.98.62-1.97.93-2.95.2-.63.67-1.54.52-2.23-.19-.93-1.1-.94-1.88-.91-.96.03-2.65-.35-3.09.75-.35.87-.33,2.16-.46,3.08-.15,1.07-.31,2.13-.46,3.2l.42-.11c-1.22-1.35-2.81-.32-3.11,1.22-.11.54-.18,1.5.27,1.93.59.55,2.22-.05,2.88-.14l-.32-.24c.37,4.33.36,8.68-.03,13.01-.03.32.47.32.5,0h0Z"/>
    </g>
    <g>
      <path class="cls-2" d="m37.57,19.41c-.24,1.96-.49,3.92-.73,5.87-.11.86-.11,1.92.64,2.34.6.34,1.4.02,1.82-.53s.56-1.25.69-1.93c.33-1.78.67-3.57,1-5.35.02-.12.04-.26-.04-.35-.07-.08-.19-.08-.3-.08-.82,0-2.26.01-3.08.02"/>
      <path class="cls-2" d="m37.32,19.41c-.24,1.9-.48,3.81-.71,5.71-.13,1.05-.15,2.73,1.26,2.88,1.57.17,2.13-1.56,2.36-2.77.17-.92.34-1.84.51-2.75.08-.45.17-.89.25-1.34s.22-.92.25-1.38c.05-.77-.82-.62-1.34-.61-.78,0-1.56,0-2.34.02-.32,0-.32.5,0,.5.53,0,1.07,0,1.6-.01.28,0,.57,0,.85,0,.19,0,.63-.09.73.11.05.1-.08.43-.1.55-.03.18-.07.37-.1.55-.07.37-.14.73-.21,1.1-.14.73-.27,1.47-.41,2.2-.21,1.1-.32,3.22-1.8,3.36s-1.06-2.06-.95-2.88c.22-1.74.43-3.48.65-5.22.04-.32-.46-.32-.5,0h0Z"/>
    </g>
    <g>
      <path class="cls-2" d="m37.9,15.01c.73.05,2.03,1.69,2.67,1.34s1.09-1.17.77-1.83c-.29-.61-1.11-.82-1.76-.63s-1.18.66-1.68,1.12"/>
      <path class="cls-2" d="m37.9,15.63c.1,0-.17-.05-.07,0,.02,0,.05.02.08.02.15.04-.13-.07.01,0,.12.07.24.14.36.21.25.17.49.36.74.55.49.36,1.13.79,1.75.53.78-.33,1.38-1.25,1.29-2.11-.11-.99-.96-1.58-1.91-1.63-1.07-.05-1.94.68-2.69,1.36-.24.22-.24.66,0,.88.26.24.63.24.88,0,.14-.13.28-.26.42-.38.03-.02.06-.05.09-.07,0,0,.14-.11.07-.06s.08-.06.07-.05c.05-.03.09-.07.14-.1.08-.05.16-.1.24-.14.03-.02.07-.04.1-.05.01,0,.18-.08.06-.03.08-.03.16-.06.23-.08.04,0,.07-.02.11-.03.13-.03-.13,0,.02,0,.08,0,.15,0,.23,0,.03,0,.06,0,.09,0,.15,0-.09-.03,0,0,.06.02.13.03.2.05.04.01.17.03.02,0,.04,0,.08.04.12.06.03.01.05.03.08.05.12.06-.05-.07,0,0,.03.04.13.09.14.14l-.04-.06s.03.05.05.07c.02.03.03.05.04.08-.06-.12-.02-.04,0,0,0,.02.01.04.02.07.01.07.01.06,0-.03.03.04,0,.15,0,.21.01.08.03-.14,0,0,0,.03-.01.06-.02.09-.01.04-.03.07-.04.11-.03.09.07-.13,0,0-.04.08-.09.15-.14.23-.05.08.1-.11,0,0-.02.02-.04.05-.07.07-.03.03-.21.18-.09.09-.06.05-.14.08-.2.13-.03.02-.14.04.08-.04-.11.04.04-.01.07,0-.01,0-.06,0-.07,0-.06,0-.03-.06.09.01-.03-.02-.1-.03-.14-.04-.15-.05.12.07-.02,0-.05-.03-.1-.05-.15-.08-.22-.13-.43-.29-.64-.44-.48-.36-.96-.77-1.59-.83-.33-.03-.64.31-.62.62.02.36.28.59.62.62h0Z"/>
    </g>
    <g>
      <path class="cls-2" d="m67.27,22.48c0-.32.1-.99-.1-1.25-.31-.41-2.49-.09-3.02-.24-.73-.21-1.46-.42-2.18-.63-.56-.16-1.21-.32-1.71-.04-.39.21-.58.62-.74,1-.52,1.19-1.04,2.42-1.03,3.7.02,1.73,1.04,3.37,2.49,4.5,1.45,1.13,3.28,1.8,5.14,2.18.26.05.57.09.76-.08.15-.14.16-.35.15-.55-.05-1.07-.44-2.21-1.4-2.83-.6-.38-1.35-.53-1.98-.85-.64-.33-1.19-1-.94-1.62,1.01.4,3.41-.27,4.33-.82.92-.55.24-1.47.23-2.47Zm-3.16,2.21c-.35.13-.76.13-1.14.11-.69-.03-1.5-.18-1.8-.69-.11-.19-.13-.4-.13-.61.01-.37.12-.75.42-1.03.29-.28.8-.43,1.22-.29,2.03-.06,1.59,1.06,1.8,1.35.1.13.19.27.22.42.05.31-.24.61-.59.75Z"/>
      <g>
        <path class="cls-2" d="m67.52,22.48c.02-.75.15-1.53-.76-1.68-.82-.13-1.67.09-2.48-.05-.68-.12-1.36-.39-2.02-.58-.58-.17-1.22-.37-1.82-.2-.48.14-.78.5-1,.92-.3.6-.55,1.24-.77,1.87-.43,1.25-.58,2.56-.14,3.83.4,1.14,1.15,2.14,2.07,2.92.99.83,2.16,1.42,3.38,1.85.68.24,1.38.44,2.09.57.4.07.9.1,1.13-.31.24-.44.06-1.13-.06-1.59-.15-.57-.41-1.11-.81-1.54-.43-.47-1.01-.72-1.6-.94-.7-.26-2.07-.71-1.77-1.72l-.31.17c1.17.42,2.73-.07,3.83-.51.46-.19,1-.4,1.21-.89.28-.66-.13-1.45-.16-2.12-.01-.32-.51-.32-.5,0,.02.55.29,1.13.25,1.68-.05.61-.84.83-1.32,1-.94.33-2.19.71-3.17.37-.13-.05-.27.05-.31.17-.24.79.32,1.49.98,1.86.96.55,2.12.62,2.78,1.62.26.39.41.85.49,1.31.03.16.13.56.07.73-.17.47-.84.19-1.17.11-1.15-.27-2.28-.66-3.31-1.24-1.91-1.06-3.63-2.96-3.56-5.28.04-1.24.56-2.49,1.09-3.59.32-.67.81-.9,1.55-.76.62.12,1.23.33,1.83.51.42.12.84.28,1.28.3.37.02.75,0,1.12-.01.34,0,.88-.09,1.2.06.38.18.21.8.21,1.16,0,.32.49.32.5,0Z"/>
        <path class="cls-2" d="m64.05,24.45c-.41.14-.86.12-1.29.09-.33-.03-.69-.08-.99-.23-.36-.18-.5-.46-.47-.86.02-.38.19-.74.52-.93.36-.21.71-.09,1.1-.08.27,0,.57.03.82.15.17.08.24.16.32.3.03.06,0,0,.02.06.01.03.02.07.03.1.02.07.03.13.04.2.02.13.03.27.1.39.08.13.23.27.2.44-.03.19-.25.32-.41.38-.3.12-.17.6.13.48.4-.16.82-.5.77-.99-.02-.23-.15-.39-.27-.58-.02-.03.02.05,0,.01,0-.01,0-.03-.01-.04,0-.03-.01-.07-.02-.1-.07-.42-.17-.78-.54-1.03-.28-.19-.64-.25-.97-.27-.12,0-.24,0-.37-.01s-.24-.04-.36-.05c-.24-.02-.48.04-.69.13-.87.37-1.29,1.73-.59,2.45.33.34.84.47,1.29.54.57.08,1.2.13,1.75-.07.3-.1.17-.59-.13-.48Z"/>
      </g>
    </g>
  </g>
</svg>