<?xml version="1.0" encoding="UTF-8"?>
<svg id="Layer_2" data-name="Layer 2" xmlns="http://www.w3.org/2000/svg" viewBox="0 0 161.6 148.56">
  <defs>
    <style>
      .cls-1 {
        fill: none;
      }

      .cls-2 {
        fill: #5e000b;
      }
    </style>
  </defs>
  <g id="Layer_1-2" data-name="Layer 1">
    <g>
      <path class="cls-2" d="m7.6,93.89c11.49,3.31,23.53.86,34.69-2.55,11.42-3.49,22.62-7.7,33.67-12.19,11.07-4.5,22-9.34,32.88-14.29,5.45-2.48,10.9-4.99,16.34-7.5,5.02-2.31,10.26-4.38,15.07-7.11,2.17-1.23,4.28-2.74,5.87-4.68.84-1.01,1.51-2.1,2.14-3.25.57-1.04,1.1-2.23,2.04-3,.46-.37,1.06-.74,1.62-.49.81.36,1.24,1.62,1.46,2.39.64,2.27.3,4.8-.13,7.09s-1.09,4.69-2.47,6.66-3.37,3.12-5.41,4.15c-5.32,2.69-10.91,4.93-16.35,7.36-11.06,4.94-22.08,9.98-33.22,14.75-11.15,4.77-22.52,8.76-34.15,12.17-5.92,1.74-11.86,3.41-17.79,5.11s-11.86,3.58-17.85,5.05c-4.74,1.16-10.04,1.74-14.29-1.18-1.5-1.03-2.58-2.46-3.11-4.2-.21-.67-.38-1.35-.52-2.04-.2-.98-.22-.93-.23-1.93,0-.19.11-1.12,0-.55.03-.13.05-.26.09-.39.18-.53-.23.23,0,.02.15-.14-.92.69-.54.43l-.3.04h.2c-.07,0-.14-.01-.22-.02.17.04.34.09.51.15,3.07.98,4.39-3.85,1.33-4.82-2.01-.64-4.25-.17-5.34,1.77-.95,1.7-.76,3.78-.48,5.62.67,4.44,2.78,8.25,6.71,10.61,5.12,3.07,11.21,2.77,16.83,1.47,6.33-1.47,12.56-3.5,18.8-5.29,12.47-3.57,25.05-6.93,37.23-11.42s23.96-9.91,35.79-15.19c6.01-2.68,12.01-5.37,18.02-8.05,2.9-1.29,5.79-2.58,8.69-3.88,2.46-1.1,4.86-2.27,6.97-3.98,4.48-3.63,5.98-9.46,6.48-14.96.25-2.81,0-5.8-1.41-8.3-1.48-2.64-4.22-4.34-7.28-3.5s-4.61,3.31-5.99,5.82c-1.19,2.18-2.63,3.86-4.73,5.23s-4.56,2.48-6.92,3.57c-2.92,1.35-5.85,2.69-8.77,4.04-11.61,5.35-23.21,10.71-34.94,15.81s-23.15,9.72-34.98,13.88-23.7,8.59-36.06,8.12c-2.94-.11-5.8-.57-8.63-1.38-3.1-.89-4.42,3.93-1.33,4.82h0Z"/>
      <path class="cls-2" d="m30.09,106.58c-.08,1.16.07,2.39.43,3.49.43,1.33,1.09,2.45,1.98,3.52.39.47,1.19.73,1.77.73.61,0,1.35-.27,1.77-.73s.76-1.1.73-1.77l-.09-.66c-.12-.42-.33-.79-.64-1.1-.05-.07-.11-.13-.16-.2l.39.51c-.38-.5-.7-1.04-.95-1.62l.25.6c-.25-.61-.43-1.24-.52-1.89l.09.66c-.07-.51-.08-1.02-.05-1.54.04-.61-.31-1.35-.73-1.77s-1.15-.76-1.77-.73-1.32.24-1.77.73-.68,1.08-.73,1.77h0Z"/>
      <path class="cls-2" d="m38.18,110.12c-2.85-.55-5.84-.04-8.27,1.57-1.27.85-2.33,1.88-3.19,3.13-1.06,1.54-1.83,3.62-.85,5.38s3.31,2.36,5.15,2.59c1.6.2,3.27.02,4.81-.45s3-1.2,4.35-2.07c1.46-.95,3.33-2.04,3.9-3.78.64-1.95-.42-4.16-2.21-5.08-1.14-.59-2.43-1.02-3.68-1.3s-2.76.38-3.08,1.75c-.29,1.26.38,2.78,1.75,3.08.72.16,1.44.39,2.13.64.08.03.16.06.24.09.3.11,0,.13-.15-.07.06.07.29.14.38.19.47.22-.17-.16-.02-.02.26.24-.26-.32-.05-.04.13.17-.08-.2-.1-.3-.03-.2,0-.38.07-.56,0-.01.17-.3.17-.29,0,.02-.34.31-.32.28.03-.03.3-.22.06-.05-.47.34-.94.69-1.43,1.01-.45.3-.92.58-1.39.85-.2.11-.41.22-.62.32-.14.07-.28.13-.42.2-.17.08-.28.11-.04.02-.51.18-1.02.36-1.55.49-.15.04-.31.06-.46.1-.03,0-.41.07-.13.03s-.1.01-.13.01c-.19.02-.39.03-.58.04-.27,0-.54,0-.81-.01-.15,0-.31-.02-.46-.04.06,0,.36.08.09,0s-.53-.11-.78-.19c-.11-.03-.22-.08-.33-.11-.27-.07.29.08-.15-.07-.25-.08-.07-.11-.11-.03-.03.06.36.52.4.76.02.11,0,.21.02.32,0-.09.21-.49-.02-.01.19-.4.42-.78.66-1.15s0-.02-.05.05c.06-.07.12-.15.18-.22.14-.17.29-.33.45-.49s.32-.31.49-.45c.07-.06.15-.12.22-.18-.44.36-.08.07.03,0,.42-.29.87-.51,1.33-.75.25-.13-.14.06-.16.07.15-.05.3-.11.45-.16.24-.08.48-.15.73-.21.09-.02.18-.04.28-.06.02,0,.63-.1.23-.05-.34.05-.02,0,.04,0,.16-.01.31-.02.47-.03.25,0,.51,0,.76.01.02,0,.28.03.28.02-.32-.05-.38-.06-.19-.02.09.01.19.03.28.05,1.28.25,2.76-.36,3.08-1.75.28-1.24-.37-2.81-1.75-3.08h0Z"/>
      <path class="cls-2" d="m134.32,69.58c-.09-.19-.19-.38-.28-.56-.28-.54-.92-.99-1.49-1.15s-1.4-.09-1.93.25-1,.86-1.15,1.49l-.09.66c0,.45.12.87.34,1.26.48.95.95,1.9,1.43,2.85.32.64.64,1.28.96,1.92.27.54.93.99,1.49,1.15.6.16,1.4.09,1.93-.25s1-.86,1.15-1.49l.09-.66c0-.45-.12-.87-.34-1.26-.76-1.51-1.52-3.03-2.28-4.54-.04-.08-.08-.15-.11-.23l-4.32,2.52c.1.19.19.38.28.56.27.54.93.99,1.49,1.15.6.16,1.4.09,1.93-.25s1-.86,1.15-1.49l.09-.66c0-.45-.12-.87-.34-1.26h0Z"/>
      <path class="cls-2" d="m138.13,72.55c-1.04.13-2.08,0-3.12,0-1.24,0-2.4.21-3.51.76-2.33,1.17-3.67,4.09-2.28,6.47.55.95,1.44,1.68,2.4,2.19s1.96.97,2.99,1.24c1.42.37,2.84.29,4.17-.33,1.02-.48,1.88-1.34,2.45-2.3.7-1.16,1.07-2.65.61-3.97-.21-.58-.47-1.11-.81-1.62-.26-.39-.54-.78-.74-1.21-.57-1.18-2.35-1.59-3.42-.9-1.21.78-1.51,2.16-.9,3.42.35.73.91,1.33,1.24,2.07l-.25-.6c.07.17.12.35.16.53l-.09-.66c.02.15.02.29,0,.45l.09-.66c-.04.24-.11.46-.2.69l.25-.6c-.08.18-.16.36-.27.53-.04.06-.19.23-.2.3.02-.1.41-.5.12-.18-.07.07-.14.14-.21.21-.28.28.43-.29.18-.13-.18.12-.36.23-.56.32l.6-.25c-.23.09-.46.16-.71.2l.66-.09c-.35.04-.68.04-1.03-.01l.66.09c-.55-.09-1.07-.27-1.58-.48l.6.25c-.55-.24-1.12-.48-1.64-.79-.1-.06-.2-.13-.3-.19-.35-.22.5.46.06.03-.08-.08-.15-.17-.23-.25.27.37.34.44.2.23-.04-.06-.07-.13-.1-.2l.25.6c-.07-.18-.12-.35-.15-.54l.09.66c-.01-.15-.01-.29,0-.43l-.09.66c.03-.18.08-.35.15-.51l-.25.6c.06-.13.37-.58.09-.22s.1-.08.19-.17c.24-.23-.19.17-.23.17.05,0,.15-.11.2-.13.17-.11.35-.19.53-.28l-.6.25c.31-.12.61-.21.94-.26l-.66.09c1.4-.18,2.81.11,4.21-.07.69-.09,1.26-.22,1.77-.73.43-.43.76-1.15.73-1.77s-.24-1.32-.73-1.77c-.45-.41-1.13-.81-1.77-.73h0Z"/>
    </g>
    <rect class="cls-1" width="161.6" height="148.56"/>
  </g>
</svg>