<?xml version="1.0" encoding="UTF-8"?>
<svg id="Layer_2" data-name="Layer 2" xmlns="http://www.w3.org/2000/svg" viewBox="0 0 161.6 148.56">
  <defs>
    <style>
      .cls-1 {
        fill: none;
      }

      .cls-2 {
        fill: #5e000b;
      }
    </style>
  </defs>
  <g id="Layer_1-2" data-name="Layer 1">
    <path class="cls-2" d="m80.3,35.04c-8.36,1.61-16.85-1.59-25.22.37-3.68.86-7.06,2.74-9.4,5.74s-3.71,6.92-4.59,10.68c-.96,4.08-.89,8.27,1.92,11.61,2.23,2.65,5.61,4.11,8.82,5.19,8.21,2.76,17.21,4.45,25.89,4.42,3.43-.01,7.2-.49,10.06-2.54,3.34-2.39,4.42-6.12,4.88-10.02.52-4.45.45-8.95-.13-13.39-.53-4.03-1.22-8.59-3.42-12.11-4.08-6.52-13.49-6.32-20.01-4.22s-12.33,6.7-16.34,12.38c-9.19,13.02-7.04,30.36.31,43.69,3.64,6.61,8.75,13.47,15.94,16.43s14.97-.42,19.9-6.29,8.14-13.95,7.38-21.81c-.69-7.15-4.64-13.87-10.91-17.53-6.8-3.97-14.98-2.96-21.48,1.13-7.06,4.44-11.46,11.73-14.96,19.09-1.83,3.85-4.04,7.86-1.52,11.94,1.76,2.86,4.53,5.19,7.47,6.77,6.04,3.23,13.3,3.71,19.9,2.15,7.13-1.69,13.38-6.08,18.38-11.32,5.36-5.61,9.92-12.4,13.35-19.35,1.86-3.76,3.2-7.85,2.92-12.1-.26-3.92-1.64-7.73-3.8-10.99-3.88-5.87-9.97-9.9-16.72-11.72s-13.75-1.56-20.32.29c-6.94,1.96-13.13,5.87-18.28,10.88-5.35,5.21-9.57,11.55-12.8,18.26-1.66,3.43-3.09,6.98-4.31,10.59s-2.35,7.76-1.43,11.68,3.98,6.54,7.38,8.33c3.68,1.93,7.66,3.43,11.59,4.78,8.26,2.84,16.85,4.64,25.54,5.45s16.77.68,25.01-.63c7-1.12,13.98-3.4,19.59-7.85,5.63-4.47,8.89-11.08,9.24-18.23.35-7.1-2.05-14.42-6.31-20.09-9.28-12.36-26.1-17.74-41.05-17.9-8.04-.09-15.97,1.92-22.15,7.26-5.86,5.06-9.61,12.13-13.26,18.83-4.12,7.55-8.14,15.42-9.84,23.92-1.4,7.03-1.83,16.42,3.71,21.92,2.91,2.88,6.88,3.52,10.77,4.01,4.77.6,9.53,1.19,14.3,1.79,9.45,1.18,18.9,2.36,28.35,3.55s18.24,2.28,27.37,3.42c1.01.13,1.88-.95,1.88-1.88,0-1.12-.87-1.75-1.88-1.88-17.18-2.15-34.35-4.3-51.53-6.45-4.27-.53-8.55-1.07-12.82-1.6-2.1-.26-4.2-.51-6.29-.79-1.77-.23-3.65-.52-5.28-1.29-6.21-2.95-6.16-11.87-5.34-17.63,1.11-7.81,4.47-15.1,8.12-22.01,3.27-6.21,6.55-12.78,11.21-18.08s11.06-8.53,18.28-9.18,14.27.43,21.02,2.42,12.91,5.07,17.9,9.83c4.68,4.46,7.84,10.27,8.84,16.68s-.38,12.61-4.43,17.39-9.93,7.52-15.91,9.08c-6.93,1.81-14.2,2.22-21.34,2.09-7.87-.14-15.7-1.15-23.34-3.02-3.9-.95-7.75-2.12-11.51-3.51-3.42-1.25-6.98-2.56-10.08-4.5s-4.54-4.56-4.33-8.15,1.59-6.87,2.8-10.07c4.69-12.33,12.47-24.42,24.33-30.87,10.4-5.66,24.37-6.18,34.28.83,5.41,3.83,9.43,10.29,9.09,17.07-.19,3.76-1.85,7.29-3.66,10.53s-3.6,6.11-5.63,9.01c-7.41,10.54-18.48,19.85-32.18,18.14-2.87-.36-5.7-1.26-8.19-2.72-2.27-1.34-5.43-3.72-6.04-6.45-.41-1.82.77-3.75,1.51-5.34.79-1.71,1.61-3.4,2.49-5.07,1.74-3.29,3.7-6.49,6.19-9.26,4.52-5.04,11.46-9.13,18.46-7.74,5.95,1.18,10.83,5.95,12.84,11.59,2.35,6.63.85,14.01-2.64,19.94-3.18,5.4-8.91,11.22-15.79,10s-11.63-7.32-15.07-12.77c-3.82-6.05-6.59-12.95-7.38-20.09-.73-6.66.15-13.53,3.38-19.47,2.96-5.44,7.54-9.99,13.13-12.69,2.63-1.27,5.55-2.09,8.47-2.26s6.78-.02,9.1,2.15c2.55,2.38,3.18,6.55,3.77,9.81.74,4.09.94,8.28.68,12.43-.2,3.25-.42,7.31-3.19,9.51-2.31,1.84-5.58,2.1-8.42,2.1-8.01-.01-16.14-1.56-23.76-3.97-2.83-.9-5.86-2.01-7.89-4.28-2.49-2.78-1.65-6.66-.74-9.91s2.15-6.62,4.67-9c2.34-2.21,5.63-3.22,8.78-3.55,7.59-.79,15.13,1.53,22.7.06,2.37-.46,1.36-4.07-1-3.62h0Z"/>
    <path class="cls-2" d="m36.22,121.46c11.03-12.83,22.07-25.66,33.1-38.49s21.91-25.44,32.83-38.2c6.13-7.16,12.22-14.36,18.2-21.66.86-1.04,1.02-2.51,0-3.54-.88-.88-2.68-1.05-3.54,0-10.63,12.96-21.61,25.63-32.54,38.34s-21.96,25.54-32.94,38.3c-6.22,7.23-12.44,14.47-18.66,21.7-.88,1.02-1.01,2.53,0,3.54.9.9,2.65,1.03,3.54,0h0Z"/>
    <path class="cls-2" d="m120.1,20.55l-.02-.11.09.66c-.05-.4-.05-.79,0-1.18l-.09.66c.06-.39.16-.77.31-1.14l-.25.6c.16-.37.35-.71.59-1.03l-.39.51c.24-.31.52-.59.83-.84l-.51.39c.09-.06.18-.13.27-.19l-3.42-.9c.25.39.47.81.66,1.24l-.25-.6c.24.59.41,1.21.5,1.84l-.09-.66c.07.51.1,1.03.03,1.54l.09-.66c-.04.22-.09.43-.17.63l.25-.6c-.06.13-.13.25-.21.37l.39-.51c-.1.13-.21.24-.34.35l.51-.39c-.39.29-.85.44-1.28.66-.73.36-1.39.94-1.79,1.66-.63,1.15-.32,2.78.9,3.42s2.75.33,3.42-.9c.04-.08.09-.15.14-.22l-.39.51c.08-.09.16-.17.25-.24l-.51.39c.51-.38,1.14-.53,1.67-.88.59-.39,1.07-.85,1.44-1.46.41-.68.54-1.37.63-2.14.11-.97-.03-2.01-.26-2.96-.25-1.03-.69-2.04-1.26-2.93-.7-1.09-2.25-1.67-3.42-.9-1.09.72-2.03,1.69-2.56,2.9-.32.72-.52,1.35-.63,2.12s-.06,1.48.07,2.28c.09.58.66,1.21,1.15,1.49.54.31,1.33.45,1.93.25s1.19-.57,1.49-1.15c.33-.63.36-1.23.25-1.93h0Z"/>
    <rect class="cls-1" width="161.6" height="148.56"/>
  </g>
</svg>