<?xml version="1.0" encoding="UTF-8"?>
<svg id="Layer_2" data-name="Layer 2" xmlns="http://www.w3.org/2000/svg" viewBox="0 0 99.21 44.28">
  <defs>
    <style>
      .cls-1 {
        fill: none;
      }

      .cls-2 {
        fill: #f6f6f6;
      }

      .cls-3 {
        fill: #be3428;
      }
    </style>
  </defs>
  <g id="Layer_1-2" data-name="Layer 1">
    <path class="cls-3" d="m20.92,40.03c-3.6,1.56-8.12-4.63-9.85-1.04-.88,1.84-4.64,4.28-6.56.86-.83-1.48-1.22-1.98-1.67-3.89C1.75,31.31.7,22.89.06,18.1c-.1-.72-.09-9.9.21-10.52.25-.51.69-.79,1.13-1.01,5-2.59,10.58-1.93,15.95-1.75,7.44.25,14.88-.5,22.32-.84,12.49-.58,25-.03,37.49.52,3.58.16,7.28.35,10.5,2.38.87.55,1.74,1.23,2.7,1.23.59,0,1.16-.27,1.73-.47,2.58-.91,5.92-.01,6.84,3.27.29,1.05.29,2.19.29,3.31-.02,4.98-.03,9.96-.05,14.94,0,1.91-.03,3.89-.66,5.61-.82,2.23-2.59,3.68-4.42,4.3-1.84.63-3.76.55-5.66.46-6.25-.27-12.51-.55-18.76-.82-1.97-.09-3.99-.19-5.78-1.28-.79-.48-1.52-1.15-2.35-1.45-.73-.26-1.5-.24-2.25-.18-7.31.58-14.34,4.15-21.66,4.51-5.57.28-11.18-1.31-16.7-.28"/>
    <rect class="cls-1" width="99.21" height="44.28"/>
    <g>
      <path class="cls-2" d="m15.31,15.52l.02,7.65c0,.92,0,1.86.3,2.74s.92,1.69,1.8,1.96c.41.12.88.12,1.22-.15.44-.34.5-.98.51-1.54.07-2.97-.01-5.95-.25-8.92-.01-.16-.03-.33.04-.48.2-.42.8-.31,1.27-.35,1.25-.11,1.82-1.58,2.1-2.8.12-.52.23-1.12-.11-1.53-.2-.25-.53-.37-.85-.46-1.9-.51-3.92-.25-5.87.02-1.38.19-2.75.38-4.13.56-.63.09-1.3.19-1.8.59s-.73,1.21-.31,1.69c.28.32.74.39,1.17.45,1.16.15,3.72.42,4.88.57"/>
      <path class="cls-2" d="m15.06,15.52c0,2.5,0,4.99.02,7.49,0,1.66.04,3.62,1.52,4.71,1.23.9,2.62.43,2.79-1.11.24-2.32.05-4.79-.08-7.12-.03-.53-.06-1.06-.1-1.59-.02-.34-.19-.98.25-1.18.19-.09.55-.02.76-.04.64-.07,1.14-.42,1.51-.94.64-.89,1.56-3.12.49-3.99-.6-.48-1.56-.55-2.29-.62-1.18-.11-2.37,0-3.54.15-1.06.13-2.11.29-3.17.43s-2.33.14-3.3.6c-.62.29-1.16.88-1.11,1.62s.67,1.1,1.36,1.22c1.7.31,3.45.39,5.16.61.32.04.32-.46,0-.5-1.19-.15-2.39-.28-3.58-.42-.56-.07-1.23-.06-1.77-.25-.86-.3-.8-1.09-.22-1.6.37-.32.87-.42,1.34-.5,1.8-.3,3.63-.52,5.45-.74.83-.1,1.67-.18,2.51-.17.77,0,2.82-.02,3.12.96.18.58-.18,1.5-.4,2.05-.32.82-.82,1.53-1.76,1.59-.38.02-.84-.02-1.13.27-.43.42-.19,1.24-.15,1.76.13,1.8.2,3.61.21,5.41,0,.85.01,1.7-.02,2.55-.02.5-.03.97-.46,1.29-.47.36-1.04.2-1.51-.12-1.68-1.15-1.36-3.7-1.37-5.46v-6.38c-.01-.32-.51-.32-.51,0h0Z"/>
    </g>
    <g>
      <path class="cls-2" d="m24.41,19.67l-.73,5.87c-.11.86-.11,1.92.64,2.34.6.34,1.4.02,1.82-.53s.56-1.25.69-1.93c.33-1.78.67-3.57,1-5.35.02-.12.04-.26-.04-.35-.07-.08-.19-.08-.3-.08-.82,0-2.26.01-3.08.02"/>
      <path class="cls-2" d="m24.16,19.67c-.24,1.9-.48,3.81-.71,5.71-.13,1.05-.15,2.73,1.26,2.88,1.57.17,2.13-1.56,2.36-2.77.17-.92.34-1.84.51-2.75.08-.45.17-.89.25-1.34s.22-.92.25-1.38c.05-.77-.82-.62-1.34-.61-.78,0-1.56,0-2.34.02-.32,0-.32.5,0,.5.53,0,1.07,0,1.6-.01.28,0,.57,0,.85,0,.19,0,.63-.09.73.11.05.1-.08.43-.1.55-.03.18-.07.37-.1.55-.07.37-.14.73-.21,1.1-.14.73-.27,1.47-.41,2.2-.21,1.1-.32,3.22-1.8,3.36s-1.06-2.06-.95-2.88l.65-5.22c.04-.32-.46-.32-.5,0h0Z"/>
    </g>
    <g>
      <path class="cls-2" d="m24.74,15.27c.73.05,2.03,1.69,2.67,1.34s1.09-1.17.77-1.83c-.29-.61-1.11-.82-1.76-.63s-1.18.66-1.68,1.12"/>
      <path class="cls-2" d="m24.74,15.9c.1,0-.17-.05-.07,0,.02,0,.05.02.08.02.15.04-.13-.07.01,0,.12.07.24.14.36.21.25.17.49.36.74.55.49.36,1.13.79,1.75.53.78-.33,1.38-1.25,1.29-2.11-.11-.99-.96-1.58-1.91-1.63-1.07-.05-1.94.68-2.69,1.36-.24.22-.24.66,0,.88.26.24.63.24.88,0,.14-.13.28-.26.42-.38.03-.02.06-.05.09-.07,0,0,.14-.11.07-.06s.08-.06.07-.05c.05-.03.09-.07.14-.1.08-.05.16-.1.24-.14.03-.02.07-.04.1-.05.01,0,.18-.08.06-.03.08-.03.16-.06.23-.08.04,0,.07-.02.11-.03.13-.03-.13,0,.02,0,.08,0,.15,0,.23,0,.03,0,.06,0,.09,0,.15,0-.09-.03,0,0,.06.02.13.03.2.05.04.01.17.03.02,0,.04,0,.08.04.12.06.03.01.05.03.08.05.12.06-.05-.07,0,0,.03.04.13.09.14.14l-.04-.06s.03.05.05.07c.02.03.03.05.04.08-.06-.12-.02-.04,0,0,0,.02.01.04.02.07.01.07.01.06,0-.03.03.04,0,.15,0,.21.01.08.03-.14,0,0,0,.03-.01.06-.02.09-.01.04-.03.07-.04.11-.03.09.07-.13,0,0-.04.08-.09.15-.14.23-.05.08.1-.11,0,0-.02.02-.04.05-.07.07-.03.03-.21.18-.09.09-.06.05-.14.08-.2.13-.03.02-.14.04.08-.04-.11.04.04-.01.07,0-.01,0-.06,0-.07,0-.06,0-.03-.06.09.01-.03-.02-.1-.03-.14-.04-.15-.05.12.07-.02,0-.05-.03-.1-.05-.15-.08-.22-.13-.43-.29-.64-.44-.48-.36-.96-.77-1.59-.83-.33-.03-.64.31-.62.62.02.36.28.59.62.62h0Z"/>
    </g>
    <g>
      <path class="cls-2" d="m32.19,10.62c-.17,5.58-.34,11.2.58,16.71.06.36.14.74.39,1.01.44.46,1.2.35,1.82.17,2-.56,3.91-1.43,5.65-2.55.53-.34,1.08-.76,1.21-1.37.18-.82-.54-1.65-1.36-1.83s-1.68.12-2.42.53c-.3.17-.81.87-1.1,1.05-2.25,1.43-2.21-1.64-2.26-1.82-.78-2.42.6-5.49.16-8-.38-2.15-.8-2.77-2.67-3.91"/>
      <path class="cls-2" d="m31.94,10.62c-.15,4.88-.3,9.78.28,14.64.17,1.4.07,3.76,2.02,3.65.87-.05,1.76-.43,2.57-.74.99-.38,1.95-.83,2.87-1.34,1.1-.62,3.02-1.62,2.26-3.19s-2.79-1.36-4.01-.56c-.59.39-.9,1.08-1.61,1.32s-1.07-.26-1.23-.9c-.29-1.17-.44-2.46-.34-3.65.18-2.08.68-4.04.2-6.12-.37-1.6-1.27-2.47-2.64-3.32-.27-.17-.53.26-.25.43,1.26.78,2.06,1.55,2.41,3.02.39,1.69.12,3.3-.11,4.99-.18,1.36-.12,2.54.11,3.87.1.63.12,1.3.55,1.82.55.65,1.44.47,2.07.03.42-.29.68-.76,1.1-1.05,1.02-.7,3.9-.84,3.33,1.14-.26.91-1.57,1.47-2.36,1.89-.89.48-1.82.9-2.77,1.25-.84.31-1.94.86-2.78.41-.49-.26-.49-.43-.6-.94-.05-.22-.07-.46-.11-.69-.1-.67-.18-1.34-.25-2.01-.49-4.63-.35-9.3-.2-13.95,0-.32-.49-.32-.5,0h0Z"/>
    </g>
    <g>
      <path class="cls-2" d="m48.07,21.84c-.51-.08-.88-.51-.84-1.02.08-.81-.02-1.84.01-2.35.16-2.92,1.47-3.97.85-6.97-.03-.15-.11-.76-.23-.86-.12-.1-.29-.1-.45-.09-.29.02-.71-.03-1.13-.05-.53-.03-.99.39-1.01.93-.25,5.81-.01,11.63.72,17.4.08.67.82,1.05,1.42.74.97-.51,1.88-1.11,2.72-1.8.98-.8,1.94-1.89,1.84-3.15-.1-1.29-2.24-2.5-3.91-2.77Zm.97,6.03c-.27.17-.57.16-.87.14-.53-.04-1.14-.23-1.36-.89-.08-.24-.1-.51-.1-.78,0-.47.09-.96.32-1.32.22-.36.61-.55.92-.37,1.54-.07,1.21,1.35,1.37,1.72.07.17.15.34.17.54.04.4-.18.79-.45.95Z"/>
      <g>
        <path class="cls-2" d="m48.13,21.6c-.93-.26-.65-2.1-.65-2.83,0-.94.2-1.85.45-2.75.37-1.32.69-2.55.51-3.92-.05-.42-.07-1.27-.38-1.6s-1.37-.26-1.77-.24c-1.58.1-1.3,1.89-1.33,3.03-.11,4.33.05,8.66.49,12.97.09.88.03,2.05.36,2.88.16.39.49.68.91.76.62.12,1.17-.29,1.67-.6.75-.46,1.48-.97,2.15-1.55,1.01-.89,2.22-2.43,1.48-3.84-.7-1.34-2.5-2.05-3.89-2.31-.31-.06-.45.42-.13.48,1.22.23,2.78.79,3.48,1.89.97,1.52-.89,3.15-1.99,3.97-.56.42-1.15.84-1.78,1.16-.14.07-.62.36-.76.31-.25-.08-.71-.92-.77-1.15-.12-.4-.1-.88-.15-1.29-.17-1.6-.31-3.2-.41-4.81-.2-3.21-.24-6.43-.14-9.64,0-.15-.03-.58.03-.74.11-.3.66-.98.93-1.04.21-.04.64,0,.85.05.68.14.66,1.23.7,1.81.07,1.18-.27,2.27-.58,3.39-.34,1.23-.43,2.4-.41,3.67.02,1.03-.22,2.07.99,2.41.31.09.44-.39.13-.48Z"/>
        <path class="cls-2" d="m48.91,27.66c-.3.17-.7.14-1.03.06-.26-.06-.52-.17-.69-.39-.25-.32-.25-.77-.23-1.16.02-.36.09-.77.3-1.07.09-.12.22-.25.37-.27.05,0,.09,0,.14.01.11.04.19.05.31.05.21,0,.45.05.6.18.26.22.29.59.32.92.02.19.04.37.11.55.09.21.15.42.09.65-.05.18-.15.35-.3.46-.27.18-.02.61.25.43.39-.26.62-.73.57-1.2-.02-.22-.12-.4-.18-.61-.01-.03-.02-.07-.02-.1,0-.05,0,.04,0,0,0-.03,0-.05,0-.08-.04-.48-.08-1.02-.47-1.36-.3-.27-.7-.34-1.09-.32l.13.03c-.41-.22-.87-.05-1.15.3-.31.38-.41.88-.45,1.35s-.02,1.04.27,1.46c.22.32.56.53.93.63.48.13,1.05.16,1.49-.09.28-.16.03-.59-.25-.43Z"/>
      </g>
    </g>
    <g>
      <path class="cls-2" d="m65.21,25.63c-.02-.17-.04-.36-.14-.5-.12-.18-.33-.27-.54-.3-.43-.07-.87.05-1.31.07-.44.02-.95-.13-1.12-.53-.17-.39.04-.83.05-1.25.02-.84-.84-1.53-1.68-1.5-.84.03-1.58.64-1.95,1.39-1.1-.46-1.94.56-2.62,1.57-1.15,1.72-.05,4.1,2.01,4.26.49.04.99.01,1.47-.02.28-.02.58-.05.77-.24.15-.14.2-.35.3-.53.26-.47.86-.73,1.39-.61.74.18,1.23,1,1.99,1.04.6.04,1.13-.47,1.32-1.05s.13-1.2.06-1.8Zm-5.89,1.75c-.24.14-.51.13-.77.11-.47-.04-1-.18-1.21-.72-.07-.19-.09-.42-.09-.63,0-.38.08-.78.28-1.07s.94-.64,1.22-.49c1.36-.06.81,1.73.96,2.03.06.14-.02-.16,0,0,.03.33-.16.64-.39.77Z"/>
      <g>
        <path class="cls-2" d="m65.46,25.63c-.14-1.09-.99-1.11-1.92-1.01-.27.03-.55.05-.81-.03-.45-.15-.48-.51-.42-.93s.11-.8-.07-1.21c-.33-.73-1.16-1.16-1.94-1.08-.89.1-1.6.74-2,1.5l.28-.11c-1.38-.51-2.57.93-3.1,2.04s-.33,2.34.42,3.25c.93,1.11,2.43,1.17,3.76.98.29-.04.56-.14.75-.38.24-.3.29-.66.66-.87.81-.44,1.42.37,2.06.72s1.39.24,1.89-.33c.62-.7.55-1.68.45-2.55-.04-.32-.54-.32-.5,0,.08.72.2,1.59-.31,2.19s-1.14.38-1.7-.03c-.41-.3-.83-.63-1.36-.64-.48,0-.96.22-1.25.61-.14.19-.2.48-.37.63-.26.24-.83.19-1.16.2-.62.02-1.25.02-1.82-.28-.9-.48-1.42-1.52-1.29-2.53.08-.67.47-1.23.89-1.74.48-.58,1.07-1.08,1.85-.79.1.04.23-.02.28-.11.36-.68,1.04-1.31,1.86-1.27.39.02.78.23,1.03.53.34.41.25.84.18,1.33-.09.63.17,1.16.8,1.35.34.1.68.08,1.02.04.53-.06,1.25-.19,1.34.52.04.32.54.32.5,0Z"/>
        <path class="cls-2" d="m59.19,27.17c-.27.15-.65.1-.95.03-.25-.06-.49-.18-.62-.42-.17-.3-.14-.74-.07-1.07.06-.31.16-.53.41-.69.11-.07.22-.13.34-.17.05-.02.11-.04.17-.05-.01,0,.09-.01.06-.01,0,0,.11,0,.07,0,0,0,.07.02.04,0-.04-.01.12.03.12.03.07,0,.13,0,.2,0,.07,0,.16.04.22.08.05.03.02,0,.06.04.02.02.03.03.05.05.05.05-.02-.04.02.02.02.03.04.06.06.1,0,0,.03.06.04.11.05.19.06.31.06.52,0,.19-.01.39-.02.58,0,.16,0,.36.12.48.07.07.21.11.3.04.13-.1.17-.29.07-.43-.07-.1-.16-.14-.28-.11h0c-.08.01-.16.1-.17.18-.03.13,0,.25-.04.38-.05.12-.13.22-.24.29-.27.17-.02.6.25.43.17-.11.32-.26.41-.44.05-.09.08-.19.1-.29,0-.05.02-.1.02-.16,0-.03,0-.18-.01-.07l-.17.17h0c-.09-.04-.19-.08-.28-.12.01.02-.02-.07,0-.02s0-.05,0-.02l.12-.22h0c.1.01.2.03.3.04.03.04.03.05.02.01.02.05.02.06.02.03,0-.02,0-.07,0,.01,0-.04,0-.08,0-.12,0-.1,0-.2.01-.3.01-.26.02-.51-.02-.77s-.12-.51-.31-.71c-.22-.24-.55-.32-.86-.31l.13.03c-.33-.16-.72-.01-1.03.14-.37.19-.61.48-.74.88-.14.44-.18,1.01-.02,1.45.15.4.47.67.86.8.46.15,1.04.19,1.47-.04.28-.15.03-.58-.25-.43Z"/>
      </g>
    </g>
    <g>
      <path class="cls-2" d="m75.1,16.26c-.13-.57-.27-1.15-.66-1.59-.31-.35-.81-.57-1.25-.48-.27.05-.54.04-.8-.02-1.53-.36-4.89-.49-5.46.4-.65,1-.9,3.99.6,5.22.16.13-.12-.16,0,0,.08.11.21.17.34.22.81.34,1.65.69,2.52.65,0,0,.02,0,.03,0,1.11-.07,2.11.69,2.16,1.8.11,2.41.04,4.84-.21,7.24-.02.24-.06.49-.2.68-.17.24-.48.34-.76.41-1.64.38-3.34,0-5.02-.06-.19,0-.38,0-.54.09-.12.07-.2.19-.26.32-.4.85.2,1.91,1.04,2.32.85.41,1.84.35,2.77.23,1.59-.2,2.05-1.05,3.59-1.5.55-.16,1.05-.79,1.45-1.38.47-.69.72-1.52.69-2.35-.15-5.21,1.02-7.51-.04-12.21Zm-3.82,2.64c-.34.14-.72.13-1.09.11-.66-.04-1.43-.19-1.71-.73-.1-.2-.13-.42-.12-.64.01-.39.12-.79.4-1.08.28-.29.76-.45,1.16-.3,1.93-.06,1.52,1.11,1.72,1.41.09.14.18.28.21.44.05.33-.22.64-.56.78Z"/>
      <g>
        <path class="cls-2" d="m75.34,16.2c-.18-.75-.4-1.57-1.09-2.01-.28-.18-.58-.26-.91-.25-.51,0-.95-.04-1.44-.12-1.37-.22-3.03-.37-4.37.09-1.06.36-1.26,1.48-1.34,2.49-.09,1.21.15,2.92,1.27,3.64.25.16.47-.19.3-.39-.02-.03-.05-.06-.08-.08-.21-.18-.55.05-.39.3.22.37.76.49,1.13.64.78.3,1.45.33,2.26.4,1.24.11,1.64,1.02,1.68,2.12s.04,2.16,0,3.24c-.03.96.05,2.12-.2,3.05s-.85,1.31-1.81,1.37c-.6.04-1.2,0-1.79-.04-1.01-.08-2.92-.71-3.29.67-.3,1.11.61,2.16,1.59,2.52,1.28.46,2.97.23,4.16-.39,1.26-.65,2.61-1.06,3.47-2.24,1.05-1.45.86-2.94.91-4.64.1-3.52.71-6.87-.05-10.37-.07-.31-.55-.18-.48.13.6,2.79.36,5.45.14,8.26-.06.71-.1,1.42-.12,2.13-.02.91.1,1.87-.11,2.76s-.81,1.82-1.57,2.29c-.58.37-1.29.57-1.9.92-1.36.78-3.59,1.39-4.95.27-.3-.25-.89-1.07-.62-1.53.33-.56,1.01-.45,1.55-.41.9.07,1.8.19,2.7.17,1.01-.02,2.32-.07,2.59-1.23.39-1.63.29-3.56.29-5.23,0-1.28.27-3.01-.9-3.88-.43-.32-.91-.44-1.43-.46-.42-.01-.8-.02-1.22-.12s-1.4-.3-1.61-.67l-.39.3s.06.05.08.08l.3-.39c-.96-.62-1.09-2.19-1.02-3.21.09-1.14.34-1.93,1.54-2.14,1.09-.19,2.26-.13,3.35.02.46.06.9.18,1.36.2.62.02,1.02.01,1.47.55.28.33.36.89.46,1.3.07.31.56.18.48-.13Z"/>
        <path class="cls-2" d="m71.21,18.66c-.4.15-.85.13-1.27.09-.32-.03-.66-.1-.94-.27-.62-.37-.49-1.47.07-1.85.15-.1.32-.16.5-.17.08,0,.15.01.23.03.11.03.22.02.34.02.26,0,.54.03.77.15.1.05.13.08.2.15.03.04.07.1.11.18-.02-.05.02.05.02.06.01.03.02.07.03.1s.01.07.02.1c0,.02,0,.04,0,.06,0,.06,0-.04,0,0,.02.15.03.31.1.45.09.16.24.32.17.52-.07.19-.25.3-.42.38-.12.05-.15.23-.09.34.07.13.22.14.34.09.41-.18.76-.59.68-1.06-.02-.13-.08-.25-.15-.37-.03-.05-.05-.09-.09-.14-.02-.03,0-.02,0,.01,0-.03-.02-.06-.02-.09,0-.02-.02-.12,0-.05-.06-.45-.15-.85-.55-1.12-.28-.19-.64-.25-.97-.27-.11,0-.23,0-.34-.01s-.22-.05-.34-.05c-.23,0-.46.06-.67.16-.43.21-.7.64-.79,1.1s-.08,1.01.24,1.4.8.53,1.26.6c.55.08,1.16.13,1.69-.07.3-.11.17-.6-.13-.48Z"/>
      </g>
    </g>
    <g>
      <path class="cls-2" d="m86.22,20.09c0-.28.08-.87-.08-1.1-.24-.36-1.98-.08-2.4-.21-.58-.18-1.16-.37-1.73-.55-.45-.14-.96-.28-1.36-.03-.31.19-.46.54-.59.88-.41,1.05-.83,2.13-.82,3.25.01,1.52.83,2.96,1.98,3.96s2.61,1.58,4.09,1.91c.21.05.45.08.6-.07.12-.12.13-.31.12-.48-.04-.94-.35-1.94-1.12-2.48-.48-.34-1.07-.46-1.58-.75-.51-.29-.94-.88-.75-1.42.8.36,2.71-.24,3.44-.72.73-.48.19-1.29.18-2.17Zm-2.19,1.89c-.32.11-.68.11-1.03.09-.63-.03-1.35-.15-1.62-.59-.1-.16-.12-.34-.11-.52,0-.32.11-.65.38-.89.27-.24.72-.37,1.1-.25,1.82-.05,1.43.91,1.62,1.16.09.11.17.23.2.36.05.27-.21.53-.53.64Z"/>
      <g>
        <path class="cls-2" d="m86.47,20.09c.01-.61.14-1.35-.61-1.5-.66-.13-1.36.09-2.02-.05-.95-.2-2.12-1.01-3.11-.66-.38.13-.61.46-.77.81-.26.55-.46,1.15-.64,1.73-.65,2.14-.13,4.26,1.5,5.82.8.76,1.78,1.31,2.81,1.7.5.19,1.02.35,1.54.46.34.08.72.13.97-.17.29-.36.14-1,.05-1.42-.11-.5-.3-.99-.62-1.4s-.78-.67-1.28-.88c-.61-.25-1.67-.63-1.45-1.5l-.31.17c.96.37,2.25-.08,3.13-.47.41-.19.85-.42.98-.89.15-.57-.14-1.19-.16-1.76-.01-.32-.51-.32-.5,0,.02.46.18.9.2,1.35.02.56-.49.76-.93.93-.74.3-1.79.66-2.57.35-.12-.05-.28.05-.31.17-.18.69.23,1.3.8,1.67.76.48,1.68.56,2.18,1.4.23.38.35.81.41,1.24.03.22.11.49-.07.65-.2.19-.54.02-.79-.04-.9-.24-1.79-.58-2.58-1.07-1.57-.96-2.82-2.62-2.8-4.53.01-1.07.41-2.11.81-3.09.2-.51.45-.87,1.06-.81.49.05.98.27,1.45.42.36.12.74.28,1.12.31.3.03.61,0,.91,0,.27,0,.76-.09,1.01.05.27.15.13.71.13.99,0,.32.49.32.5,0Z"/>
        <path class="cls-2" d="m83.97,21.74c-.36.12-.75.1-1.13.07-.31-.02-.64-.07-.92-.21-.29-.15-.41-.37-.39-.7.02-.31.16-.6.44-.76.32-.18.63-.08.98-.08.24,0,.54.03.74.12.04.02.07.04.11.06.05.03.03.02.06.05.02.02.05.05.07.07-.03-.04.03.05.04.07,0,.01.01.02.02.03.03.06-.02-.05,0,0,.01.03.02.06.03.09.01.05.02.11.03.17.02.12.03.24.09.35s.2.21.18.34c-.02.15-.23.27-.35.31-.3.11-.17.6.13.48.39-.15.8-.48.7-.95-.03-.17-.14-.31-.24-.45-.02-.03.02.06,0,.02,0-.01,0-.02-.01-.03,0-.03-.01-.06-.02-.09-.06-.37-.17-.7-.51-.91-.27-.16-.6-.21-.91-.23-.1,0-.21,0-.31,0s-.2-.04-.3-.04c-.23-.01-.46.04-.66.13-.76.33-1.15,1.53-.51,2.15.32.31.8.42,1.23.47.5.06,1.05.1,1.54-.06.3-.1.17-.58-.13-.48Z"/>
      </g>
    </g>
  </g>
</svg>