<?xml version="1.0" encoding="UTF-8"?>
<svg id="Layer_2" data-name="Layer 2" xmlns="http://www.w3.org/2000/svg" viewBox="0 0 99.21 44.28">
  <defs>
    <style>
      .cls-1 {
        fill: none;
      }

      .cls-2 {
        fill: #fff;
      }

      .cls-3 {
        fill: #be3428;
      }
    </style>
  </defs>
  <g id="Layer_1-2" data-name="Layer 1">
    <g>
      <path class="cls-3" d="m20.92,39.52c-3.6,1.56-8.12-4.63-9.85-1.04-.88,1.84-4.64,4.28-6.56.86-.83-1.48-1.22-1.98-1.67-3.89C1.75,30.8.7,22.38.06,17.59c-.1-.72-.09-9.9.21-10.52.25-.51.69-.79,1.13-1.01,5-2.59,10.58-1.93,15.95-1.75,7.44.25,14.88-.5,22.32-.84,12.49-.58,25-.03,37.49.52,3.58.16,7.28.35,10.5,2.38.87.55,1.74,1.23,2.7,1.23.59,0,1.16-.27,1.73-.47,2.58-.91,5.92-.01,6.84,3.27.29,1.05.29,2.19.29,3.31-.02,4.98-.03,9.96-.05,14.94,0,1.91-.03,3.89-.66,5.61-.82,2.23-2.59,3.68-4.42,4.3-1.84.63-3.76.55-5.66.46-6.25-.27-12.51-.55-18.76-.82-1.97-.09-3.99-.19-5.78-1.28-.79-.48-1.52-1.15-2.35-1.45-.73-.26-1.5-.24-2.25-.18-7.31.58-14.34,4.15-21.66,4.51-5.57.28-11.18-1.31-16.7-.28"/>
      <path class="cls-2" d="m85.28,24.94c1.03.34,2.24.15,3.15-.43s1.77-1.68,1.85-2.76c.12-1.62-1.59-1.87-2.8-2.03s-2.34-.2-3.51-.03-2.09.75-2.56,1.82-.55,2.21-.62,3.32-.1,2.34.39,3.39c.46.99,1.4,1.64,2.35,2.12,1.12.56,2.29,1.02,3.46,1.45,1.26.46,2.51.77,3.79.18.61-.28.77-1.17.45-1.71-.37-.63-1.09-.73-1.71-.45-.01,0-.18.01-.26,0-.22,0-.09,0-.31-.04-.38-.07-.76-.21-1.13-.34-.76-.27-1.51-.56-2.25-.89-.64-.29-1.39-.58-1.89-1.06-.44-.42-.43-1-.44-1.58,0-.83.06-1.67.2-2.49.03-.19.07-.38.12-.57,0-.04.12-.37.04-.19.03-.08.19-.32.18-.32,0,0,.1-.08.19-.11.62-.24,1.52-.15,2.19-.12.4.02.79.05,1.19.11.19.03.37.06.56.1.11.02.22.05.33.07-.03-.03-.07-.05-.11-.06l-.32-.55.04.14v-.66c-.12.91-1.07,1.55-1.9,1.27-.64-.21-1.37.25-1.54.87-.19.68.23,1.32.87,1.54h0Z"/>
      <path class="cls-2" d="m12.62,15.22c3.65-.29,7.32-.24,10.97.14.67.07,1.25-.63,1.25-1.25,0-.73-.58-1.18-1.25-1.25-3.64-.39-7.31-.43-10.97-.14-.67.05-1.25.54-1.25,1.25,0,.64.57,1.3,1.25,1.25h0Z"/>
      <path class="cls-2" d="m16.93,14.81c0,4.24,0,8.49,0,12.73,0,1.61,2.5,1.61,2.5,0,0-4.24,0-8.49,0-12.73,0-1.61-2.5-1.61-2.5,0h0Z"/>
      <path class="cls-2" d="m25.47,23.08v3.83c0,.65.57,1.28,1.25,1.25s1.25-.55,1.25-1.25v-3.83c0-.65-.57-1.28-1.25-1.25s-1.25.55-1.25,1.25h0Z"/>
      <path class="cls-2" d="m26.72,19.46c1.61,0,1.61-2.5,0-2.5s-1.61,2.5,0,2.5h0Z"/>
      <path class="cls-2" d="m32.21,11.98c-.11,3.86-.08,7.72.1,11.58.04.95.09,1.9.16,2.85.06.85.22,1.67,1.11,2.02.81.32,1.86.05,2.69-.07.97-.14,1.93-.35,2.88-.6,1.55-.42.89-2.83-.66-2.41-.71.19-1.43.36-2.16.49-.33.06-.65.11-.98.15-.2.02-.39.04-.59.06-.29-.04-.37-.02-.24.07l.45.45c.03.26.03.21,0-.14l-.02-.3c-.02-.35-.04-.7-.06-1.05-.03-.6-.06-1.2-.09-1.8-.06-1.25-.1-2.51-.12-3.76-.05-2.51-.04-5.02.03-7.52.05-1.61-2.45-1.61-2.5,0h0Z"/>
      <path class="cls-2" d="m41.92,8.96c.06,4.67.69,9.32,1.88,13.84.2.77,1.15,1.17,1.84.75.94-.58,2.17-1.39,3.06-.32.39.46.54,1.1.63,1.68.05.31.07.62.09.93l.02.32c-.07.38.1.41.5.07,0-.02-.69-.34-.72-.36-.25-.15-.49-.3-.72-.47-.46-.32-.88-.7-1.27-1.1-.87-.89-1.52-1.92-2.02-3.05-.65-1.47-2.81-.2-2.16,1.26.83,1.86,2.12,3.47,3.73,4.7.8.61,1.75,1.31,2.76,1.46,1.1.16,2.05-.46,2.32-1.54.25-.98.02-2.23-.19-3.2s-.66-1.94-1.37-2.65c-1.77-1.76-4.05-1.06-5.93.1l1.84.75c-1.14-4.31-1.74-8.71-1.79-13.17-.02-1.61-2.52-1.61-2.5,0h0Z"/>
      <path class="cls-2" d="m58.06,19.45c-.71.29-1.41.61-2.08,1-.6.35-1.27.73-1.74,1.24-1.23,1.34-.32,3.17.64,4.37.86,1.07,2.19,1.95,3.57,2.08s2.58-1.02,2.84-2.37c.15-.75.08-1.5-.14-2.23-.11-.37-.25-.73-.37-1.09-.06-.18-.11-.36-.16-.55-.05-.22-.06-.3-.07-.44l-1.88,1.08c1.2.9,2.44,2.03,3.54,3.15.47.48,1.3.47,1.77,0s.47-1.28,0-1.77c-1.25-1.29-2.61-2.46-4.05-3.54-.75-.57-1.93.2-1.88,1.08.04.75.24,1.43.48,2.13.11.32.22.64.3.96.02.08.04.16.05.24-.02-.16-.02-.17-.01-.03,0,.1,0,.21,0,.31-.01.15,0,.14.01-.02-.01.07-.02.14-.04.2-.02.1-.05.2-.09.29.1-.29-.06.07-.1.13.16-.24,0-.03-.06.03.13-.1.14-.11.02-.04.15-.06.16-.07.03-.02.2.05-.2,0,0,.01-.17-.02-.36-.09-.52-.15.17.07-.17-.1-.21-.12-.12-.07-.25-.14-.37-.22-.07-.05-.13-.09-.2-.14.08.06.08.06.01,0-.22-.19-.42-.39-.6-.6-.05-.07-.05-.06,0,.01-.05-.07-.1-.13-.14-.2-.08-.12-.15-.24-.22-.36s-.14-.25-.19-.38c.09.2-.05-.22-.08-.25-.05-.07-.06-.01-.05.1-.07.09-.05.08.05-.03-.07.05-.07.04,0,0,.27-.21.56-.39.85-.56.54-.33,1.24-.7,1.74-.9.62-.26,1.07-.83.87-1.54-.16-.59-.91-1.13-1.54-.87h0Z"/>
      <path class="cls-2" d="m72.22,18.59c-1.75-.27-3.68-.38-4.91,1.14-1.35,1.67-.36,3.53,1.05,4.75,1.32,1.15,3.17,2.13,4.88,1.14.64-.37,1.13-.98,1.47-1.63.15-.29.27-.58.4-.88.06-.15.13-.3.19-.44.04-.1.09-.19.14-.29.15-.23.07-.21-.23.05h-.66c-.23-.04-.25-.3-.07.06.1.18.21.36.3.54.14.28.24.57.33.86.27.81.49,1.65.7,2.48s.39,1.64.54,2.46c.08.41.15.83.22,1.24.05.28.15.67.08.84l.32-.55c-.15.16-.56.24-.77.31-.37.12-.74.22-1.11.3-.71.16-1.43.24-2.16.26-1.51.04-2.97-.22-4.39-.73-.64-.23-1.37.26-1.54.87-.19.69.24,1.31.87,1.54,2.48.89,5.2,1.04,7.77.49,1.15-.25,3.04-.61,3.44-1.89.19-.61.02-1.26-.08-1.87-.11-.72-.24-1.43-.39-2.14-.28-1.37-.62-2.73-1.05-4.06-.35-1.1-.86-2.68-1.95-3.26-1.46-.78-2.28.73-2.75,1.83-.28.66-.57,1.64-1.37,1.53-.47-.06-.96-.45-1.31-.75-.3-.25-1.04-.78-1.06-1.22-.03-.92,1.89-.64,2.42-.56.67.1,1.34-.17,1.54-.87.16-.59-.2-1.43-.87-1.54h0Z"/>
      <rect class="cls-1" width="99.21" height="44.28"/>
    </g>
  </g>
</svg>