<?xml version="1.0" encoding="UTF-8"?>
<svg id="Layer_2" data-name="Layer 2" xmlns="http://www.w3.org/2000/svg" viewBox="0 0 187.41 44.28">
  <defs>
    <style>
      .cls-1 {
        fill: none;
      }

      .cls-2 {
        fill: #fff;
      }

      .cls-3 {
        fill: #be3428;
      }
    </style>
  </defs>
  <g id="Layer_1-2" data-name="Layer 1">
    <g>
      <path class="cls-3" d="m39.52,42.24c-6.8,1.8-15.34-5.35-18.6-1.2-1.67,2.12-8.77,4.95-12.39,1-1.57-1.71-2.3-2.29-3.15-4.5C3.31,32.16,1.32,22.42.11,16.88c-.18-.84-.17-11.45.39-12.17.46-.59,1.31-.91,2.13-1.17C12.06.54,22.6,1.3,32.76,1.51c14.06.29,28.11-.57,42.16-.97,23.6-.67,47.22-.03,70.82.6,6.76.18,13.74.41,19.84,2.75,1.64.63,3.28,1.43,5.1,1.42,1.11,0,2.18-.31,3.26-.54,4.87-1.05,11.19-.01,12.92,3.78.55,1.21.55,2.53.55,3.82-.03,5.76-.07,11.52-.1,17.28-.01,2.21-.05,4.5-1.25,6.48-1.56,2.58-4.89,4.25-8.35,4.98s-7.11.63-10.69.54c-11.82-.32-23.63-.63-35.45-.95-3.71-.1-7.55-.22-10.91-1.48-1.49-.55-2.86-1.33-4.44-1.68-1.37-.3-2.82-.27-4.25-.2-13.8.67-27.09,4.8-40.91,5.22-10.52.32-21.12-1.52-31.54-.32"/>
      <path class="cls-2" d="m7.85,13.17c.05,3.42.1,6.84.15,10.25.04,2.26.21,4.96,2.13,6.47,2.35,1.85,5.49.59,7.18-1.5,1.85-2.28,3.08-5.19,4-7.95.56-1.66.98-3.37,1.25-5.1.22-1.43.34-3.06-.87-4.1s-2.99.72-1.77,1.77c.42.36.33.95.26,1.46-.09.78-.27,1.57-.45,2.33-.35,1.51-.8,2.99-1.36,4.43s-1.23,2.81-2.01,4.13c-.68,1.16-1.52,2.41-2.87,2.82-2.68.82-2.96-2.62-3-4.42-.07-3.53-.11-7.06-.16-10.6-.02-1.61-2.52-1.61-2.5,0h0Z"/>
      <path class="cls-2" d="m26.91,14.74c3.57,4.02,6.07,8.87,7.34,14.09.38,1.56,2.79.9,2.41-.66-1.37-5.64-4.13-10.86-7.98-15.19-1.07-1.21-2.83.57-1.77,1.77h0Z"/>
      <path class="cls-2" d="m41.74,10.5c-7.42,3.06-13.59,8.75-17.09,15.99-.7,1.44,1.46,2.71,2.16,1.26,3.2-6.62,8.78-12.03,15.6-14.84.62-.26,1.07-.83.87-1.54-.16-.59-.91-1.13-1.54-.87h0Z"/>
      <path class="cls-2" d="m45.12,24.42h4.66c.65,0,1.28-.57,1.25-1.25s-.55-1.25-1.25-1.25h-4.66c-.65,0-1.28.57-1.25,1.25s.55,1.25,1.25,1.25h0Z"/>
      <path class="cls-2" d="m58.89,13.99c.18,4.86-.05,9.72-.68,14.54-.09.67.64,1.25,1.25,1.25.75,0,1.16-.58,1.25-1.25.63-4.82.86-9.68.68-14.54-.06-1.6-2.56-1.61-2.5,0h0Z"/>
      <path class="cls-2" d="m60.23,15.15c1.5.47,3.05.26,4.57.04,1.07-.15,2.5-.5,3.5.1,1.07.65.93,2.13.34,3.07-.8,1.27-2.38,1.83-3.75,2.2-1.1.3-1.28,2.24,0,2.41,3.45.47,6.36,2.64,7.76,5.84.27.62,1.18.76,1.71.45.64-.37.72-1.09.45-1.71-1.62-3.69-5.25-6.45-9.25-6.98v2.41c1.97-.54,3.95-1.44,5.14-3.18,1.07-1.57,1.29-3.88.14-5.47s-2.96-1.95-4.78-1.78c-1.68.15-3.49.73-5.15.21-1.54-.48-2.2,1.93-.66,2.41h0Z"/>
      <path class="cls-2" d="m83.08,22.46c2.1-.56,3.93-2.04,4.84-4.03.36-.78.06-1.53-.75-1.84-2.16-.82-4.7-.95-6.77.2-1.77.99-3.11,2.94-3.01,5.02.11,2.23,1.58,4,3.29,5.29s3.64,2.07,5.06,3.64c1.08,1.2,2.85-.58,1.77-1.77-1.25-1.38-2.89-2.26-4.43-3.25-1.25-.8-2.64-1.85-3.07-3.35-.38-1.34.36-2.64,1.51-3.34,1.53-.92,3.41-.64,5-.04l-.75-1.84c-.66,1.43-1.82,2.47-3.35,2.88s-.89,2.83.66,2.41h0Z"/>
      <path class="cls-2" d="m97.67,16.72c-2.07.15-3.85,1.16-5.05,2.86-.37.52-.12,1.43.45,1.71,2.56,1.24,5.49,2.58,7.12,5.03.25.38.67,1.01.44,1.45s-1,.73-1.48.88c-1.35.41-2.77.2-3.96-.55-1.36-.86-2.62,1.3-1.26,2.16,1.73,1.09,3.93,1.4,5.89.8s3.89-2.21,3.23-4.53c-.54-1.89-2.21-3.42-3.73-4.56s-3.27-2-4.99-2.84l.45,1.71c.65-.92,1.76-1.54,2.89-1.62.67-.05,1.25-.54,1.25-1.25,0-.64-.57-1.3-1.25-1.25h0Z"/>
      <path class="cls-2" d="m113.42,21.64c2.29.21,5.17.13,6.86-1.68,1.01-1.08,1.57-2.88.4-4.05-.94-.94-2.65-1.06-3.9-1.03-2.55.06-5.14,1.08-6.9,2.95s-2.47,4.41-1.96,6.94c.54,2.69,2.52,5.12,5.23,5.79,1.56.39,2.23-2.02.66-2.41-3.23-.8-4.48-5.02-2.82-7.7.92-1.49,2.51-2.44,4.18-2.85.87-.21,1.78-.28,2.67-.17.33.04.77.08,1.05.25-.11-.07.14-.34-.11.08-.07.11-.16.3-.23.39-1.04,1.32-3.57,1.14-5.14,1-.67-.06-1.25.62-1.25,1.25,0,.73.57,1.19,1.25,1.25h0Z"/>
      <path class="cls-2" d="m131.17,17.04c-3.52-.12-5.63,3.13-6.36,6.18-.34,1.4-.96,3.36-.17,4.7s2.99,1.64,4.46,1.65c3.16.03,6.21-1.74,7.12-4.88.39-1.35.39-3.27-.62-4.36-1.37-1.48-3.62-.14-3.78,1.61s1.16,3.51,2.31,4.68c1.21,1.24,2.75,2.13,4.41,2.61,1.55.45,2.21-1.96.66-2.41-1.78-.52-3.35-1.68-4.33-3.27-.12-.2-.24-.4-.34-.6-.09-.2-.12-.51-.24-.66-.04-.06-.01-.11-.02-.12.18.18-.58-.12-.35-.07-.29-.07-.15-.17-.1.14.15.79.15,1.5-.19,2.25-.78,1.75-2.6,2.57-4.44,2.58-.46,0-.91-.03-1.36-.12-.24-.05-.49-.1-.72-.18-.16-.05-.39-.22-.3-.05-.15-.3.01-.84.07-1.14.1-.57.21-1.13.34-1.69.47-1.94,1.59-4.42,3.95-4.34,1.61.06,1.61-2.44,0-2.5h0Z"/>
      <path class="cls-2" d="m142.48,19.64c-.24,3.61-.14,7.22.3,10.81.07.62.42,1.15,1.08,1.23s1.17-.29,1.37-.9c1.16-3.48,2.38-7.14,5.12-9.73,1.17-1.11-.6-2.87-1.77-1.77-3.06,2.88-4.47,6.94-5.76,10.83l2.46.33c-.44-3.59-.54-7.21-.3-10.81.04-.67-.61-1.25-1.25-1.25-.71,0-1.21.57-1.25,1.25h0Z"/>
      <path class="cls-2" d="m158.88,19.43c-2.83-.79-5.62,1.51-5.96,4.29s1.72,5.56,4.27,6.67c1.6.7,3.34.94,5.07.91,1.61-.03,1.61-2.53,0-2.5-1.36.02-2.72-.1-3.95-.63s-2.14-1.35-2.64-2.48c-.46-1.05-.41-2.07.23-2.95.21-.28.69-.66,1.03-.81-.05.02.26-.09.33-.11.08-.02.16-.04.24-.06-.11.01-.11.01-.02,0,.15-.01.29-.01.44,0-.22-.01.23.05.29.07,1.55.43,2.22-1.98.66-2.41h0Z"/>
      <path class="cls-2" d="m166.54,11.16c.03,6.05,1.39,11.96,2.76,17.82.25,1.06,1.76,1.2,2.28.3,1.92-3.29,4.43-6.13,7.43-8.47l-2.09-.55c.52,3.19.32,6.43-.53,9.55-.43,1.55,1.99,2.22,2.41.66.98-3.57,1.13-7.23.53-10.88-.17-1.04-1.44-1.06-2.09-.55-3.16,2.46-5.8,5.52-7.82,8.98l2.28.3c-1.32-5.64-2.64-11.32-2.67-17.15,0-1.61-2.51-1.61-2.5,0h0Z"/>
      <rect class="cls-1" width="187.35" height="44.28"/>
    </g>
  </g>
</svg>