<?xml version="1.0" encoding="UTF-8"?>
<svg id="Layer_2" data-name="Layer 2" xmlns="http://www.w3.org/2000/svg" viewBox="0 0 187.41 44.28">
  <defs>
    <style>
      .cls-1 {
        fill: none;
      }

      .cls-2 {
        fill: #f6f6f6;
      }

      .cls-3 {
        fill: #be3428;
      }
    </style>
  </defs>
  <g id="Layer_1-2" data-name="Layer 1">
    <g>
      <path class="cls-3" d="m39.52,42.24c-6.8,1.8-15.34-5.35-18.6-1.2-1.67,2.12-8.77,4.95-12.39,1-1.57-1.71-2.3-2.29-3.15-4.5C3.31,32.16,1.32,22.42.11,16.88c-.18-.84-.17-11.45.39-12.17.46-.59,1.31-.91,2.13-1.17C12.06.54,22.6,1.3,32.76,1.51c14.06.29,28.11-.57,42.16-.97,23.6-.67,47.22-.03,70.82.6,6.76.18,13.74.41,19.84,2.75,1.64.63,3.28,1.43,5.1,1.42,1.11,0,2.18-.31,3.26-.54,4.87-1.05,11.19-.01,12.92,3.78.55,1.21.55,2.53.55,3.82-.03,5.76-.07,11.52-.1,17.28-.01,2.21-.05,4.5-1.25,6.48-1.56,2.58-4.89,4.25-8.35,4.98s-7.11.63-10.69.54c-11.82-.32-23.63-.63-35.45-.95-3.71-.1-7.55-.22-10.91-1.48-1.49-.55-2.86-1.33-4.44-1.68-1.37-.3-2.82-.27-4.25-.2-13.8.67-27.09,4.8-40.91,5.22-10.52.32-21.12-1.52-31.54-.32"/>
      <rect class="cls-1" x="0" width="187.35" height="44.28"/>
    </g>
    <g>
      <path class="cls-2" d="m98.1,20.29c1.33.12,2.72.06,3.86-.64.18-.11.36-.25.45-.44.23-.47-.13-1.02-.53-1.35-1.2-1.01-2.97-1.29-4.43-.7-1.45.59-2.52,2.03-2.67,3.6-.03.33-.02.67.09.98.11.29.31.55.55.75,1.17,1.02,2.94.9,4.33,1.59.76.38,1.37.98,1.97,1.58.29.3.6.62.69,1.02.18.82-.62,1.58-1.45,1.72s-1.66-.13-2.48-.3c-1.01-.21-2.05-.27-3.08-.31-.45-.02-.92-.03-1.31.17s-.68.7-.49,1.11c.12.26.4.41.66.53,2.77,1.29,5.94,1.69,8.94,1.13.24-.04.49-.1.7-.23.24-.15.42-.39.55-.64.93-1.69.29-3.91-1.07-5.28s-3.27-2.02-5.17-2.39c-.45-.09-.91-.17-1.27-.45s-.56-.82-.3-1.2c.3-.43.94-.37,1.45-.27"/>
      <path class="cls-2" d="m98.1,20.54c1.11.09,5.41,0,4.52-2.12-.73-1.74-3.48-2.12-5.04-1.57-1.76.62-3.2,2.49-3.05,4.41.16,2.22,3.04,2.28,4.61,2.84.67.24,1.23.63,1.76,1.11.45.41,1.26,1.03,1.3,1.68.06.83-.91,1.28-1.6,1.32-.77.05-1.54-.24-2.3-.38-1.14-.21-2.48-.4-3.64-.26-.7.08-1.53.61-1.35,1.43s1.54,1.16,2.23,1.4c1.16.4,2.37.66,3.59.77s2.46.08,3.67-.11c1.03-.16,1.66-.46,2.07-1.47.84-2.1-.29-4.47-1.99-5.77-.95-.73-2.08-1.2-3.23-1.53-.61-.17-1.23-.27-1.84-.43-.33-.09-.98-.3-1-.73-.02-.37.23-.63.57-.66.22-.02.44.03.65.07.31.06.45-.42.13-.48-.58-.11-1.36-.2-1.74.38-.33.51-.07,1.17.37,1.52.66.54,1.72.55,2.51.76.98.26,1.94.63,2.79,1.17,1.71,1.09,3.03,3.22,2.38,5.29-.19.61-.52,1.12-1.16,1.29-.57.15-1.2.2-1.79.24-1.18.08-2.37.02-3.53-.18s-2.31-.54-3.39-1.02c-.15-.07-.41-.14-.53-.26-.44-.47-.2-.97.39-1.13s1.25-.04,1.84,0c1.23.08,2.39.4,3.6.56.81.11,1.67,0,2.27-.61,1.38-1.39-.5-2.96-1.61-3.76-.75-.55-1.6-.79-2.49-1-.97-.23-2.23-.44-2.81-1.34-.7-1.07.09-2.72.85-3.54s1.87-1.32,3.03-1.29c.96.02,4.01.97,2.68,2.33-.41.42-1.4.56-1.95.62-.59.06-1.19.04-1.78-.01-.32-.03-.32.47,0,.5h0Z"/>
    </g>
    <g>
      <path class="cls-2" d="m87.98,21.79c0-.32.1-.99-.1-1.25-.31-.41-2.49-.09-3.02-.24-.73-.21-1.46-.42-2.18-.63-.56-.16-1.21-.32-1.71-.04-.39.21-.58.62-.74,1-.52,1.19-1.04,2.42-1.03,3.7.02,1.73,1.04,3.37,2.49,4.5s3.28,1.8,5.14,2.18c.26.05.57.09.76-.08.15-.14.16-.35.15-.55-.05-1.07-.44-2.21-1.4-2.83-.6-.38-1.35-.53-1.98-.85-.64-.33-1.19-1-.94-1.62,1.01.4,3.41-.27,4.33-.82.92-.55.24-1.47.23-2.47Zm-3.16,2.21c-.35.13-.76.13-1.14.11-.69-.03-1.5-.18-1.8-.69-.11-.19-.13-.4-.13-.61.01-.37.12-.75.42-1.03.29-.28.8-.43,1.22-.29,2.03-.06,1.59,1.06,1.8,1.35.1.13.19.27.22.42.05.31-.24.61-.59.75Z"/>
      <g>
        <path class="cls-2" d="m88.23,21.79c.02-.75.15-1.53-.76-1.68-.82-.13-1.67.09-2.48-.05-.68-.12-1.36-.39-2.02-.58-.58-.17-1.22-.37-1.82-.2-.48.14-.78.5-1,.92-.3.6-.55,1.24-.77,1.87-.43,1.25-.58,2.56-.14,3.83.4,1.14,1.15,2.14,2.07,2.92.99.83,2.16,1.42,3.38,1.85.68.24,1.38.44,2.09.57.4.07.9.1,1.13-.31.24-.44.06-1.13-.06-1.59-.15-.57-.41-1.11-.81-1.54-.43-.47-1.01-.72-1.6-.94-.7-.26-2.07-.71-1.77-1.72l-.31.17c1.17.42,2.73-.07,3.83-.51.46-.19,1-.4,1.21-.89.28-.66-.13-1.45-.16-2.12-.01-.32-.51-.32-.5,0,.02.55.29,1.13.25,1.68-.05.61-.84.83-1.32,1-.94.33-2.19.71-3.17.37-.13-.05-.27.05-.31.17-.24.79.32,1.49.98,1.86.96.55,2.12.62,2.78,1.62.26.39.41.85.49,1.31.03.16.13.56.07.73-.17.47-.84.19-1.17.11-1.15-.27-2.28-.66-3.31-1.24-1.91-1.06-3.63-2.96-3.56-5.28.04-1.24.56-2.49,1.09-3.59.32-.67.81-.9,1.55-.76.62.12,1.23.33,1.83.51.42.12.84.28,1.28.3.37.02.75,0,1.12-.01.34,0,.88-.09,1.2.06.38.18.21.8.21,1.16,0,.32.49.32.5,0Z"/>
        <path class="cls-2" d="m84.75,23.75c-.41.14-.86.12-1.29.09-.33-.03-.69-.08-.99-.23-.36-.18-.5-.46-.47-.86.02-.38.19-.74.52-.93.36-.21.71-.09,1.1-.08.27,0,.57.03.82.15.17.08.24.16.32.3.03.06,0,0,.02.06.01.03.02.07.03.1.02.07.03.13.04.2.02.13.03.27.1.39.08.13.23.27.2.44-.03.19-.25.32-.41.38-.3.12-.17.6.13.48.4-.16.82-.5.77-.99-.02-.23-.15-.39-.27-.58-.02-.03.02.05,0,.01,0-.01,0-.03-.01-.04,0-.03-.01-.07-.02-.1-.07-.42-.17-.78-.54-1.03-.28-.19-.64-.25-.97-.27-.12,0-.24,0-.37-.01s-.24-.04-.36-.05c-.24-.02-.48.04-.69.13-.87.37-1.29,1.73-.59,2.45.33.34.84.47,1.29.54.57.08,1.2.13,1.75-.07.3-.1.17-.59-.13-.48Z"/>
      </g>
    </g>
    <g>
      <path class="cls-2" d="m119.15,21.79c0-.32.1-.99-.1-1.25-.31-.41-2.49-.09-3.02-.24-.73-.21-1.46-.42-2.18-.63-.56-.16-1.21-.32-1.71-.04-.39.21-.58.62-.74,1-.52,1.19-1.04,2.42-1.03,3.7.02,1.73,1.04,3.37,2.49,4.5,1.45,1.13,3.28,1.8,5.14,2.18.26.05.57.09.76-.08.15-.14.16-.35.15-.55-.05-1.07-.44-2.21-1.4-2.83-.6-.38-1.35-.53-1.98-.85-.64-.33-1.19-1-.94-1.62,1.01.4,3.41-.27,4.33-.82.92-.55.24-1.47.23-2.47Zm-3.16,2.21c-.35.13-.76.13-1.14.11-.69-.03-1.5-.18-1.8-.69-.11-.19-.13-.4-.13-.61.01-.37.12-.75.42-1.03.29-.28.8-.43,1.22-.29,2.03-.06,1.59,1.06,1.8,1.35.1.13.19.27.22.42.05.31-.24.61-.59.75Z"/>
      <g>
        <path class="cls-2" d="m119.4,21.79c.02-.75.15-1.53-.76-1.68-.82-.13-1.67.09-2.48-.05-.68-.12-1.36-.39-2.02-.58-.58-.17-1.22-.37-1.82-.2-.48.14-.78.5-1,.92-.3.6-.55,1.24-.77,1.87-.43,1.25-.58,2.56-.14,3.83.4,1.14,1.15,2.14,2.07,2.92.99.83,2.16,1.42,3.38,1.85.68.24,1.38.44,2.09.57.4.07.9.1,1.13-.31.24-.44.06-1.13-.06-1.59-.15-.57-.41-1.11-.81-1.54-.43-.47-1.01-.72-1.6-.94-.7-.26-2.07-.71-1.77-1.72l-.31.17c1.17.42,2.73-.07,3.83-.51.46-.19,1-.4,1.21-.89.28-.66-.13-1.45-.16-2.12-.01-.32-.51-.32-.5,0,.02.55.29,1.13.25,1.68-.05.61-.84.83-1.32,1-.94.33-2.19.71-3.17.37-.13-.05-.27.05-.31.17-.24.79.32,1.49.98,1.86.96.55,2.12.62,2.78,1.62.26.39.41.85.49,1.31.03.16.13.56.07.73-.17.47-.84.19-1.17.11-1.15-.27-2.28-.66-3.31-1.24-1.91-1.06-3.63-2.96-3.56-5.28.04-1.24.56-2.49,1.09-3.59.32-.67.81-.9,1.55-.76.62.12,1.23.33,1.83.51.42.12.84.28,1.28.3.37.02.75,0,1.12-.01.34,0,.88-.09,1.2.06.38.18.21.8.21,1.16,0,.32.49.32.5,0Z"/>
        <path class="cls-2" d="m115.92,23.75c-.41.14-.86.12-1.29.09-.33-.03-.69-.08-.99-.23-.36-.18-.5-.46-.47-.86.02-.38.19-.74.52-.93.36-.21.71-.09,1.1-.08.27,0,.57.03.82.15.17.08.24.16.32.3.03.06,0,0,.02.06.01.03.02.07.03.1.02.07.03.13.04.2.02.13.03.27.1.39.08.13.23.27.2.44-.03.19-.25.32-.41.38-.3.12-.17.6.13.48.4-.16.82-.5.77-.99-.02-.23-.15-.39-.27-.58-.02-.03.02.05,0,.01,0-.01,0-.03-.01-.04,0-.03-.01-.07-.02-.1-.07-.42-.17-.78-.54-1.03-.28-.19-.64-.25-.97-.27-.12,0-.24,0-.37-.01s-.24-.04-.36-.05c-.24-.02-.48.04-.69.13-.87.37-1.29,1.73-.59,2.45.33.34.84.47,1.29.54.57.08,1.2.13,1.75-.07.3-.1.17-.59-.13-.48Z"/>
      </g>
    </g>
    <g>
      <path class="cls-2" d="m10.33,16.18c-.38,4.76,1.34,9.17,3.13,13.6.13.33.28.66.55.89.4.35.99.36,1.52.37,1.69,0,3.38.01,5.08.02.47,0,.95,0,1.38-.19.62-.28,1-.9,1.32-1.49,2.19-4.14,2.97-9.02,2.17-13.64-.04-.23-.09-.47-.23-.66-.16-.22-.42-.34-.67-.45-.84-.38-1.68-.76-2.52-1.14-.91,3.58-1.39,7.27-1.43,10.96,0,.49-.01,1.01-.28,1.41-.53.81-1.86.69-2.54,0s-.88-1.71-1-2.67c-.28-2.25-.31-4.52-.09-6.78.03-.32.06-.66-.11-.93-.14-.22-.38-.35-.62-.46-1.77-.77-3.86-.79-5.64-.04.22.07-.03.97,0,1.2"/>
      <path class="cls-2" d="m10.08,16.18c-.23,3.24.47,6.39,1.52,9.43.52,1.5,1.05,3.04,1.72,4.48.55,1.18,1.53,1.19,2.71,1.2,1.69,0,3.44.14,5.13,0,1.24-.1,1.87-.89,2.42-1.93,1.36-2.61,2.17-5.51,2.38-8.45.12-1.65.05-3.31-.21-4.94-.1-.65-.23-1.09-.81-1.45-.84-.51-1.87-.85-2.77-1.26-.14-.06-.32-.02-.37.15-.71,2.85-1.18,5.75-1.36,8.68-.07,1.18.41,4.1-1.33,4.08s-1.97-2.06-2.12-3.32c-.17-1.46-.23-2.94-.18-4.41.02-.76.15-1.52.15-2.27,0-.31-.02-.61-.2-.87-.52-.75-1.93-.96-2.75-1.06-1.28-.16-2.56.03-3.76.5-.17.07-.25.27-.11.42.15.15-.07.8-.07,1.02,0,.32.5.32.5,0,0-.43.27-1.03-.07-1.38l-.11.42c1.46-.58,3.03-.71,4.55-.3.34.09.86.21,1.13.42.57.44.35,1.16.31,1.73-.06.79-.09,1.58-.09,2.37,0,1.44.08,2.9.32,4.32.17.95.5,2.02,1.37,2.55.64.4,1.56.49,2.19.03.88-.64.67-1.98.7-2.93.11-3.34.59-6.65,1.4-9.89l-.37.15c.82.37,1.76.67,2.52,1.14.96.6.92,1.68,1,2.71.14,1.7.08,3.42-.19,5.11-.24,1.51-.64,2.99-1.19,4.42-.32.81-.68,1.63-1.11,2.39-.57.99-1.23,1.33-2.36,1.34-1.76.02-3.59.12-5.34-.02-1.27-.1-1.51-.96-1.92-1.97-.32-.8-.64-1.61-.93-2.42-1.2-3.29-2.07-6.68-1.82-10.21.02-.32-.48-.32-.5,0h0Z"/>
    </g>
    <g>
      <path class="cls-2" d="m31.51,15.66c1.34,1.05,2.89,2.96,4.22,4.01.43.34.88.7,1.11,1.21.41.94-.12,2.05-.87,2.75s-1.7,1.15-2.46,1.84c-1.67,1.51-2.19,4.14-1.21,6.17,2-1.14,3.78-2.67,5.2-4.48.34-.43.67-.9,1.15-1.17.84-.48,1.95-.23,2.7.38s1.2,1.51,1.55,2.41c.49,1.3,1,2.87,2.34,3.23,1.27.34,2.59-.82,2.8-2.12s-.43-2.61-1.28-3.61c-.85-1.01-1.92-1.8-2.83-2.76-.37-.39-.74-.87-.7-1.42.04-.57.51-1,.93-1.4,1.53-1.47,2.68-3.32,3.32-5.34.06-.19.12-.39.11-.59-.03-.43-.37-.78-.75-.96-.82-.38-1.82-.13-2.56.4s-1.25,1.3-1.75,2.05c-.46.68-.91,1.36-1.37,2.05-.43-1.61-1.87-2.79-3.45-3.34s-3.28-.57-4.94-.57c-.4,0-.82,0-1.14.24s-.44.78-.12,1.02"/>
      <path class="cls-2" d="m31.34,15.84c1.35,1.09,2.44,2.45,3.74,3.6.75.67,1.76,1.23,1.63,2.38s-1.19,1.91-2.09,2.52c-1.23.84-2.25,1.75-2.75,3.2s-.39,2.88.21,4.22c.06.12.24.15.34.09,1.58-.91,3.03-2.04,4.27-3.38.58-.63,1.05-1.41,1.69-1.98,1.1-.98,2.56-.37,3.36.65,1.22,1.55,1.98,6.67,5.12,4.84,1.18-.69,1.65-2.05,1.39-3.35-.36-1.79-1.76-3.06-3.05-4.24-.71-.65-2.21-1.74-1.5-2.84.49-.75,1.29-1.32,1.85-2.03.95-1.22,2.03-2.89,2.26-4.46s-1.84-1.9-2.94-1.46c-1.84.73-2.9,3.04-3.93,4.58l.46.06c-.75-2.47-3.19-3.66-5.59-3.96-.79-.1-1.58-.13-2.37-.13-.53,0-1.17-.08-1.67.13-.64.27-.91,1-.43,1.55.21.24.57-.11.35-.35.06-.61.34-.89.84-.83.19,0,.38,0,.57,0,.45,0,.89,0,1.34.03.97.04,1.95.15,2.89.43,1.63.5,3.08,1.6,3.59,3.27.06.21.34.24.46.06.94-1.41,1.9-3.52,3.5-4.29.49-.24,1.11-.37,1.64-.19.8.27.83,1.06.58,1.76-.32.88-.74,1.73-1.24,2.52-.45.71-.97,1.36-1.55,1.97-.41.42-.94.82-1.18,1.37-.51,1.18.62,2.14,1.39,2.86,1.28,1.19,2.81,2.38,3.22,4.18.22.94.03,1.92-.69,2.61s-1.83.79-2.58.06c-1-.97-1.19-2.51-1.84-3.69-.57-1.05-1.49-1.96-2.74-2.09-1.65-.16-2.4,1.34-3.36,2.4-1.26,1.4-2.74,2.58-4.37,3.52l.34.09c-.81-1.8-.51-4.02.81-5.5,1.11-1.25,2.94-1.76,3.66-3.36s-.25-2.45-1.36-3.39c-1.39-1.18-2.52-2.63-3.93-3.78-.25-.2-.6.15-.35.35h0Z"/>
    </g>
    <g>
      <path class="cls-2" d="m56.08,22.56c-.83.17-1.7-.06-2.55-.04s-1.85.48-1.78,1.2c.05.51.63.87,1.23.98s1.21.02,1.82,0c.81-.02,1.64.09,2.43-.09s1.52-.79,1.36-1.46-2.34-1.26-2.5-.6"/>
      <path class="cls-2" d="m56.02,22.32c-1.36.25-2.99-.51-4.15.55-.37.34-.5.85-.24,1.3.32.54,1,.77,1.6.82.81.08,1.65-.03,2.46-.02.74.02,1.52.01,2.19-.33.49-.25.97-.72.96-1.3,0-.41-.28-.68-.61-.87-.53-.31-2.12-.87-2.4.03-.1.31.39.44.48.13.05-.16.48-.11.59-.09.33.04.66.14.96.29.25.13.52.29.47.61-.08.47-.63.78-1.04.9-.58.18-1.21.14-1.8.13s-1.21.04-1.82.04c-.52,0-1.15-.06-1.52-.47s-.05-.79.34-1c1.11-.6,2.47-.01,3.65-.23.32-.06.18-.54-.13-.48h0Z"/>
    </g>
    <g>
      <path class="cls-2" d="m137.06,30.71c-.13-.35-.42-.62-.61-.95-.23-.39-.3-.85-.34-1.3-.14-1.52.05-3.08.56-4.52.2-.58.46-1.16.45-1.78s-1.71-1.07-2.32-1.18c-1.58-.69-3.48-.43-4.95.47-1.47.9-2.52,2.39-3.11,4.01-.54,1.49-.72,3.11-.51,4.68.04.29.09.58.24.83.24.41.7.65,1.16.76,1.2.28,2.48-.21,3.44-.99.96-.78,1.65-1.83,2.32-2.87-.09.95-.19,1.93.1,2.84s1.04,1.75,1.99,1.81c.95.07,1.91-.92,1.58-1.82Zm-5.66-2.91c-.81.5-2.19.02-2.12-.93.02-.32.2-.6.38-.87.75-1.17,1.87-2.5,3.22-2.16-.27.92-.66,3.46-1.47,3.97Z"/>
      <g>
        <path class="cls-2" d="m137.27,30.58c-.15-.32-.38-.57-.56-.87-.24-.39-.31-.81-.36-1.25-.07-.76-.06-1.53.04-2.29s.27-1.46.51-2.17c.2-.57.56-1.29.45-1.92-.13-.75-1.26-1.03-1.87-1.2-1.07-.29-2.07-.63-3.2-.51-2.5.26-4.48,2.08-5.49,4.3-.57,1.26-.88,2.64-.9,4.02-.01,1.06-.03,2.42,1.01,3.02,1.14.65,2.62.31,3.68-.33,1.32-.8,2.19-2.13,3.02-3.39l-.47-.13c-.16,1.65-.21,3.82,1.54,4.68,1.27.63,3.06-.4,2.62-1.92-.09-.31-.57-.18-.48.13.19.66-.3,1.29-.93,1.46s-1.27-.21-1.67-.69c-.84-1.02-.69-2.44-.57-3.67.03-.26-.34-.32-.47-.13-1.18,1.81-3.14,4.57-5.71,3.68-1.28-.45-1.13-2.23-1.04-3.34.09-1.23.43-2.46,1-3.55,1.06-2.05,3.02-3.67,5.41-3.68.92,0,1.83.31,2.7.58.37.11.76.24,1.08.46.5.36.11,1.13-.06,1.6-.45,1.28-.74,2.57-.75,3.93,0,.59.02,1.2.16,1.78.15.64.61,1.06.87,1.64.13.29.56.04.43-.25Z"/>
        <path class="cls-2" d="m131.27,27.58c-.53.31-1.66.18-1.75-.58-.03-.27.12-.52.25-.74.14-.23.3-.46.46-.69.3-.41.65-.82,1.06-1.12.44-.32.96-.51,1.5-.39l-.17-.31c-.2.68-.32,1.38-.51,2.07-.1.37-.21.73-.37,1.08-.11.24-.26.53-.47.67-.27.17-.02.61.25.43.61-.39.84-1.26,1.03-1.9.21-.73.34-1.48.55-2.21.04-.13-.04-.28-.17-.31-1.31-.31-2.36.7-3.08,1.66-.37.49-.88,1.12-.83,1.76.04.5.39.88.84,1.07.53.23,1.16.22,1.66-.07.28-.16.03-.6-.25-.43Z"/>
      </g>
    </g>
    <g>
      <path class="cls-2" d="m141.68,20.79c.5,3.82,1,7.65,1.49,11.47.02.12.05.26.16.31.1.04.2,0,.3-.06,1.32-.69,2.85-1.71,2.74-3.2-.05-.72-.5-1.35-.65-2.05-.34-1.6.89-3.07,2.03-4.25,1.14-1.18,2.37-2.65,2.03-4.25-1.9.71-3.62,1.9-4.95,3.43.45-.9.38-2.12-.4-2.75s-2.69.34-2.75,1.34"/>
      <path class="cls-2" d="m141.43,20.79l.94,7.24.48,3.69c.08.58.11,1.33.87,1.03,1.23-.47,2.75-1.67,2.89-3.07.09-.96-.56-1.74-.67-2.66-.14-1.17.57-2.22,1.29-3.07,1.3-1.52,3.16-3.02,2.79-5.25-.02-.12-.19-.22-.31-.17-1.95.75-3.68,1.93-5.06,3.5l.39.3c.48-1.04.47-2.98-.96-3.29-1.02-.22-2.5.61-2.65,1.69-.04.31.44.45.48.13.11-.78,1.09-1.36,1.83-1.35,1.25,0,1.23,1.76.86,2.57-.11.24.19.53.39.3,1.33-1.5,2.97-2.65,4.84-3.37l-.31-.17c.41,2.45-2.33,4-3.46,5.83-.45.73-.76,1.58-.64,2.45.15,1.07,1.01,2,.51,3.11-.19.43-.53.78-.88,1.07-.3.25-.85.73-1.24.83-.17.16-.32.11-.45-.13l-.07-.55-.11-.82-.25-1.91-1.03-7.92c-.04-.31-.54-.32-.5,0h0Z"/>
    </g>
    <g>
      <path class="cls-2" d="m160.13,20c-1.39-.21-2.66.78-3.6,1.81-1.32,1.45-2.41,3.11-3.19,4.91-.73,1.67-1.1,3.86.2,5.14.84.83,2.13,1,3.31.91,2.7-.21,5.29-1.61,6.94-3.76.21-.27.41-.65.22-.94-.11-.18-.34-.25-.54-.3-.84-.19-1.73-.2-2.58-.03-.52.11-1.06.29-1.58.16-.92-.23-1.35-1.37-1.13-2.29s.9-1.65,1.57-2.31,1.38-1.34,1.7-2.23c.14-.38.18-.86-.1-1.15s-.81.21-1.21.07"/>
      <path class="cls-2" d="m160.13,19.75c-1.6-.18-2.92.92-3.93,2.05-1.13,1.26-2.08,2.68-2.81,4.21-.61,1.28-1.12,2.72-.93,4.16s1.16,2.42,2.53,2.75c2.87.68,6.18-.81,8.18-2.82.42-.42,1.07-1,1.14-1.63s-.5-.86-1.02-.96c-.74-.14-1.5-.15-2.25-.02-.54.09-1.13.34-1.68.2-.48-.13-.79-.55-.92-1.01-.56-1.92,1.79-3.24,2.74-4.58.38-.54.8-1.32.54-2-.33-.87-.91-.23-1.53-.33-.31-.05-.45.43-.13.48.57.1,1.46-.48,1.19.6-.18.73-.75,1.34-1.26,1.86-.84.86-1.88,1.75-2.09,3.01-.15.88.21,1.94,1.06,2.34.49.23,1.03.15,1.54.05.94-.19,1.83-.3,2.78-.1.24.05.57.08.52.49-.02.16-.22.38-.32.51-.2.26-.43.5-.66.74-.52.52-1.1.98-1.73,1.37-1.2.74-2.55,1.23-3.96,1.39s-3.12-.01-3.86-1.39c-.65-1.21-.31-2.76.16-3.97.6-1.55,1.51-3.02,2.55-4.32s2.36-2.76,4.14-2.57c.32.04.32-.47,0-.5h0Z"/>
    </g>
    <g>
      <path class="cls-2" d="m164.89,9.84c-.25,2.42.41,4.82.95,7.19,1.08,4.77,1.65,9.66,1.7,14.55,2.71-1.91.92-7.1,3.74-8.84.56-.35,1.23-.48,1.9-.51,1.36-.05,2.85.46,3.52,1.65.54.96.43,2.13.32,3.22-.15,1.42-.31,2.85-.46,4.27,1.03.09,2.03-.57,2.57-1.45.55-.88.71-1.95.71-2.98.02-3.49-1.99-7.22-5.37-8.09-.85-.22-1.79-.25-2.6.1s-1.48,1.1-1.55,1.98c-.14-3.63-1.01-7.24-2.55-10.53-.11-.23-.23-.48-.44-.63-.76-.54-1.64.53-2.45.07"/>
      <path class="cls-2" d="m164.64,9.84c-.29,3.5.97,6.93,1.58,10.34.67,3.76,1.02,7.58,1.07,11.4,0,.17.22.34.38.22,2.46-1.88,1.37-5.33,2.75-7.77,1.07-1.9,4.2-2.07,5.68-.53.99,1.03.79,2.54.65,3.83s-.29,2.7-.44,4.06c-.01.14.13.25.25.25,4.74.06,3.76-6.95,2.24-9.58-.94-1.62-2.42-2.96-4.26-3.44s-4.12.14-4.46,2.26l.49.07c-.13-2.88-.67-5.73-1.66-8.44-.3-.83-.66-2.34-1.4-2.89-.84-.62-1.69.34-2.56,0-.3-.12-.43.37-.13.48.87.34,1.85-.51,2.62.21.36.34.63,1.4.78,1.78.21.54.41,1.1.59,1.65.74,2.34,1.15,4.75,1.26,7.2.01.27.44.36.49.07.37-2.34,3.17-2.35,4.89-1.52,1.34.65,2.37,1.79,3.06,3.09,1.24,2.33,2.21,8.62-1.96,8.57l.25.25c.17-1.54.36-3.09.5-4.64.1-1.1.11-2.28-.54-3.23-1.03-1.49-3.33-1.86-4.95-1.29-3.92,1.37-1.53,6.94-4.4,9.14l.38.22c-.05-3.59-.36-7.17-.95-10.71s-2.02-7.33-1.71-11.03c.03-.32-.47-.32-.5,0h0Z"/>
    </g>
    <g>
      <path class="cls-2" d="m66.99,20.37c.5,3.82,1,7.65,1.49,11.47.02.12.05.26.16.31.1.04.2,0,.3-.06,1.32-.69,2.85-1.71,2.74-3.2-.05-.72-.5-1.35-.65-2.05-.34-1.6.89-3.07,2.03-4.25,1.14-1.18,2.37-2.65,2.03-4.25-1.9.71-3.62,1.9-4.95,3.43.45-.9.38-2.12-.4-2.75s-2.69.34-2.75,1.34"/>
      <path class="cls-2" d="m66.74,20.37l.94,7.24.48,3.69c.08.58.11,1.33.87,1.03,1.23-.47,2.75-1.67,2.89-3.07.09-.96-.56-1.74-.67-2.66-.14-1.17.57-2.22,1.29-3.07,1.3-1.52,3.16-3.02,2.79-5.25-.02-.12-.19-.22-.31-.17-1.95.75-3.68,1.93-5.06,3.5l.39.3c.48-1.04.47-2.98-.96-3.29-1.02-.22-2.5.61-2.65,1.69-.04.31.44.45.48.13.11-.78,1.09-1.36,1.83-1.35,1.25,0,1.23,1.76.86,2.57-.11.24.19.53.39.3,1.33-1.5,2.97-2.65,4.84-3.37l-.31-.17c.41,2.45-2.33,4-3.46,5.83-.45.73-.76,1.58-.64,2.45.15,1.07,1.01,2,.51,3.11-.19.43-.53.78-.88,1.07-.3.25-.85.73-1.24.83-.17.16-.32.11-.45-.13l-.07-.55-.11-.82-.25-1.91-1.03-7.92c-.04-.31-.54-.32-.5,0h0Z"/>
    </g>
  </g>
</svg>