<?xml version="1.0" encoding="UTF-8"?>
<svg id="Layer_2" data-name="Layer 2" xmlns="http://www.w3.org/2000/svg" viewBox="0 0 143.07 44.28">
  <defs>
    <style>
      .cls-1 {
        fill: none;
      }

      .cls-2 {
        fill: #fff;
      }

      .cls-3 {
        fill: #be3428;
      }
    </style>
  </defs>
  <g id="Layer_1-2" data-name="Layer 1">
    <g>
      <path class="cls-3" d="m30.17,42.07c-5.19,1.79-11.71-5.3-14.2-1.19-1.28,2.1-6.7,4.91-9.46.99-1.2-1.7-1.75-2.27-2.4-4.46C2.53,32.07,1.01,22.42.08,16.93-.06,16.1-.05,5.58.38,4.86c.35-.59,1-.9,1.62-1.16C9.21.73,17.26,1.48,25.01,1.69c10.73.29,21.46-.57,32.19-.96,18.02-.66,36.05-.03,54.07.6,5.16.18,10.49.4,15.15,2.73,1.25.62,2.51,1.41,3.89,1.41.85,0,1.67-.3,2.49-.53,3.72-1.04,8.54-.01,9.87,3.74.42,1.2.42,2.51.42,3.79-.02,5.71-.05,11.42-.07,17.13,0,2.19-.04,4.46-.95,6.43-1.19,2.56-3.73,4.21-6.38,4.93-2.65.72-5.43.63-8.16.53-9.02-.31-18.04-.63-27.06-.94-2.84-.1-5.76-.22-8.33-1.46-1.14-.55-2.19-1.31-3.39-1.66-1.05-.3-2.16-.27-3.24-.2-10.54.67-20.69,4.76-31.23,5.17-8.03.32-16.12-1.51-24.08-.32"/>
      <path class="cls-2" d="m8.16,14.89c1.7,3.47,3.41,6.94,5.11,10.41l1.28,2.6c.34.69.63,1.48,1.2,2.01,1.3,1.21,2.95.35,4.02-.67,4.59-4.35,7.75-10.24,9.03-16.42.33-1.57-2.08-2.24-2.41-.66-1.1,5.32-3.61,10.29-7.34,14.25-.43.46-.86.98-1.37,1.36-.13.11-.27.19-.43.25.17.06.2.04.09-.08-.22-.23-.35-.69-.49-.97l-2.16-4.39c-1.46-2.98-2.93-5.97-4.39-8.95-.71-1.44-2.87-.18-2.16,1.26h0Z"/>
      <path class="cls-2" d="m30.09,23.45v3.96c0,.65.57,1.28,1.25,1.25s1.25-.55,1.25-1.25v-3.96c0-.65-.57-1.28-1.25-1.25s-1.25.55-1.25,1.25h0Z"/>
      <path class="cls-2" d="m32.22,17.22c1.61,0,1.61-2.5,0-2.5s-1.61,2.5,0,2.5h0Z"/>
      <path class="cls-2" d="m45.04,20.91c-3.06-1.31-6.65-.17-7.96,3.02-.59,1.44-.67,3.22.07,4.62s2.24,2.32,3.77,1.67,2.03-2.46,2.57-3.87c.69-1.8,1.29-3.63,1.8-5.49,1.02-3.71,1.67-7.51,1.99-11.35.12-1.42-2.11-1.68-2.46-.33-.93,3.66-1.36,7.45-1.21,11.22.12,3.09.21,7,2.94,9,1.3.95,2.55-1.22,1.26-2.16-.97-.71-1.21-2.13-1.39-3.24-.24-1.55-.33-3.13-.34-4.7-.03-3.2.36-6.36,1.15-9.46l-2.46-.33c-.44,5.23-1.59,10.4-3.39,15.33-.23.62-.46,1.24-.71,1.86-.11.26-.37,1.13-.69,1.21-.83.21-.91-1.74-.85-2.2.31-2.14,2.62-3.5,4.63-2.63.63.27,1.33.18,1.71-.45.31-.52.17-1.44-.45-1.71h0Z"/>
      <path class="cls-2" d="m55.6,24.6c1.37.16,2.88.22,4.05-.63,1.06-.77,1.74-2.11,1.34-3.41-.38-1.23-1.64-2.02-2.81-2.39-1.05-.33-2.22-.32-3.28-.04-2.26.59-3.88,2.43-4.14,4.75-.24,2.18.84,4.51,2.73,5.63,1.01.6,2.19.83,3.32,1.1.28.07.57.14.85.22.11.03.21.06.32.1.04.01.42.15.25.08.23.1.46.22.66.36.31.21-.13-.15.14.11.04.04.32.35.23.23.4.54,1.08.81,1.71.45.54-.31.85-1.16.45-1.71-1.15-1.57-2.87-1.99-4.67-2.41-.4-.09-.8-.19-1.19-.32s-.57-.2-.96-.46c-.18-.12-.42-.34-.65-.62.11.14-.05-.07-.07-.11-.05-.07-.09-.14-.14-.22-.05-.09-.11-.19-.15-.28-.11-.22.01.07-.08-.18-.11-.29-.23-.78-.25-.97,0,0-.02-.35-.02-.48,0-.09,0-.17.01-.26,0-.28-.03.07.02-.18.09-.42.16-.65.3-.91.04-.08.08-.15.13-.22-.02.03.22-.31.13-.19.04-.05.27-.28.38-.39.17-.16.07-.08.31-.23.16-.1.33-.2.51-.28.19-.09-.14.05.06-.03.1-.04.2-.07.31-.11.21-.06.42-.11.63-.15-.16.03.23-.02.31-.02.21,0,.43,0,.65.02-.19-.02.23.05.3.07.1.03.21.06.31.09.05.02.27.1.12.04.33.14.69.4.88.6-.07-.07.11.26.03.03v.13c.02-.12.01-.1-.02.05,0,.02-.1.21-.03.07,0,.01-.2.28-.12.2-.22.26-.47.39-.9.45-.63.1-1.31,0-1.94-.08-.67-.08-1.25.63-1.25,1.25,0,.74.58,1.17,1.25,1.25h0Z"/>
      <path class="cls-2" d="m70.73,19.71c-2.21,1.13-3.23,3.81-2.72,6.17s2.56,4.28,4.84,4.99c2.41.75,5.05-.1,6.21-2.43,1.01-2.03.82-4.39-.62-6.16-1.63-2-4.48-2.7-6.93-2.12-.66.16-1.05.9-.87,1.54.18.67.88,1.03,1.54.87.12-.03.24-.05.36-.08.04,0,.24-.03.03,0,.2-.02.41-.04.61-.04s.41.01.61.03c.25.02.09,0,.03,0,.14.02.28.05.42.08.18.04.36.09.53.15.12.04.23.08.34.13-.18-.08,0,0,.03.02.18.09.36.18.53.29.09.05.17.11.25.17.07.05.07.05-.01-.02.06.05.12.1.18.15.15.13.29.27.42.42.05.06.11.12.15.18-.13-.17.02.05.05.09.1.15.18.31.26.46.16.3-.05-.22.04.11.03.11.07.21.1.32.02.09.04.18.06.27.04.21-.01-.3,0,.05.01.18.02.37.02.55,0,.07-.01.15-.01.22,0,.35.03-.16,0,.05s-.08.4-.14.59c-.03.11-.07.21-.11.31.02-.05.1-.21,0,0-.08.16-.16.32-.26.48-.04.06-.08.12-.12.18-.18.28.16-.15-.07.09-.14.14-.27.28-.42.41s.24-.13-.05.03c-.06.03-.12.08-.18.11-.09.05-.19.1-.29.15.06-.03.21-.06,0,0-.47.11-.85.18-1.28.13-.23-.03-.46-.09-.68-.16-.19-.06-.46-.16-.54-.19-.18-.08-.35-.18-.52-.28-.11-.07-.22-.14-.33-.21-.03-.02-.31-.23-.17-.12-.34-.27-.66-.58-.92-.93.04.05.09.13-.04-.06-.06-.09-.12-.18-.18-.27s-.11-.19-.16-.28c0,0-.16-.35-.09-.17-.1-.24-.17-.49-.23-.75-.02-.08-.04-.17-.05-.25.03.23,0-.18,0-.23,0-.1,0-.21,0-.31,0-.01.04-.4,0-.17.04-.25.1-.49.18-.73.03-.08.05-.16.08-.24-.08.19.09-.17.11-.21.05-.09.1-.18.16-.27,0,0,.22-.31.09-.15.15-.19.33-.37.52-.52-.14.12.02-.01.04-.03.14-.09.28-.17.43-.25.6-.31.78-1.15.45-1.71-.36-.61-1.11-.76-1.71-.45h0Z"/>
      <path class="cls-2" d="m89.22,17.51c-1.57.76-2.97,1.88-4.04,3.26-.49.64-.5,1.5.25,1.96,1.51.93,3.02,1.86,4.53,2.79.6.37,1.32.7,1.81,1.22.16.16.22.3.28.5-.06-.2-.03.18,0-.05-.01.08-.04.15-.06.23.04-.1.04-.11,0-.03-.03.05-.06.1-.1.15.06-.08.06-.08,0-.02-.03.04-.32.27-.18.17-.11.08-.23.14-.34.2-.19.1.01.01-.21.09-.13.05-.27.09-.4.12,0,0-.41.07-.22.05-.32.04-.64.02-.96-.02-1.64-.2-3.26-.73-4.88-.12-.63.24-1.06.84-.87,1.54.17.61.9,1.11,1.54.87,1.69-.63,3.45.39,5.18.23,1.57-.14,3.29-.94,3.83-2.52.65-1.88-.8-3.31-2.26-4.21-1.81-1.13-3.62-2.23-5.44-3.35l.25,1.96c.96-1.24,2.13-2.19,3.54-2.87.61-.29.77-1.16.45-1.71-.36-.62-1.1-.74-1.71-.45h0Z"/>
      <path class="cls-2" d="m100.49,21.25v7.48c0,.65.57,1.28,1.25,1.25s1.25-.55,1.25-1.25v-7.48c0-.65-.57-1.28-1.25-1.25s-1.25.55-1.25,1.25h0Z"/>
      <path class="cls-2" d="m101.74,17.66c1.61,0,1.61-2.5,0-2.5s-1.61,2.5,0,2.5h0Z"/>
      <path class="cls-2" d="m112.68,9.73c1.22,6.4,1.69,12.92,1.45,19.43-.06,1.61,2.44,1.61,2.5,0,.25-6.74-.27-13.48-1.54-20.1-.3-1.58-2.71-.91-2.41.66h0Z"/>
      <path class="cls-2" d="m111.43,19.47c2.79-.3,5.57-.61,8.36-.91.65-.07,1.28-.52,1.25-1.25-.03-.62-.55-1.33-1.25-1.25-2.79.3-5.57.61-8.36.91-.65.07-1.28.52-1.25,1.25.03.62.55,1.33,1.25,1.25h0Z"/>
      <path class="cls-2" d="m128.62,22.54c1.28.73,2.71,1.48,4.23,1.42,1.28-.05,2.42-.68,3.13-1.76s.75-2.53-.11-3.55-2.33-1.24-3.61-1.31c-1.41-.08-2.87.13-4.2.58s-2.8,1.12-3.07,2.68c-.2,1.21.09,2.59.48,3.73s.9,2.19,1.59,3.15c1.6,2.2,3.84,3.87,6.49,4.57,1.56.41,2.22-2,.66-2.41-3.11-.82-5.63-3.37-6.49-6.47-.1-.36-.19-.74-.24-1.11-.03-.25-.16-.82-.05-1.07s.55-.38.78-.48c.49-.2,1.01-.35,1.52-.47.96-.22,1.96-.26,2.94-.17.33.03.69.07,1,.21s.36.22.36.39c0,.08-.14.39-.3.57-.22.24-.47.38-.78.42-1.07.13-2.17-.58-3.06-1.08-1.4-.8-2.66,1.36-1.26,2.16h0Z"/>
      <rect class="cls-1" width="143.05" height="44.28"/>
    </g>
  </g>
</svg>