<?xml version="1.0" encoding="UTF-8"?>
<svg id="Layer_2" data-name="Layer 2" xmlns="http://www.w3.org/2000/svg" viewBox="0 0 143.07 44.28">
  <defs>
    <style>
      .cls-1 {
        fill: none;
      }

      .cls-2 {
        fill: #f6f6f6;
      }

      .cls-3 {
        fill: #be3428;
      }
    </style>
  </defs>
  <g id="Layer_1-2" data-name="Layer 1">
    <g>
      <path class="cls-3" d="m30.17,42.07c-5.19,1.79-11.71-5.3-14.2-1.19-1.28,2.1-6.7,4.91-9.46.99-1.2-1.7-1.75-2.27-2.4-4.46C2.53,32.07,1.01,22.42.08,16.93-.06,16.1-.05,5.58.38,4.86c.35-.59,1-.9,1.62-1.16C9.21.73,17.26,1.48,25.01,1.69c10.73.29,21.46-.57,32.19-.96,18.02-.66,36.05-.03,54.07.6,5.16.18,10.49.4,15.15,2.73,1.25.62,2.51,1.41,3.89,1.41.85,0,1.67-.3,2.49-.53,3.72-1.04,8.54-.01,9.87,3.74.42,1.2.42,2.51.42,3.79-.02,5.71-.05,11.42-.07,17.13,0,2.19-.04,4.46-.95,6.43-1.19,2.56-3.73,4.21-6.38,4.93-2.65.72-5.43.63-8.16.53-9.02-.31-18.04-.63-27.06-.94-2.84-.1-5.76-.22-8.33-1.46-1.14-.55-2.19-1.31-3.39-1.66-1.05-.3-2.16-.27-3.24-.2-10.54.67-20.69,4.76-31.23,5.17-8.03.32-16.12-1.51-24.08-.32"/>
      <rect class="cls-1" x="0" width="143.05" height="44.28"/>
    </g>
    <g>
      <path class="cls-2" d="m88.42,20.52c1.33.12,2.72.06,3.86-.64.18-.11.36-.25.45-.44.23-.47-.13-1.02-.53-1.35-1.2-1.01-2.97-1.29-4.43-.7s-2.52,2.03-2.67,3.6c-.03.33-.02.67.09.98.11.29.31.55.55.75,1.17,1.02,2.94.9,4.33,1.59.76.38,1.37.98,1.97,1.58.29.3.6.62.69,1.02.18.82-.62,1.58-1.45,1.72s-1.66-.13-2.48-.3c-1.01-.21-2.05-.27-3.08-.31-.45-.02-.92-.03-1.31.17s-.68.7-.49,1.11c.12.26.4.41.66.53,2.77,1.29,5.94,1.69,8.94,1.13.24-.04.49-.1.7-.23.24-.15.42-.39.55-.64.93-1.69.29-3.91-1.07-5.28s-3.27-2.02-5.17-2.39c-.45-.09-.91-.17-1.27-.45s-.56-.82-.3-1.2c.3-.43.94-.37,1.45-.27"/>
      <path class="cls-2" d="m88.42,20.77c1.11.09,5.41,0,4.52-2.12-.73-1.74-3.48-2.12-5.04-1.57-1.76.62-3.2,2.49-3.05,4.41.16,2.22,3.04,2.28,4.61,2.84.67.24,1.23.63,1.76,1.11.45.41,1.26,1.03,1.3,1.68.06.83-.91,1.28-1.6,1.32-.77.05-1.54-.24-2.3-.38-1.14-.21-2.48-.4-3.64-.26-.7.08-1.53.61-1.35,1.43s1.54,1.16,2.23,1.4c1.16.4,2.37.66,3.59.77s2.46.08,3.67-.11c1.03-.16,1.66-.46,2.07-1.47.84-2.1-.29-4.47-1.99-5.77-.95-.73-2.08-1.2-3.23-1.53-.61-.17-1.23-.27-1.84-.43-.33-.09-.98-.3-1-.73-.02-.37.23-.63.57-.66.22-.02.44.03.65.07.31.06.45-.42.13-.48-.58-.11-1.36-.2-1.74.38-.33.51-.07,1.17.37,1.52.66.54,1.72.55,2.51.76.98.26,1.94.63,2.79,1.17,1.71,1.09,3.03,3.22,2.38,5.29-.19.61-.52,1.12-1.16,1.29-.57.15-1.2.2-1.79.24-1.18.08-2.37.02-3.53-.18s-2.31-.54-3.39-1.02c-.15-.07-.41-.14-.53-.26-.44-.47-.2-.97.39-1.13s1.25-.04,1.84,0c1.23.08,2.39.4,3.6.56.81.11,1.67,0,2.27-.61,1.38-1.39-.5-2.96-1.61-3.76-.75-.55-1.6-.79-2.49-1-.97-.23-2.23-.44-2.81-1.34-.7-1.07.09-2.72.85-3.54s1.87-1.32,3.03-1.29c.96.02,4.01.97,2.68,2.33-.41.42-1.4.56-1.95.62-.59.06-1.19.04-1.78-.01-.32-.03-.32.47,0,.5h0Z"/>
    </g>
    <g>
      <path class="cls-2" d="m102.79,22.76c-.24,1.96-.49,3.92-.73,5.87-.11.86-.11,1.92.64,2.34.6.34,1.4.02,1.82-.53s.56-1.25.69-1.93c.33-1.78.67-3.57,1-5.35.02-.12.04-.26-.04-.35-.07-.08-.19-.08-.3-.08-.82,0-2.26.01-3.08.02"/>
      <path class="cls-2" d="m102.54,22.76c-.24,1.9-.48,3.81-.71,5.71-.13,1.05-.15,2.73,1.26,2.88,1.57.17,2.13-1.56,2.36-2.77.17-.92.34-1.84.51-2.75.08-.45.17-.89.25-1.34s.22-.92.25-1.38c.05-.77-.82-.62-1.34-.61-.78,0-1.56,0-2.34.02-.32,0-.32.5,0,.5.53,0,1.07,0,1.6-.01.28,0,.57,0,.85,0,.19,0,.63-.09.73.11.05.1-.08.43-.1.55-.03.18-.07.37-.1.55-.07.37-.14.73-.21,1.1-.14.73-.27,1.47-.41,2.2-.21,1.1-.32,3.22-1.8,3.36s-1.06-2.06-.95-2.88c.22-1.74.43-3.48.65-5.22.04-.32-.46-.32-.5,0h0Z"/>
    </g>
    <g>
      <path class="cls-2" d="m103.12,18.36c.73.05,2.03,1.69,2.67,1.34s1.09-1.17.77-1.83c-.29-.61-1.11-.82-1.76-.63s-1.18.66-1.68,1.12"/>
      <path class="cls-2" d="m103.12,18.98c.1,0-.17-.05-.07,0,.02,0,.05.02.08.02.15.04-.13-.07.01,0,.12.07.24.14.36.21.25.17.49.36.74.55.49.36,1.13.79,1.75.53.78-.33,1.38-1.25,1.29-2.11-.11-.99-.96-1.58-1.91-1.63-1.07-.05-1.94.68-2.69,1.36-.24.22-.24.66,0,.88.26.24.63.24.88,0,.14-.13.28-.26.42-.38.03-.02.06-.05.09-.07,0,0,.14-.11.07-.06s.08-.06.07-.05c.05-.03.09-.07.14-.1.08-.05.16-.1.24-.14.03-.02.07-.04.1-.05.01,0,.18-.08.06-.03.08-.03.16-.06.23-.08.04,0,.07-.02.11-.03.13-.03-.13,0,.02,0,.08,0,.15,0,.23,0,.03,0,.06,0,.09,0,.15,0-.09-.03,0,0,.06.02.13.03.2.05.04.01.17.03.02,0,.04,0,.08.04.12.06.03.01.05.03.08.05.12.06-.05-.07,0,0,.03.04.13.09.14.14l-.04-.06s.03.05.05.07c.02.03.03.05.04.08-.06-.12-.02-.04,0,0,0,.02.01.04.02.07.01.07.01.06,0-.03.03.04,0,.15,0,.21.01.08.03-.14,0,0,0,.03-.01.06-.02.09-.01.04-.03.07-.04.11-.03.09.07-.13,0,0-.04.08-.09.15-.14.23-.05.08.1-.11,0,0-.02.02-.04.05-.07.07-.03.03-.21.18-.09.09-.06.05-.14.08-.2.13-.03.02-.14.04.08-.04-.11.04.04-.01.07,0-.01,0-.06,0-.07,0-.06,0-.03-.06.09.01-.03-.02-.1-.03-.14-.04-.15-.05.12.07-.02,0-.05-.03-.1-.05-.15-.08-.22-.13-.43-.29-.64-.44-.48-.36-.96-.77-1.59-.83-.33-.03-.64.31-.62.62.02.36.28.59.62.62h0Z"/>
    </g>
    <g>
      <path class="cls-2" d="m113.59,32.66c.41-4.06.42-8.17.03-12.23l-2.09.29c-.2.03-.43.05-.59-.11-.09-.1-.14-.24-.18-.39-.21-.87.05-1.91.66-2.43s1.52-.45,2.04.2c.29-1.86.58-3.72.87-5.58.03-.22.07-.45.21-.6.15-.17.36-.18.56-.19.87-.03,1.73-.06,2.6-.09.47-.02,1.08.08,1.21.64.06.28-.03.57-.12.84-.44,1.32-.89,2.64-1.33,3.96,1.31-.08,2.61-.17,3.92-.25.11.77.21,1.56.07,2.32s-.58,1.49-1.2,1.65c-.46.11-.92-.09-1.38-.18s-1.01,0-1.25.5c-.12.25-.13.56-.13.85-.06,3.32-.17,6.64-.34,9.95-.02.38-.04.77-.18,1.12-.26.66-.89.99-1.49.99s-1.36-1.01-1.92-1.27"/>
      <path class="cls-2" d="m113.84,32.66c.39-4.07.41-8.16.03-12.23-.02-.18-.15-.26-.32-.24-.82.11-2.59.65-2.61-.57s1.15-2.68,2.35-1.45c.12.12.39.08.42-.11.18-1.14.36-2.29.53-3.43.09-.56.12-1.17.27-1.72.1-.37.19-.83.6-1.03.26-.13.8-.03,1.08-.04.46-.02,1.21-.19,1.64-.05.31.1.76.71.77,1.03,0,.22-.17.53-.24.73-.38,1.12-.75,2.24-1.13,3.37-.05.15.08.33.24.32,1.31-.08,2.61-.17,3.92-.25l-.25-.25c.15,1.09.53,3.63-1.22,3.75-.69.05-1.24-.45-1.94-.11-1.14.54-.74,2.48-.76,3.45-.05,2.09-.12,4.18-.22,6.28-.04,1,.23,3.14-1.05,3.51-.92.27-1.53-.76-2.24-1.16-.28-.16-.53.27-.25.43,1.11.65,2.12,2.09,3.4.72.6-.64.55-1.61.59-2.42.07-1.37.12-2.74.17-4.11.05-1.3.08-2.6.11-3.9,0-.36.01-.72.02-1.08.01-.49.32-1.18.85-1.34.39-.12,1.05.26,1.49.22,1.93-.19,1.72-2.93,1.55-4.24-.02-.13-.1-.26-.25-.25-1.31.08-2.61.17-3.92.25l.24.32c.31-.92.62-1.85.93-2.77.2-.6.66-1.44.53-2.1-.19-.91-1.15-.89-1.89-.87-.94.03-2.66-.36-3.11.72-.34.81-.33,2.03-.47,2.9-.16,1-.31,2-.47,3.01l.42-.11c-1.19-1.22-2.8-.39-3.13,1.14-.11.5-.17,1.43.25,1.83.61.57,2.25-.02,2.92-.11l-.32-.24c.37,4.07.36,8.16-.03,12.23-.03.32.47.32.5,0h0Z"/>
    </g>
    <g>
      <path class="cls-2" d="m132.6,24.63c0-.32.1-.99-.1-1.25-.31-.41-2.49-.09-3.02-.24-.73-.21-1.46-.42-2.18-.63-.56-.16-1.21-.32-1.71-.04-.39.21-.58.62-.74,1-.52,1.19-1.04,2.42-1.03,3.7.02,1.73,1.04,3.37,2.49,4.5s3.28,1.8,5.14,2.18c.26.05.57.09.76-.08.15-.14.16-.35.15-.55-.05-1.07-.44-2.21-1.4-2.83-.6-.38-1.35-.53-1.98-.85-.64-.33-1.19-1-.94-1.62,1.01.4,3.41-.27,4.33-.82.92-.55.24-1.47.23-2.47Zm-3.16,2.21c-.35.13-.76.13-1.14.11-.69-.03-1.5-.18-1.8-.69-.11-.19-.13-.4-.13-.61.01-.37.12-.75.42-1.03.29-.28.8-.43,1.22-.29,2.03-.06,1.59,1.06,1.8,1.35.1.13.19.27.22.42.05.31-.24.61-.59.75Z"/>
      <g>
        <path class="cls-2" d="m132.85,24.63c.02-.75.15-1.53-.76-1.68-.82-.13-1.67.09-2.48-.05-.68-.12-1.36-.39-2.02-.58-.58-.17-1.22-.37-1.82-.2-.48.14-.78.5-1,.92-.3.6-.55,1.24-.77,1.87-.43,1.25-.58,2.56-.14,3.83.4,1.14,1.15,2.14,2.07,2.92.99.83,2.16,1.42,3.38,1.85.68.24,1.38.44,2.09.57.4.07.9.1,1.13-.31.24-.44.06-1.13-.06-1.59-.15-.57-.41-1.11-.81-1.54-.43-.47-1.01-.72-1.6-.94-.7-.26-2.07-.71-1.77-1.72l-.31.17c1.17.42,2.73-.07,3.83-.51.46-.19,1-.4,1.21-.89.28-.66-.13-1.45-.16-2.12-.01-.32-.51-.32-.5,0,.02.55.29,1.13.25,1.68-.05.61-.84.83-1.32,1-.94.33-2.19.71-3.17.37-.13-.05-.27.05-.31.17-.24.79.32,1.49.98,1.86.96.55,2.12.62,2.78,1.62.26.39.41.85.49,1.31.03.16.13.56.07.73-.17.47-.84.19-1.17.11-1.15-.27-2.28-.66-3.31-1.24-1.91-1.06-3.63-2.96-3.56-5.28.04-1.24.56-2.49,1.09-3.59.32-.67.81-.9,1.55-.76.62.12,1.23.33,1.83.51.42.12.84.28,1.28.3.37.02.75,0,1.12-.01.34,0,.88-.09,1.2.06.38.18.21.8.21,1.16,0,.32.49.32.5,0Z"/>
        <path class="cls-2" d="m129.37,26.6c-.41.14-.86.12-1.29.09-.33-.03-.69-.08-.99-.23-.36-.18-.5-.46-.47-.86.02-.38.19-.74.52-.93.36-.21.71-.09,1.1-.08.27,0,.57.03.82.15.17.08.24.16.32.3.03.06,0,0,.02.06.01.03.02.07.03.1.02.07.03.13.04.2.02.13.03.27.1.39.08.13.23.27.2.44-.03.19-.25.32-.41.38-.3.12-.17.6.13.48.4-.16.82-.5.77-.99-.02-.23-.15-.39-.27-.58-.02-.03.02.05,0,.01,0-.01,0-.03-.01-.04,0-.03-.01-.07-.02-.1-.07-.42-.17-.78-.54-1.03-.28-.19-.64-.25-.97-.27-.12,0-.24,0-.37-.01s-.24-.04-.36-.05c-.24-.02-.48.04-.69.13-.87.37-1.29,1.73-.59,2.45.33.34.84.47,1.29.54.57.08,1.2.13,1.75-.07.3-.1.17-.59-.13-.48Z"/>
      </g>
    </g>
    <g>
      <path class="cls-2" d="m59.83,21.75c0-.32.1-.99-.1-1.25-.31-.41-2.49-.09-3.02-.24-.73-.21-1.46-.42-2.18-.63-.56-.16-1.21-.32-1.71-.04-.39.21-.58.62-.74,1-.52,1.19-1.04,2.42-1.03,3.7.02,1.73,1.04,3.37,2.49,4.5,1.45,1.13,3.28,1.8,5.14,2.18.26.05.57.09.76-.08.15-.14.16-.35.15-.55-.05-1.07-.44-2.21-1.4-2.83-.6-.38-1.35-.53-1.98-.85-.64-.33-1.19-1-.94-1.62,1.01.4,3.41-.27,4.33-.82.92-.55.24-1.47.23-2.47Zm-3.16,2.21c-.35.13-.76.13-1.14.11-.69-.03-1.5-.18-1.8-.69-.11-.19-.13-.4-.13-.61.01-.37.12-.75.42-1.03.29-.28.8-.43,1.22-.29,2.03-.06,1.59,1.06,1.8,1.35.1.13.19.27.22.42.05.31-.24.61-.59.75Z"/>
      <g>
        <path class="cls-2" d="m60.08,21.75c.02-.75.15-1.53-.76-1.68-.82-.13-1.67.09-2.48-.05-.68-.12-1.36-.39-2.02-.58-.58-.17-1.22-.37-1.82-.2-.48.14-.78.5-1,.92-.3.6-.55,1.24-.77,1.87-.43,1.25-.58,2.56-.14,3.83.4,1.14,1.15,2.14,2.07,2.92.99.83,2.16,1.42,3.38,1.85.68.24,1.38.44,2.09.57.4.07.9.1,1.13-.31.24-.44.06-1.13-.06-1.59-.15-.57-.41-1.11-.81-1.54-.43-.47-1.01-.72-1.6-.94-.7-.26-2.07-.71-1.77-1.72l-.31.17c1.17.42,2.73-.07,3.83-.51.46-.19,1-.4,1.21-.89.28-.66-.13-1.45-.16-2.12-.01-.32-.51-.32-.5,0,.02.55.29,1.13.25,1.68-.05.61-.84.83-1.32,1-.94.33-2.19.71-3.17.37-.13-.05-.27.05-.31.17-.24.79.32,1.49.98,1.86.96.55,2.12.62,2.78,1.62.26.39.41.85.49,1.31.03.16.13.56.07.73-.17.47-.84.19-1.17.11-1.15-.27-2.28-.66-3.31-1.24-1.91-1.06-3.63-2.96-3.56-5.28.04-1.24.56-2.49,1.09-3.59.32-.67.81-.9,1.55-.76.62.12,1.23.33,1.83.51.42.12.84.28,1.28.3.37.02.75,0,1.12-.01.34,0,.88-.09,1.2.06.38.18.21.8.21,1.16,0,.32.49.32.5,0Z"/>
        <path class="cls-2" d="m56.61,23.71c-.41.14-.86.12-1.29.09-.33-.03-.69-.08-.99-.23-.36-.18-.5-.46-.47-.86.02-.38.19-.74.52-.93.36-.21.71-.09,1.1-.08.27,0,.57.03.82.15.17.08.24.16.32.3.03.06,0,0,.02.06.01.03.02.07.03.1.02.07.03.13.04.2.02.13.03.27.1.39.08.13.23.27.2.44-.03.19-.25.32-.41.38-.3.12-.17.6.13.48.4-.16.82-.5.77-.99-.02-.23-.15-.39-.27-.58-.02-.03.02.05,0,.01,0-.01,0-.03-.01-.04,0-.03-.01-.07-.02-.1-.07-.42-.17-.78-.54-1.03-.28-.19-.64-.25-.97-.27-.12,0-.24,0-.37-.01s-.24-.04-.36-.05c-.24-.02-.48.04-.69.13-.87.37-1.29,1.73-.59,2.45.33.34.84.47,1.29.54.57.08,1.2.13,1.75-.07.3-.1.17-.59-.13-.48Z"/>
      </g>
    </g>
    <g>
      <path class="cls-2" d="m28.61,24.02l-.73,5.59c-.11.81-.11,1.83.64,2.23.6.32,1.4.02,1.82-.5s.56-1.19.69-1.84c.33-1.7.67-3.4,1-5.09.02-.11.04-.25-.04-.33-.07-.07-.19-.08-.3-.08-.82,0-2.26.01-3.08.02"/>
      <path class="cls-2" d="m28.36,24.02c-.24,1.84-.48,3.68-.72,5.51-.13,1.03-.06,2.56,1.28,2.68,1.5.14,2.1-1.4,2.34-2.59.17-.87.34-1.74.51-2.61.08-.42.17-.85.25-1.27.09-.45.23-.93.27-1.39.07-.79-.91-.6-1.43-.6-.75,0-1.5,0-2.25.01-.32,0-.32.5,0,.5.53,0,1.07,0,1.6-.01.27,0,.55,0,.82,0,.16,0,.67-.09.76.08.04.08-.09.44-.1.52-.03.17-.07.35-.1.52-.07.35-.14.7-.21,1.05-.14.72-.28,1.45-.43,2.17-.21,1.08-.34,2.93-1.75,3.1s-1.12-1.74-1.01-2.57l.67-5.13c.04-.32-.46-.32-.5,0h0Z"/>
    </g>
    <g>
      <path class="cls-2" d="m28.94,19.83c.73.05,2.03,1.61,2.67,1.28s1.09-1.11.77-1.74c-.29-.58-1.11-.78-1.76-.6s-1.18.63-1.68,1.06"/>
      <path class="cls-2" d="m28.94,20.46c.11,0-.17-.05-.06,0,.03,0,.05.01.08.02.02,0,.04.01.06.02.11.03-.14-.07-.03-.01.12.07.25.14.37.22.25.16.49.35.73.52.47.33,1.08.72,1.68.51.83-.3,1.45-1.26,1.33-2.13-.13-.95-1.02-1.47-1.91-1.51-1.06-.04-1.92.65-2.68,1.31-.25.22-.24.67,0,.88.26.24.62.23.88,0,.14-.12.27-.24.41-.35.02-.02.12-.1.03-.03.03-.02.06-.05.09-.07.08-.06.17-.12.26-.18.07-.05.15-.09.22-.13.04-.02.09-.04.13-.06.09-.05-.13.04.03-.01.08-.03.16-.06.24-.08.04,0,.08-.02.11-.03.13-.03-.12,0,.02,0,.07,0,.14,0,.21,0,.04,0,.08,0,.12,0,.1,0-.01.02-.03,0,0,.02.2.05.23.05.02,0,.08.02.09.03-.07-.03-.09-.04-.04-.02.02,0,.04.02.06.03.03.01.05.03.08.04l.04.02c.06.04.05.03-.02-.02.05.01.09.09.13.12.09.09-.02-.07,0,0,0,.03.06.07.06.1,0-.03-.03-.11,0-.02,0,.01.05.12.03.13v-.08s0,.06,0,.09c0,.01,0,.09,0,.09,0,0,.03-.13,0-.03,0,.04-.02.07-.03.11,0,.03-.02.08-.04.11.07-.08.03-.06,0-.02-.04.08-.09.15-.14.22-.05.08.1-.11,0,0-.02.02-.04.05-.07.07-.03.03-.06.06-.09.08-.03.03-.12.08,0,0-.06.04-.12.08-.18.11-.09.06.16-.06.06-.02-.09.03-.03-.04.07,0-.02,0-.19-.01-.05,0,.13.01-.02-.01-.06-.02-.02,0-.05-.02-.07-.03-.08-.02.15.08.04.02-.05-.03-.1-.05-.15-.08-.22-.12-.42-.27-.62-.41-.49-.35-.98-.75-1.6-.8-.33-.03-.64.31-.62.62.02.36.28.6.62.62h0Z"/>
    </g>
    <g>
      <path class="cls-2" d="m44.39,10.46c.18,4.3-.76,9.18-2.18,13.25-1.12-.42-2.43-.26-3.42.41-.36.24-.67.54-.91.9-.83,1.27-1.71,3.54-.44,4.36,1.64,1.06,5.56,1.69,6.69.09s1.07-5.55,1.27-7.5c.41-3.86.82-7.73,1.23-11.59-.75-.06-1.51-.03-2.25.08Zm-1.42,16.5c-.09.26-.19.53-.39.72-.12.12-.27.2-.42.26-.83.34-1.89.15-2.45-.55-.13-.17-.24-.36-.27-.57-.03-.21.02-.44.17-.6.26-.27.69-.24,1.06-.19.43.17,1.96.3,2.25.66.03.04.07.09.07.14,0,.04-.01.09-.02.13Z"/>
      <g>
        <path class="cls-2" d="m44.14,10.46c.16,4.48-.72,8.96-2.17,13.18l.31-.17c-2.61-.85-4.7.81-5.48,3.23-.26.81-.43,1.87.17,2.58s1.73.98,2.55,1.17c1.63.38,4.09.56,5.02-1.17,1.06-1.96.9-4.57,1.07-6.73.31-4.06.85-8.12,1.28-12.17.01-.14-.13-.24-.25-.25-.78-.05-1.54-.02-2.32.09-.32.04-.18.53.13.48.73-.1,1.45-.12,2.19-.07l-.25-.25c-.38,3.61-.77,7.23-1.15,10.84-.25,2.39-.06,5.03-.91,7.31-.9,2.42-4.42,1.81-6.27.9-1.45-.71-1.01-2.28-.42-3.47.87-1.76,2.58-2.64,4.51-2.01.13.04.27-.05.31-.17,1.46-4.26,2.35-8.8,2.19-13.31-.01-.32-.51-.32-.5,0Z"/>
        <path class="cls-2" d="m42.73,26.89c-.1.29-.21.58-.49.74-.23.13-.51.21-.78.22-.54.03-1.1-.13-1.47-.53-.19-.2-.37-.5-.27-.79s.4-.3.65-.29c.2,0,.36.06.55.1.21.05.43.08.64.13.26.05.52.1.78.18.09.03.18.06.26.1.07.04.16.06.13.14-.09.31.39.44.48.13.21-.68-.77-.87-1.23-.97-.28-.06-.57-.11-.85-.17s-.52-.13-.8-.14c-.38-.01-.79.09-1,.43s-.17.8.03,1.15c.37.66,1.13,1.01,1.87,1.03.41.01.84-.08,1.21-.27.43-.22.62-.62.77-1.06.11-.3-.38-.44-.48-.13Z"/>
      </g>
    </g>
    <g>
      <path class="cls-2" d="m7.06,13.87c2.01,5.99,4.81,11.71,8.32,16.96.24.36.53.75.96.83.25.05.51-.03.75-.11,4.06-1.4,6.1-5.81,7.71-9.79.74-1.83,1.48-3.67,1.81-5.62.22-1.29.1-2.89-1.05-3.52-1.36-.74-2.98.49-3.78,1.82-1.69,2.81-1.99,6.46-4.36,8.72-1.74-2.97-3.47-5.94-5.21-8.9-.8-1.37-1.7-2.82-3.16-3.42-.59-.24-1.3-.32-1.86-.01s-.45,2.48-.13,3.04"/>
      <path class="cls-2" d="m6.82,13.93c1.54,4.57,3.52,8.99,5.94,13.16.57.98,1.16,1.95,1.78,2.91.38.59.8,1.52,1.49,1.82,1.34.58,3.45-1.18,4.34-2.03,2.74-2.62,4.17-6.5,5.46-9.98.65-1.75,1.5-3.97.98-5.86-.36-1.31-1.56-2.09-2.89-1.66-1.87.61-2.77,2.64-3.43,4.32-.88,2.24-1.49,4.63-3.24,6.38l.39.05c-1.28-2.2-2.57-4.39-3.85-6.59-1.03-1.76-1.97-3.95-3.62-5.24-.78-.6-2.62-1.43-3.36-.34-.52.76-.32,2.33.04,3.11.14.29.57.04.43-.25-.22-.48-.24-1.09-.23-1.6.02-.78.16-1.28,1.06-1.26,1.77.04,2.93,1.9,3.73,3.24,1.82,3.04,3.58,6.12,5.37,9.18.08.14.28.16.39.05,2.26-2.26,2.66-5.51,4.1-8.24.43-.81.97-1.57,1.76-2.05,1.09-.67,2.4-.39,2.82.9.57,1.75-.28,3.9-.87,5.53-1.14,3.14-2.43,6.53-4.62,9.11-.96,1.13-2.77,2.91-4.35,2.59-.74-.15-.87-.51-1.27-1.13-.28-.42-.55-.85-.81-1.28-.53-.86-1.05-1.73-1.55-2.61-2.23-3.94-4.06-8.09-5.51-12.39-.1-.3-.59-.17-.48.13h0Z"/>
    </g>
    <g>
      <path class="cls-2" d="m81.28,21.87c-.32-.98-1.16-1.72-2.09-2.17s-3.84-.72-4.86-.9c-1.87-.3-3.83-.07-5.58.64-.33.13-.66.29-.9.56-.28.31-.39.74-.5,1.15-.32,1.27-.65,2.55-.64,3.86,0,1.31.37,2.66,1.26,3.62.61.65,1.42,1.07,2.24,1.41,1.52.61,3.24.96,4.78.42,1.42-.5,2.49-1.67,3.72-2.55.64-.46,1.35-.85,1.84-1.47.59-.74.78-1.72.86-2.67.05-.64.06-1.29-.14-1.9Zm-4.33,3.55c-.22.37-.59.64-.96.86-1.42.82-3.15,1.07-4.74.69-.22-.05-.45-.12-.6-.29-.13-.14-.19-.34-.23-.53-.12-.5-.19-1.02-.22-1.54-.01-.22-.01-.45.11-.63.14-.21.41-.29.66-.36.96-.25,1.93-.47,2.91-.65.63.7,2.6.44,3.12,1.22.24.36.18.86-.04,1.24Z"/>
      <g>
        <path class="cls-2" d="m81.52,21.81c-.95-2.56-3.69-2.77-6.02-3.09-1.43-.2-2.81-.39-4.26-.2-1.18.16-3.12.47-3.78,1.6-.35.6-.46,1.38-.61,2.04-.21.93-.39,1.88-.38,2.84,0,1.4.41,2.86,1.42,3.88,1.08,1.09,2.78,1.72,4.27,1.97s3.02-.01,4.34-.91c.76-.52,1.43-1.15,2.17-1.7.68-.5,1.45-.91,2.01-1.56,1.06-1.23,1.28-3.38.86-4.9-.09-.31-.57-.18-.48.13.38,1.38.19,3.4-.81,4.5-.44.48-1.01.81-1.54,1.18s-.98.75-1.47,1.15c-1.19.96-2.4,1.73-3.98,1.7-1.4-.02-2.9-.52-4.1-1.24-2.88-1.73-2.26-5.28-1.54-8.02.23-.87.62-1.31,1.46-1.63.64-.24,1.32-.42,1.99-.53,1.3-.21,2.55-.1,3.84.08,2.2.31,5.22.32,6.15,2.8.11.3.59.17.48-.13Z"/>
        <path class="cls-2" d="m76.73,25.29c-.52.81-1.67,1.22-2.56,1.43-.95.22-2.01.25-2.95-.02-.25-.07-.42-.18-.51-.43-.09-.24-.12-.51-.16-.76-.07-.42-.3-1.3.18-1.54.22-.11.51-.15.75-.21.27-.07.55-.13.82-.2.55-.13,1.1-.24,1.65-.34l-.24-.06c.47.49,1.24.55,1.87.67.33.07.7.12.99.31.42.26.4.78.18,1.18-.16.28.28.53.43.25.28-.5.35-1.18-.07-1.63-.3-.33-.78-.45-1.2-.54-.49-.11-1.01-.15-1.48-.34-.19-.08-.35-.29-.54-.31-.14-.02-.31.05-.45.08-.25.05-.51.1-.76.16-.38.08-.76.17-1.14.26s-.77.15-1.1.33c-.64.35-.49,1.16-.41,1.77.09.65.14,1.48.82,1.78.61.26,1.39.31,2.05.29.82-.02,1.64-.18,2.4-.49.72-.29,1.45-.68,1.88-1.34.18-.27-.26-.52-.43-.25Z"/>
      </g>
    </g>
  </g>
</svg>