<?xml version="1.0" encoding="UTF-8"?>
<svg id="Layer_2" data-name="Layer 2" xmlns="http://www.w3.org/2000/svg" viewBox="0 0 161.6 148.56">
  <defs>
    <style>
      .cls-1 {
        fill: none;
      }

      .cls-2 {
        fill: #5e000b;
      }
    </style>
  </defs>
  <g id="Layer_1-2" data-name="Layer 1">
    <path class="cls-2" d="m76.55,47.01c0-8.63.61-17.26,1.01-25.88.1-2.11.19-4.22.25-6.34.03-1.04.06-2.07.08-3.11.02-.86.27-2.13.03-2.96.08-.59-.1-.52-.56.22.01.04,0,.05-.02.03.02.06,1.81-.17,1.98-.19,1.32-.11,2.64-.2,3.96-.27s2.65-.12,3.97-.14c.66-.01,1.32-.02,1.99-.02.33,0,.66,0,.99,0,.59.04.66.02.22-.07l-.9-.9c.1.14.11,1.16.14,1.54.07.81.14,1.62.2,2.44.12,1.63.22,3.25.29,4.88.14,3.18.17,6.36.11,9.54-.12,6.38-.63,12.75-1.56,19.06-.2,1.33.33,2.69,1.75,3.08,1.18.32,2.88-.4,3.08-1.75,1.08-7.32,1.7-14.7,1.76-22.1.03-3.67-.07-7.34-.31-11-.11-1.71-.25-3.42-.41-5.12-.2-2.01-.52-3.99-2.85-4.49-1.73-.37-3.74-.11-5.49-.06s-3.64.14-5.46.27c-1.62.12-3.52.07-5.08.57-2.08.67-2.78,2.43-2.8,4.48-.05,5.9-.33,11.79-.62,17.69-.35,6.86-.75,13.73-.75,20.6,0,3.22,5,3.22,5,0h0Z"/>
    <path class="cls-2" d="m73.38,44.6c-5.45,1.06-9.93,4.74-12.97,9.26-3.52,5.22-4.79,11.55-5.27,17.73-.53,6.89-.35,13.85-.43,20.75s-.16,14.26-.24,21.4c-.09,8.13-.18,16.25-.27,24.38-.02,1.43,1.16,2.39,2.5,2.5,9.89.82,19.82,1.26,29.74,1.3,2.46.01,4.92,0,7.38-.04,2.26-.03,4.94.26,6.82-1.23s2.01-3.82,2.06-6.03c.05-2.5.11-5,.16-7.5.22-10.08.44-20.16.66-30.24.22-9.82.83-19.73.11-29.54-.33-4.49-.99-9.02-3.02-13.09-.91-1.83-2.18-3.56-3.73-4.89-.83-.71-3.52-2.15-3.35-3.19.22-1.33-.35-2.69-1.75-3.08-1.2-.33-2.85.41-3.08,1.75-.36,2.13.07,3.95,1.56,5.56,1.19,1.28,2.79,2.09,3.99,3.36,2.36,2.48,3.33,6,3.9,9.3.72,4.2.76,8.56.77,12.81,0,4.76-.14,9.52-.25,14.28-.21,9.75-.43,19.49-.64,29.24-.11,4.83-.21,9.66-.32,14.5-.02.87.05,1.8-.13,2.66-.11.5-.14.24-.1.22-.37.12-.83.07-1.21.08-2.38.06-4.76.08-7.14.09-10.83.03-21.66-.41-32.45-1.3l2.5,2.5c.15-13.68.3-27.37.46-41.05.07-6.71.09-13.43.24-20.15.13-5.87.48-12.13,3.08-17.52,2.34-4.83,6.3-8.94,11.72-9.99,1.33-.26,2.08-1.85,1.75-3.08-.38-1.39-1.75-2-3.08-1.75h0Z"/>
    <path class="cls-2" d="m58.31,111.26c3.45-.65,6.91-1.31,10.36-1.95s6.68-1.03,10.1-.49,6.92,1.05,10.46,1.32,6.78,1.08,9.97,2.4c1.25.52,2.75-.56,3.08-1.75.39-1.44-.49-2.56-1.75-3.08-3.39-1.4-6.94-2.2-10.6-2.53-1.81-.16-3.63-.2-5.43-.45s-3.55-.64-5.33-.89c-3.79-.54-7.39-.19-11.13.5s-7.37,1.39-11.06,2.08c-1.33.25-2.08,1.85-1.75,3.08.38,1.39,1.74,2,3.08,1.75h0Z"/>
    <path class="cls-2" d="m58.45,80.15c7.13-.04,14.26-.42,21.35-1.18,3.56-.38,7.12-.85,10.66-1.4,3.36-.52,6.69-1.04,10.09-.62,1.34.17,2.5-1.27,2.5-2.5,0-1.49-1.15-2.33-2.5-2.5-3.52-.44-7.02.11-10.49.65s-6.83,1-10.26,1.36c-7.09.76-14.22,1.14-21.35,1.18-3.22.02-3.22,5.02,0,5h0Z"/>
    <rect class="cls-1" width="161.6" height="148.56"/>
  </g>
</svg>