<?xml version="1.0" encoding="UTF-8"?>
<svg id="Layer_2" data-name="Layer 2" xmlns="http://www.w3.org/2000/svg" viewBox="0 0 155.16 343.29">
  <defs>
    <style>
      .cls-1 {
        fill: #f4e99a;
      }

      .cls-2 {
        fill: #65623e;
      }

      .cls-3 {
        fill: #8d0e1b;
      }

      .cls-4 {
        fill: #c2151c;
      }

      .cls-5 {
        fill: #3f0017;
      }

      .cls-6 {
        fill: #541f78;
      }

      .cls-7 {
        fill: #231f20;
      }

      .cls-7, .cls-8 {
        opacity: .2;
        stroke: #414042;
        stroke-miterlimit: 10;
      }

      .cls-8 {
        fill: #fff;
      }
    </style>
  </defs>
  <g id="Layer_2-2" data-name="Layer 2">
    <path class="cls-2" d="m149.63,186.98l-35.89,149.51c-1.06,4.41-5.5,7.13-9.9,6.08l-97.55-23.42c-4.4-1.06-7.12-5.49-6.06-9.91l38.54-160.56c3.17-13.22,10.7-25,21.38-33.43l8.34-6.6c12.67-10.02,21.85-23.72,26.29-39.19.39-1.33.73-2.66,1.04-4.01l7.61-27.83c1.03-4.45,4.3-7.31,8.75-6.24l23,5.52c4.41,1.06,7.12,5.49,6.06,9.91l-6.64,27.67c-.25,1.03-.47,2.06-.67,3.1-3.02,15.51-.99,31.62,5.86,45.94l4.03,8.41c8.2,17.14,10.25,36.56,5.81,55.04Z"/>
    <rect class="cls-4" x="95.34" y="31.74" width="48.52" height="39.96" transform="translate(41.39 155.94) rotate(-76.5)"/>
    <rect class="cls-3" x="123.52" y="8.15" width="3.47" height="39.96" transform="translate(68.66 143.36) rotate(-76.5)"/>
    <path class="cls-4" d="m154.36,20.6l-.64,2.68c-1.04,4.33-4.55,7.4-8.68,8.08-1.36.22-2.8.18-4.23-.16l-30.79-7.39c-1.43-.34-2.73-.96-3.84-1.78-3.38-2.48-5.12-6.81-4.08-11.14l.64-2.68c1.38-5.75,7.17-9.29,12.92-7.91l30.79,7.39c5.76,1.38,9.29,7.17,7.91,12.91Z"/>
    <path class="cls-6" d="m143.46,156.88c-11.93-7.48-46.33-25.97-88.48-21.25-3.09.35-5.67,2.72-6.42,5.86L9.24,305.28c-1.13,4.69,2.14,9.18,6.77,9.32,16.81.5,53.78,3.38,81.04,18.41,4.18,2.31,9.42-.24,10.58-5.07l39.08-162.8c.77-3.23-.54-6.56-3.24-8.25Z"/>
  </g>
  <g id="Layer_3" data-name="Layer 3">
    <path class="cls-7" d="m149.63,186.98l-35.89,149.51c-1.06,4.41-5.5,7.13-9.9,6.08l-48.83-11.72L133.34,4.54l13.11,3.15c5.76,1.38,9.29,7.17,7.91,12.91l-.64,2.68c-1.04,4.33-4.55,7.4-8.68,8.08l-11.1,46.23c-3.02,15.51-.99,31.62,5.86,45.94l4.03,8.41c8.2,17.14,10.25,36.56,5.81,55.04Z"/>
    <path class="cls-8" d="m38.76,121.09h2.97c1.99,0,3.6,1.61,3.6,3.6v193.29c0,2.14-1.74,3.88-3.88,3.88h-2.69c-2.14,0-3.88-1.74-3.88-3.88V124.97c0-2.14,1.74-3.88,3.88-3.88Z" transform="translate(52.8 -3.24) rotate(13.5)"/>
    <path class="cls-1" d="m45.37,150.46c11.81,1.01,59.33,6.06,100.06,24.77,1.4.64,2.1,2.4,1.69,4.15l-28.61,119.18c-.53,2.2-2.6,3.47-4.37,2.7-11.56-5.06-51.65-21.15-98.39-23.62-1.93-.1-3.19-2.19-2.66-4.39l28.77-119.87c.43-1.8,1.93-3.05,3.51-2.92Z"/>
    <g>
      <path class="cls-5" d="m52.71,171.67c-5.27,21.68-13.41,42.84-16.98,64.85-.99,6.07-2.77,11.98-3.87,17.49-.6,3.02,3.58,5.44,3.88,2.02,1.9-22.24,9.39-43.57,16.4-64.6,2.05-6.15,3.92-12.46,5.36-18.84.79-3.49-4.06-4.42-4.79-.91h0Z"/>
      <path class="cls-5" d="m31.78,254.67c.12,3.89.71,8.62,3.15,11.43,2,2.3,2.65,3.49,4.35,3.97,3.65,1.03,8.5-.53,14.21-1.52,1.35-.23,2.77-.45,4.24-.55.63-.04,1.26-.07,1.91-.05.23,0,1.25.16.41,0,.28.05.56.08.84.14,1.24.27,3.05-.51,3.3-2.02,1.09-6.65,1.34-13.37,2.37-20.02.93-6.03,2.51-12.47,6.93-17.28-1.69-.41-3.34-.79-4.94-1.16.61,3.27,2.16,6.25,3.76,9.2.73,1.34,1.5,2.69,2.07,4.11.31.77.76,1.69.83,2.51.06.77-.19,1.72-.3,2.48-1.15,7.48-4.38,14.58-6.06,21.96-.31,1.38.34,3.06,2,3.37,10.93,2.01,21.45,5.75,31.82,9.61,1.89.7,5.55.88,6.51-.67,4.6-7.4,5.97-20.41,5.2-29.77-.42-5.15-1.7-10.5-4.8-15.76-1.5-2.55-3.42-4.96-5.59-7.25-1.36-1.43-3.08-1.99-5.05-2.6-2.46-.76-4.88-1.42-7.22-2.11-1.14-.34-2.25-.69-3.34-1.06-.16-.05-.32-.12-.48-.18,1.07.39.02.07.02,0,0,0-.36-.2-.37-.19.1-.03.81.73.79.68.15.47.3.94.45,1.42-.02-.18,0-.38-.03-.56.1.53-.15.42,0,.11.1-.21.33-.45-.07.07.09-.12.16-.28.29-.38.35-.26-.61.44-.02.02.18-.13.37-.27.55-.4.13-.09.28-.17.42-.25-.63.36.21-.08.36-.15,2.23-.98,4-1.31,6.33-1.75,4.45-.84,10.31-1.05,13.86-3.16,1.84-1.1,2.86-2.8,3.7-4.44.94-1.83,1.66-3.8,2.21-5.8,1.04-3.79,1.53-8.04.65-12.04-.36-1.65-1.42-3.41-3.27-4.67-2.2-1.49-4.75-1.74-7.25-1.63-3.22.15-6.21.21-9.39-.22-.66-.09-1.32-.19-1.97-.33.63.14-.82-.23-1.02-.29-.5-.15-.98-.32-1.46-.5-.61-.23-.12-.04,0,.01-.34-.16-.68-.32-1.01-.5-.4-.22-.78-.45-1.15-.69-.51-.33-.05-.03.04.04-.2-.16-.4-.31-.6-.48-.32-.27-.63-.55-.92-.84-.15-.15-.29-.3-.42-.44-.15-.16-.11-.12.12.14-.1-.12-.21-.25-.31-.38-.49-.64-.95-1.31-1.34-2-.2-.35-.39-.71-.57-1.06-.37-.72.23.54-.09-.2-.1-.22-.2-.44-.29-.67-1.34-3.18-2.06-6.47-3.12-9.67-.74-2.24-1.7-4.65-3.89-5.87-2.72-1.52-5.79-1.42-8.62-1.15-5.9.57-11.14,3.84-16.1,6.31-1.26.63-2.07,2.12-1.72,3.56.32,1.31,1.71,2.18,3,1.55,3.31-1.6,6.65-3.65,10.32-5.31,1.68-.76,3.45-1.45,5.32-1.84.39-.08.61-.11.7-.12.37-.04.74-.06,1.11-.06.2,0,.41,0,.61.02-.15-.01-.49-.1.07.03.16.04,1.11.33.62.16.45.16.74.4.93.62.44.51.7,1.08.93,1.67.4,1.04.73,2.09,1.04,3.15.67,2.27,1.24,4.56,2.05,6.81,1.72,4.81,4.54,9.45,10.49,11.97,3.56,1.51,7.59,2.05,11.62,2.21,2.64.11,5.23.06,7.85-.03.35-.01.7-.02,1.06,0-.69-.02-.38-.09.06.06.18.06-.86-.25-.07.02-.69-.23-.64-.34-.34-.16.54.34-.57-.4-.19-.15.4.26.37.47.04-.02.13.19.27.39.41.58.21.29-.13-.26-.13-.26.06.13.13.26.18.39.1.28.21.55.29.83.04.15.23,1.07.11.39.05.28.08.57.11.85.06.65.07,1.3.05,1.93-.1,2.76-.77,5.21-1.94,7.93-.28.66-.6,1.32-.94,1.96-.15.29-.31.58-.48.86-.07.12-.14.24-.21.36-.14.23.12-.16-.14.21-.34.49-.7.98-1.09,1.45-.21.25-.43.49-.66.72-.22.23-.83.65-.19.24-.19.12-.39.23-.57.36-.56.39.35-.09-.18.09-.68.23-1.38.44-2.1.61-1.73.41-2.48.51-4.43.85-5.85,1.03-15.79,2.57-15.91,8.6-.06,3.1,3.91,4.08,6.92,4.97,3.08.91,6.31,1.76,9.61,2.79,1.24.39-.2-.05-.2-.1-.01.4,1.65,1.91,1.98,2.35,1.29,1.68,2.42,3.44,3.28,5.24,1.83,3.81,2.82,7.7,3.15,11.53.7,8-.99,15.68-3.34,23.17-.56,1.79-1.06,3.57-1.81,5.38,1.96-.36,3.9-.71,5.9-1.03-11.47-4.37-22.91-8.74-35.04-10.97.69,1.13,1.38,2.26,2.09,3.4,1.9-7.85,5.43-15.32,6.67-23.29.31-2,.29-3.69-.44-5.65-.64-1.7-1.49-3.34-2.37-4.94-1.7-3.08-3.49-6.01-4.15-9.38-.38-1.93-3.68-2.76-4.98-1.18-8.99,10.87-8.71,26.24-10.2,39.88,1.04-.69,2.12-1.37,3.22-2.04-2.42-.51-4.84-.28-7.04.03-2.73.39-5.25.97-7.55,1.42-2.39.47-4.57.83-6.5.73-.32-.02-.07,0,0,0-.14-.01-.28-.03-.42-.05-.18-.03-.36-.06-.54-.1-.43-.1-.85-.23-1.24-.42-.09-.04-.52-.28-.39-.2.2.13-.15-.11-.15-.11-.07-.05-.14-.1-.21-.16-.17-.14-.33-.29-.49-.46-.09-.09-.5-.62-.26-.28-.31-.44-.6-.95-.84-1.53.18.44-.12-.36-.17-.52-.1-.31-.18-.64-.27-.97-.17-.64.05.3-.03-.12-.04-.22-.09-.45-.13-.68-.07-.44-.14-.89-.19-1.35-.12-1.03-.14-1.49-.18-2.73-.11-3.44-4.09-4.1-3.98-.63h0Z"/>
      <path class="cls-5" d="m67.59,189.49c-.43.58.14-.11.26-.22.39-.38-.44.2.08-.04.25-.12.64-.2.04-.06.19-.04.5-.12.67-.21.22-.05.13-.04-.29.04.13-.02.26-.03.39-.03.25-.09.75.19-.01-.03.17.05.36.09.54.13-.41-.16-.47-.18-.19-.05.26.15.21.11-.14-.13.05.04.09.07.14.11.21.21.18.16-.09-.15.06.07.11.15.15.23.1.17.07.1-.08-.22.02.08.2.84.14.44-.08-.48.14,1.29.11,1.07.16,1.14.38,2.27.71,3.37,1.51,5,4.94,9.33,11.07,11.03-.78-.91-1.54-1.81-2.31-2.71.03.33.05.66.04,1,0,.16-.17,1.12,0,.39-.05.2-.09.4-.16.6-.08.23-.51.85-.07.24-.13.18-.34.42-.43.61.2-.45.29-.25-.01-.02-.19.14-.87.53-.11.13-.23.12-.45.24-.68.35-.27.14-.68.14.02.02-.26.05-.52.15-.78.21-.27.06-.56.08-.82.15.71-.19.26-.03-.03,0-.59.03-1.18.03-1.76-.01-.16-.01-.9-.12-.08,0-.3-.05-.59-.09-.88-.14-.51-.1-1.01-.22-1.5-.36-.28-.08-.55-.18-.82-.27.76.26-.13-.08-.28-.13.06.05.12.11.17.16-.15-.11-.3-.23-.44-.36-.29-.25-.56-.51-.82-.78-.41-.43-.52-.57-.97-1.22-1.63-2.37-2.63-5.05-3.84-7.58.08.7.17,1.4.25,2.1.6-2.89,2.14-5.51,3.11-8.3.5-1.43-.52-2.97-1.94-3.29-1.52-.33-2.97.66-3.44,2.11-.58,1.79-1.39,3.5-2.04,5.27-.29.8-.56,1.6-.74,2.43-.16.7-.33,1.43-.15,2.12.13.5.43,1,.64,1.48,1.27,2.89,2.44,5.8,4.5,8.3,1.03,1.25,2.22,2.23,3.82,2.83,1.14.43,2.32.77,3.59.94,2.78.38,5.86.33,8.57-.9,3.35-1.53,4.88-4.61,4.58-7.79-.12-1.24-.91-2.35-2.38-2.76-.41-.12-.82-.24-1.21-.39.55.2-.52-.25-.62-.3-.26-.13-.52-.27-.76-.42-.16-.1-.32-.2-.48-.3.25.18.22.17-.05-.04-.5-.39-.99-.84-1.42-1.29-.23-.24-.24-.27-.05-.04-.11-.14-.23-.28-.33-.42-.16-.21-.32-.43-.47-.65-.35-.53-.66-1.07-.94-1.62-.15-.29-.16-.32-.04-.07-.07-.16-.14-.33-.21-.5-.13-.33-.26-.67-.37-1.01-.2-.6-.36-1.2-.5-1.81-.06-.26-.11-.52-.16-.79-.02-.1-.15-1.15-.11-.59-.21-2.78-1.85-5.24-4.99-5.71-3.04-.45-5.73.99-7.39,3.39-.87,1.26-.26,3.05.93,3.68,1.37.72,2.95.08,3.87-1.17h0Z"/>
    </g>
  </g>
</svg>