<?xml version="1.0" encoding="UTF-8"?>
<svg id="Layer_2" data-name="Layer 2" xmlns="http://www.w3.org/2000/svg" viewBox="0 0 230.22 44.28">
  <defs>
    <style>
      .cls-1 {
        fill: none;
      }

      .cls-2 {
        fill: #fff;
      }

      .cls-3 {
        fill: #be3428;
      }
    </style>
  </defs>
  <g id="Layer_1-2" data-name="Layer 1">
    <g>
      <path class="cls-3" d="m48.54,42.48c-8.36,1.83-18.84-5.41-22.85-1.21-2.05,2.15-10.77,5.01-15.22,1.01-1.92-1.73-2.82-2.32-3.87-4.56C4.07,32.28,1.62,22.43.13,16.82c-.23-.85-.21-11.58.48-12.31.57-.6,1.61-.92,2.61-1.18C14.82.29,27.77,1.06,40.24,1.27c17.27.29,34.53-.58,51.8-.98,28.99-.68,58.01-.03,87,.61,8.3.18,16.88.41,24.37,2.78,2.01.64,4.03,1.44,6.26,1.44,1.37,0,2.68-.31,4-.55,5.98-1.06,13.75-.01,15.88,3.82.68,1.23.68,2.56.67,3.87-.04,5.83-.08,11.65-.12,17.48-.02,2.23-.06,4.55-1.53,6.56-1.91,2.61-6,4.3-10.26,5.03s-8.73.64-13.13.54c-14.51-.32-29.03-.64-43.54-.96-4.56-.1-9.27-.22-13.41-1.49-1.83-.56-3.52-1.34-5.46-1.7-1.69-.31-3.47-.28-5.22-.21-16.95.68-33.28,4.85-50.26,5.28-12.93.32-25.94-1.54-38.74-.33"/>
      <path class="cls-2" d="m2.91,12.93c3.53,4.32,6.46,9.1,8.77,14.17.37.81,1.4.7,1.96.25,4.94-3.89,8.45-9.45,9.89-15.57.37-1.56-2.04-2.23-2.41-.66-1.35,5.74-4.61,10.81-9.25,14.47l1.96.25c-2.4-5.28-5.49-10.19-9.16-14.68-1.02-1.25-2.78.53-1.77,1.77h0Z"/>
      <path class="cls-2" d="m26.91,21.15v5.33c0,.65.57,1.28,1.25,1.25s1.25-.55,1.25-1.25v-5.33c0-.65-.57-1.28-1.25-1.25s-1.25.55-1.25,1.25h0Z"/>
      <path class="cls-2" d="m28.16,16.1c1.61,0,1.61-2.5,0-2.5s-1.61,2.5,0,2.5h0Z"/>
      <path class="cls-2" d="m33.15,19.7c.08,2.59.17,5.19.25,7.78.04,1.18,1.73,1.78,2.33.63,1.1-2.12,2.2-4.23,3.3-6.35.42-.8.85-1.9,1.41-2.49.02-.02.22-.21.12-.13.03-.02.34-.19.2-.13-.13.05.17-.04.18-.04-.18.03-.04-.02.01.02h.11c-.12-.01-.14-.01-.05.01.2.07-.26-.13.06.02.14.07.04.08,0,0-.02-.05-.14-.34-.07-.09.45,1.54,2.86.89,2.41-.66-.39-1.33-1.78-1.96-3.08-1.71s-2.12,1.39-2.7,2.49c-1.37,2.6-2.71,5.21-4.07,7.81l2.33.63c-.08-2.59-.17-5.19-.25-7.78-.02-.67-.56-1.25-1.25-1.25s-1.27.57-1.25,1.25h0Z"/>
      <path class="cls-2" d="m50.64,9.52c.03,6.87.07,13.74.1,20.61,0,1.5,1.95,1.58,2.46.33,1.65-4.1,3.77-7.99,6.26-11.64.67-.98-.43-2.02-1.41-1.84-2.24.42-7.61,3.75-4.26,6.19,1.33.96,2.59,1.87,3.71,3.09,1.19,1.29,2.14,2.75,2.91,4.31.71,1.44,2.87.18,2.16-1.26-1.18-2.38-2.81-4.55-4.82-6.3-.49-.43-1-.83-1.53-1.21-.26-.19-.52-.4-.81-.55-.11-.07-.21-.14-.31-.21.08.41.18.49.31.25.21-.08.47-.52.65-.68.24-.21.49-.38.76-.54.6-.35,1.22-.55,1.9-.68l-1.41-1.84c-2.62,3.83-4.78,7.93-6.51,12.23l2.46.33c-.03-6.87-.07-13.74-.1-20.61,0-1.61-2.51-1.61-2.5,0h0Z"/>
      <path class="cls-2" d="m70.9,14.59c-1.86-.7-3.95.19-5.07,1.75-1.17,1.64-.92,3.94.24,5.51.59.8,1.33,1.38,2.23,1.8.61.28,1.49.53,1.93,1.02-.07-.08.09.18.06.06.04.15.02.2-.08.37-.25.45-.56.87-.88,1.26-.66.81-1.41,1.56-2.24,2.19-.54.41-.82,1.08-.45,1.71.31.53,1.17.86,1.71.45.85-.65,1.65-1.34,2.37-2.14s1.49-1.71,1.87-2.71c.72-1.89-.64-3.27-2.24-4.01-.67-.31-1.4-.55-1.94-1.07s-.84-1.17-.86-1.89c-.05-1.39,1.4-2.37,2.67-1.89.63.24,1.37-.26,1.54-.87.19-.7-.24-1.3-.87-1.54h0Z"/>
      <path class="cls-2" d="m79.79,15.35c-1.32,2.38-1.95,5.13-1.78,7.85.09,1.32.33,2.64.77,3.88s1.04,2.64,1.99,3.61c2.24,2.32,5.14.12,6.32-2.11.71-1.34,1.28-2.8,1.76-4.24s1.08-3.07.64-4.58c-.4-1.37-1.59-2.36-2.85-2.91-1.43-.63-3.06-.76-4.38-1.62s-2.6,1.28-1.26,2.16c.97.63,2.07.95,3.18,1.25.86.24,1.76.49,2.43,1.11.81.76.49,1.73.22,2.68-.33,1.16-.73,2.3-1.2,3.4-.33.78-1.9,4.48-3.17,3.01s-1.81-3.71-1.94-5.53c-.17-2.33.29-4.65,1.43-6.7.78-1.41-1.38-2.67-2.16-1.26h0Z"/>
      <path class="cls-2" d="m94.69,17l-.02,7.73c0,1.05-.19,2.34.75,3.06.82.63,1.89.34,2.58-.35.72-.72.95-1.66,1.28-2.59.38-1.08.82-2.14,1.32-3.18,1.01-2.09,2.23-4.07,3.63-5.92l-2.33-.63c.12,3.57.25,7.14.37,10.71.05,1.39,2.07,1.72,2.46.33,1.08-3.93,2.16-7.85,3.24-11.78h-2.41c1.88,5.16,2.37,10.63,2.83,16.07.13,1.59,2.63,1.61,2.5,0-.47-5.64-.96-11.37-2.92-16.73-.41-1.11-2.06-1.26-2.41,0-1.08,3.93-2.16,7.85-3.24,11.78l2.46.33c-.12-3.57-.25-7.14-.37-10.71-.05-1.33-1.61-1.59-2.33-.63-2.2,2.91-3.93,6.13-5.15,9.56-.14.4-.23.86-.42,1.24-.22.46-.58.4.17.6s.5.03.51-.51v-.64c0-.54,0-1.07,0-1.61v-6.12c.02-1.61-2.48-1.61-2.49,0h0Z"/>
      <path class="cls-2" d="m116.22,6.71c-.1,7.91-.06,15.82.12,23.73.02,1.09,1.34,1.64,2.13.88,3.57-3.4,7.15-6.8,10.72-10.2l-2.13-.88c.34,3.4.42,6.81.24,10.22-.09,1.61,2.41,1.6,2.5,0,.18-3.41.1-6.82-.24-10.22-.11-1.06-1.3-1.68-2.13-.88-3.57,3.4-7.15,6.8-10.72,10.2l2.13.88c-.18-7.91-.22-15.82-.12-23.73.02-1.61-2.48-1.61-2.5,0h0Z"/>
      <path class="cls-2" d="m139.51,25.1c1.58.4,3.2.34,4.72-.28s2.82-1.57,4.12-2.53c.81-.6.83-2-.3-2.28-3.47-.87-7.39-.79-10.73.6-.87.36-1.6.9-1.95,1.8-.33.84-.24,1.76-.1,2.63.24,1.51.97,2.91,1.94,4.08,1.09,1.32,2.6,2.29,4.24,2.75,1.55.44,2.21-1.97.66-2.41-1.29-.36-2.43-1.16-3.23-2.24-.42-.56-.75-1.18-.95-1.84-.18-.57-.44-1.39-.25-1.97.17-.53,1.05-.67,1.55-.82.86-.26,1.76-.46,2.66-.55,1.86-.19,3.71-.07,5.52.38l-.3-2.28c-2.06,1.51-4.22,3.24-6.92,2.56-1.56-.4-2.22,2.01-.66,2.41h0Z"/>
      <path class="cls-2" d="m164.93,31.05c-1.09.14-1.22-2.5-1.33-3.19-.3-1.89-.6-3.79-.9-5.68-.61-3.86-1.23-7.71-1.84-11.57-.25-1.58-2.66-.91-2.41.66.73,4.56,1.45,9.11,2.18,13.67.31,1.96.39,4.16,1.09,6.03.51,1.38,1.59,2.78,3.23,2.57.67-.09,1.24-.51,1.25-1.25,0-.61-.58-1.34-1.25-1.25h0Z"/>
      <path class="cls-2" d="m160.02,21.76c-1.76.07-3.51.19-5.14.91-1.46.64-2.63,1.9-3.11,3.43s-.06,3.23,1.15,4.27c1.11.95,2.53,1.28,3.96,1.39,1.87.15,3.79-.04,5.66-.09.68-.02,1.25-.56,1.25-1.25s-.57-1.27-1.25-1.25c-1.5.05-3.01.12-4.51.13-.26,0-.51,0-.77-.01-.13,0-.26-.01-.39-.02-.09,0-.17-.02-.26-.02-.07,0-.19-.02-.05,0-.25-.03-.5-.08-.74-.14-.12-.03-.24-.06-.36-.1-.06-.02-.11-.04-.17-.06-.04-.01-.28-.12-.09-.03-.21-.1-.42-.21-.6-.35.16.12-.05-.06-.1-.1-.04-.04-.08-.08-.12-.13-.13-.14.09.14-.02-.02-.2-.3-.18-.29-.27-.55-.07-.2-.03.04-.04-.17,0-.15,0-.3,0-.45s0-.01,0,.01c.02-.08.04-.17.06-.25.03-.13.07-.25.12-.37-.06.14.08-.15.1-.18.08-.14.16-.27.25-.4.23-.33.63-.66,1.09-.9,1.3-.7,2.86-.72,4.31-.78.67-.03,1.25-.56,1.25-1.25,0-.66-.57-1.28-1.25-1.25h0Z"/>
      <path class="cls-2" d="m177.16,16.4c-.93-.55-2.07-.48-2.97.1-.96.62-1.43,1.68-1.71,2.75-.3,1.14-.53,2.3-.79,3.45-.21.92-.46,1.86-.37,2.81s.44,1.84,1.26,2.38c.44.29.98.39,1.5.41.32,0,.71-.11,1.02-.03-.29-.07-.14-.24-.18.19-.02.19-.06.38-.13.56-.1.31-.26.61-.46.86-.5.65-1.27,1.14-2.09,1.2-1.59.13-1.61,2.63,0,2.5,1.91-.16,3.66-1.23,4.56-2.95s1-4.63-1.55-4.86c-.39-.03-.78.02-1.18.02-.25,0-.24-.13-.11.03-.02-.02-.1-.13-.11-.21-.14-.77.07-1.5.24-2.25.12-.51.91-5.34,1.8-4.81,1.39.83,2.64-1.33,1.26-2.16h0Z"/>
      <path class="cls-2" d="m184.38,16.29c-2.54,1.68-3.51,5.09-2.45,7.92.27.72.64,1.37,1.14,1.96s1.2.88,1.71,1.4c.48.49.12,1.41-.17,1.92-.36.65-.93,1.23-1.63,1.52-.62.26-1.07.83-.87,1.54.16.59.91,1.14,1.54.87,1.75-.73,3.13-2.1,3.66-3.96.27-.94.3-2.01-.17-2.9-.43-.82-1.23-1.15-1.88-1.73-1.81-1.6-1.64-5.05.39-6.39,1.34-.88.09-3.05-1.26-2.16h0Z"/>
      <path class="cls-2" d="m193.33,21.94c0,3.23,0,6.47,0,9.7,0,1.61,2.5,1.61,2.5,0,0-3.23,0-6.47,0-9.7,0-1.61-2.5-1.61-2.5,0h0Z"/>
      <path class="cls-2" d="m194.58,17.24c1.61,0,1.61-2.5,0-2.5s-1.61,2.5,0,2.5h0Z"/>
      <path class="cls-2" d="m201.78,11.21c0,6.95,0,13.9,0,20.85,0,1.61,2.5,1.61,2.5,0,0-6.95,0-13.9,0-20.85,0-1.61-2.5-1.61-2.5,0h0Z"/>
      <path class="cls-2" d="m200.37,23.19h5.33c.65,0,1.28-.57,1.25-1.25s-.55-1.25-1.25-1.25h-5.33c-.65,0-1.28.57-1.25,1.25s.55,1.25,1.25,1.25h0Z"/>
      <path class="cls-2" d="m215.78,27.57c1.9-.27,3.26-2.27,3.18-4.12-.09-2.07-1.86-3.5-3.88-3.5s-3.76,1.19-4.49,3.02c-.79,2-.21,4.41,1.03,6.1,1.53,2.09,3.83,3.28,6.11,4.38.61.29,1.35.17,1.71-.45.32-.55.16-1.42-.45-1.71-1.48-.71-3.03-1.42-4.27-2.51-1.11-.97-1.94-2.29-1.99-3.69-.02-.67.1-1.18.46-1.76.02-.04.15-.17.02-.03.04-.04.08-.09.12-.13.06-.05.11-.11.17-.16.15-.14-.14.09.03-.03.11-.08.23-.16.35-.22.07-.04.14-.07.21-.11-.16.08.02,0,.09-.03.13-.04.27-.08.4-.12.08-.02.16-.03.23-.05-.22.04-.03,0,.02,0,.16,0,.31,0,.47,0,.02,0,.2.02.06,0-.16-.02.14.03.17.04.07.02.44.18.23.07.06.03.33.19.25.14-.08-.05.16.15.21.2.17.18.05.06.02.02,0,0,.17.29.11.16s.03.09.04.12c.03.09.05.19.07.28-.04-.24-.01.23-.02.3,0,.15,0-.02,0-.04-.02.12-.05.23-.08.34-.02.06-.04.11-.06.17-.04.12.07-.1-.04.08-.04.06-.08.14-.12.2-.1.19.03-.01-.05.08-.04.04-.08.09-.12.13-.01.01-.29.25-.1.11-.36.27-.33.23-.77.3-.67.09-1.04.95-.87,1.54.2.72.87.97,1.54.87h0Z"/>
      <rect class="cls-1" width="230.22" height="44.28"/>
    </g>
  </g>
</svg>