<?xml version="1.0" encoding="UTF-8"?>
<svg id="Layer_2" data-name="Layer 2" xmlns="http://www.w3.org/2000/svg" viewBox="0 0 230.22 44.28">
  <defs>
    <style>
      .cls-1 {
        fill: none;
      }

      .cls-2 {
        fill: #f6f6f6;
      }

      .cls-3 {
        fill: #be3428;
      }
    </style>
  </defs>
  <g id="Layer_1-2" data-name="Layer 1">
    <g>
      <path class="cls-3" d="m48.54,42.48c-8.36,1.83-18.84-5.41-22.85-1.21-2.05,2.15-10.77,5.01-15.22,1.01-1.92-1.73-2.82-2.32-3.87-4.56C4.07,32.28,1.62,22.43.13,16.82c-.23-.85-.21-11.58.48-12.31.57-.6,1.61-.92,2.61-1.18C14.82.29,27.77,1.06,40.24,1.27c17.27.29,34.53-.58,51.8-.98,28.99-.68,58.01-.03,87,.61,8.3.18,16.88.41,24.37,2.78,2.01.64,4.03,1.44,6.26,1.44,1.37,0,2.68-.31,4-.55,5.98-1.06,13.75-.01,15.88,3.82.68,1.23.68,2.56.67,3.87-.04,5.83-.08,11.65-.12,17.48-.02,2.23-.06,4.55-1.53,6.56-1.91,2.61-6,4.3-10.26,5.03s-8.73.64-13.13.54c-14.51-.32-29.03-.64-43.54-.96-4.56-.1-9.27-.22-13.41-1.49-1.83-.56-3.52-1.34-5.46-1.7-1.69-.31-3.47-.28-5.22-.21-16.95.68-33.28,4.85-50.26,5.28-12.93.32-25.94-1.54-38.74-.33"/>
      <rect class="cls-1" x="0" width="230.22" height="44.28"/>
    </g>
    <g>
      <path class="cls-2" d="m31.4,24.06c-.24,1.96-.49,3.92-.73,5.87-.11.86-.11,1.92.64,2.34.6.34,1.4.02,1.82-.53s.56-1.25.69-1.93c.33-1.78.67-3.57,1-5.35.02-.12.04-.26-.04-.35-.07-.08-.19-.08-.3-.08-.82,0-2.26.01-3.08.02"/>
      <path class="cls-2" d="m31.15,24.06c-.24,1.9-.48,3.81-.71,5.71-.13,1.05-.15,2.73,1.26,2.88,1.57.17,2.13-1.56,2.36-2.77.17-.92.34-1.84.51-2.75.08-.45.17-.89.25-1.34s.22-.92.25-1.38c.05-.77-.82-.62-1.34-.61-.78,0-1.56,0-2.34.02-.32,0-.32.5,0,.5.53,0,1.07,0,1.6-.01.28,0,.57,0,.85,0,.19,0,.63-.09.73.11.05.1-.08.43-.1.55-.03.18-.07.37-.1.55-.07.37-.14.73-.21,1.1-.14.73-.27,1.47-.41,2.2-.21,1.1-.32,3.22-1.8,3.36s-1.06-2.06-.95-2.88c.22-1.74.43-3.48.65-5.22.04-.32-.46-.32-.5,0h0Z"/>
    </g>
    <g>
      <path class="cls-2" d="m31.73,19.66c.73.05,2.03,1.69,2.67,1.34s1.09-1.17.77-1.83c-.29-.61-1.11-.82-1.76-.63s-1.18.66-1.68,1.12"/>
      <path class="cls-2" d="m31.73,20.29c.1,0-.17-.05-.07,0,.02,0,.05.02.08.02.15.04-.13-.07.01,0,.12.07.24.14.36.21.25.17.49.36.74.55.49.36,1.13.79,1.75.53.78-.33,1.38-1.25,1.29-2.11-.11-.99-.96-1.58-1.91-1.63-1.07-.05-1.94.68-2.69,1.36-.24.22-.24.66,0,.88.26.24.63.24.88,0,.14-.13.28-.26.42-.38.03-.02.06-.05.09-.07,0,0,.14-.11.07-.06s.08-.06.07-.05c.05-.03.09-.07.14-.1.08-.05.16-.1.24-.14.03-.02.07-.04.1-.05.01,0,.18-.08.06-.03.08-.03.16-.06.23-.08.04,0,.07-.02.11-.03.13-.03-.13,0,.02,0,.08,0,.15,0,.23,0,.03,0,.06,0,.09,0,.15,0-.09-.03,0,0,.06.02.13.03.2.05.04.01.17.03.02,0,.04,0,.08.04.12.06.03.01.05.03.08.05.12.06-.05-.07,0,0,.03.04.13.09.14.14l-.04-.06s.03.05.05.07c.02.03.03.05.04.08-.06-.12-.02-.04,0,0,0,.02.01.04.02.07.01.07.01.06,0-.03.03.04,0,.15,0,.21.01.08.03-.14,0,0,0,.03-.01.06-.02.09-.01.04-.03.07-.04.11-.03.09.07-.13,0,0-.04.08-.09.15-.14.23-.05.08.1-.11,0,0-.02.02-.04.05-.07.07-.03.03-.21.18-.09.09-.06.05-.14.08-.2.13-.03.02-.14.04.08-.04-.11.04.04-.01.07,0-.01,0-.06,0-.07,0-.06,0-.03-.06.09.01-.03-.02-.1-.03-.14-.04-.15-.05.12.07-.02,0-.05-.03-.1-.05-.15-.08-.22-.13-.43-.29-.64-.44-.48-.36-.96-.77-1.59-.83-.33-.03-.64.31-.62.62.02.36.28.59.62.62h0Z"/>
    </g>
    <g>
      <path class="cls-2" d="m72.75,21.59c1.33.12,2.72.06,3.86-.63.18-.11.36-.24.45-.43.23-.46-.13-1-.53-1.33-1.2-.99-2.97-1.27-4.43-.68s-2.52,2-2.67,3.53c-.03.32-.02.66.09.96.11.29.31.54.55.74,1.17,1,2.94.89,4.33,1.57.76.37,1.37.96,1.97,1.56.29.29.6.61.69,1.01.18.8-.62,1.55-1.45,1.69s-1.66-.13-2.48-.29c-1.01-.21-2.05-.26-3.08-.3-.45-.02-.92-.03-1.31.17s-.68.69-.49,1.09c.12.26.4.4.66.52,2.77,1.26,5.94,1.66,8.94,1.11.24-.04.49-.1.7-.22.24-.15.42-.38.55-.63.93-1.66.29-3.85-1.07-5.19s-3.27-1.99-5.17-2.35c-.45-.09-.91-.17-1.27-.44s-.56-.81-.3-1.18c.3-.42.94-.37,1.45-.26"/>
      <path class="cls-2" d="m72.75,21.84c1.09.09,5.4.01,4.52-2.09-.34-.8-1.31-1.31-2.1-1.56-.95-.3-2-.31-2.95.01-1.75.6-3.22,2.46-3.05,4.37.2,2.2,3.15,2.22,4.7,2.79.63.23,1.17.61,1.66,1.05s1.36,1.09,1.28,1.79c-.09.79-1.01,1.15-1.7,1.15-.78,0-1.54-.27-2.3-.4-1.14-.19-2.47-.39-3.62-.22-.68.1-1.46.69-1.21,1.47s1.58,1.1,2.28,1.33c1.13.38,2.31.62,3.5.73s2.39.08,3.58-.09c1.05-.15,1.73-.4,2.16-1.44.86-2.08-.27-4.41-1.95-5.68-.96-.73-2.09-1.2-3.25-1.53-.61-.17-1.23-.27-1.84-.42-.32-.08-1-.3-1-.72,0-.31.3-.62.57-.64.22-.02.44.03.65.07.31.06.45-.42.13-.48-.58-.11-1.36-.2-1.74.38-.33.5-.07,1.16.37,1.5.67.53,1.71.54,2.51.75.98.26,1.93.61,2.79,1.15,1.72,1.08,3.08,3.22,2.35,5.29-.21.6-.57,1.05-1.22,1.19-.58.12-1.18.18-1.77.22-1.15.07-2.31.01-3.44-.18-1.04-.18-2.06-.46-3.04-.85-.21-.08-.63-.2-.82-.37-.46-.39-.38-.9.2-1.12.54-.2,1.26-.07,1.82-.04,1.28.07,2.47.39,3.73.56.79.1,1.59.01,2.2-.53,1.49-1.33-.35-2.89-1.44-3.7-.78-.58-1.65-.84-2.59-1.05s-2.06-.41-2.71-1.2c-.84-1.01-.06-2.68.69-3.53s1.92-1.36,3.1-1.34c.64.01,1.27.17,1.84.45.25.13.5.28.71.46.47.41.66.86.13,1.37-.43.41-1.38.55-1.95.61s-1.19.04-1.78-.01c-.32-.03-.32.47,0,.5h0Z"/>
    </g>
    <g>
      <path class="cls-2" d="m180.05,22.92c1.33.12,2.72.06,3.86-.63.18-.11.36-.24.45-.43.23-.46-.13-1-.53-1.33-1.2-.99-2.97-1.27-4.43-.68-1.45.58-2.52,2-2.67,3.53-.03.32-.02.66.09.96.11.29.31.54.55.74,1.17,1,2.94.89,4.33,1.57.76.37,1.37.96,1.97,1.56.29.29.6.61.69,1.01.18.8-.62,1.55-1.45,1.69s-1.66-.13-2.48-.29c-1.01-.21-2.05-.26-3.08-.3-.45-.02-.92-.03-1.31.17s-.68.69-.49,1.09c.12.26.4.4.66.52,2.77,1.26,5.94,1.66,8.94,1.11.24-.04.49-.1.7-.22.24-.15.42-.38.55-.63.93-1.66.29-3.85-1.07-5.19s-3.27-1.99-5.17-2.35c-.45-.09-.91-.17-1.27-.44s-.56-.81-.3-1.18c.3-.42.94-.37,1.45-.26"/>
      <path class="cls-2" d="m180.05,23.17c1.09.09,5.4.01,4.52-2.09-.34-.8-1.31-1.31-2.1-1.56-.95-.3-2-.31-2.95.01-1.75.6-3.22,2.46-3.05,4.37.2,2.2,3.15,2.22,4.7,2.79.63.23,1.17.61,1.66,1.05s1.36,1.09,1.28,1.79c-.09.79-1.01,1.15-1.7,1.15-.78,0-1.54-.27-2.3-.4-1.14-.19-2.47-.39-3.62-.22-.68.1-1.46.69-1.21,1.47s1.58,1.1,2.28,1.33c1.13.38,2.31.62,3.5.73s2.39.08,3.58-.09c1.05-.15,1.73-.4,2.16-1.44.86-2.08-.27-4.41-1.95-5.68-.96-.73-2.09-1.2-3.25-1.53-.61-.17-1.23-.27-1.84-.42-.32-.08-1-.3-1-.72,0-.31.3-.62.57-.64.22-.02.44.03.65.07.31.06.45-.42.13-.48-.58-.11-1.36-.2-1.74.38-.33.5-.07,1.16.37,1.5.67.53,1.71.54,2.51.75.98.26,1.93.61,2.79,1.15,1.72,1.08,3.08,3.22,2.35,5.29-.21.6-.57,1.05-1.22,1.19-.58.12-1.18.18-1.77.22-1.15.07-2.31.01-3.44-.18-1.04-.18-2.06-.46-3.04-.85-.21-.08-.63-.2-.82-.37-.46-.39-.38-.9.2-1.12.54-.2,1.26-.07,1.82-.04,1.28.07,2.47.39,3.73.56.79.1,1.59.01,2.2-.53,1.49-1.33-.35-2.89-1.44-3.7-.78-.58-1.65-.84-2.59-1.05s-2.06-.41-2.71-1.2c-.84-1.01-.06-2.68.69-3.53s1.92-1.36,3.1-1.34c.64.01,1.27.17,1.84.45.25.13.5.28.71.46.47.41.66.86.13,1.37-.43.41-1.38.55-1.95.61s-1.19.04-1.78-.01c-.32-.03-.32.47,0,.5h0Z"/>
    </g>
    <g>
      <path class="cls-2" d="m163.86,22.92c1.33.12,2.72.06,3.86-.63.18-.11.36-.24.45-.43.23-.46-.13-1-.53-1.33-1.2-.99-2.97-1.27-4.43-.68s-2.52,2-2.67,3.53c-.03.32-.02.66.09.96.11.29.31.54.55.74,1.17,1,2.94.89,4.33,1.57.76.37,1.37.96,1.97,1.56.29.29.6.61.69,1.01.18.8-.62,1.55-1.45,1.69s-1.66-.13-2.48-.29c-1.01-.21-2.05-.26-3.08-.3-.45-.02-.92-.03-1.31.17s-.68.69-.49,1.09c.12.26.4.4.66.52,2.77,1.26,5.94,1.66,8.94,1.11.24-.04.49-.1.7-.22.24-.15.42-.38.55-.63.93-1.66.29-3.85-1.07-5.19s-3.27-1.99-5.17-2.35c-.45-.09-.91-.17-1.27-.44s-.56-.81-.3-1.18c.3-.42.94-.37,1.45-.26"/>
      <path class="cls-2" d="m163.86,23.17c1.09.09,5.4.01,4.52-2.09-.34-.8-1.31-1.31-2.1-1.56-.95-.3-2-.31-2.95.01-1.75.6-3.22,2.46-3.05,4.37.2,2.2,3.15,2.22,4.7,2.79.63.23,1.17.61,1.66,1.05s1.36,1.09,1.28,1.79c-.09.79-1.01,1.15-1.7,1.15-.78,0-1.54-.27-2.3-.4-1.14-.19-2.47-.39-3.62-.22-.68.1-1.46.69-1.21,1.47s1.58,1.1,2.28,1.33c1.13.38,2.31.62,3.5.73s2.39.08,3.58-.09c1.05-.15,1.73-.4,2.16-1.44.86-2.08-.27-4.41-1.95-5.68-.96-.73-2.09-1.2-3.25-1.53-.61-.17-1.23-.27-1.84-.42-.32-.08-1-.3-1-.72,0-.31.3-.62.57-.64.22-.02.44.03.65.07.31.06.45-.42.13-.48-.58-.11-1.36-.2-1.74.38-.33.5-.07,1.16.37,1.5.67.53,1.71.54,2.51.75.98.26,1.93.61,2.79,1.15,1.72,1.08,3.08,3.22,2.35,5.29-.21.6-.57,1.05-1.22,1.19-.58.12-1.18.18-1.77.22-1.15.07-2.31.01-3.44-.18-1.04-.18-2.06-.46-3.04-.85-.21-.08-.63-.2-.82-.37-.46-.39-.38-.9.2-1.12.54-.2,1.26-.07,1.82-.04,1.28.07,2.47.39,3.73.56.79.1,1.59.01,2.2-.53,1.49-1.33-.35-2.89-1.44-3.7-.78-.58-1.65-.84-2.59-1.05s-2.06-.41-2.71-1.2c-.84-1.01-.06-2.68.69-3.53s1.92-1.36,3.1-1.34c.64.01,1.27.17,1.84.45.25.13.5.28.71.46.47.41.66.86.13,1.37-.43.41-1.38.55-1.95.61s-1.19.04-1.78-.01c-.32-.03-.32.47,0,.5h0Z"/>
    </g>
    <g>
      <path class="cls-2" d="m191.43,25.1c-.24,1.96-.49,3.92-.73,5.87-.11.86-.11,1.92.64,2.34.6.34,1.4.02,1.82-.53s.56-1.25.69-1.93c.33-1.78.67-3.57,1-5.35.02-.12.04-.26-.04-.35-.07-.08-.19-.08-.3-.08-.82,0-2.26.01-3.08.02"/>
      <path class="cls-2" d="m191.18,25.1c-.24,1.9-.48,3.81-.71,5.71-.13,1.05-.15,2.73,1.26,2.88,1.57.17,2.13-1.56,2.36-2.77.17-.92.34-1.84.51-2.75.08-.45.17-.89.25-1.34s.22-.92.25-1.38c.05-.77-.82-.62-1.34-.61-.78,0-1.56,0-2.34.02-.32,0-.32.5,0,.5.53,0,1.07,0,1.6-.01.28,0,.57,0,.85,0,.19,0,.63-.09.73.11.05.1-.08.43-.1.55-.03.18-.07.37-.1.55-.07.37-.14.73-.21,1.1-.14.73-.27,1.47-.41,2.2-.21,1.1-.32,3.22-1.8,3.36s-1.06-2.06-.95-2.88c.22-1.74.43-3.48.65-5.22.04-.32-.46-.32-.5,0h0Z"/>
    </g>
    <g>
      <path class="cls-2" d="m191.76,20.7c.73.05,2.03,1.69,2.67,1.34s1.09-1.17.77-1.83c-.29-.61-1.11-.82-1.76-.63s-1.18.66-1.68,1.12"/>
      <path class="cls-2" d="m191.76,21.32c.1,0-.17-.05-.07,0,.02,0,.05.02.08.02.15.04-.13-.07.01,0,.12.07.24.14.36.21.25.17.49.36.74.55.49.36,1.13.79,1.75.53.78-.33,1.38-1.25,1.29-2.11-.11-.99-.96-1.58-1.91-1.63-1.07-.05-1.94.68-2.69,1.36-.24.22-.24.66,0,.88.26.24.63.24.88,0,.14-.13.28-.26.42-.38.03-.02.06-.05.09-.07,0,0,.14-.11.07-.06s.08-.06.07-.05c.05-.03.09-.07.14-.1.08-.05.16-.1.24-.14.03-.02.07-.04.1-.05.01,0,.18-.08.06-.03.08-.03.16-.06.23-.08.04,0,.07-.02.11-.03.13-.03-.13,0,.02,0,.08,0,.15,0,.23,0,.03,0,.06,0,.09,0,.15,0-.09-.03,0,0,.06.02.13.03.2.05.04.01.17.03.02,0,.04,0,.08.04.12.06.03.01.05.03.08.05.12.06-.05-.07,0,0,.03.04.13.09.14.14l-.04-.06s.03.05.05.07c.02.03.03.05.04.08-.06-.12-.02-.04,0,0,0,.02.01.04.02.07.01.07.01.06,0-.03.03.04,0,.15,0,.21.01.08.03-.14,0,0,0,.03-.01.06-.02.09-.01.04-.03.07-.04.11-.03.09.07-.13,0,0-.04.08-.09.15-.14.23-.05.08.1-.11,0,0-.02.02-.04.05-.07.07-.03.03-.21.18-.09.09-.06.05-.14.08-.2.13-.03.02-.14.04.08-.04-.11.04.04-.01.07,0-.01,0-.06,0-.07,0-.06,0-.03-.06.09.01-.03-.02-.1-.03-.14-.04-.15-.05.12.07-.02,0-.05-.03-.1-.05-.15-.08-.22-.13-.43-.29-.64-.44-.48-.36-.96-.77-1.59-.83-.33-.03-.64.31-.62.62.02.36.28.59.62.62h0Z"/>
    </g>
    <g>
      <path class="cls-2" d="m201.57,32.13c.41-4.06.42-8.17.03-12.23l-2.09.29c-.2.03-.43.05-.59-.11-.09-.1-.14-.24-.18-.39-.21-.87.05-1.91.66-2.43s1.52-.45,2.04.2c.29-1.86.58-3.72.87-5.58.03-.22.07-.45.21-.6.15-.17.36-.18.56-.19.87-.03,1.73-.06,2.6-.09.47-.02,1.08.08,1.21.64.06.28-.03.57-.12.84-.44,1.32-.89,2.64-1.33,3.96,1.31-.08,2.61-.17,3.92-.25.11.77.21,1.56.07,2.32-.14.76-.58,1.49-1.2,1.65-.46.11-.92-.09-1.38-.18s-1.01,0-1.25.5c-.12.25-.13.56-.13.85-.06,3.32-.17,6.64-.34,9.95-.02.38-.04.77-.18,1.12-.26.66-.89.99-1.49.99s-1.36-1.01-1.92-1.27"/>
      <path class="cls-2" d="m201.82,32.13c.39-4.07.41-8.16.03-12.23-.02-.18-.15-.26-.32-.24-.82.11-2.59.65-2.61-.57s1.15-2.68,2.35-1.45c.12.12.39.08.42-.11.18-1.14.36-2.29.53-3.43.09-.56.12-1.17.27-1.72.1-.37.19-.83.6-1.03.26-.13.8-.03,1.08-.04.46-.02,1.21-.19,1.64-.05.31.1.76.71.77,1.03,0,.22-.17.53-.24.73-.38,1.12-.75,2.24-1.13,3.37-.05.15.08.33.24.32,1.31-.08,2.61-.17,3.92-.25l-.25-.25c.15,1.09.53,3.63-1.22,3.75-.69.05-1.24-.45-1.94-.11-1.14.54-.74,2.48-.76,3.45-.05,2.09-.12,4.18-.22,6.28-.04,1,.23,3.14-1.05,3.51-.92.27-1.53-.76-2.24-1.16-.28-.16-.53.27-.25.43,1.11.65,2.12,2.09,3.4.72.6-.64.55-1.61.59-2.42.07-1.37.12-2.74.17-4.11.05-1.3.08-2.6.11-3.9,0-.36.01-.72.02-1.08.01-.49.32-1.18.85-1.34.39-.12,1.05.26,1.49.22,1.93-.19,1.72-2.93,1.55-4.24-.02-.13-.1-.26-.25-.25-1.31.08-2.61.17-3.92.25l.24.32c.31-.92.62-1.85.93-2.77.2-.6.66-1.44.53-2.1-.19-.91-1.15-.89-1.89-.87-.94.03-2.66-.36-3.11.72-.34.81-.33,2.03-.47,2.9-.16,1-.31,2-.47,3.01l.42-.11c-1.19-1.22-2.8-.39-3.13,1.14-.11.5-.17,1.43.25,1.83.61.57,2.25-.02,2.92-.11l-.32-.24c.37,4.07.36,8.16-.03,12.23-.03.32.47.32.5,0h0Z"/>
    </g>
    <g>
      <path class="cls-2" d="m144.55,21.61c0-.32.1-.99-.1-1.25-.31-.41-2.49-.09-3.02-.24-.73-.21-1.46-.42-2.18-.63-.56-.16-1.21-.32-1.71-.04-.39.21-.58.62-.74,1-.52,1.19-1.04,2.42-1.03,3.7.02,1.73,1.04,3.37,2.49,4.5,1.45,1.13,3.28,1.8,5.14,2.18.26.05.57.09.76-.08.15-.14.16-.35.15-.55-.05-1.07-.44-2.21-1.4-2.83-.6-.38-1.35-.53-1.98-.85-.64-.33-1.19-1-.94-1.62,1.01.4,3.41-.27,4.33-.82.92-.55.24-1.47.23-2.47Zm-3.16,2.21c-.35.13-.76.13-1.14.11-.69-.03-1.5-.18-1.8-.69-.11-.19-.13-.4-.13-.61.01-.37.12-.75.42-1.03.29-.28.8-.43,1.22-.29,2.03-.06,1.59,1.06,1.8,1.35.1.13.19.27.22.42.05.31-.24.61-.59.75Z"/>
      <g>
        <path class="cls-2" d="m144.8,21.61c.02-.75.15-1.53-.76-1.68-.82-.13-1.67.09-2.48-.05-.68-.12-1.36-.39-2.02-.58-.58-.17-1.22-.37-1.82-.2-.48.14-.78.5-1,.92-.3.6-.55,1.24-.77,1.87-.43,1.25-.58,2.56-.14,3.83.4,1.14,1.15,2.14,2.07,2.92.99.83,2.16,1.42,3.38,1.85.68.24,1.38.44,2.09.57.4.07.9.1,1.13-.31.24-.44.06-1.13-.06-1.59-.15-.57-.41-1.11-.81-1.54-.43-.47-1.01-.72-1.6-.94-.7-.26-2.07-.71-1.77-1.72l-.31.17c1.17.42,2.73-.07,3.83-.51.46-.19,1-.4,1.21-.89.28-.66-.13-1.45-.16-2.12-.01-.32-.51-.32-.5,0,.02.55.29,1.13.25,1.68-.05.61-.84.83-1.32,1-.94.33-2.19.71-3.17.37-.13-.05-.27.05-.31.17-.24.79.32,1.49.98,1.86.96.55,2.12.62,2.78,1.62.26.39.41.85.49,1.31.03.16.13.56.07.73-.17.47-.84.19-1.17.11-1.15-.27-2.28-.66-3.31-1.24-1.91-1.06-3.63-2.96-3.56-5.28.04-1.24.56-2.49,1.09-3.59.32-.67.81-.9,1.55-.76.62.12,1.23.33,1.83.51.42.12.84.28,1.28.3.37.02.75,0,1.12-.01.34,0,.88-.09,1.2.06.38.18.21.8.21,1.16,0,.32.49.32.5,0Z"/>
        <path class="cls-2" d="m141.32,23.57c-.41.14-.86.12-1.29.09-.33-.03-.69-.08-.99-.23-.36-.18-.5-.46-.47-.86.02-.38.19-.74.52-.93.36-.21.71-.09,1.1-.08.27,0,.57.03.82.15.17.08.24.16.32.3.03.06,0,0,.02.06.01.03.02.07.03.1.02.07.03.13.04.2.02.13.03.27.1.39.08.13.23.27.2.44-.03.19-.25.32-.41.38-.3.12-.17.6.13.48.4-.16.82-.5.77-.99-.02-.23-.15-.39-.27-.58-.02-.03.02.05,0,.01,0-.01,0-.03-.01-.04,0-.03-.01-.07-.02-.1-.07-.42-.17-.78-.54-1.03-.28-.19-.64-.25-.97-.27-.12,0-.24,0-.37-.01s-.24-.04-.36-.05c-.24-.02-.48.04-.69.13-.87.37-1.29,1.73-.59,2.45.33.34.84.47,1.29.54.57.08,1.2.13,1.75-.07.3-.1.17-.59-.13-.48Z"/>
      </g>
    </g>
    <g>
      <path class="cls-2" d="m221.03,24.65c0-.32.1-.99-.1-1.25-.31-.41-2.49-.09-3.02-.24-.73-.21-1.46-.42-2.18-.63-.56-.16-1.21-.32-1.71-.04-.39.21-.58.62-.74,1-.52,1.19-1.04,2.42-1.03,3.7.02,1.73,1.04,3.37,2.49,4.5s3.28,1.8,5.14,2.18c.26.05.57.09.76-.08.15-.14.16-.35.15-.55-.05-1.07-.44-2.21-1.4-2.83-.6-.38-1.35-.53-1.98-.85-.64-.33-1.19-1-.94-1.62,1.01.4,3.41-.27,4.33-.82.92-.55.24-1.47.23-2.47Zm-3.16,2.21c-.35.13-.76.13-1.14.11-.69-.03-1.5-.18-1.8-.69-.11-.19-.13-.4-.13-.61.01-.37.12-.75.42-1.03.29-.28.8-.43,1.22-.29,2.03-.06,1.59,1.06,1.8,1.35.1.13.19.27.22.42.05.31-.24.61-.59.75Z"/>
      <g>
        <path class="cls-2" d="m221.28,24.65c.02-.75.15-1.53-.76-1.68-.82-.13-1.67.09-2.48-.05-.68-.12-1.36-.39-2.02-.58-.58-.17-1.22-.37-1.82-.2-.48.14-.78.5-1,.92-.3.6-.55,1.24-.77,1.87-.43,1.25-.58,2.56-.14,3.83.4,1.14,1.15,2.14,2.07,2.92.99.83,2.16,1.42,3.38,1.85.68.24,1.38.44,2.09.57.4.07.9.1,1.13-.31.24-.44.06-1.13-.06-1.59-.15-.57-.41-1.11-.81-1.54-.43-.47-1.01-.72-1.6-.94-.7-.26-2.07-.71-1.77-1.72l-.31.17c1.17.42,2.73-.07,3.83-.51.46-.19,1-.4,1.21-.89.28-.66-.13-1.45-.16-2.12-.01-.32-.51-.32-.5,0,.02.55.29,1.13.25,1.68-.05.61-.84.83-1.32,1-.94.33-2.19.71-3.17.37-.13-.05-.27.05-.31.17-.24.79.32,1.49.98,1.86.96.55,2.12.62,2.78,1.62.26.39.41.85.49,1.31.03.16.13.56.07.73-.17.47-.84.19-1.17.11-1.15-.27-2.28-.66-3.31-1.24-1.91-1.06-3.63-2.96-3.56-5.28.04-1.24.56-2.49,1.09-3.59.32-.67.81-.9,1.55-.76.62.12,1.23.33,1.83.51.42.12.84.28,1.28.3.37.02.75,0,1.12-.01.34,0,.88-.09,1.2.06.38.18.21.8.21,1.16,0,.32.49.32.5,0Z"/>
        <path class="cls-2" d="m217.8,26.61c-.41.14-.86.12-1.29.09-.33-.03-.69-.08-.99-.23-.36-.18-.5-.46-.47-.86.02-.38.19-.74.52-.93.36-.21.71-.09,1.1-.08.27,0,.57.03.82.15.17.08.24.16.32.3.03.06,0,0,.02.06.01.03.02.07.03.1.02.07.03.13.04.2.02.13.03.27.1.39.08.13.23.27.2.44-.03.19-.25.32-.41.38-.3.12-.17.6.13.48.4-.16.82-.5.77-.99-.02-.23-.15-.39-.27-.58-.02-.03.02.05,0,.01,0-.01,0-.03-.01-.04,0-.03-.01-.07-.02-.1-.07-.42-.17-.78-.54-1.03-.28-.19-.64-.25-.97-.27-.12,0-.24,0-.37-.01s-.24-.04-.36-.05c-.24-.02-.48.04-.69.13-.87.37-1.29,1.73-.59,2.45.33.34.84.47,1.29.54.57.08,1.2.13,1.75-.07.3-.1.17-.59-.13-.48Z"/>
      </g>
    </g>
    <g>
      <path class="cls-2" d="m97.03,23.46c-.32-.98-1.16-1.72-2.09-2.17s-3.84-.72-4.86-.9c-1.87-.3-3.83-.07-5.58.64-.33.13-.66.29-.9.56-.28.31-.39.74-.5,1.15-.32,1.27-.65,2.55-.64,3.86,0,1.31.37,2.66,1.26,3.62.61.65,1.42,1.07,2.24,1.41,1.52.61,3.24.96,4.78.42,1.42-.5,2.49-1.67,3.72-2.55.64-.46,1.35-.85,1.84-1.47.59-.74.78-1.72.86-2.67.05-.64.06-1.29-.14-1.9Zm-4.33,3.55c-.22.37-.59.64-.96.86-1.42.82-3.15,1.07-4.74.69-.22-.05-.45-.12-.6-.29-.13-.14-.19-.34-.23-.53-.12-.5-.19-1.02-.22-1.54-.01-.22-.01-.45.11-.63.14-.21.41-.29.66-.36.96-.25,1.93-.47,2.91-.65.63.7,2.6.44,3.12,1.22.24.36.18.86-.04,1.24Z"/>
      <g>
        <path class="cls-2" d="m97.28,23.4c-.95-2.56-3.69-2.77-6.02-3.09-1.43-.2-2.81-.39-4.26-.2-1.18.16-3.12.47-3.78,1.6-.35.6-.46,1.38-.61,2.04-.21.93-.39,1.88-.38,2.84,0,1.4.41,2.86,1.42,3.88,1.08,1.09,2.78,1.72,4.27,1.97s3.02-.01,4.34-.91c.76-.52,1.43-1.15,2.17-1.7.68-.5,1.45-.91,2.01-1.56,1.06-1.23,1.28-3.38.86-4.9-.09-.31-.57-.18-.48.13.38,1.38.19,3.4-.81,4.5-.44.48-1.01.81-1.54,1.18s-.98.75-1.47,1.15c-1.19.96-2.4,1.73-3.98,1.7-1.4-.02-2.9-.52-4.1-1.24-2.88-1.73-2.26-5.28-1.54-8.02.23-.87.62-1.31,1.46-1.63.64-.24,1.32-.42,1.99-.53,1.3-.21,2.55-.1,3.84.08,2.2.31,5.22.32,6.15,2.8.11.3.59.17.48-.13Z"/>
        <path class="cls-2" d="m92.49,26.88c-.52.81-1.67,1.22-2.56,1.43-.95.22-2.01.25-2.95-.02-.25-.07-.42-.18-.51-.43-.09-.24-.12-.51-.16-.76-.07-.42-.3-1.3.18-1.54.22-.11.51-.15.75-.21.27-.07.55-.13.82-.2.55-.13,1.1-.24,1.65-.34l-.24-.06c.47.49,1.24.55,1.87.67.33.07.7.12.99.31.42.26.4.78.18,1.18-.16.28.28.53.43.25.28-.5.35-1.18-.07-1.63-.3-.33-.78-.45-1.2-.54-.49-.11-1.01-.15-1.48-.34-.19-.08-.35-.29-.54-.31-.14-.02-.31.05-.45.08-.25.05-.51.1-.76.16-.38.08-.76.17-1.14.26s-.77.15-1.1.33c-.64.35-.49,1.16-.41,1.77.09.65.14,1.48.82,1.78.61.26,1.39.31,2.05.29.82-.02,1.64-.18,2.4-.49.72-.29,1.45-.68,1.88-1.34.18-.27-.26-.52-.43-.25Z"/>
      </g>
    </g>
    <g>
      <path class="cls-2" d="m54.2,12.12c.16,6.61.31,13.21.47,19.82,0,.23.02.48.17.66.21.25.6.24.91.16,1.16-.33,1.96-1.45,2.25-2.62s.16-2.4.02-3.6c.98,2.07,2.11,4.06,3.39,5.96.19.28.44.59.78.57.26-.02.46-.23.6-.45,1-1.48.64-3.49-.02-5.15s-1.57-3.3-1.59-5.08c-.03-2.67,1.89-4.89,3.14-7.24.37-.7.69-1.51.42-2.25-.22-.6-.78-1.01-1.31-1.37-.63-.43-1.43-.86-2.11-.51-.72.37-.79,1.35-.88,2.16-.22,1.79-1.09,3.5-2.42,4.73-.32-2.01-.64-4.02-.96-6.03-.61-.21-2.33-.09-2.88.26"/>
      <path class="cls-2" d="m53.95,12.12c.15,6.17.29,12.33.44,18.5.02.66-.23,1.93.51,2.34.56.31,1.35-.07,1.81-.39,1.95-1.36,1.8-3.96,1.57-6.04l-.47.13c.81,1.7,1.72,3.36,2.73,4.95.4.63,1.02,2.06,1.99,1.61.88-.4,1.12-1.94,1.13-2.77.02-1.47-.55-2.84-1.11-4.17-.79-1.85-1.45-3.65-.85-5.67.5-1.66,1.54-3.09,2.41-4.57.55-.94,1.29-2.14.85-3.27-.4-1.02-1.87-2.04-2.96-2.12-1.15-.08-1.57.94-1.73,1.9-.32,2.03-.9,3.7-2.42,5.17l.42.11c-.32-2.01-.64-4.02-.96-6.03-.01-.08-.1-.15-.17-.17-.93-.25-2.2-.16-3.07.28-.29.15-.03.58.25.43.51-.26,1.15-.32,1.71-.33.15,0,.68-.06.79.05.14.14.18.99.21,1.16.25,1.58.5,3.16.76,4.73.03.19.29.23.42.11.93-.9,1.65-1.97,2.09-3.19.23-.65.34-1.31.43-1.98.05-.35.09-.9.29-1.21.58-.93,1.41-.47,2.01-.12,1.29.74,1.88,1.72,1.23,3.16-.29.63-.68,1.23-1.04,1.83-.76,1.26-1.58,2.51-2,3.93-.95,3.16,1.12,5.58,1.77,8.53.19.87.27,1.81-.01,2.67-.23.71-.59,1.3-1.35.7-.31-.24-.56-.85-.77-1.19-.97-1.54-1.83-3.14-2.62-4.78-.1-.22-.49-.12-.47.13.13,1.16.28,2.39-.01,3.54-.22.86-1,2.41-2.08,2.45-1.14.04-.81-2.5-.83-3.22l-.08-3.52c-.11-4.55-.22-9.1-.32-13.65,0-.32-.51-.32-.5,0h0Z"/>
    </g>
    <g>
      <path class="cls-2" d="m9.2,15.17c2.01,5.99,4.81,11.71,8.32,16.96.24.36.53.75.96.83.25.05.51-.03.75-.11,4.06-1.4,6.1-5.81,7.71-9.79.74-1.83,1.48-3.67,1.81-5.62.22-1.29.1-2.89-1.05-3.52-1.36-.74-2.98.49-3.78,1.82-1.69,2.81-1.99,6.46-4.36,8.72-1.74-2.97-3.47-5.94-5.21-8.9-.8-1.37-1.7-2.82-3.16-3.42-.59-.24-1.3-.32-1.86-.01s-.45,2.48-.13,3.04"/>
      <path class="cls-2" d="m8.96,15.24c1.54,4.57,3.52,8.99,5.94,13.16.57.98,1.16,1.95,1.78,2.91.38.59.8,1.52,1.49,1.82,1.34.58,3.45-1.18,4.34-2.03,2.74-2.62,4.17-6.5,5.46-9.98.65-1.75,1.5-3.97.98-5.86-.36-1.31-1.56-2.09-2.89-1.66-1.87.61-2.77,2.64-3.43,4.32-.88,2.24-1.49,4.63-3.24,6.38l.39.05c-1.28-2.2-2.57-4.39-3.85-6.59-1.03-1.76-1.97-3.95-3.62-5.24-.78-.6-2.62-1.43-3.36-.34-.52.76-.32,2.33.04,3.11.14.29.57.04.43-.25-.22-.48-.24-1.09-.23-1.6.02-.78.16-1.28,1.06-1.26,1.77.04,2.93,1.9,3.73,3.24,1.82,3.04,3.58,6.12,5.37,9.18.08.14.28.16.39.05,2.26-2.26,2.66-5.51,4.1-8.24.43-.81.97-1.57,1.76-2.05,1.09-.67,2.4-.39,2.82.9.57,1.75-.28,3.9-.87,5.53-1.14,3.14-2.43,6.53-4.62,9.11-.96,1.13-2.77,2.91-4.35,2.59-.74-.15-.87-.51-1.27-1.13-.28-.42-.55-.85-.81-1.28-.53-.86-1.05-1.73-1.55-2.61-2.23-3.94-4.06-8.09-5.51-12.39-.1-.3-.59-.17-.48.13h0Z"/>
    </g>
    <g>
      <path class="cls-2" d="m40.66,21.4l1.49,11.47c.02.12.05.26.16.31.1.04.2,0,.3-.06,1.32-.69,2.85-1.71,2.74-3.2-.05-.72-.5-1.35-.65-2.05-.34-1.6.89-3.07,2.03-4.25,1.14-1.18,2.37-2.65,2.03-4.25-1.9.71-3.62,1.9-4.95,3.43.45-.9.38-2.12-.4-2.75s-2.69.34-2.75,1.34"/>
      <path class="cls-2" d="m40.41,21.4l.94,7.24.48,3.69c.08.58.11,1.33.87,1.03,1.23-.47,2.75-1.67,2.89-3.07.09-.96-.56-1.74-.67-2.66-.14-1.17.57-2.22,1.29-3.07,1.3-1.52,3.16-3.02,2.79-5.25-.02-.12-.19-.22-.31-.17-1.95.75-3.68,1.93-5.06,3.5l.39.3c.48-1.04.47-2.98-.96-3.29-1.02-.22-2.5.61-2.65,1.69-.04.31.44.45.48.13.11-.78,1.09-1.36,1.83-1.35,1.25,0,1.23,1.76.86,2.57-.11.24.19.53.39.3,1.33-1.5,2.97-2.65,4.84-3.37l-.31-.17c.41,2.45-2.33,4-3.46,5.83-.45.73-.76,1.58-.64,2.45.15,1.07,1.01,2,.51,3.11-.19.43-.53.78-.88,1.07-.3.25-.85.73-1.24.83-.17.16-.32.11-.45-.13l-.07-.55-.11-.82-.25-1.91-1.03-7.92c-.04-.31-.54-.32-.5,0h0Z"/>
    </g>
    <g>
      <path class="cls-2" d="m100.27,32.67c-.3-3.44-.05-6.92.72-10.28.48-2.08,1.25-4.24,2.96-5.52.29-.22.65-.41,1-.32.24.06.43.24.6.42,1.82,1.92,2.99,4.43,3.31,7.05.8-1.21.9-2.73,1.34-4.11.44-1.38,1.49-2.8,2.94-2.78.99.02,1.86.74,2.33,1.61s.62,1.87.76,2.85c.41,2.86.83,5.73.79,8.62,0,.83-.14,1.81-.86,2.22-.9.51-2-.23-2.61-1.06-.97-1.31-1.47-2.97-1.39-4.6.01-.28.02-.62-.21-.79-.24-.18-.59-.04-.85.1-.74.39-1.48.78-2.22,1.17-.29.16-.61.31-.94.29-.72-.06-1.05-.93-1.15-1.65s-.19-1.58-.84-1.92c-.41,1.22-.81,2.43-1.22,3.65-.83,2.49-2.1,3.91-4.46,5.05"/>
      <path class="cls-2" d="m100.52,32.67c-.18-2.21-.16-4.42.09-6.62s.6-4.3,1.45-6.25c.36-.83.84-1.62,1.49-2.26.51-.5,1.19-1.02,1.82-.4.37.37.7.79,1,1.21,1.2,1.67,1.96,3.62,2.23,5.66.03.23.32.36.47.13,1.2-1.94.84-5.9,3.47-6.68,1.81-.54,2.89,1.43,3.21,2.88.34,1.55.51,3.18.69,4.76s.31,3.09.32,4.64c0,.63.05,1.39-.28,1.96-.61,1.09-1.77.58-2.46-.12-1.03-1.04-1.56-2.68-1.63-4.11-.03-.67.19-1.9-.88-1.79-1.14.12-3.4,2.56-4.24,1.08-.56-1-.13-2.27-1.21-2.99-.14-.09-.32,0-.37.15-.61,1.82-1.06,3.84-2.04,5.51-.83,1.4-2.09,2.33-3.52,3.04-.29.14-.04.57.25.43,1.44-.71,2.72-1.66,3.59-3.04,1.09-1.74,1.56-3.88,2.2-5.81l-.37.15c1.13.75.36,2.62,1.55,3.41s2.64-.93,3.71-1.22c.95-.26.8.37.82.94,0,.29.04.59.08.88.12.83.39,1.64.78,2.38.53,1.01,1.48,2.28,2.76,2.27,1.19,0,1.65-1.16,1.74-2.17.16-1.89-.09-3.87-.32-5.74-.21-1.75-.33-3.62-.84-5.3-.38-1.25-1.26-2.52-2.65-2.72-1.31-.19-2.38.74-3,1.8-.92,1.61-.82,3.59-1.81,5.18l.47.13c-.29-2.22-1.11-4.34-2.46-6.13-.45-.59-1.1-1.66-1.96-1.6s-1.64,1.01-2.1,1.62c-1.38,1.84-1.87,4.26-2.24,6.48-.45,2.74-.55,5.52-.33,8.29.03.32.53.32.5,0h0Z"/>
    </g>
    <g>
      <path class="cls-2" d="m154.96,12.75c.18,4.3-.76,9.18-2.18,13.25-1.12-.42-2.43-.26-3.42.41-.36.24-.67.54-.91.9-.83,1.27-1.71,3.54-.44,4.36,1.64,1.06,5.56,1.69,6.69.09s1.07-5.55,1.27-7.5c.41-3.86.82-7.73,1.23-11.59-.75-.06-1.51-.03-2.25.08Zm-1.42,16.5c-.09.26-.19.53-.39.72-.12.12-.27.2-.42.26-.83.34-1.89.15-2.45-.55-.13-.17-.24-.36-.27-.57-.03-.21.02-.44.17-.6.26-.27.69-.24,1.06-.19.43.17,1.96.3,2.25.66.03.04.07.09.07.14,0,.04-.01.09-.02.13Z"/>
      <g>
        <path class="cls-2" d="m154.71,12.75c.16,4.48-.72,8.96-2.17,13.18l.31-.17c-2.61-.85-4.7.81-5.48,3.23-.26.81-.43,1.87.17,2.58s1.73.98,2.55,1.17c1.63.38,4.09.56,5.02-1.17,1.06-1.96.9-4.57,1.07-6.73.31-4.06.85-8.12,1.28-12.17.01-.14-.13-.24-.25-.25-.78-.05-1.54-.02-2.32.09-.32.04-.18.53.13.48.73-.1,1.45-.12,2.19-.07l-.25-.25c-.38,3.61-.77,7.23-1.15,10.84-.25,2.39-.06,5.03-.91,7.31-.9,2.42-4.42,1.81-6.27.9-1.45-.71-1.01-2.28-.42-3.47.87-1.76,2.58-2.64,4.51-2.01.13.04.27-.05.31-.17,1.46-4.26,2.35-8.8,2.19-13.31-.01-.32-.51-.32-.5,0Z"/>
        <path class="cls-2" d="m153.31,29.18c-.1.29-.21.58-.49.74-.23.13-.51.21-.78.22-.54.03-1.1-.13-1.47-.53-.19-.2-.37-.5-.27-.79s.4-.3.65-.29c.2,0,.36.06.55.1.21.05.43.08.64.13.26.05.52.1.78.18.09.03.18.06.26.1.07.04.16.06.13.14-.09.31.39.44.48.13.21-.68-.77-.87-1.23-.97-.28-.06-.57-.11-.85-.17s-.52-.13-.8-.14c-.38-.01-.79.09-1,.43s-.17.8.03,1.15c.37.66,1.13,1.01,1.87,1.03.41.01.84-.08,1.21-.27.43-.22.62-.62.77-1.06.11-.3-.38-.44-.48-.13Z"/>
      </g>
    </g>
    <g>
      <path class="cls-2" d="m118.94,9.5c-.25,2.42.41,4.82.95,7.19,1.08,4.77,1.65,9.66,1.7,14.55,2.71-1.91.92-7.1,3.74-8.84.56-.35,1.23-.48,1.9-.51,1.36-.05,2.85.46,3.52,1.65.54.96.43,2.13.32,3.22-.15,1.42-.31,2.85-.46,4.27,1.03.09,2.03-.57,2.57-1.45.55-.88.71-1.95.71-2.98.02-3.49-1.99-7.22-5.37-8.09-.85-.22-1.79-.25-2.6.1s-1.48,1.1-1.55,1.98c-.14-3.63-1.01-7.24-2.55-10.53-.11-.23-.23-.48-.44-.63-.76-.54-1.64.53-2.45.07"/>
      <path class="cls-2" d="m118.69,9.5c-.29,3.5.97,6.93,1.58,10.34.67,3.76,1.02,7.58,1.07,11.4,0,.17.22.34.38.22,2.46-1.88,1.37-5.33,2.75-7.77,1.07-1.9,4.2-2.07,5.68-.53.99,1.03.79,2.54.65,3.83s-.29,2.7-.44,4.06c-.01.14.13.25.25.25,4.74.06,3.76-6.95,2.24-9.58-.94-1.62-2.42-2.96-4.26-3.44s-4.12.14-4.46,2.26l.49.07c-.13-2.88-.67-5.73-1.66-8.44-.3-.83-.66-2.34-1.4-2.89-.84-.62-1.69.34-2.56,0-.3-.12-.43.37-.13.48.87.34,1.85-.51,2.62.21.36.34.63,1.4.78,1.78.21.54.41,1.1.59,1.65.74,2.34,1.15,4.75,1.26,7.2.01.27.44.36.49.07.37-2.34,3.17-2.35,4.89-1.52,1.34.65,2.37,1.79,3.06,3.09,1.24,2.33,2.21,8.62-1.96,8.57l.25.25c.17-1.54.36-3.09.5-4.64.1-1.1.11-2.28-.54-3.23-1.03-1.49-3.33-1.86-4.95-1.29-3.92,1.37-1.53,6.94-4.4,9.14l.38.22c-.05-3.59-.36-7.17-.95-10.71s-2.02-7.33-1.71-11.03c.03-.32-.47-.32-.5,0h0Z"/>
    </g>
  </g>
</svg>