<?xml version="1.0" encoding="UTF-8"?>
<svg id="Layer_2" data-name="Layer 2" xmlns="http://www.w3.org/2000/svg" viewBox="0 0 132.47 44.28">
  <defs>
    <style>
      .cls-1 {
        fill: none;
      }

      .cls-2 {
        fill: #f6f6f6;
      }

      .cls-3 {
        fill: #be3428;
      }
    </style>
  </defs>
  <g id="Layer_1-2" data-name="Layer 1">
    <g>
      <path class="cls-3" d="m27.93,42.13c-4.81,1.79-10.84-5.32-13.15-1.19-1.18,2.11-6.2,4.92-8.76.99-1.11-1.7-1.62-2.28-2.23-4.48C2.34,32.1.93,22.42.07,16.91c-.13-.83-.12-11.38.28-12.1.33-.59.93-.91,1.5-1.16C8.53.66,15.98,1.42,23.15,1.63c9.94.29,19.87-.57,29.8-.97,16.68-.67,33.38-.03,50.06.6,4.78.18,9.71.4,14.02,2.74,1.16.63,2.32,1.42,3.6,1.42.79,0,1.54-.31,2.3-.54,3.44-1.05,7.91-.01,9.14,3.76.39,1.2.39,2.52.39,3.8-.02,5.73-.05,11.45-.07,17.18,0,2.19-.03,4.47-.88,6.45-1.1,2.57-3.45,4.23-5.91,4.95s-5.02.63-7.56.53c-8.35-.31-16.7-.63-25.06-.94-2.63-.1-5.33-.22-7.71-1.47-1.05-.55-2.02-1.32-3.14-1.67-.97-.3-2-.27-3-.2-9.75.67-19.15,4.77-28.92,5.19-7.44.32-14.93-1.51-22.29-.32"/>
      <rect class="cls-1" width="132.47" height="44.28"/>
    </g>
    <g>
      <path class="cls-2" d="m49.36,22.7c0-.32.1-.99-.1-1.25-.31-.41-2.49-.09-3.02-.24-.73-.21-1.46-.42-2.18-.63-.56-.16-1.21-.32-1.71-.04-.39.21-.58.62-.74,1-.52,1.19-1.04,2.42-1.03,3.7.02,1.73,1.04,3.37,2.49,4.5s3.28,1.8,5.14,2.18c.26.05.57.09.76-.08.15-.14.16-.35.15-.55-.05-1.07-.44-2.21-1.4-2.83-.6-.38-1.35-.53-1.98-.85-.64-.33-1.19-1-.94-1.62,1.01.4,3.41-.27,4.33-.82.92-.55.24-1.47.23-2.47Zm-3.16,2.21c-.35.13-.76.13-1.14.11-.69-.03-1.5-.18-1.8-.69-.11-.19-.13-.4-.13-.61.01-.37.12-.75.42-1.03.29-.28.8-.43,1.22-.29,2.03-.06,1.59,1.06,1.8,1.35.1.13.19.27.22.42.05.31-.24.61-.59.75Z"/>
      <g>
        <path class="cls-2" d="m49.61,22.7c.02-.75.15-1.53-.76-1.68-.82-.13-1.67.09-2.48-.05-.68-.12-1.36-.39-2.02-.58-.58-.17-1.22-.37-1.82-.2-.48.14-.78.5-1,.92-.3.6-.55,1.24-.77,1.87-.43,1.25-.58,2.56-.14,3.83.4,1.14,1.15,2.14,2.07,2.92.99.83,2.16,1.42,3.38,1.85.68.24,1.38.44,2.09.57.4.07.9.1,1.13-.31.24-.44.06-1.13-.06-1.59-.15-.57-.41-1.11-.81-1.54-.43-.47-1.01-.72-1.6-.94-.7-.26-2.07-.71-1.77-1.72l-.31.17c1.17.42,2.73-.07,3.83-.51.46-.19,1-.4,1.21-.89.28-.66-.13-1.45-.16-2.12-.01-.32-.51-.32-.5,0,.02.55.29,1.13.25,1.68-.05.61-.84.83-1.32,1-.94.33-2.19.71-3.17.37-.13-.05-.27.05-.31.17-.24.79.32,1.49.98,1.86.96.55,2.12.62,2.78,1.62.26.39.41.85.49,1.31.03.16.13.56.07.73-.17.47-.84.19-1.17.11-1.15-.27-2.28-.66-3.31-1.24-1.91-1.06-3.63-2.96-3.56-5.28.04-1.24.56-2.49,1.09-3.59.32-.67.81-.9,1.55-.76.62.12,1.23.33,1.83.51.42.12.84.28,1.28.3.37.02.75,0,1.12-.01.34,0,.88-.09,1.2.06.38.18.21.8.21,1.16,0,.32.49.32.5,0Z"/>
        <path class="cls-2" d="m46.14,24.67c-.41.14-.86.12-1.29.09-.33-.03-.69-.08-.99-.23-.36-.18-.5-.46-.47-.86.02-.38.19-.74.52-.93.36-.21.71-.09,1.1-.08.27,0,.57.03.82.15.17.08.24.16.32.3.03.06,0,0,.02.06.01.03.02.07.03.1.02.07.03.13.04.2.02.13.03.27.1.39.08.13.23.27.2.44-.03.19-.25.32-.41.38-.3.12-.17.6.13.48.4-.16.82-.5.77-.99-.02-.23-.15-.39-.27-.58-.02-.03.02.05,0,.01,0-.01,0-.03-.01-.04,0-.03-.01-.07-.02-.1-.07-.42-.17-.78-.54-1.03-.28-.19-.64-.25-.97-.27-.12,0-.24,0-.37-.01s-.24-.04-.36-.05c-.24-.02-.48.04-.69.13-.87.37-1.29,1.73-.59,2.45.33.34.84.47,1.29.54.57.08,1.2.13,1.75-.07.3-.1.17-.59-.13-.48Z"/>
      </g>
    </g>
    <g>
      <path class="cls-2" d="m59.95,22.14c-.51-.08-.88-.51-.84-1.02.08-.81-.02-1.84.01-2.35.16-2.92,1.47-3.97.85-6.97-.03-.15-.11-.76-.23-.86-.12-.1-.29-.1-.45-.09-.29.02-.71-.03-1.13-.05-.53-.03-.99.39-1.01.93-.25,5.81-.01,11.63.72,17.4.08.67.82,1.05,1.42.74.97-.51,1.88-1.11,2.72-1.8.98-.8,1.94-1.89,1.84-3.15-.1-1.29-2.24-2.5-3.91-2.77Zm.97,6.03c-.27.17-.57.16-.87.14-.53-.04-1.14-.23-1.36-.89-.08-.24-.1-.51-.1-.78,0-.47.09-.96.32-1.32.22-.36.61-.55.92-.37,1.54-.07,1.21,1.35,1.37,1.72.07.17.15.34.17.54.04.4-.18.79-.45.95Z"/>
      <g>
        <path class="cls-2" d="m60.02,21.9c-.93-.26-.65-2.1-.65-2.83,0-.94.2-1.85.45-2.75.37-1.32.69-2.55.51-3.92-.05-.42-.07-1.27-.38-1.6s-1.37-.26-1.77-.24c-1.58.1-1.3,1.89-1.33,3.03-.11,4.33.05,8.66.49,12.97.09.88.03,2.05.36,2.88.16.39.49.68.91.76.62.12,1.17-.29,1.67-.6.75-.46,1.48-.97,2.15-1.55,1.01-.89,2.22-2.43,1.48-3.84-.7-1.34-2.5-2.05-3.89-2.31-.31-.06-.45.42-.13.48,1.22.23,2.78.79,3.48,1.89.97,1.52-.89,3.15-1.99,3.97-.56.42-1.15.84-1.78,1.16-.14.07-.62.36-.76.31-.25-.08-.71-.92-.77-1.15-.12-.4-.1-.88-.15-1.29-.17-1.6-.31-3.2-.41-4.81-.2-3.21-.24-6.43-.14-9.64,0-.15-.03-.58.03-.74.11-.3.66-.98.93-1.04.21-.04.64,0,.85.05.68.14.66,1.23.7,1.81.07,1.18-.27,2.27-.58,3.39-.34,1.23-.43,2.4-.41,3.67.02,1.03-.22,2.07.99,2.41.31.09.44-.39.13-.48Z"/>
        <path class="cls-2" d="m60.79,27.96c-.3.17-.7.14-1.03.06-.26-.06-.52-.17-.69-.39-.25-.32-.25-.77-.23-1.16.02-.36.09-.77.3-1.07.09-.12.22-.25.37-.27.05,0,.09,0,.14.01.11.04.19.05.31.05.21,0,.45.05.6.18.26.22.29.59.32.92.02.19.04.37.11.55.09.21.15.42.09.65-.05.18-.15.35-.3.46-.27.18-.02.61.25.43.39-.26.62-.73.57-1.2-.02-.22-.12-.4-.18-.61-.01-.03-.02-.07-.02-.1,0-.05,0,.04,0,0,0-.03,0-.05,0-.08-.04-.48-.08-1.02-.47-1.36-.3-.27-.7-.34-1.09-.32l.13.03c-.41-.22-.87-.05-1.15.3-.31.38-.41.88-.45,1.35s-.02,1.04.27,1.46c.22.32.56.53.93.63.48.13,1.05.16,1.49-.09.28-.16.03-.59-.25-.43Z"/>
      </g>
    </g>
    <g>
      <path class="cls-2" d="m76.1,20.06c1.33.12,2.72.06,3.86-.64.18-.11.36-.25.45-.44.23-.47-.13-1.02-.53-1.35-1.2-1.01-2.97-1.29-4.43-.7s-2.52,2.03-2.67,3.6c-.03.33-.02.67.09.98.11.29.31.55.55.75,1.17,1.02,2.94.9,4.33,1.59.76.38,1.37.98,1.97,1.58.29.3.6.62.69,1.02.18.82-.62,1.58-1.45,1.72s-1.66-.13-2.48-.3c-1.01-.21-2.05-.27-3.08-.31-.45-.02-.92-.03-1.31.17s-.68.7-.49,1.11c.12.26.4.41.66.53,2.77,1.29,5.94,1.69,8.94,1.13.24-.04.49-.1.7-.23.24-.15.42-.39.55-.64.93-1.69.29-3.91-1.07-5.28s-3.27-2.02-5.17-2.39c-.45-.09-.91-.17-1.27-.45s-.56-.82-.3-1.2c.3-.43.94-.37,1.45-.27"/>
      <path class="cls-2" d="m76.1,20.31c1.11.09,5.41,0,4.52-2.12-.73-1.74-3.48-2.12-5.04-1.57-1.76.62-3.2,2.49-3.05,4.41.16,2.22,3.04,2.28,4.61,2.84.67.24,1.23.63,1.76,1.11.45.41,1.26,1.03,1.3,1.68.06.83-.91,1.28-1.6,1.32-.77.05-1.54-.24-2.3-.38-1.14-.21-2.48-.4-3.64-.26-.7.08-1.53.61-1.35,1.43s1.54,1.16,2.23,1.4c1.16.4,2.37.66,3.59.77s2.46.08,3.67-.11c1.03-.16,1.66-.46,2.07-1.47.84-2.1-.29-4.47-1.99-5.77-.95-.73-2.08-1.2-3.23-1.53-.61-.17-1.23-.27-1.84-.43-.33-.09-.98-.3-1-.73-.02-.37.23-.63.57-.66.22-.02.44.03.65.07.31.06.45-.42.13-.48-.58-.11-1.36-.2-1.74.38-.33.51-.07,1.17.37,1.52.66.54,1.72.55,2.51.76.98.26,1.94.63,2.79,1.17,1.71,1.09,3.03,3.22,2.38,5.29-.19.61-.52,1.12-1.16,1.29-.57.15-1.2.2-1.79.24-1.18.08-2.37.02-3.53-.18s-2.31-.54-3.39-1.02c-.15-.07-.41-.14-.53-.26-.44-.47-.2-.97.39-1.13s1.25-.04,1.84,0c1.23.08,2.39.4,3.6.56.81.11,1.67,0,2.27-.61,1.38-1.39-.5-2.96-1.61-3.76-.75-.55-1.6-.79-2.49-1-.97-.23-2.23-.44-2.81-1.34-.7-1.07.09-2.72.85-3.54s1.87-1.32,3.03-1.29c.96.02,4.01.97,2.68,2.33-.41.42-1.4.56-1.95.62-.59.06-1.19.04-1.78-.01-.32-.03-.32.47,0,.5h0Z"/>
    </g>
    <g>
      <path class="cls-2" d="m90.47,22.3l-.73,5.87c-.11.86-.11,1.92.64,2.34.6.34,1.4.02,1.82-.53s.56-1.25.69-1.93c.33-1.78.67-3.57,1-5.35.02-.12.04-.26-.04-.35-.07-.08-.19-.08-.3-.08-.82,0-2.26.01-3.08.02"/>
      <path class="cls-2" d="m90.22,22.3c-.24,1.9-.48,3.81-.71,5.71-.13,1.05-.15,2.73,1.26,2.88,1.57.17,2.13-1.56,2.36-2.77.17-.92.34-1.84.51-2.75.08-.45.17-.89.25-1.34s.22-.92.25-1.38c.05-.77-.82-.62-1.34-.61-.78,0-1.56,0-2.34.02-.32,0-.32.5,0,.5.53,0,1.07,0,1.6-.01.28,0,.57,0,.85,0,.19,0,.63-.09.73.11.05.1-.08.43-.1.55-.03.18-.07.37-.1.55-.07.37-.14.73-.21,1.1-.14.73-.27,1.47-.41,2.2-.21,1.1-.32,3.22-1.8,3.36s-1.06-2.06-.95-2.88l.65-5.22c.04-.32-.46-.32-.5,0h0Z"/>
    </g>
    <g>
      <path class="cls-2" d="m90.8,17.9c.73.05,2.03,1.69,2.67,1.34s1.09-1.17.77-1.83c-.29-.61-1.11-.82-1.76-.63s-1.18.66-1.68,1.12"/>
      <path class="cls-2" d="m90.8,18.52c.1,0-.17-.05-.07,0,.02,0,.05.02.08.02.15.04-.13-.07.01,0,.12.07.24.14.36.21.25.17.49.36.74.55.49.36,1.13.79,1.75.53.78-.33,1.38-1.25,1.29-2.11-.11-.99-.96-1.58-1.91-1.63-1.07-.05-1.94.68-2.69,1.36-.24.22-.24.66,0,.88.26.24.63.24.88,0,.14-.13.28-.26.42-.38.03-.02.06-.05.09-.07,0,0,.14-.11.07-.06s.08-.06.07-.05c.05-.03.09-.07.14-.1.08-.05.16-.1.24-.14.03-.02.07-.04.1-.05.01,0,.18-.08.06-.03.08-.03.16-.06.23-.08.04,0,.07-.02.11-.03.13-.03-.13,0,.02,0,.08,0,.15,0,.23,0,.03,0,.06,0,.09,0,.15,0-.09-.03,0,0,.06.02.13.03.2.05.04.01.17.03.02,0,.04,0,.08.04.12.06.03.01.05.03.08.05.12.06-.05-.07,0,0,.03.04.13.09.14.14l-.04-.06s.03.05.05.07c.02.03.03.05.04.08-.06-.12-.02-.04,0,0,0,.02.01.04.02.07.01.07.01.06,0-.03.03.04,0,.15,0,.21.01.08.03-.14,0,0,0,.03-.01.06-.02.09-.01.04-.03.07-.04.11-.03.09.07-.13,0,0-.04.08-.09.15-.14.23-.05.08.1-.11,0,0-.02.02-.04.05-.07.07-.03.03-.21.18-.09.09-.06.05-.14.08-.2.13-.03.02-.14.04.08-.04-.11.04.04-.01.07,0-.01,0-.06,0-.07,0-.06,0-.03-.06.09.01-.03-.02-.1-.03-.14-.04-.15-.05.12.07-.02,0-.05-.03-.1-.05-.15-.08-.22-.13-.43-.29-.64-.44-.48-.36-.96-.77-1.59-.83-.33-.03-.64.31-.62.62.02.36.28.59.62.62h0Z"/>
    </g>
    <g>
      <path class="cls-2" d="m101.27,32.21c.41-4.06.42-8.17.03-12.23l-2.09.29c-.2.03-.43.05-.59-.11-.09-.1-.14-.24-.18-.39-.21-.87.05-1.91.66-2.43s1.52-.45,2.04.2c.29-1.86.58-3.72.87-5.58.03-.22.07-.45.21-.6.15-.17.36-.18.56-.19.87-.03,1.73-.06,2.6-.09.47-.02,1.08.08,1.21.64.06.28-.03.57-.12.84-.44,1.32-.89,2.64-1.33,3.96,1.31-.08,2.61-.17,3.92-.25.11.77.21,1.56.07,2.32s-.58,1.49-1.2,1.65c-.46.11-.92-.09-1.38-.18s-1.01,0-1.25.5c-.12.25-.13.56-.13.85-.06,3.32-.17,6.64-.34,9.95-.02.38-.04.77-.18,1.12-.26.66-.89.99-1.49.99s-1.36-1.01-1.92-1.27"/>
      <path class="cls-2" d="m101.52,32.21c.39-4.07.41-8.16.03-12.23-.02-.18-.15-.26-.32-.24-.82.11-2.59.65-2.61-.57s1.15-2.68,2.35-1.45c.12.12.39.08.42-.11.18-1.14.36-2.29.53-3.43.09-.56.12-1.17.27-1.72.1-.37.19-.83.6-1.03.26-.13.8-.03,1.08-.04.46-.02,1.21-.19,1.64-.05.31.1.76.71.77,1.03,0,.22-.17.53-.24.73-.38,1.12-.75,2.24-1.13,3.37-.05.15.08.33.24.32,1.31-.08,2.61-.17,3.92-.25l-.25-.25c.15,1.09.53,3.63-1.22,3.75-.69.05-1.24-.45-1.94-.11-1.14.54-.74,2.48-.76,3.45-.05,2.09-.12,4.18-.22,6.28-.04,1,.23,3.14-1.05,3.51-.92.27-1.53-.76-2.24-1.16-.28-.16-.53.27-.25.43,1.11.65,2.12,2.09,3.4.72.6-.64.55-1.61.59-2.42.07-1.37.12-2.74.17-4.11.05-1.3.08-2.6.11-3.9,0-.36.01-.72.02-1.08.01-.49.32-1.18.85-1.34.39-.12,1.05.26,1.49.22,1.93-.19,1.72-2.93,1.55-4.24-.02-.13-.1-.26-.25-.25-1.31.08-2.61.17-3.92.25l.24.32c.31-.92.62-1.85.93-2.77.2-.6.66-1.44.53-2.1-.19-.91-1.15-.89-1.89-.87-.94.03-2.66-.36-3.11.72-.34.81-.33,2.03-.47,2.9-.16,1-.31,2-.47,3.01l.42-.11c-1.19-1.22-2.8-.39-3.13,1.14-.11.5-.17,1.43.25,1.83.61.57,2.25-.02,2.92-.11l-.32-.24c.37,4.07.36,8.16-.03,12.23-.03.32.47.32.5,0h0Z"/>
    </g>
    <g>
      <path class="cls-2" d="m123.09,23.14c0-.32.1-.99-.1-1.25-.31-.41-2.49-.09-3.02-.24-.73-.21-1.46-.42-2.18-.63-.56-.16-1.21-.32-1.71-.04-.39.21-.58.62-.74,1-.52,1.19-1.04,2.42-1.03,3.7.02,1.73,1.04,3.37,2.49,4.5s3.28,1.8,5.14,2.18c.26.05.57.09.76-.08.15-.14.16-.35.15-.55-.05-1.07-.44-2.21-1.4-2.83-.6-.38-1.35-.53-1.98-.85-.64-.33-1.19-1-.94-1.62,1.01.4,3.41-.27,4.33-.82.92-.55.24-1.47.23-2.47Zm-3.16,2.21c-.35.13-.76.13-1.14.11-.69-.03-1.5-.18-1.8-.69-.11-.19-.13-.4-.13-.61.01-.37.12-.75.42-1.03.29-.28.8-.43,1.22-.29,2.03-.06,1.59,1.06,1.8,1.35.1.13.19.27.22.42.05.31-.24.61-.59.75Z"/>
      <g>
        <path class="cls-2" d="m123.34,23.14c.02-.75.15-1.53-.76-1.68-.82-.13-1.67.09-2.48-.05-.68-.12-1.36-.39-2.02-.58-.58-.17-1.22-.37-1.82-.2-.48.14-.78.5-1,.92-.3.6-.55,1.24-.77,1.87-.43,1.25-.58,2.56-.14,3.83.4,1.14,1.15,2.14,2.07,2.92.99.83,2.16,1.42,3.38,1.85.68.24,1.38.44,2.09.57.4.07.9.1,1.13-.31.24-.44.06-1.13-.06-1.59-.15-.57-.41-1.11-.81-1.54-.43-.47-1.01-.72-1.6-.94-.7-.26-2.07-.71-1.77-1.72l-.31.17c1.17.42,2.73-.07,3.83-.51.46-.19,1-.4,1.21-.89.28-.66-.13-1.45-.16-2.12-.01-.32-.51-.32-.5,0,.02.55.29,1.13.25,1.68-.05.61-.84.83-1.32,1-.94.33-2.19.71-3.17.37-.13-.05-.27.05-.31.17-.24.79.32,1.49.98,1.86.96.55,2.12.62,2.78,1.62.26.39.41.85.49,1.31.03.16.13.56.07.73-.17.47-.84.19-1.17.11-1.15-.27-2.28-.66-3.31-1.24-1.91-1.06-3.63-2.96-3.56-5.28.04-1.24.56-2.49,1.09-3.59.32-.67.81-.9,1.55-.76.62.12,1.23.33,1.83.51.42.12.84.28,1.28.3.37.02.75,0,1.12-.01.34,0,.88-.09,1.2.06.38.18.21.8.21,1.16,0,.32.49.32.5,0Z"/>
        <path class="cls-2" d="m119.87,25.1c-.41.14-.86.12-1.29.09-.33-.03-.69-.08-.99-.23-.36-.18-.5-.46-.47-.86.02-.38.19-.74.52-.93.36-.21.71-.09,1.1-.08.27,0,.57.03.82.15.17.08.24.16.32.3.03.06,0,0,.02.06.01.03.02.07.03.1.02.07.03.13.04.2.02.13.03.27.1.39.08.13.23.27.2.44-.03.19-.25.32-.41.38-.3.12-.17.6.13.48.4-.16.82-.5.77-.99-.02-.23-.15-.39-.27-.58-.02-.03.02.05,0,.01,0-.01,0-.03-.01-.04,0-.03-.01-.07-.02-.1-.07-.42-.17-.78-.54-1.03-.28-.19-.64-.25-.97-.27-.12,0-.24,0-.37-.01s-.24-.04-.36-.05c-.24-.02-.48.04-.69.13-.87.37-1.29,1.73-.59,2.45.33.34.84.47,1.29.54.57.08,1.2.13,1.75-.07.3-.1.17-.59-.13-.48Z"/>
      </g>
    </g>
    <g>
      <path class="cls-2" d="m16.04,15.92c.4,4.66,1.78,9.24,4.01,13.35.77,1.42,1.74,2.87,3.23,3.5.41.18.89.28,1.31.12.41-.15.7-.53.95-.9,1.36-2.06,2.08-4.55,2.03-7.02.34,1.99.98,3.93,1.88,5.73.25.49.52.99.95,1.34.88.73,2.23.64,3.21.05s1.65-1.57,2.19-2.58c1.88-3.55,2.45-7.62,2.99-11.6.17-1.25.32-2.61-.34-3.68-.95-1.54-3.55-1.63-4.59-.15-.47.67-.62,1.5-.76,2.31-.37,2.15-.74,4.3-1.11,6.45-.42-.9-.86-1.83-1.57-2.53s-1.77-1.14-2.72-.85c-1.66.5-2.06,2.69-3.4,3.79-1.28-2.21-2.57-4.42-3.85-6.63-.49-.84-1.02-1.73-1.89-2.18s-2.18.54-2.5,1.47"/>
      <path class="cls-2" d="m15.79,15.92c.26,2.82.83,5.6,1.76,8.28.83,2.4,1.87,5,3.45,7.02,1.06,1.35,3.15,2.93,4.56,1.18,1.61-2.02,2.26-4.89,2.25-7.42l-.49.07c.32,1.75.83,3.44,1.56,5.06.53,1.18,1.15,2.43,2.55,2.67,2.99.52,4.63-2.94,5.51-5.19,1.29-3.32,1.91-7.08,2.2-10.62.1-1.27-.04-2.7-1.1-3.54-.82-.65-2-.81-2.98-.49-1.31.42-1.86,1.6-2.12,2.87-.47,2.31-.81,4.65-1.21,6.97l.46-.06c-.79-1.7-2.15-4.03-4.41-3.53-1.88.42-2.38,2.73-3.67,3.89l.39.05c-.83-1.43-1.66-2.86-2.49-4.29-.7-1.21-1.33-2.54-2.2-3.63-.52-.64-1.2-1.25-2.08-1.08s-1.56.89-1.9,1.66c-.13.29.3.55.43.25.53-1.22,1.81-1.89,2.87-.84.71.7,1.16,1.68,1.65,2.53,1.1,1.89,2.19,3.77,3.29,5.66.08.15.27.16.39.05,1.01-.91,1.42-2.28,2.4-3.19,2.18-2.01,4.08,1.01,4.89,2.72.09.19.42.15.46-.06.32-1.86.64-3.73.96-5.59.27-1.55.42-3.55,2.27-3.97,4.73-1.08,2.9,6.32,2.47,8.69-.3,1.64-.68,3.28-1.24,4.85s-1.3,3.38-2.56,4.52c-.76.68-1.82,1.11-2.84.81-.95-.28-1.39-1.18-1.78-2.01-.8-1.69-1.34-3.47-1.68-5.31-.05-.28-.49-.21-.49.07,0,2.3-.55,4.61-1.78,6.56-1.92,3.04-4.53-1.01-5.45-2.75-2.11-3.99-3.38-8.38-3.79-12.87-.03-.32-.53-.32-.5,0h0Z"/>
    </g>
  </g>
</svg>