<?xml version="1.0" encoding="UTF-8"?>
<svg id="Layer_2" data-name="Layer 2" xmlns="http://www.w3.org/2000/svg" viewBox="0 0 132.47 44.28">
  <defs>
    <style>
      .cls-1 {
        fill: none;
      }

      .cls-2 {
        fill: #fff;
      }

      .cls-3 {
        fill: #be3428;
      }
    </style>
  </defs>
  <g id="Layer_1-2" data-name="Layer 1">
    <g>
      <path class="cls-3" d="m27.93,42.13c-4.81,1.79-10.84-5.32-13.15-1.19-1.18,2.11-6.2,4.92-8.76.99-1.11-1.7-1.62-2.28-2.23-4.48C2.34,32.1.93,22.42.07,16.91c-.13-.83-.12-11.38.28-12.1.33-.59.93-.91,1.5-1.16C8.53.66,15.98,1.42,23.15,1.63c9.94.29,19.87-.57,29.8-.97,16.68-.67,33.38-.03,50.06.6,4.78.18,9.71.4,14.02,2.74,1.16.63,2.32,1.42,3.6,1.42.79,0,1.54-.31,2.3-.54,3.44-1.05,7.91-.01,9.14,3.76.39,1.2.39,2.52.39,3.8-.02,5.73-.05,11.45-.07,17.18,0,2.19-.03,4.47-.88,6.45-1.1,2.57-3.45,4.23-5.91,4.95s-5.02.63-7.56.53c-8.35-.31-16.7-.63-25.06-.94-2.63-.1-5.33-.22-7.71-1.47-1.05-.55-2.02-1.32-3.14-1.67-.97-.3-2-.27-3-.2-9.75.67-19.15,4.77-28.92,5.19-7.44.32-14.93-1.51-22.29-.32"/>
      <path class="cls-2" d="m8.75,9.23c.18,4.19.73,8.36,1.67,12.44.44,1.91.97,3.81,1.58,5.67.48,1.46,1,3.18,2.39,4.04,2.95,1.83,6.1-1.6,7.51-3.88,1.77-2.86,2.46-6.26,3.07-9.52l-2.46-.33c-.32,5.17-.49,10.54,2.05,15.23.43.79,1.75.84,2.16,0,3.82-7.76,6.4-16.07,7.57-24.65.21-1.57-2.19-2.25-2.41-.66-1.14,8.36-3.59,16.49-7.31,24.05h2.16c-2.31-4.27-2-9.28-1.71-13.97.09-1.39-2.2-1.72-2.46-.33-.49,2.6-.99,5.29-2.15,7.69-.69,1.42-3.81,6.27-5.33,3.46-.72-1.33-1.06-2.94-1.47-4.39-.45-1.6-.84-3.22-1.17-4.84-.67-3.3-1.05-6.64-1.2-10-.07-1.6-2.57-1.61-2.5,0h0Z"/>
      <path class="cls-2" d="m38.43,22.92l5.57.05c1.31.01,2.92-.12,3.59-1.45.75-1.49-.5-3.11-1.71-3.89s-2.75-.96-4.13-.67c-5.54,1.19-9.16,10.23-4.47,14.23,2.17,1.85,5.57,2.3,7.75.21,1.16-1.12-.61-2.88-1.77-1.77-1.01.97-2.6.82-3.85.05-1.48-.93-1.99-2.86-1.67-4.6.36-1.96,1.49-3.98,3.19-5.08.75-.48,1.61-.78,2.5-.65.4.06.77.19,1.11.4.1.06.81.8.76.81-.12.02.16-.25.15-.26.02.04-.45.15-.54.17-.47.06-1.21,0-1.76,0l-4.72-.04c-1.61-.01-1.61,2.49,0,2.5h0Z"/>
      <path class="cls-2" d="m54.41,8.36c.34,7.07.26,14.14-.23,21.2-.09,1.24,1.77,1.7,2.33.63,1.08-2.06.96-4.92,2.52-6.7,1.71-1.95,3.67.27,4.23,2.02.62,1.97.28,4.53-1.86,5.36-1.92.74-4.22.26-6.14-.19-1.57-.37-2.23,2.04-.66,2.41,2.76.65,6.15,1.21,8.71-.38,2.71-1.68,3.28-5.33,2.26-8.17-.93-2.6-3.43-5.12-6.41-4.09-3.69,1.28-3.3,5.62-4.8,8.48l2.33.63c.49-7.06.57-14.13.23-21.2-.08-1.6-2.58-1.61-2.5,0h0Z"/>
      <path class="cls-2" d="m78.55,17.45c-2.3-1.17-4.34.54-5.59,2.4-.64.95-1.26,2.11-.93,3.28.31,1.1,1.31,1.82,2.34,2.18.89.31,2.22.16,2.89.9.47.52.49,1.34.34,1.99-.48,2.04-2.91,2.98-4.62,3.74-.62.27-.76,1.17-.45,1.71.37.64,1.09.72,1.71.45,1.95-.86,3.99-1.87,5.15-3.74.96-1.56,1.11-3.75.1-5.32-.57-.89-1.47-1.44-2.48-1.7-.57-.15-2.27-.14-2.55-.83-.2-.49.8-1.64,1.13-2,.37-.41,1.07-1.2,1.69-.89,1.43.73,2.7-1.43,1.26-2.16h0Z"/>
      <path class="cls-2" d="m88.74,23.02v8.89c0,.68.57,1.25,1.25,1.25s1.25-.57,1.25-1.25v-8.89c0-.68-.57-1.25-1.25-1.25s-1.25.57-1.25,1.25h0Z"/>
      <path class="cls-2" d="m90.88,15.82c1.61,0,1.61-2.5,0-2.5s-1.61,2.5,0,2.5h0Z"/>
      <path class="cls-2" d="m102.93,14.13c.4,6.03-.17,12.05-1.72,17.88-.41,1.56,2,2.22,2.41.66,1.61-6.04,2.23-12.31,1.81-18.55-.11-1.6-2.61-1.61-2.5,0h0Z"/>
      <path class="cls-2" d="m99.77,24.68c3.08.23,6.17.06,9.22-.46.67-.11,1.04-.93.87-1.54-.19-.71-.87-.99-1.54-.87-2.82.48-5.7.58-8.56.37-.67-.05-1.25.61-1.25,1.25,0,.72.57,1.2,1.25,1.25h0Z"/>
      <path class="cls-2" d="m116.21,25.58c2.54.15,5.92.05,7.35-2.48.86-1.52.08-3.15-1.46-3.76-1.16-.45-2.57-.34-3.74.03-2.47.77-4.38,2.76-5.66,4.95-1.21,2.07-2.76,5.55-.46,7.45,1.18.97,2.77,1.03,4.21.76s2.85-1.17,4.29-.7c.64.21,1.36-.24,1.54-.87.19-.68-.23-1.33-.87-1.54-1.21-.4-2.48-.2-3.69.15-.98.28-1.84.63-2.78.61-.27,0-.23,0-.45-.04-.09-.02-.18-.04-.27-.07-.04-.01-.29-.13-.14-.05-.27-.13-.43-.22-.51-.62-.16-.82.29-1.8.61-2.52.74-1.64,1.84-3.31,3.32-4.33.75-.51,1.48-.86,2.39-.98,0,0,.3-.02.43-.02.13,0,.26,0,.39,0,.03,0,.33.05.17.02.1.02.43.12.38.1-.03-.01.31.21.21.13-.11-.09,0-.03.01.05-.03-.14.05-.23-.05-.13-.03.03-.13.25-.13.26-.11.15-.28.29-.43.4-.42.31-.86.46-1.37.57-1.06.24-2.2.17-3.3.11-.67-.04-1.25.6-1.25,1.25,0,.71.57,1.21,1.25,1.25h0Z"/>
      <rect class="cls-1" width="132.47" height="44.28"/>
    </g>
  </g>
</svg>